<svg width="800" height="858" viewBox="0 0 800 858" fill="none" xmlns="http://www.w3.org/2000/svg">
<g opacity="0.9">
<path d="M503.351 808.841V692.155C503.351 687.62 499.551 683.931 494.876 683.931H294.528C289.854 683.931 286.054 687.62 286.054 692.155V808.845V822.916C286.054 827.451 289.854 831.138 294.528 831.138H370.86L369.94 846.063H368.088C362.687 846.063 358.291 850.326 358.291 855.566C358.291 856.833 359.348 857.857 360.652 857.857H428.75C430.054 857.857 431.112 856.831 431.112 855.566C431.112 850.326 426.718 846.063 421.314 846.063H419.651L418.569 831.138H494.876C499.551 831.138 503.351 827.451 503.351 822.916V808.845V808.841ZM290.779 692.155C290.779 690.147 292.462 688.515 294.528 688.515H494.876C496.943 688.515 498.626 690.147 498.626 692.155V806.552H290.779V692.155ZM414.918 846.063H374.672L375.592 831.138H413.834L414.918 846.063ZM498.626 822.916C498.626 824.923 496.943 826.554 494.874 826.554H416.036H373.369H294.528C292.462 826.554 290.779 824.923 290.779 822.916V811.136H498.628L498.626 822.916Z" fill="#3455FF" fill-opacity="0.4"/>
<path d="M395.913 822.129C397.909 822.129 399.535 820.553 399.535 818.617C399.535 816.679 397.909 815.102 395.913 815.102C393.917 815.102 392.292 816.679 392.292 818.617C392.292 820.555 393.915 822.129 395.913 822.129ZM395.913 818.273C396.109 818.273 396.266 818.429 396.266 818.617C396.266 818.994 395.561 818.994 395.561 818.617C395.559 818.429 395.718 818.273 395.913 818.273Z" fill="#3455FF" fill-opacity="0.4"/>
</g>
<path d="M45.5464 154.609H96.9689C96.9689 156.366 96.2514 157.963 95.0919 159.118C93.9367 160.278 92.3395 160.995 90.5866 160.995H51.9287C48.4209 160.993 45.5464 158.119 45.5464 154.609Z" fill="#3455FF" fill-opacity="0.4"/>
<path d="M105.212 149.934H37.6726C29.6531 149.934 23.0898 156.495 23.0898 164.516V323.001C23.0898 331.02 29.651 337.584 37.6726 337.584H105.212C113.231 337.584 119.795 331.023 119.795 323.001V164.516C119.795 156.497 113.231 149.934 105.212 149.934ZM115.765 322.669C115.765 327.811 111.554 332.02 106.413 332.02H36.8561C31.7132 332.02 27.5046 327.809 27.5046 322.669V164.466C27.5046 159.323 31.7153 155.114 36.8561 155.114H106.413C111.556 155.114 115.765 159.325 115.765 164.466V322.669Z" fill="#3455FF" fill-opacity="0.4"/>
<path d="M24.4416 181.977H23.1706C22.8129 181.977 22.5225 181.687 22.5225 181.329V173.8C22.5225 173.442 22.815 173.152 23.1706 173.152H24.4416V181.977Z" fill="#3455FF" fill-opacity="0.4"/>
<path d="M24.4416 216.897H23.3221C22.8802 216.897 22.5225 216.54 22.5225 216.098V204.265C22.5225 203.825 22.8823 203.466 23.3221 203.466H24.4416V216.897Z" fill="#3455FF" fill-opacity="0.4"/>
<path d="M24.4416 201.549H23.3221C22.8802 201.549 22.5225 201.191 22.5225 200.749V188.919C22.5225 188.479 22.8823 188.119 23.3221 188.119H24.4416V201.549Z" fill="#3455FF" fill-opacity="0.4"/>
<path d="M118.457 195.025H119.448C119.959 195.025 120.376 195.439 120.376 195.953V212.135C120.376 212.644 119.959 213.063 119.448 213.063H118.457V195.025Z" fill="#3455FF" fill-opacity="0.4"/>
<path d="M773.28 482.851H674.265C666.719 482.851 660.545 476.677 660.545 469.131V309.29C660.545 301.743 666.719 295.569 674.265 295.569H773.28C780.826 295.569 787 301.743 787 309.29V469.131C787 476.906 780.826 482.851 773.28 482.851ZM674.265 301.743C669.92 301.743 666.49 305.174 666.49 309.518V469.36C666.49 473.704 669.92 477.134 674.265 477.134H773.28C777.625 477.134 781.055 473.704 781.055 469.36V309.29C781.055 304.945 777.625 301.515 773.28 301.515H674.265V301.743Z" fill="#3455FF" fill-opacity="0.4"/>
<path d="M723.89 474.848C726.416 474.848 728.464 472.8 728.464 470.274C728.464 467.748 726.416 465.701 723.89 465.701C721.364 465.701 719.317 467.748 719.317 470.274C719.317 472.8 721.364 474.848 723.89 474.848Z" fill="#3455FF" fill-opacity="0.4"/>
<path d="M777.863 462.728H669.702V315.693H777.863V462.728ZM672.217 460.442H775.577V318.208H672.217V460.442Z" fill="#3455FF" fill-opacity="0.4"/>
<path d="M723.88 309.062C724.512 309.062 725.024 308.55 725.024 307.919C725.024 307.287 724.512 306.776 723.88 306.776C723.249 306.776 722.737 307.287 722.737 307.919C722.737 308.55 723.249 309.062 723.88 309.062Z" fill="#3455FF" fill-opacity="0.4"/>
<g opacity="0.9">
<path fill-rule="evenodd" clip-rule="evenodd" d="M413.044 672.372C409.322 672.372 406.306 675.38 406.306 679.09V726.118C406.306 729.829 409.322 732.837 413.044 732.837V732.837C414.284 732.837 415.29 733.842 415.29 735.083V737.316C415.29 741.026 418.306 744.034 422.027 744.034H448.979C449.575 744.034 450.146 743.798 450.567 743.378L468.535 725.463C468.956 725.043 469.193 724.473 469.193 723.879V688.048C469.193 684.338 466.176 681.33 462.455 681.33V681.33C461.218 681.33 460.209 680.327 460.209 679.09V679.09C460.209 675.38 457.192 672.372 453.471 672.372H413.044ZM453.477 681.33C454.714 681.33 455.717 680.327 455.717 679.09V679.09C455.717 677.854 454.711 676.851 453.471 676.851H413.044C411.803 676.851 410.798 677.854 410.798 679.09V726.118C410.798 727.355 411.803 728.358 413.044 728.358V728.358C414.284 728.358 415.29 727.352 415.29 726.112V688.048C415.29 684.338 418.306 681.33 422.027 681.33H453.477Z" fill="#0F38E2" fill-opacity="0.4"/>
<path fill-rule="evenodd" clip-rule="evenodd" d="M413.044 672.372C409.322 672.372 406.306 675.38 406.306 679.09V726.118C406.306 729.829 409.322 732.837 413.044 732.837V732.837C414.284 732.837 415.29 733.842 415.29 735.083V737.316C415.29 741.026 418.306 744.034 422.027 744.034H448.979C449.575 744.034 450.146 743.798 450.567 743.378L468.535 725.463C468.956 725.043 469.193 724.473 469.193 723.879V688.048C469.193 684.338 466.176 681.33 462.455 681.33V681.33C461.218 681.33 460.209 680.327 460.209 679.09V679.09C460.209 675.38 457.192 672.372 453.471 672.372H413.044ZM453.477 681.33C454.714 681.33 455.717 680.327 455.717 679.09V679.09C455.717 677.854 454.711 676.851 453.471 676.851H413.044C411.803 676.851 410.798 677.854 410.798 679.09V726.118C410.798 727.355 411.803 728.358 413.044 728.358V728.358C414.284 728.358 415.29 727.352 415.29 726.112V688.048C415.29 684.338 418.306 681.33 422.027 681.33H453.477Z" fill="url(#paint0_linear)" fill-opacity="0.4"/>
<g opacity="0.9">
<path fill-rule="evenodd" clip-rule="evenodd" d="M451.056 725.9V736.295L461.451 725.9H451.056ZM446.522 723.633C446.522 722.381 447.537 721.366 448.789 721.366H466.924C467.841 721.366 468.667 721.919 469.018 722.766C469.369 723.613 469.175 724.588 468.526 725.236L450.392 743.371C449.743 744.019 448.768 744.213 447.921 743.862C447.074 743.511 446.522 742.685 446.522 741.768V723.633Z" fill="#0F38E2" fill-opacity="0.4"/>
<path fill-rule="evenodd" clip-rule="evenodd" d="M451.056 725.9V736.295L461.451 725.9H451.056ZM446.522 723.633C446.522 722.381 447.537 721.366 448.789 721.366H466.924C467.841 721.366 468.667 721.919 469.018 722.766C469.369 723.613 469.175 724.588 468.526 725.236L450.392 743.371C449.743 744.019 448.768 744.213 447.921 743.862C447.074 743.511 446.522 742.685 446.522 741.768V723.633Z" fill="url(#paint1_linear)" fill-opacity="0.4"/>
</g>
</g>
<path d="M422.442 702.424H399.326" stroke="#181732" stroke-linecap="round"/>
<path d="M410.884 693.177H399.326" stroke="#181732" stroke-linecap="round"/>
<path d="M429.377 711.671H399.326" stroke="#181732" stroke-linecap="round"/>
<path d="M422.442 720.917H399.326" stroke="#181732" stroke-linecap="round"/>
<path d="M422.442 702.424H399.326" stroke="#181732" stroke-linecap="round"/>
<path d="M410.884 693.177H399.326" stroke="#181732" stroke-linecap="round"/>
<path d="M429.377 711.671H399.326" stroke="#181732" stroke-linecap="round"/>
<path d="M422.442 720.917H399.326" stroke="#181732" stroke-linecap="round"/>
<g opacity="0.9">
<path fill-rule="evenodd" clip-rule="evenodd" d="M75.5392 203.103C71.8179 203.103 68.8013 206.11 68.8013 209.821V256.849C68.8013 260.559 71.8179 263.567 75.5392 263.567V263.567C76.7796 263.567 77.7851 264.573 77.7851 265.813V268.046C77.7851 271.757 80.8018 274.764 84.523 274.764H111.475C112.07 274.764 112.642 274.528 113.063 274.109L131.03 256.193C131.452 255.773 131.688 255.203 131.688 254.61V218.779C131.688 215.068 128.672 212.06 124.95 212.06V212.06C123.714 212.06 122.704 211.058 122.704 209.821V209.821C122.704 206.11 119.688 203.103 115.967 203.103H75.5392ZM115.973 212.06C117.21 212.06 118.212 211.058 118.212 209.821V209.821C118.212 208.584 117.207 207.581 115.967 207.581H75.5392C74.2988 207.581 73.2932 208.584 73.2932 209.821V256.849C73.2932 258.086 74.2988 259.088 75.5392 259.088V259.088C76.7796 259.088 77.7851 258.083 77.7851 256.842V218.779C77.7851 215.068 80.8018 212.06 84.523 212.06H115.973Z" fill="#0F38E2" fill-opacity="0.4"/>
<path fill-rule="evenodd" clip-rule="evenodd" d="M75.5392 203.103C71.8179 203.103 68.8013 206.11 68.8013 209.821V256.849C68.8013 260.559 71.8179 263.567 75.5392 263.567V263.567C76.7796 263.567 77.7851 264.573 77.7851 265.813V268.046C77.7851 271.757 80.8018 274.764 84.523 274.764H111.475C112.07 274.764 112.642 274.528 113.063 274.109L131.03 256.193C131.452 255.773 131.688 255.203 131.688 254.61V218.779C131.688 215.068 128.672 212.06 124.95 212.06V212.06C123.714 212.06 122.704 211.058 122.704 209.821V209.821C122.704 206.11 119.688 203.103 115.967 203.103H75.5392ZM115.973 212.06C117.21 212.06 118.212 211.058 118.212 209.821V209.821C118.212 208.584 117.207 207.581 115.967 207.581H75.5392C74.2988 207.581 73.2932 208.584 73.2932 209.821V256.849C73.2932 258.086 74.2988 259.088 75.5392 259.088V259.088C76.7796 259.088 77.7851 258.083 77.7851 256.842V218.779C77.7851 215.068 80.8018 212.06 84.523 212.06H115.973Z" fill="url(#paint2_linear)" fill-opacity="0.4"/>
<g opacity="0.9">
<path fill-rule="evenodd" clip-rule="evenodd" d="M113.551 256.63V267.026L123.947 256.63H113.551ZM109.018 254.364C109.018 253.112 110.032 252.097 111.284 252.097H129.419C130.336 252.097 131.163 252.649 131.514 253.496C131.864 254.343 131.67 255.318 131.022 255.966L112.887 274.101C112.239 274.749 111.264 274.944 110.417 274.593C109.57 274.242 109.018 273.415 109.018 272.498V254.364Z" fill="#0F38E2" fill-opacity="0.4"/>
<path fill-rule="evenodd" clip-rule="evenodd" d="M113.551 256.63V267.026L123.947 256.63H113.551ZM109.018 254.364C109.018 253.112 110.032 252.097 111.284 252.097H129.419C130.336 252.097 131.163 252.649 131.514 253.496C131.864 254.343 131.67 255.318 131.022 255.966L112.887 274.101C112.239 274.749 111.264 274.944 110.417 274.593C109.57 274.242 109.018 273.415 109.018 272.498V254.364Z" fill="url(#paint3_linear)" fill-opacity="0.4"/>
</g>
</g>
<path d="M84.938 233.154H61.8213" stroke="#181732" stroke-linecap="round"/>
<path d="M73.3797 223.908H61.8213" stroke="#181732" stroke-linecap="round"/>
<path d="M91.8731 242.401H61.8213" stroke="#181732" stroke-linecap="round"/>
<path d="M84.938 251.648H61.8213" stroke="#181732" stroke-linecap="round"/>
<path d="M84.938 233.154H61.8213" stroke="#181732" stroke-linecap="round"/>
<path d="M73.3797 223.908H61.8213" stroke="#181732" stroke-linecap="round"/>
<path d="M91.8731 242.401H61.8213" stroke="#181732" stroke-linecap="round"/>
<path d="M84.938 251.648H61.8213" stroke="#181732" stroke-linecap="round"/>
<path d="M423.556 400.113H422.133V397.622C422.133 394.55 419.691 392.051 416.689 392.051H376.009L372.737 388.48C372.456 388.173 372.064 388 371.654 388H356.311C353.308 388 350.867 390.499 350.867 393.571V400.114H349.444C346.442 400.114 344 402.613 344 405.685C344 405.727 344.002 405.769 344.005 405.81L347.96 454.496C347.996 457.537 350.424 460 353.404 460H419.597C422.578 460 425.005 457.537 425.041 454.496L428.995 405.81C428.998 405.769 429 405.727 429 405.685C429 402.611 426.557 400.113 423.556 400.113ZM353.837 393.57C353.837 392.173 354.947 391.038 356.312 391.038H371.011L374.283 394.609C374.563 394.915 374.955 395.089 375.366 395.089H416.69C418.055 395.089 419.164 396.225 419.164 397.621V400.112H353.837V393.57Z" fill="#0F38E2"/>
<path d="M423.556 400.113H422.133V397.622C422.133 394.55 419.691 392.051 416.689 392.051H376.009L372.737 388.48C372.456 388.173 372.064 388 371.654 388H356.311C353.308 388 350.867 390.499 350.867 393.571V400.114H349.444C346.442 400.114 344 402.613 344 405.685C344 405.727 344.002 405.769 344.005 405.81L347.96 454.496C347.996 457.537 350.424 460 353.404 460H419.597C422.578 460 425.005 457.537 425.041 454.496L428.995 405.81C428.998 405.769 429 405.727 429 405.685C429 402.611 426.557 400.113 423.556 400.113ZM353.837 393.57C353.837 392.173 354.947 391.038 356.312 391.038H371.011L374.283 394.609C374.563 394.915 374.955 395.089 375.366 395.089H416.69C418.055 395.089 419.164 396.225 419.164 397.621V400.112H353.837V393.57Z" fill="url(#paint4_linear)"/>
<path d="M435.492 733.113H434.052V730.622C434.052 727.55 431.581 725.051 428.544 725.051H387.385L384.075 721.48C383.79 721.173 383.394 721 382.979 721H367.456C364.418 721 361.948 723.499 361.948 726.571V733.114H360.508C357.471 733.114 355 735.613 355 738.685C355 738.727 355.002 738.769 355.005 738.81L359.006 787.496C359.043 790.537 361.5 793 364.514 793H431.487C434.502 793 436.958 790.537 436.994 787.496L440.995 738.81C440.998 738.769 441 738.727 441 738.685C441 735.611 438.528 733.113 435.492 733.113Z" fill="#0F38E2"/>
<path d="M435.492 733.113H434.052V730.622C434.052 727.55 431.581 725.051 428.544 725.051H387.385L384.075 721.48C383.79 721.173 383.394 721 382.979 721H367.456C364.418 721 361.948 723.499 361.948 726.571V733.114H360.508C357.471 733.114 355 735.613 355 738.685C355 738.727 355.002 738.769 355.005 738.81L359.006 787.496C359.043 790.537 361.5 793 364.514 793H431.487C434.502 793 436.958 790.537 436.994 787.496L440.995 738.81C440.998 738.769 441 738.727 441 738.685C441 735.611 438.528 733.113 435.492 733.113Z" fill="url(#paint5_linear)"/>
<g opacity="0.9">
<path d="M589.35 464.949V464.947C589.327 446.573 582.748 428.81 570.796 414.854C559.121 401.222 543.069 392.097 525.413 389.026C525.272 375.026 522.849 358.179 518.183 342.206C513.381 325.767 506.161 310.105 496.476 299.43C477.285 278.278 450.909 265.024 422.483 262.25C394.057 259.476 365.616 267.38 342.698 284.423C320.421 300.989 304.912 325.037 298.987 352.104C291.324 346.58 282.088 343.61 272.6 343.657L272.591 343.657C260.578 343.794 249.105 348.662 240.659 357.206C232.229 365.734 227.494 377.236 227.478 389.226C227.314 391.161 227.29 393.106 227.406 395.044C214.264 401.168 203.107 410.875 195.221 423.059C187.146 435.538 182.846 450.084 182.84 464.948V464.949C182.84 485.412 190.969 505.038 205.439 519.508C219.909 533.978 239.534 542.107 259.998 542.107H512.192C532.656 542.107 552.281 533.978 566.751 519.508C581.221 505.038 589.35 485.412 589.35 464.949Z" stroke="url(#paint6_linear)" stroke-width="3"/>
</g>
<g opacity="0.9">
<path d="M690.419 218.443V218.441C690.414 214.03 688.834 209.766 685.965 206.415C683.371 203.386 679.876 201.284 676.01 200.404C675.889 197.348 675.336 193.84 674.36 190.5C673.255 186.718 671.567 183.006 669.221 180.42C664.709 175.447 658.508 172.331 651.824 171.679C645.141 171.026 638.455 172.885 633.066 176.892C628.263 180.464 624.798 185.515 623.182 191.237C621.584 190.414 619.802 189.981 617.982 189.99V189.99L617.973 189.99C614.964 190.024 612.09 191.244 609.975 193.383C607.874 195.508 606.69 198.37 606.673 201.356C606.656 201.569 606.646 201.783 606.642 201.998C603.785 203.476 601.356 205.676 599.602 208.386C597.663 211.382 596.631 214.874 596.629 218.442V218.443C596.629 223.356 598.581 228.067 602.055 231.541C605.528 235.014 610.24 236.966 615.152 236.966H671.896C676.809 236.966 681.52 235.014 684.994 231.541C688.468 228.067 690.419 223.356 690.419 218.443Z" stroke="url(#paint7_linear)" stroke-width="3"/>
</g>
<path d="M599.248 175.115C599.749 175.775 600.69 175.903 601.349 175.402C602.009 174.9 602.137 173.959 601.636 173.3L599.248 175.115ZM133.153 198.673C133.259 199.494 134.012 200.074 134.833 199.968L148.222 198.235C149.043 198.128 149.623 197.376 149.517 196.555C149.41 195.733 148.658 195.153 147.836 195.26L135.936 196.8L134.395 184.899C134.289 184.078 133.537 183.498 132.715 183.604C131.894 183.711 131.314 184.463 131.42 185.284L133.153 198.673ZM368.119 87.5206L368.119 89.0206L368.119 87.5206ZM600.442 174.208C601.636 173.3 601.635 173.299 601.634 173.297C601.633 173.297 601.632 173.295 601.631 173.293C601.628 173.29 601.624 173.285 601.62 173.278C601.61 173.266 601.596 173.248 601.579 173.226C601.544 173.18 601.492 173.114 601.424 173.028C601.288 172.857 601.087 172.605 600.819 172.28C600.283 171.63 599.48 170.682 598.402 169.481C596.246 167.078 592.99 163.659 588.565 159.562C579.716 151.368 566.191 140.464 547.447 129.567C509.951 107.767 451.611 86.0206 368.119 86.0206L368.119 89.0206C451.062 89.0206 508.883 110.617 545.939 132.161C564.473 142.936 577.822 153.703 586.527 161.763C590.88 165.793 594.071 169.146 596.169 171.484C597.218 172.653 597.993 173.569 598.504 174.188C598.759 174.498 598.948 174.733 599.071 174.889C599.133 174.968 599.179 175.026 599.208 175.064C599.223 175.083 599.233 175.097 599.24 175.105C599.243 175.109 599.245 175.112 599.247 175.114C599.247 175.115 599.248 175.115 599.248 175.116C599.248 175.116 599.248 175.115 600.442 174.208ZM368.119 86.0206C293.754 86.0206 235.09 113.908 195.041 141.769C175.016 155.7 159.633 169.632 149.252 180.086C144.061 185.313 140.119 189.673 137.471 192.73C136.147 194.259 135.146 195.463 134.475 196.286C134.139 196.698 133.885 197.015 133.715 197.23C133.63 197.338 133.565 197.42 133.521 197.476C133.499 197.504 133.483 197.526 133.471 197.54C133.466 197.548 133.461 197.553 133.458 197.557C133.457 197.559 133.455 197.561 133.454 197.562C133.453 197.564 133.453 197.564 134.641 198.48C135.829 199.396 135.829 199.396 135.829 199.396C135.83 199.395 135.83 199.394 135.831 199.393C135.833 199.39 135.837 199.386 135.841 199.38C135.851 199.367 135.865 199.349 135.885 199.323C135.925 199.273 135.985 199.196 136.066 199.093C136.228 198.889 136.473 198.583 136.8 198.182C137.454 197.38 138.435 196.2 139.739 194.694C142.346 191.684 146.242 187.375 151.38 182.2C161.659 171.849 176.905 158.041 196.755 144.232C236.457 116.613 294.532 89.0206 368.119 89.0206L368.119 86.0206Z" fill="#0F38E2"/>
<path d="M52.8747 342.19C53.087 341.389 52.61 340.568 51.8092 340.356C51.0085 340.143 50.1872 340.62 49.9749 341.421L52.8747 342.19ZM275.114 739.623C275.869 739.281 276.203 738.392 275.861 737.638L270.287 725.342C269.945 724.588 269.056 724.254 268.302 724.596C267.547 724.938 267.213 725.827 267.555 726.581L272.51 737.51L261.58 742.465C260.826 742.807 260.491 743.696 260.833 744.451C261.175 745.205 262.064 745.54 262.819 745.197L275.114 739.623ZM82.6285 579.907L83.9183 579.142L83.9183 579.142L82.6285 579.907ZM51.4248 341.806C49.9749 341.421 49.9746 341.422 49.9742 341.424C49.9739 341.425 49.9734 341.427 49.9728 341.429C49.9716 341.434 49.9699 341.44 49.9677 341.449C49.9633 341.465 49.9568 341.49 49.9484 341.522C49.9316 341.587 49.9071 341.683 49.8752 341.808C49.8115 342.06 49.7186 342.432 49.6006 342.921C49.3647 343.899 49.0285 345.342 48.6245 347.215C47.8166 350.962 46.7376 356.429 45.6481 363.329C43.4695 377.128 41.2478 396.669 41.0718 419.655C40.7199 465.612 48.5447 525.438 81.3387 580.673L83.9183 579.142C51.4993 524.538 43.7223 465.313 44.0717 419.678C44.2464 396.869 46.4513 377.479 48.6114 363.797C49.6914 356.956 50.7599 351.545 51.5571 347.848C51.9557 345.999 52.2865 344.58 52.5169 343.625C52.6321 343.147 52.7223 342.786 52.7832 342.546C52.8137 342.425 52.8369 342.335 52.8523 342.276C52.86 342.246 52.8658 342.224 52.8695 342.21C52.8714 342.202 52.8728 342.197 52.8736 342.194C52.8741 342.192 52.8743 342.191 52.8745 342.191C52.8747 342.19 52.8747 342.19 51.4248 341.806ZM81.3387 580.673C114.438 636.423 162.609 676.163 202.451 701.952C222.38 714.851 240.243 724.272 253.13 730.471C259.574 733.57 264.774 735.865 268.368 737.386C270.165 738.146 271.561 738.713 272.509 739.091C272.983 739.28 273.345 739.422 273.59 739.517C273.713 739.564 273.806 739.6 273.869 739.624C273.9 739.636 273.924 739.645 273.941 739.651C273.949 739.654 273.955 739.657 273.96 739.658C273.962 739.659 273.964 739.66 273.965 739.66C273.966 739.661 273.967 739.661 274.495 738.257C275.023 736.853 275.023 736.853 275.023 736.853C275.022 736.853 275.021 736.852 275.019 736.852C275.016 736.85 275.011 736.849 275.004 736.846C274.989 736.84 274.968 736.832 274.938 736.821C274.88 736.799 274.791 736.765 274.673 736.719C274.437 736.628 274.084 736.49 273.619 736.305C272.69 735.934 271.314 735.375 269.538 734.623C265.984 733.119 260.827 730.844 254.43 727.767C241.635 721.613 223.885 712.252 204.081 699.433C164.46 673.788 116.698 634.352 83.9183 579.142L81.3387 580.673Z" fill="#0F38E2"/>
<path d="M505.224 740.288C504.432 740.53 503.985 741.368 504.227 742.161C504.469 742.953 505.307 743.399 506.1 743.157L505.224 740.288ZM717.117 499.13C716.552 498.524 715.603 498.491 714.997 499.056L705.122 508.261C704.516 508.826 704.483 509.775 705.048 510.381C705.613 510.987 706.562 511.02 707.168 510.456L715.946 502.273L724.128 511.051C724.693 511.656 725.642 511.69 726.248 511.125C726.854 510.56 726.887 509.611 726.323 509.005L717.117 499.13ZM635.109 656.191L636.239 657.177L635.109 656.191ZM505.662 741.723C506.1 743.157 506.1 743.157 506.101 743.157C506.102 743.157 506.103 743.156 506.105 743.156C506.107 743.155 506.111 743.154 506.116 743.152C506.127 743.149 506.141 743.145 506.16 743.139C506.199 743.127 506.255 743.109 506.329 743.086C506.476 743.04 506.694 742.97 506.979 742.878C507.549 742.692 508.388 742.413 509.473 742.037C511.644 741.284 514.799 740.14 518.752 738.571C526.66 735.435 537.766 730.6 550.586 723.798C576.217 710.199 608.745 688.713 636.239 657.177L633.978 655.205C606.799 686.38 574.604 707.659 549.18 721.148C536.472 727.891 525.468 732.68 517.646 735.783C513.736 737.334 510.622 738.463 508.49 739.202C507.424 739.572 506.603 739.845 506.051 740.025C505.775 740.114 505.566 740.181 505.427 740.225C505.358 740.246 505.306 740.263 505.272 740.273C505.255 740.278 505.242 740.282 505.234 740.285C505.23 740.286 505.227 740.287 505.226 740.287C505.225 740.288 505.224 740.288 505.224 740.288C505.224 740.288 505.224 740.288 505.662 741.723ZM636.239 657.177C675.656 611.965 695.977 572.8 706.444 544.891C711.676 530.937 714.444 519.802 715.904 512.137C716.634 508.304 717.037 505.339 717.258 503.323C717.369 502.316 717.433 501.545 717.471 501.022C717.49 500.76 717.501 500.561 717.509 500.424C717.512 500.356 717.515 500.304 717.516 500.267C717.517 500.249 717.518 500.235 717.518 500.224C717.518 500.219 717.519 500.215 717.519 500.212C717.519 500.21 717.519 500.209 717.519 500.208C717.519 500.207 717.519 500.206 716.02 500.153C714.521 500.1 714.521 500.1 714.521 500.099C714.521 500.1 714.521 500.1 714.521 500.1C714.521 500.101 714.521 500.103 714.521 500.106C714.52 500.111 714.52 500.121 714.519 500.135C714.518 500.163 714.516 500.206 714.513 500.265C714.507 500.383 714.496 500.565 714.479 500.808C714.444 501.294 714.382 502.027 714.276 502.997C714.063 504.936 713.672 507.823 712.957 511.575C711.528 519.08 708.805 530.05 703.635 543.837C693.296 571.407 673.161 610.262 633.978 655.205L636.239 657.177Z" fill="#0F38E2"/>
<g opacity="0.9">
<path fill-rule="evenodd" clip-rule="evenodd" d="M702.003 348.737C698.282 348.737 695.265 351.745 695.265 355.456V402.484C695.265 406.194 698.282 409.202 702.003 409.202V409.202C703.243 409.202 704.249 410.208 704.249 411.448V413.681C704.249 417.391 707.266 420.399 710.987 420.399H737.938C738.534 420.399 739.105 420.163 739.527 419.743L757.494 401.828C757.915 401.408 758.152 400.838 758.152 400.244V364.413C758.152 360.703 755.136 357.695 751.414 357.695V357.695C750.177 357.695 749.168 356.692 749.168 355.456V355.456C749.168 351.745 746.152 348.737 742.43 348.737H702.003ZM742.437 357.695C743.674 357.695 744.676 356.692 744.676 355.456V355.456C744.676 354.219 743.671 353.216 742.43 353.216H702.003C700.763 353.216 699.757 354.219 699.757 355.456V402.484C699.757 403.721 700.763 404.723 702.003 404.723V404.723C703.243 404.723 704.249 403.718 704.249 402.477V364.413C704.249 360.703 707.266 357.695 710.987 357.695H742.437Z" fill="#0F38E2" fill-opacity="0.4"/>
<path fill-rule="evenodd" clip-rule="evenodd" d="M702.003 348.737C698.282 348.737 695.265 351.745 695.265 355.456V402.484C695.265 406.194 698.282 409.202 702.003 409.202V409.202C703.243 409.202 704.249 410.208 704.249 411.448V413.681C704.249 417.391 707.266 420.399 710.987 420.399H737.938C738.534 420.399 739.105 420.163 739.527 419.743L757.494 401.828C757.915 401.408 758.152 400.838 758.152 400.244V364.413C758.152 360.703 755.136 357.695 751.414 357.695V357.695C750.177 357.695 749.168 356.692 749.168 355.456V355.456C749.168 351.745 746.152 348.737 742.43 348.737H702.003ZM742.437 357.695C743.674 357.695 744.676 356.692 744.676 355.456V355.456C744.676 354.219 743.671 353.216 742.43 353.216H702.003C700.763 353.216 699.757 354.219 699.757 355.456V402.484C699.757 403.721 700.763 404.723 702.003 404.723V404.723C703.243 404.723 704.249 403.718 704.249 402.477V364.413C704.249 360.703 707.266 357.695 710.987 357.695H742.437Z" fill="url(#paint8_linear)" fill-opacity="0.4"/>
<path opacity="0.9" fill-rule="evenodd" clip-rule="evenodd" d="M740.015 402.265V412.661L750.41 402.265H740.015ZM735.481 399.999C735.481 398.747 736.496 397.732 737.748 397.732H755.883C756.8 397.732 757.626 398.284 757.977 399.131C758.328 399.978 758.134 400.953 757.486 401.601L739.351 419.736C738.703 420.384 737.728 420.579 736.881 420.228C736.034 419.877 735.481 419.05 735.481 418.133V399.999Z" fill="#0F38E2" fill-opacity="0.4"/>
</g>
<path d="M711.401 378.79H688.285" stroke="#181732" stroke-linecap="round"/>
<path d="M699.843 369.543H688.285" stroke="#181732" stroke-linecap="round"/>
<path d="M718.336 388.036H688.285" stroke="#181732" stroke-linecap="round"/>
<path d="M711.401 397.283H688.285" stroke="#181732" stroke-linecap="round"/>
<circle opacity="0.3" cx="378.5" cy="420.5" r="293.5" stroke="#181732" stroke-linecap="round" stroke-dasharray="2 3"/>
<circle opacity="0.3" cx="384" cy="419" r="371" stroke="#181732" stroke-linecap="round" stroke-dasharray="2 3"/>
<defs>
<linearGradient id="paint0_linear" x1="412.975" y1="749.552" x2="510.205" y2="665.572" gradientUnits="userSpaceOnUse">
<stop stop-color="#3455FF"/>
<stop offset="0.518521" stop-color="#5A51CF" stop-opacity="0.8"/>
<stop offset="1" stop-color="#120F67"/>
</linearGradient>
<linearGradient id="paint1_linear" x1="446.332" y1="746.218" x2="469.2" y2="723.35" gradientUnits="userSpaceOnUse">
<stop stop-color="#3455FF"/>
<stop offset="0.458333" stop-color="#5A51CF" stop-opacity="0.8"/>
<stop offset="1" stop-color="#120F67"/>
</linearGradient>
<linearGradient id="paint2_linear" x1="75.4711" y1="280.282" x2="172.7" y2="196.302" gradientUnits="userSpaceOnUse">
<stop stop-color="#3455FF"/>
<stop offset="0.518521" stop-color="#5A51CF" stop-opacity="0.8"/>
<stop offset="1" stop-color="#120F67"/>
</linearGradient>
<linearGradient id="paint3_linear" x1="108.828" y1="276.948" x2="131.696" y2="254.08" gradientUnits="userSpaceOnUse">
<stop stop-color="#3455FF"/>
<stop offset="0.458333" stop-color="#5A51CF" stop-opacity="0.8"/>
<stop offset="1" stop-color="#120F67"/>
</linearGradient>
<linearGradient id="paint4_linear" x1="344" y1="460" x2="425.178" y2="388.882" gradientUnits="userSpaceOnUse">
<stop stop-color="#3455FF"/>
<stop offset="0.515625" stop-color="#5A51CF" stop-opacity="0.8"/>
<stop offset="0.989583" stop-color="#181732"/>
</linearGradient>
<linearGradient id="paint5_linear" x1="355" y1="793" x2="436.298" y2="720.939" gradientUnits="userSpaceOnUse">
<stop stop-color="#3455FF"/>
<stop offset="0.515625" stop-color="#5A51CF" stop-opacity="0.8"/>
<stop offset="0.989583" stop-color="#181732"/>
</linearGradient>
<linearGradient id="paint6_linear" x1="246.102" y1="549.099" x2="451.224" y2="186.019" gradientUnits="userSpaceOnUse">
<stop stop-color="#3455FF"/>
<stop offset="0.484565" stop-color="#5A51CF" stop-opacity="0.8"/>
<stop offset="1" stop-color="#120F67"/>
</linearGradient>
<linearGradient id="paint7_linear" x1="612.026" y1="237.377" x2="658.178" y2="155.684" gradientUnits="userSpaceOnUse">
<stop stop-color="#3455FF"/>
<stop offset="0.484565" stop-color="#5A51CF" stop-opacity="0.8"/>
<stop offset="1" stop-color="#120F67"/>
</linearGradient>
<linearGradient id="paint8_linear" x1="701.935" y1="425.917" x2="799.164" y2="341.937" gradientUnits="userSpaceOnUse">
<stop stop-color="#3455FF"/>
<stop offset="0.518521" stop-color="#5A51CF" stop-opacity="0.8"/>
<stop offset="1" stop-color="#120F67"/>
</linearGradient>
</defs>
</svg>
