<svg width="800" height="538" viewBox="0 0 800 538" fill="none" xmlns="http://www.w3.org/2000/svg">
<path opacity="0.2" d="M551.977 331.984C551.977 413.188 470.573 479.102 370.041 479.102C269.508 479.102 188.104 413.188 188.104 331.984C188.104 250.779 269.508 184.865 370.041 184.865C470.573 184.865 551.977 250.779 551.977 331.984Z" stroke="#181732" stroke-opacity="0.55" stroke-width="0.5"/>
<path opacity="0.2" d="M577.887 314.98C577.887 410.944 483.067 488.819 365.991 488.819C248.916 488.819 154.096 410.944 154.096 314.98C154.096 219.015 248.916 141.141 365.991 141.141C483.067 141.141 577.887 219.015 577.887 314.98Z" stroke="#181732" stroke-opacity="0.55" stroke-width="0.5"/>
<path opacity="0.2" d="M628.09 291.498C628.09 406.687 511.525 500.155 367.612 500.155C223.699 500.155 107.133 406.687 107.133 291.498C107.133 176.309 223.699 82.8411 367.612 82.8411C511.525 82.8411 628.09 176.309 628.09 291.498Z" stroke="#181732" stroke-opacity="0.55" stroke-width="0.5"/>
<path opacity="0.2" d="M670.195 274.494C670.195 339.466 635.716 398.305 579.936 440.909C524.155 483.513 447.084 509.871 361.943 509.871C276.803 509.871 199.732 483.513 143.951 440.909C88.171 398.305 53.6914 339.466 53.6914 274.494C53.6914 209.522 88.171 150.683 143.951 108.079C199.732 65.4747 276.803 39.1164 361.943 39.1164C447.084 39.1164 524.155 65.4747 579.936 108.079C635.716 150.683 670.195 209.522 670.195 274.494Z" stroke="#181732" stroke-opacity="0.55" stroke-width="0.5"/>
<path opacity="0.2" d="M715.539 262.348C715.539 334.696 675.897 400.215 611.764 447.655C547.631 495.096 459.021 524.446 361.133 524.446C263.246 524.446 174.635 495.096 110.503 447.655C46.3696 400.215 6.72754 334.696 6.72754 262.348C6.72754 190.001 46.3696 124.482 110.503 77.041C174.635 29.6002 263.246 0.25 361.133 0.25C459.021 0.25 547.631 29.6002 611.764 77.041C675.897 124.482 715.539 190.001 715.539 262.348Z" stroke="#181732" stroke-opacity="0.55" stroke-width="0.5"/>
<g filter="url(#filter0_d)">
<circle cx="164.372" cy="159.514" r="12.1457" fill="url(#paint0_linear)"/>
</g>
<path d="M158.758 154.859C158.576 154.64 158.731 154.309 159.016 154.309H161.643C162.113 154.309 162.494 154.69 162.494 155.159V155.631C162.494 156.101 162.113 156.482 161.643 156.482H160.509C160.257 156.482 160.017 156.37 159.856 156.176L158.758 154.859Z" fill="#0F38E2"/>
<path d="M163.874 164.887C163.874 165.011 163.773 165.113 163.648 165.113H161.714C161.589 165.113 161.488 165.011 161.488 164.887V159.96C161.488 159.683 161.713 159.457 161.991 159.457L165.904 159.457C166.229 159.457 166.554 159.349 166.849 159.117C167.143 158.884 167.298 158.497 167.298 157.97C167.298 157.443 167.143 157.071 166.849 156.839C166.554 156.607 166.229 156.483 165.904 156.483H161.765L161.488 156.483V154.54C161.488 154.415 161.589 154.314 161.714 154.314H166.043C166.957 154.314 167.778 154.654 168.537 155.321C169.297 155.987 169.684 156.87 169.684 157.97C169.684 159.024 169.312 159.891 168.568 160.588C167.825 161.286 166.988 161.627 166.043 161.627H164.1C163.975 161.627 163.874 161.728 163.874 161.852V164.887Z" fill="#0F38E2"/>
<g filter="url(#filter1_d)">
<circle cx="358.704" cy="141.7" r="12.1457" fill="url(#paint1_linear)"/>
</g>
<path d="M353.09 137.045C352.908 136.827 353.063 136.495 353.348 136.495H355.975C356.445 136.495 356.826 136.876 356.826 137.346V137.818C356.826 138.288 356.445 138.668 355.975 138.668H354.841C354.589 138.668 354.349 138.556 354.188 138.362L353.09 137.045Z" fill="#0F38E2"/>
<path d="M358.206 147.073C358.206 147.198 358.105 147.299 357.98 147.299H356.046C355.921 147.299 355.82 147.198 355.82 147.073V142.147C355.82 141.869 356.046 141.644 356.323 141.644L360.236 141.644C360.561 141.644 360.886 141.535 361.181 141.303C361.475 141.071 361.63 140.683 361.63 140.156C361.63 139.63 361.475 139.258 361.181 139.025C360.886 138.793 360.561 138.669 360.236 138.669H356.097L355.82 138.669V136.726C355.82 136.601 355.921 136.5 356.046 136.5H360.375C361.289 136.5 362.11 136.841 362.869 137.507C363.629 138.173 364.016 139.056 364.016 140.156C364.016 141.21 363.644 142.078 362.9 142.775C362.157 143.472 361.32 143.813 360.375 143.813H358.432C358.307 143.813 358.206 143.914 358.206 144.039V147.073Z" fill="#0F38E2"/>
<g filter="url(#filter2_d)">
<circle cx="546.559" cy="292.308" r="12.1457" fill="url(#paint2_linear)"/>
</g>
<path d="M540.944 287.652C540.762 287.434 540.917 287.102 541.201 287.102H543.829C544.298 287.102 544.679 287.483 544.679 287.953V288.425C544.679 288.895 544.298 289.276 543.829 289.276H542.695C542.442 289.276 542.203 289.163 542.041 288.97L540.944 287.652Z" fill="#0F38E2"/>
<path d="M546.06 297.68C546.06 297.805 545.959 297.906 545.834 297.906H543.9C543.775 297.906 543.674 297.805 543.674 297.68V292.754C543.674 292.476 543.899 292.251 544.177 292.251L548.089 292.251C548.415 292.251 548.74 292.143 549.034 291.91C549.329 291.678 549.484 291.29 549.484 290.764C549.484 290.237 549.329 289.865 549.034 289.633C548.74 289.4 548.415 289.276 548.089 289.276H543.951L543.674 289.276V287.333C543.674 287.208 543.775 287.107 543.9 287.107H548.229C549.143 287.107 549.964 287.448 550.723 288.114C551.482 288.78 551.869 289.664 551.869 290.764C551.869 291.817 551.498 292.685 550.754 293.382C550.01 294.079 549.174 294.42 548.229 294.42H546.286C546.161 294.42 546.06 294.521 546.06 294.646V297.68Z" fill="#0F38E2"/>
<g filter="url(#filter3_d)">
<circle cx="366.802" cy="489.879" r="12.1457" fill="url(#paint3_linear)"/>
</g>
<path d="M361.187 485.223C361.005 485.005 361.16 484.673 361.445 484.673H364.072C364.542 484.673 364.922 485.054 364.922 485.524V485.996C364.922 486.466 364.542 486.846 364.072 486.846H362.938C362.685 486.846 362.446 486.734 362.284 486.54L361.187 485.223Z" fill="#0F38E2"/>
<path d="M366.303 495.251C366.303 495.376 366.202 495.477 366.077 495.477H364.143C364.018 495.477 363.917 495.376 363.917 495.251V490.325C363.917 490.047 364.142 489.822 364.42 489.822L368.332 489.822C368.658 489.822 368.983 489.713 369.277 489.481C369.572 489.249 369.727 488.861 369.727 488.334C369.727 487.808 369.572 487.436 369.277 487.203C368.983 486.971 368.658 486.847 368.332 486.847H364.194L363.917 486.847V484.904C363.917 484.779 364.018 484.678 364.143 484.678H368.472C369.386 484.678 370.207 485.019 370.966 485.685C371.725 486.351 372.113 487.234 372.113 488.334C372.113 489.388 371.741 490.256 370.997 490.953C370.254 491.65 369.417 491.991 368.472 491.991H366.529C366.404 491.991 366.303 492.092 366.303 492.217V495.251Z" fill="#0F38E2"/>
<g filter="url(#filter4_d)">
<circle cx="123.887" cy="420.243" r="12.1457" fill="url(#paint4_linear)"/>
</g>
<path d="M118.272 415.588C118.09 415.369 118.245 415.038 118.529 415.038H121.157C121.626 415.038 122.007 415.418 122.007 415.888V416.36C122.007 416.83 121.626 417.211 121.157 417.211H120.023C119.77 417.211 119.531 417.099 119.369 416.905L118.272 415.588Z" fill="#0F38E2"/>
<path d="M123.388 425.615C123.388 425.74 123.287 425.841 123.162 425.841H121.228C121.103 425.841 121.002 425.74 121.002 425.615V420.689C121.002 420.411 121.227 420.186 121.505 420.186L125.417 420.186C125.743 420.186 126.068 420.078 126.362 419.845C126.657 419.613 126.812 419.226 126.812 418.699C126.812 418.172 126.657 417.8 126.362 417.568C126.068 417.335 125.743 417.212 125.417 417.212H121.279L121.002 417.212V415.268C121.002 415.144 121.103 415.042 121.228 415.042H125.557C126.471 415.042 127.292 415.383 128.051 416.05C128.81 416.716 129.198 417.599 129.198 418.699C129.198 419.752 128.826 420.62 128.082 421.317C127.338 422.015 126.502 422.355 125.557 422.355H123.614C123.489 422.355 123.388 422.457 123.388 422.581V425.615Z" fill="#0F38E2"/>
<g filter="url(#filter5_d)">
<circle cx="59.1096" cy="292.308" r="12.1457" fill="url(#paint5_linear)"/>
</g>
<path d="M53.4945 287.652C53.3125 287.434 53.4678 287.102 53.7521 287.102H56.3794C56.8491 287.102 57.2299 287.483 57.2299 287.953V288.425C57.2299 288.895 56.8491 289.276 56.3794 289.276H55.2455C54.993 289.276 54.7537 289.163 54.5921 288.97L53.4945 287.652Z" fill="#0F38E2"/>
<path d="M58.6105 297.68C58.6105 297.805 58.5093 297.906 58.3845 297.906H56.4505C56.3258 297.906 56.2246 297.805 56.2246 297.68V292.754C56.2246 292.476 56.4498 292.251 56.7276 292.251L60.64 292.251C60.9654 292.251 61.2907 292.143 61.5851 291.91C61.8794 291.678 62.0344 291.29 62.0344 290.764C62.0344 290.237 61.8794 289.865 61.5851 289.633C61.2907 289.4 60.9654 289.276 60.64 289.276H56.5018L56.2246 289.276V287.333C56.2246 287.208 56.3258 287.107 56.4505 287.107H60.7795C61.6935 287.107 62.5146 287.448 63.2738 288.114C64.0329 288.78 64.4202 289.664 64.4202 290.764C64.4202 291.817 64.0484 292.685 63.3048 293.382C62.5611 294.079 61.7245 294.42 60.7795 294.42H58.8364C58.7116 294.42 58.6105 294.521 58.6105 294.646V297.68Z" fill="#0F38E2"/>
<g filter="url(#filter6_d)">
<circle cx="510.931" cy="481.781" r="12.1457" fill="url(#paint6_linear)"/>
</g>
<path d="M505.317 477.126C505.135 476.908 505.29 476.576 505.574 476.576H508.202C508.671 476.576 509.052 476.957 509.052 477.427V477.899C509.052 478.368 508.671 478.749 508.202 478.749H507.068C506.815 478.749 506.576 478.637 506.414 478.443L505.317 477.126Z" fill="#0F38E2"/>
<path d="M510.433 487.154C510.433 487.279 510.332 487.38 510.207 487.38H508.273C508.148 487.38 508.047 487.279 508.047 487.154V482.228C508.047 481.95 508.272 481.725 508.55 481.725L512.462 481.725C512.788 481.725 513.113 481.616 513.407 481.384C513.702 481.151 513.857 480.764 513.857 480.237C513.857 479.711 513.702 479.339 513.407 479.106C513.113 478.874 512.788 478.75 512.462 478.75H508.324L508.047 478.75V476.807C508.047 476.682 508.148 476.581 508.273 476.581H512.602C513.516 476.581 514.337 476.922 515.096 477.588C515.855 478.254 516.243 479.137 516.243 480.237C516.243 481.291 515.871 482.158 515.127 482.856C514.383 483.553 513.547 483.894 512.602 483.894H510.659C510.534 483.894 510.433 483.995 510.433 484.12V487.154Z" fill="#0F38E2"/>
<g filter="url(#filter7_d)">
<circle cx="630.769" cy="382.996" r="12.1457" fill="url(#paint7_linear)"/>
</g>
<path d="M625.155 378.341C624.973 378.122 625.128 377.791 625.412 377.791H628.04C628.509 377.791 628.89 378.171 628.89 378.641V379.113C628.89 379.583 628.509 379.964 628.04 379.964H626.906C626.653 379.964 626.414 379.852 626.252 379.658L625.155 378.341Z" fill="#0F38E2"/>
<path d="M630.271 388.368C630.271 388.493 630.169 388.594 630.045 388.594H628.111C627.986 388.594 627.885 388.493 627.885 388.368V383.442C627.885 383.164 628.11 382.939 628.388 382.939L632.3 382.939C632.626 382.939 632.951 382.831 633.245 382.598C633.54 382.366 633.695 381.979 633.695 381.452C633.695 380.925 633.54 380.553 633.245 380.321C632.951 380.088 632.626 379.965 632.3 379.965H628.162L627.885 379.965V378.021C627.885 377.897 627.986 377.795 628.111 377.795H632.44C633.354 377.795 634.175 378.136 634.934 378.802C635.693 379.469 636.08 380.352 636.08 381.452C636.08 382.505 635.709 383.373 634.965 384.07C634.221 384.768 633.385 385.108 632.44 385.108H630.497C630.372 385.108 630.271 385.21 630.271 385.334V388.368Z" fill="#0F38E2"/>
<g filter="url(#filter8_d)">
<circle cx="645.344" cy="107.692" r="12.1457" fill="url(#paint8_linear)"/>
</g>
<path d="M639.73 103.037C639.548 102.819 639.703 102.487 639.987 102.487H642.615C643.084 102.487 643.465 102.868 643.465 103.338V103.81C643.465 104.279 643.084 104.66 642.615 104.66H641.481C641.228 104.66 640.989 104.548 640.827 104.354L639.73 103.037Z" fill="#0F38E2"/>
<path d="M644.846 113.065C644.846 113.19 644.745 113.291 644.62 113.291H642.686C642.561 113.291 642.46 113.19 642.46 113.065V108.139C642.46 107.861 642.685 107.636 642.963 107.636L646.875 107.636C647.201 107.636 647.526 107.527 647.82 107.295C648.115 107.062 648.27 106.675 648.27 106.148C648.27 105.621 648.115 105.25 647.82 105.017C647.526 104.785 647.201 104.661 646.875 104.661H642.737L642.46 104.661V102.718C642.46 102.593 642.561 102.492 642.686 102.492H647.015C647.929 102.492 648.75 102.833 649.509 103.499C650.268 104.165 650.656 105.048 650.656 106.148C650.656 107.202 650.284 108.069 649.54 108.767C648.796 109.464 647.96 109.805 647.015 109.805H645.072C644.947 109.805 644.846 109.906 644.846 110.031V113.065Z" fill="#0F38E2"/>
<g filter="url(#filter9_d)">
<circle cx="718.219" cy="255.061" r="12.1457" fill="url(#paint9_linear)"/>
</g>
<path d="M712.604 250.405C712.422 250.187 712.577 249.855 712.861 249.855H715.489C715.958 249.855 716.339 250.236 716.339 250.706V251.178C716.339 251.648 715.958 252.029 715.489 252.029H714.355C714.102 252.029 713.863 251.916 713.701 251.723L712.604 250.405Z" fill="#0F38E2"/>
<path d="M717.72 260.433C717.72 260.558 717.619 260.659 717.494 260.659H715.56C715.435 260.659 715.334 260.558 715.334 260.433V255.507C715.334 255.229 715.559 255.004 715.837 255.004L719.749 255.004C720.075 255.004 720.4 254.896 720.694 254.663C720.989 254.431 721.144 254.043 721.144 253.517C721.144 252.99 720.989 252.618 720.694 252.386C720.4 252.153 720.075 252.029 719.749 252.029H715.611L715.334 252.029V250.086C715.334 249.961 715.435 249.86 715.56 249.86H719.889C720.803 249.86 721.624 250.201 722.383 250.867C723.142 251.534 723.53 252.417 723.53 253.517C723.53 254.57 723.158 255.438 722.414 256.135C721.67 256.832 720.834 257.173 719.889 257.173H717.946C717.821 257.173 717.72 257.274 717.72 257.399V260.433Z" fill="#0F38E2"/>
<g filter="url(#filter10_d)">
<circle cx="593.523" cy="195.142" r="12.1457" fill="url(#paint10_linear)"/>
</g>
<path d="M587.908 190.486C587.726 190.268 587.881 189.936 588.165 189.936H590.792C591.262 189.936 591.643 190.317 591.643 190.787V191.259C591.643 191.729 591.262 192.11 590.792 192.11H589.659C589.406 192.11 589.167 191.997 589.005 191.804L587.908 190.486Z" fill="#0F38E2"/>
<path d="M593.024 200.514C593.024 200.639 592.922 200.74 592.798 200.74H590.864C590.739 200.74 590.638 200.639 590.638 200.514V195.588C590.638 195.31 590.863 195.085 591.141 195.085L595.053 195.085C595.378 195.085 595.704 194.977 595.998 194.744C596.293 194.512 596.447 194.124 596.447 193.598C596.447 193.071 596.293 192.699 595.998 192.467C595.704 192.234 595.378 192.11 595.053 192.11H590.915L590.638 192.11V190.167C590.638 190.042 590.739 189.941 590.864 189.941H595.193C596.107 189.941 596.928 190.282 597.687 190.948C598.446 191.614 598.833 192.498 598.833 193.598C598.833 194.651 598.462 195.519 597.718 196.216C596.974 196.913 596.138 197.254 595.193 197.254H593.25C593.125 197.254 593.024 197.355 593.024 197.48V200.514Z" fill="#0F38E2"/>
<path d="M123.776 159.173V162.607H122.17V153.365H125.706C126.738 153.365 127.557 153.634 128.162 154.171C128.772 154.709 129.076 155.42 129.076 156.304C129.076 157.21 128.778 157.914 128.181 158.418C127.589 158.921 126.757 159.173 125.687 159.173H123.776ZM123.776 157.885H125.706C126.277 157.885 126.713 157.751 127.013 157.485C127.314 157.214 127.464 156.825 127.464 156.317C127.464 155.817 127.312 155.42 127.007 155.123C126.702 154.823 126.283 154.668 125.75 154.66H123.776V157.885ZM134.364 162.607C134.296 162.476 134.237 162.262 134.186 161.966C133.695 162.478 133.094 162.734 132.384 162.734C131.694 162.734 131.131 162.537 130.695 162.144C130.259 161.75 130.041 161.264 130.041 160.684C130.041 159.952 130.312 159.391 130.854 159.002C131.4 158.608 132.178 158.411 133.19 158.411H134.135V157.961C134.135 157.605 134.036 157.322 133.837 157.11C133.638 156.894 133.336 156.786 132.929 156.786C132.578 156.786 132.29 156.875 132.066 157.053C131.842 157.227 131.73 157.449 131.73 157.72H130.187C130.187 157.343 130.312 156.992 130.562 156.666C130.811 156.336 131.15 156.078 131.577 155.891C132.009 155.705 132.489 155.612 133.018 155.612C133.822 155.612 134.463 155.815 134.942 156.222C135.42 156.624 135.665 157.191 135.678 157.923V161.02C135.678 161.638 135.765 162.131 135.938 162.499V162.607H134.364ZM132.669 161.496C132.974 161.496 133.26 161.422 133.526 161.274C133.797 161.126 134 160.927 134.135 160.678V159.383H133.304C132.733 159.383 132.303 159.482 132.015 159.681C131.728 159.88 131.584 160.161 131.584 160.525C131.584 160.821 131.681 161.058 131.876 161.236C132.075 161.41 132.339 161.496 132.669 161.496ZM139.594 160.398L140.991 155.739H142.635L139.906 163.648C139.487 164.804 138.776 165.381 137.773 165.381C137.548 165.381 137.301 165.343 137.03 165.267V164.074L137.322 164.093C137.711 164.093 138.003 164.021 138.198 163.877C138.397 163.737 138.553 163.5 138.668 163.166L138.89 162.576L136.478 155.739H138.141L139.594 160.398Z" fill="#0F38E2"/>
<path d="M392.991 142.642H389.411L388.662 144.794H386.993L390.484 135.551H391.925L395.422 144.794H393.746L392.991 142.642ZM389.862 141.347H392.54L391.201 137.513L389.862 141.347ZM402.037 141.429C402.037 142.491 401.795 143.34 401.313 143.975C400.83 144.605 400.183 144.92 399.371 144.92C398.617 144.92 398.014 144.673 397.561 144.178V147.434H396.019V137.925H397.441L397.504 138.624C397.957 138.073 398.573 137.798 399.351 137.798C400.189 137.798 400.845 138.112 401.319 138.738C401.797 139.36 402.037 140.225 402.037 141.334V141.429ZM400.5 141.296C400.5 140.61 400.363 140.067 400.088 139.665C399.817 139.263 399.428 139.062 398.92 139.062C398.289 139.062 397.836 139.322 397.561 139.842V142.889C397.841 143.422 398.298 143.689 398.933 143.689C399.423 143.689 399.806 143.492 400.081 143.099C400.361 142.701 400.5 142.1 400.5 141.296ZM409.362 141.429C409.362 142.491 409.121 143.34 408.638 143.975C408.156 144.605 407.508 144.92 406.696 144.92C405.942 144.92 405.339 144.673 404.887 144.178V147.434H403.344V137.925H404.766L404.829 138.624C405.282 138.073 405.898 137.798 406.677 137.798C407.515 137.798 408.17 138.112 408.644 138.738C409.123 139.36 409.362 140.225 409.362 141.334V141.429ZM407.826 141.296C407.826 140.61 407.688 140.067 407.413 139.665C407.142 139.263 406.753 139.062 406.245 139.062C405.614 139.062 405.162 139.322 404.887 139.842V142.889C405.166 143.422 405.623 143.689 406.258 143.689C406.749 143.689 407.132 143.492 407.407 143.099C407.686 142.701 407.826 142.1 407.826 141.296Z" fill="#0F38E2"/>
<path d="M577.57 292.392C577.477 293.378 577.113 294.148 576.479 294.703C575.844 295.253 575 295.528 573.946 295.528C573.21 295.528 572.56 295.354 571.997 295.007C571.439 294.656 571.007 294.159 570.702 293.516C570.398 292.872 570.239 292.125 570.226 291.275V290.412C570.226 289.54 570.381 288.772 570.69 288.107C570.998 287.443 571.441 286.931 572.016 286.571C572.596 286.212 573.265 286.032 574.022 286.032C575.042 286.032 575.863 286.309 576.485 286.863C577.107 287.418 577.469 288.2 577.57 289.212H575.971C575.895 288.547 575.7 288.069 575.387 287.777C575.078 287.481 574.623 287.333 574.022 287.333C573.324 287.333 572.786 287.589 572.41 288.101C572.037 288.609 571.847 289.356 571.838 290.342V291.161C571.838 292.159 572.016 292.921 572.372 293.446C572.731 293.97 573.256 294.233 573.946 294.233C574.576 294.233 575.05 294.091 575.368 293.808C575.685 293.524 575.886 293.052 575.971 292.392H577.57ZM580.382 289.282C580.886 288.698 581.523 288.406 582.293 288.406C583.757 288.406 584.5 289.241 584.521 290.913V295.401H582.979V290.97C582.979 290.496 582.875 290.162 582.668 289.967C582.464 289.768 582.164 289.669 581.766 289.669C581.148 289.669 580.687 289.944 580.382 290.494V295.401H578.84V285.651H580.382V289.282ZM590.19 295.401C590.122 295.27 590.063 295.056 590.012 294.76C589.521 295.272 588.92 295.528 588.209 295.528C587.519 295.528 586.956 295.331 586.521 294.937C586.085 294.544 585.867 294.057 585.867 293.477C585.867 292.745 586.138 292.185 586.679 291.795C587.225 291.402 588.004 291.205 589.015 291.205H589.961V290.754C589.961 290.399 589.862 290.115 589.663 289.904C589.464 289.688 589.161 289.58 588.755 289.58C588.404 289.58 588.116 289.669 587.892 289.847C587.667 290.02 587.555 290.242 587.555 290.513H586.013C586.013 290.136 586.138 289.785 586.387 289.459C586.637 289.129 586.976 288.871 587.403 288.685C587.835 288.499 588.315 288.406 588.844 288.406C589.648 288.406 590.289 288.609 590.767 289.015C591.245 289.417 591.491 289.984 591.504 290.716V293.814C591.504 294.432 591.59 294.925 591.764 295.293V295.401H590.19ZM588.495 294.29C588.799 294.29 589.085 294.216 589.352 294.068C589.622 293.92 589.826 293.721 589.961 293.471V292.176H589.129C588.558 292.176 588.129 292.276 587.841 292.475C587.553 292.673 587.409 292.955 587.409 293.319C587.409 293.615 587.507 293.852 587.701 294.03C587.9 294.203 588.165 294.29 588.495 294.29ZM594.76 295.401H593.217V288.533H594.76V295.401ZM593.122 286.749C593.122 286.512 593.196 286.315 593.344 286.159C593.497 286.002 593.712 285.924 593.992 285.924C594.271 285.924 594.487 286.002 594.639 286.159C594.792 286.315 594.868 286.512 594.868 286.749C594.868 286.982 594.792 287.176 594.639 287.333C594.487 287.485 594.271 287.561 593.992 287.561C593.712 287.561 593.497 287.485 593.344 287.333C593.196 287.176 593.122 286.982 593.122 286.749ZM597.877 288.533L597.921 289.326C598.429 288.713 599.095 288.406 599.921 288.406C601.351 288.406 602.079 289.225 602.104 290.862V295.401H600.562V290.951C600.562 290.515 600.466 290.194 600.276 289.986C600.09 289.775 599.783 289.669 599.356 289.669C598.733 289.669 598.27 289.95 597.965 290.513V295.401H596.423V288.533H597.877Z" fill="#0F38E2"/>
<path d="M670.647 101.543L673.313 108.627L675.972 101.543H678.048V110.785H676.448V107.739L676.607 103.663L673.878 110.785H672.729L670.006 103.67L670.164 107.739V110.785H668.565V101.543H670.647ZM683.907 110.785C683.839 110.654 683.78 110.441 683.729 110.144C683.238 110.656 682.637 110.912 681.926 110.912C681.237 110.912 680.674 110.716 680.238 110.322C679.802 109.928 679.584 109.442 679.584 108.862C679.584 108.13 679.855 107.569 680.397 107.18C680.943 106.786 681.721 106.59 682.733 106.59H683.678V106.139C683.678 105.783 683.579 105.5 683.38 105.288C683.181 105.073 682.879 104.965 682.472 104.965C682.121 104.965 681.833 105.053 681.609 105.231C681.385 105.405 681.273 105.627 681.273 105.898H679.73C679.73 105.521 679.855 105.17 680.105 104.844C680.354 104.514 680.693 104.256 681.12 104.07C681.552 103.883 682.032 103.79 682.561 103.79C683.365 103.79 684.006 103.993 684.485 104.4C684.963 104.802 685.208 105.369 685.221 106.101V109.199C685.221 109.816 685.308 110.309 685.481 110.678V110.785H683.907ZM682.212 109.675C682.517 109.675 682.802 109.601 683.069 109.452C683.34 109.304 683.543 109.105 683.678 108.856V107.561H682.847C682.276 107.561 681.846 107.66 681.558 107.859C681.271 108.058 681.127 108.339 681.127 108.703C681.127 109 681.224 109.237 681.419 109.414C681.618 109.588 681.882 109.675 682.212 109.675ZM688.477 110.785H686.935V103.917H688.477V110.785ZM686.84 102.134C686.84 101.897 686.914 101.7 687.062 101.543C687.214 101.387 687.43 101.308 687.709 101.308C687.988 101.308 688.204 101.387 688.357 101.543C688.509 101.7 688.585 101.897 688.585 102.134C688.585 102.366 688.509 102.561 688.357 102.718C688.204 102.87 687.988 102.946 687.709 102.946C687.43 102.946 687.214 102.87 687.062 102.718C686.914 102.561 686.84 102.366 686.84 102.134ZM691.803 110.785H690.261V101.035H691.803V110.785Z" fill="#0F38E2"/>
<path d="M661.533 381.963H657.737V384.807H662.174V386.089H656.131V376.847H662.129V378.142H657.737V380.694H661.533V381.963ZM665.798 381.481L667.106 379.221H668.82L666.719 382.604L668.89 386.089H667.188L665.817 383.74L664.453 386.089H662.739L664.91 382.604L662.815 379.221H664.516L665.798 381.481ZM672.565 384.985C672.95 384.985 673.27 384.872 673.523 384.648C673.777 384.424 673.913 384.147 673.93 383.817H675.383C675.366 384.244 675.233 384.644 674.983 385.016C674.734 385.385 674.395 385.677 673.968 385.892C673.54 386.108 673.079 386.216 672.584 386.216C671.623 386.216 670.862 385.905 670.299 385.283C669.736 384.661 669.455 383.802 669.455 382.706V382.547C669.455 381.502 669.734 380.666 670.292 380.04C670.851 379.409 671.613 379.094 672.578 379.094C673.394 379.094 674.059 379.333 674.571 379.811C675.087 380.285 675.358 380.909 675.383 381.684H673.93C673.913 381.29 673.777 380.967 673.523 380.713C673.274 380.459 672.954 380.332 672.565 380.332C672.066 380.332 671.68 380.514 671.41 380.878C671.139 381.237 671.001 381.785 670.997 382.522V382.769C670.997 383.514 671.13 384.071 671.397 384.439C671.668 384.803 672.057 384.985 672.565 384.985ZM678.068 379.97C678.572 379.386 679.209 379.094 679.979 379.094C681.443 379.094 682.186 379.93 682.207 381.601V386.089H680.665V381.658C680.665 381.184 680.561 380.85 680.354 380.656C680.15 380.457 679.85 380.357 679.452 380.357C678.834 380.357 678.373 380.632 678.068 381.182V386.089H676.526V376.339H678.068V379.97ZM687.875 386.089C687.808 385.958 687.749 385.744 687.698 385.448C687.207 385.96 686.606 386.216 685.895 386.216C685.205 386.216 684.642 386.019 684.207 385.626C683.771 385.232 683.553 384.746 683.553 384.166C683.553 383.434 683.824 382.873 684.365 382.484C684.911 382.09 685.69 381.893 686.701 381.893H687.647V381.443C687.647 381.087 687.548 380.804 687.349 380.592C687.15 380.376 686.847 380.268 686.441 380.268C686.09 380.268 685.802 380.357 685.578 380.535C685.353 380.708 685.241 380.931 685.241 381.201H683.699C683.699 380.825 683.824 380.474 684.073 380.148C684.323 379.818 684.661 379.559 685.089 379.373C685.521 379.187 686.001 379.094 686.53 379.094C687.334 379.094 687.975 379.297 688.453 379.703C688.931 380.105 689.177 380.672 689.189 381.405V384.502C689.189 385.12 689.276 385.613 689.45 385.981V386.089H687.875ZM686.181 384.978C686.485 384.978 686.771 384.904 687.038 384.756C687.308 384.608 687.512 384.409 687.647 384.159V382.865H686.815C686.244 382.865 685.815 382.964 685.527 383.163C685.239 383.362 685.095 383.643 685.095 384.007C685.095 384.303 685.193 384.54 685.387 384.718C685.586 384.892 685.851 384.978 686.181 384.978ZM692.236 379.221L692.281 380.014C692.789 379.401 693.455 379.094 694.28 379.094C695.711 379.094 696.438 379.913 696.464 381.551V386.089H694.921V381.639C694.921 381.204 694.826 380.882 694.636 380.675C694.45 380.463 694.143 380.357 693.715 380.357C693.093 380.357 692.63 380.639 692.325 381.201V386.089H690.783V379.221H692.236ZM697.771 382.604C697.771 381.538 698.021 380.687 698.521 380.052C699.024 379.413 699.691 379.094 700.52 379.094C701.303 379.094 701.919 379.367 702.367 379.913L702.437 379.221H703.827V385.88C703.827 386.781 703.546 387.492 702.983 388.012C702.424 388.533 701.669 388.793 700.717 388.793C700.213 388.793 699.72 388.687 699.238 388.476C698.76 388.268 698.396 387.996 698.146 387.657L698.876 386.73C699.35 387.293 699.934 387.574 700.628 387.574C701.14 387.574 701.544 387.435 701.84 387.156C702.137 386.88 702.285 386.474 702.285 385.937V385.473C701.84 385.969 701.248 386.216 700.507 386.216C699.703 386.216 699.045 385.897 698.533 385.258C698.025 384.619 697.771 383.734 697.771 382.604ZM699.308 382.738C699.308 383.427 699.447 383.971 699.727 384.369C700.01 384.762 700.402 384.959 700.901 384.959C701.523 384.959 701.984 384.693 702.285 384.159V381.138C701.993 380.617 701.536 380.357 700.914 380.357C700.406 380.357 700.01 380.558 699.727 380.96C699.447 381.362 699.308 381.955 699.308 382.738ZM708.442 386.216C707.464 386.216 706.671 385.909 706.062 385.296C705.456 384.678 705.154 383.857 705.154 382.833V382.642C705.154 381.957 705.285 381.345 705.547 380.808C705.814 380.266 706.186 379.845 706.665 379.545C707.143 379.244 707.676 379.094 708.264 379.094C709.199 379.094 709.921 379.392 710.429 379.989C710.941 380.586 711.197 381.43 711.197 382.522V383.144H706.709C706.756 383.711 706.944 384.159 707.274 384.49C707.608 384.82 708.027 384.985 708.531 384.985C709.237 384.985 709.813 384.699 710.257 384.128L711.089 384.921C710.814 385.332 710.446 385.651 709.984 385.88C709.527 386.104 709.013 386.216 708.442 386.216ZM708.258 380.332C707.835 380.332 707.492 380.48 707.229 380.776C706.971 381.072 706.806 381.485 706.734 382.014H709.673V381.9C709.639 381.383 709.502 380.994 709.261 380.732C709.02 380.465 708.685 380.332 708.258 380.332Z" fill="#0F38E2"/>
<path d="M319.314 485.024H316.433V492.972H314.839V485.024H311.983V483.729H319.314V485.024ZM318.775 489.474C318.775 488.801 318.908 488.196 319.175 487.659C319.441 487.117 319.816 486.702 320.298 486.415C320.781 486.123 321.335 485.977 321.961 485.977C322.888 485.977 323.639 486.275 324.215 486.872C324.794 487.468 325.108 488.26 325.154 489.246L325.161 489.607C325.161 490.285 325.029 490.89 324.767 491.423C324.509 491.956 324.136 492.369 323.65 492.661C323.167 492.953 322.609 493.099 321.974 493.099C321.005 493.099 320.228 492.777 319.644 492.134C319.065 491.486 318.775 490.625 318.775 489.55V489.474ZM320.317 489.607C320.317 490.314 320.463 490.868 320.755 491.271C321.047 491.668 321.453 491.867 321.974 491.867C322.495 491.867 322.899 491.664 323.186 491.258C323.478 490.852 323.624 490.257 323.624 489.474C323.624 488.78 323.474 488.23 323.174 487.824C322.877 487.417 322.473 487.214 321.961 487.214C321.458 487.214 321.058 487.415 320.762 487.817C320.465 488.215 320.317 488.812 320.317 489.607ZM328.696 490.026L328.011 490.731V492.972H326.468V483.222H328.011V488.846L328.493 488.243L330.391 486.104H332.245L329.693 488.966L332.517 492.972H330.734L328.696 490.026ZM336.155 493.099C335.177 493.099 334.384 492.792 333.774 492.178C333.169 491.56 332.867 490.739 332.867 489.715V489.525C332.867 488.839 332.998 488.228 333.26 487.69C333.527 487.149 333.899 486.728 334.377 486.427C334.856 486.127 335.389 485.977 335.977 485.977C336.912 485.977 337.634 486.275 338.141 486.872C338.654 487.468 338.91 488.312 338.91 489.404V490.026H334.422C334.468 490.593 334.657 491.042 334.987 491.372C335.321 491.702 335.74 491.867 336.244 491.867C336.95 491.867 337.526 491.582 337.97 491.01L338.802 491.804C338.527 492.214 338.158 492.534 337.697 492.762C337.24 492.986 336.726 493.099 336.155 493.099ZM335.971 487.214C335.547 487.214 335.205 487.362 334.942 487.659C334.684 487.955 334.519 488.368 334.447 488.896H337.386V488.782C337.352 488.266 337.215 487.877 336.974 487.614C336.732 487.348 336.398 487.214 335.971 487.214ZM341.544 486.104L341.588 486.897C342.096 486.283 342.763 485.977 343.588 485.977C345.018 485.977 345.746 486.795 345.771 488.433V492.972H344.229V488.522C344.229 488.086 344.134 487.764 343.943 487.557C343.757 487.346 343.45 487.24 343.023 487.24C342.401 487.24 341.937 487.521 341.633 488.084V492.972H340.09V486.104H341.544Z" fill="#0F38E2"/>
<path d="M77.0344 415.389H74.1525V423.336H72.5593V415.389H69.7028V414.094H77.0344V415.389ZM79.3703 420.029H76.0378V418.785H79.3703V420.029ZM88.1301 423.336H86.5305V419.229H82.3981V423.336H80.7922V414.094H82.3981V417.941H86.5305V414.094H88.1301V423.336ZM94.0461 422.663C93.5933 423.196 92.9501 423.463 92.1164 423.463C91.3716 423.463 90.8067 423.245 90.4216 422.809C90.0407 422.373 89.8503 421.743 89.8503 420.918V416.468H91.3928V420.899C91.3928 421.77 91.7546 422.206 92.4782 422.206C93.2272 422.206 93.7329 421.937 93.9953 421.4V416.468H95.5378V423.336H94.0842L94.0461 422.663ZM103.136 419.972C103.136 421.038 102.897 421.887 102.419 422.517C101.945 423.148 101.291 423.463 100.457 423.463C99.6532 423.463 99.0269 423.173 98.5783 422.593L98.5021 423.336H97.1057V413.586H98.6481V417.128C99.0925 416.603 99.6913 416.341 100.445 416.341C101.282 416.341 101.94 416.652 102.419 417.274C102.897 417.896 103.136 418.766 103.136 419.883V419.972ZM101.593 419.839C101.593 419.094 101.462 418.535 101.2 418.163C100.938 417.79 100.557 417.604 100.057 417.604C99.3887 417.604 98.919 417.896 98.6481 418.48V421.311C98.9232 421.908 99.3972 422.206 100.07 422.206C100.552 422.206 100.925 422.026 101.187 421.667C101.45 421.307 101.585 420.763 101.593 420.035V419.839Z" fill="#0F38E2"/>
<path d="M12.7141 294.201C12.3797 294.637 11.9164 294.967 11.3239 295.191C10.7315 295.416 10.0586 295.528 9.30536 295.528C8.53095 295.528 7.8454 295.352 7.24872 295.001C6.65204 294.65 6.19078 294.148 5.86493 293.497C5.54332 292.841 5.37616 292.077 5.36347 291.205V290.481C5.36347 289.085 5.69778 287.995 6.3664 287.212C7.03502 286.425 7.96812 286.032 9.16571 286.032C10.194 286.032 11.0108 286.286 11.6159 286.793C12.2211 287.301 12.585 288.033 12.7077 288.99H11.1335C10.9558 287.877 10.3104 287.32 9.19745 287.32C8.47805 287.32 7.93004 287.581 7.55341 288.101C7.18101 288.617 6.98847 289.377 6.97577 290.38V291.091C6.97577 292.089 7.18525 292.866 7.60419 293.42C8.02737 293.97 8.61347 294.246 9.36249 294.246C10.1835 294.246 10.7674 294.059 11.1144 293.687V291.878H9.21015V290.659H12.7141V294.201ZM18.4333 295.401C18.3656 295.27 18.3063 295.056 18.2556 294.76C17.7647 295.272 17.1638 295.528 16.4528 295.528C15.763 295.528 15.2002 295.331 14.7643 294.937C14.3285 294.544 14.1105 294.057 14.1105 293.477C14.1105 292.745 14.3814 292.185 14.923 291.795C15.4689 291.402 16.2476 291.205 17.259 291.205H18.2048V290.754C18.2048 290.399 18.1053 290.115 17.9064 289.904C17.7075 289.688 17.405 289.58 16.9987 289.58C16.6475 289.58 16.3597 289.669 16.1354 289.847C15.9112 290.02 15.799 290.242 15.799 290.513H14.2565C14.2565 290.136 14.3814 289.785 14.631 289.459C14.8807 289.129 15.2193 288.871 15.6467 288.685C16.0783 288.499 16.5586 288.406 17.0876 288.406C17.8916 288.406 18.5327 288.609 19.0109 289.015C19.4891 289.417 19.7346 289.984 19.7473 290.716V293.814C19.7473 294.432 19.834 294.925 20.0075 295.293V295.401H18.4333ZM16.7385 294.29C17.0432 294.29 17.3288 294.216 17.5954 294.068C17.8662 293.92 18.0694 293.721 18.2048 293.471V292.176H17.3732C16.8019 292.176 16.3724 292.276 16.0847 292.475C15.7969 292.673 15.653 292.955 15.653 293.319C15.653 293.615 15.7503 293.852 15.945 294.03C16.1439 294.203 16.4084 294.29 16.7385 294.29ZM22.8132 288.533L22.8576 289.25C23.34 288.687 24.0002 288.406 24.8381 288.406C25.7564 288.406 26.3848 288.757 26.7233 289.459C27.2227 288.757 27.9252 288.406 28.8308 288.406C29.5882 288.406 30.1511 288.615 30.5192 289.034C30.8916 289.453 31.0821 290.071 31.0905 290.888V295.401H29.548V290.932C29.548 290.496 29.4528 290.177 29.2624 289.974C29.072 289.77 28.7567 289.669 28.3166 289.669C27.9654 289.669 27.6776 289.764 27.4533 289.955C27.2333 290.141 27.0788 290.386 26.9899 290.691L26.9963 295.401H25.4538V290.881C25.4326 290.073 25.02 289.669 24.216 289.669C23.5982 289.669 23.1602 289.921 22.902 290.424V295.401H21.3596V288.533H22.8132ZM35.6989 295.528C34.7214 295.528 33.9279 295.221 33.3185 294.607C32.7134 293.99 32.4108 293.169 32.4108 292.144V291.954C32.4108 291.268 32.542 290.657 32.8044 290.12C33.071 289.578 33.4434 289.157 33.9216 288.856C34.3998 288.556 34.933 288.406 35.5212 288.406C36.4564 288.406 37.1779 288.704 37.6857 289.301C38.1978 289.897 38.4538 290.742 38.4538 291.833V292.456H33.966C34.0126 293.023 34.2009 293.471 34.5309 293.801C34.8653 294.131 35.2842 294.296 35.7878 294.296C36.4945 294.296 37.07 294.011 37.5143 293.439L38.3459 294.233C38.0708 294.643 37.7027 294.963 37.2414 295.191C36.7844 295.416 36.2702 295.528 35.6989 295.528ZM35.5148 289.643C35.0917 289.643 34.7489 289.792 34.4865 290.088C34.2284 290.384 34.0633 290.797 33.9914 291.326H36.9304V291.211C36.8965 290.695 36.759 290.306 36.5178 290.043C36.2766 289.777 35.9422 289.643 35.5148 289.643Z" fill="#0F38E2"/>
<path d="M538.158 475.632L540.824 482.716L543.484 475.632H545.559V484.875H543.96V481.828L544.118 477.752L541.389 484.875H540.24L537.517 477.759L537.676 481.828V484.875H536.076V475.632H538.158ZM550.339 485.001C549.362 485.001 548.568 484.695 547.959 484.081C547.354 483.463 547.051 482.642 547.051 481.618V481.428C547.051 480.742 547.182 480.131 547.445 479.593C547.711 479.052 548.084 478.631 548.562 478.33C549.04 478.03 549.573 477.879 550.161 477.879C551.097 477.879 551.818 478.178 552.326 478.774C552.838 479.371 553.094 480.215 553.094 481.307V481.929H548.606C548.653 482.496 548.841 482.945 549.171 483.275C549.505 483.605 549.924 483.77 550.428 483.77C551.135 483.77 551.71 483.484 552.155 482.913L552.986 483.707C552.711 484.117 552.343 484.437 551.882 484.665C551.425 484.889 550.91 485.001 550.339 485.001ZM550.155 479.117C549.732 479.117 549.389 479.265 549.127 479.562C548.869 479.858 548.704 480.27 548.632 480.799H551.571V480.685C551.537 480.169 551.399 479.779 551.158 479.517C550.917 479.25 550.582 479.117 550.155 479.117ZM558.147 483.008C558.147 482.733 558.032 482.524 557.804 482.38C557.58 482.236 557.205 482.109 556.68 481.999C556.156 481.889 555.718 481.749 555.366 481.58C554.596 481.208 554.211 480.668 554.211 479.961C554.211 479.369 554.461 478.874 554.96 478.476C555.46 478.078 556.094 477.879 556.864 477.879C557.685 477.879 558.348 478.083 558.851 478.489C559.359 478.895 559.613 479.422 559.613 480.069H558.071C558.071 479.773 557.961 479.528 557.74 479.333C557.52 479.134 557.228 479.035 556.864 479.035C556.526 479.035 556.249 479.113 556.033 479.27C555.821 479.426 555.716 479.636 555.716 479.898C555.716 480.135 555.815 480.319 556.014 480.45C556.213 480.581 556.615 480.715 557.22 480.85C557.825 480.981 558.299 481.14 558.642 481.326C558.989 481.508 559.245 481.728 559.41 481.986C559.579 482.244 559.664 482.558 559.664 482.926C559.664 483.544 559.408 484.045 558.896 484.43C558.384 484.811 557.713 485.001 556.884 485.001C556.321 485.001 555.819 484.9 555.379 484.697C554.939 484.494 554.596 484.214 554.351 483.859C554.105 483.503 553.983 483.12 553.983 482.71H555.481C555.502 483.074 555.639 483.355 555.893 483.554C556.147 483.749 556.484 483.846 556.903 483.846C557.309 483.846 557.618 483.77 557.829 483.618C558.041 483.461 558.147 483.258 558.147 483.008ZM564.863 483.008C564.863 482.733 564.748 482.524 564.52 482.38C564.295 482.236 563.921 482.109 563.396 481.999C562.871 481.889 562.434 481.749 562.082 481.58C561.312 481.208 560.927 480.668 560.927 479.961C560.927 479.369 561.177 478.874 561.676 478.476C562.175 478.078 562.81 477.879 563.58 477.879C564.401 477.879 565.064 478.083 565.567 478.489C566.075 478.895 566.329 479.422 566.329 480.069H564.786C564.786 479.773 564.676 479.528 564.456 479.333C564.236 479.134 563.944 479.035 563.58 479.035C563.242 479.035 562.965 479.113 562.749 479.27C562.537 479.426 562.431 479.636 562.431 479.898C562.431 480.135 562.531 480.319 562.73 480.45C562.929 480.581 563.331 480.715 563.936 480.85C564.541 480.981 565.015 481.14 565.358 481.326C565.705 481.508 565.961 481.728 566.126 481.986C566.295 482.244 566.38 482.558 566.38 482.926C566.38 483.544 566.124 484.045 565.612 484.43C565.1 484.811 564.429 485.001 563.599 485.001C563.037 485.001 562.535 484.9 562.095 484.697C561.655 484.494 561.312 484.214 561.067 483.859C560.821 483.503 560.698 483.12 560.698 482.71H562.197C562.218 483.074 562.355 483.355 562.609 483.554C562.863 483.749 563.199 483.846 563.618 483.846C564.025 483.846 564.334 483.77 564.545 483.618C564.757 483.461 564.863 483.258 564.863 483.008ZM570.753 485.001C569.776 485.001 568.982 484.695 568.373 484.081C567.768 483.463 567.465 482.642 567.465 481.618V481.428C567.465 480.742 567.596 480.131 567.859 479.593C568.125 479.052 568.498 478.631 568.976 478.33C569.454 478.03 569.987 477.879 570.575 477.879C571.511 477.879 572.232 478.178 572.74 478.774C573.252 479.371 573.508 480.215 573.508 481.307V481.929H569.02C569.067 482.496 569.255 482.945 569.585 483.275C569.92 483.605 570.338 483.77 570.842 483.77C571.549 483.77 572.124 483.484 572.569 482.913L573.4 483.707C573.125 484.117 572.757 484.437 572.296 484.665C571.839 484.889 571.324 485.001 570.753 485.001ZM570.569 479.117C570.146 479.117 569.803 479.265 569.541 479.562C569.283 479.858 569.118 480.27 569.046 480.799H571.985V480.685C571.951 480.169 571.813 479.779 571.572 479.517C571.331 479.25 570.996 479.117 570.569 479.117ZM576.142 478.006L576.187 478.8C576.695 478.186 577.361 477.879 578.186 477.879C579.617 477.879 580.344 478.698 580.37 480.336V484.875H578.827V480.425C578.827 479.989 578.732 479.667 578.542 479.46C578.356 479.248 578.049 479.143 577.621 479.143C576.999 479.143 576.536 479.424 576.231 479.987V484.875H574.689V478.006H576.142ZM581.677 481.39C581.677 480.323 581.927 479.473 582.427 478.838C582.93 478.199 583.597 477.879 584.426 477.879C585.209 477.879 585.825 478.152 586.273 478.698L586.343 478.006H587.733V484.665C587.733 485.566 587.452 486.277 586.889 486.798C586.33 487.318 585.575 487.579 584.623 487.579C584.119 487.579 583.626 487.473 583.144 487.261C582.666 487.054 582.302 486.781 582.052 486.442L582.782 485.516C583.256 486.078 583.84 486.36 584.534 486.36C585.046 486.36 585.45 486.22 585.746 485.941C586.043 485.666 586.191 485.26 586.191 484.722V484.259C585.746 484.754 585.154 485.001 584.413 485.001C583.609 485.001 582.951 484.682 582.439 484.043C581.931 483.404 581.677 482.52 581.677 481.39ZM583.214 481.523C583.214 482.213 583.353 482.757 583.633 483.154C583.916 483.548 584.308 483.745 584.807 483.745C585.429 483.745 585.89 483.478 586.191 482.945V479.923C585.899 479.403 585.442 479.143 584.82 479.143C584.312 479.143 583.916 479.344 583.633 479.746C583.353 480.148 583.214 480.74 583.214 481.523ZM592.348 485.001C591.37 485.001 590.577 484.695 589.968 484.081C589.362 483.463 589.06 482.642 589.06 481.618V481.428C589.06 480.742 589.191 480.131 589.453 479.593C589.72 479.052 590.092 478.631 590.571 478.33C591.049 478.03 591.582 477.879 592.17 477.879C593.105 477.879 593.827 478.178 594.335 478.774C594.847 479.371 595.103 480.215 595.103 481.307V481.929H590.615C590.662 482.496 590.85 482.945 591.18 483.275C591.514 483.605 591.933 483.77 592.437 483.77C593.143 483.77 593.719 483.484 594.163 482.913L594.995 483.707C594.72 484.117 594.352 484.437 593.89 484.665C593.433 484.889 592.919 485.001 592.348 485.001ZM592.164 479.117C591.741 479.117 591.398 479.265 591.135 479.562C590.877 479.858 590.712 480.27 590.64 480.799H593.579V480.685C593.545 480.169 593.408 479.779 593.167 479.517C592.926 479.25 592.591 479.117 592.164 479.117ZM599.902 479.416C599.698 479.382 599.489 479.365 599.273 479.365C598.566 479.365 598.09 479.636 597.845 480.177V484.875H596.302V478.006H597.775L597.813 478.774C598.186 478.178 598.702 477.879 599.362 477.879C599.582 477.879 599.764 477.909 599.908 477.968L599.902 479.416Z" fill="#0F38E2"/>
<path d="M749.472 258.154V248.912H752.64C753.685 248.912 754.481 249.121 755.026 249.54C755.572 249.959 755.845 250.583 755.845 251.413C755.845 251.836 755.731 252.217 755.503 252.555C755.274 252.894 754.94 253.156 754.5 253.342C754.999 253.478 755.384 253.734 755.655 254.11C755.93 254.483 756.067 254.931 756.067 255.456C756.067 256.324 755.788 256.99 755.23 257.456C754.675 257.921 753.88 258.154 752.843 258.154H749.472ZM751.078 253.983V256.872H752.862C753.365 256.872 753.759 256.747 754.043 256.497C754.326 256.247 754.468 255.9 754.468 255.456C754.468 254.495 753.977 254.005 752.995 253.983H751.078ZM751.078 252.803H752.652C753.152 252.803 753.541 252.691 753.82 252.466C754.104 252.238 754.246 251.916 754.246 251.501C754.246 251.044 754.115 250.714 753.852 250.511C753.594 250.308 753.19 250.207 752.64 250.207H751.078V252.803ZM761.12 252.695C760.917 252.661 760.708 252.644 760.492 252.644C759.785 252.644 759.309 252.915 759.064 253.457V258.154H757.521V251.286H758.994L759.032 252.054C759.404 251.457 759.921 251.159 760.581 251.159C760.801 251.159 760.983 251.188 761.127 251.248L761.12 252.695ZM761.577 254.656C761.577 253.983 761.711 253.378 761.977 252.841C762.244 252.299 762.618 251.884 763.101 251.597C763.583 251.305 764.137 251.159 764.764 251.159C765.691 251.159 766.442 251.457 767.017 252.054C767.597 252.65 767.91 253.442 767.957 254.428L767.963 254.79C767.963 255.467 767.832 256.072 767.569 256.605C767.311 257.138 766.939 257.551 766.452 257.843C765.97 258.135 765.411 258.281 764.776 258.281C763.807 258.281 763.031 257.959 762.447 257.316C761.867 256.668 761.577 255.807 761.577 254.732V254.656ZM763.12 254.79C763.12 255.496 763.266 256.051 763.558 256.453C763.85 256.85 764.256 257.049 764.776 257.049C765.297 257.049 765.701 256.846 765.989 256.44C766.281 256.034 766.427 255.439 766.427 254.656C766.427 253.962 766.277 253.412 765.976 253.006C765.68 252.6 765.276 252.397 764.764 252.397C764.26 252.397 763.86 252.598 763.564 253C763.268 253.397 763.12 253.994 763.12 254.79ZM775.301 256.027L776.393 251.286H777.897L776.025 258.154H774.755L773.282 253.438L771.835 258.154H770.566L768.687 251.286H770.191L771.302 255.977L772.711 251.286H773.873L775.301 256.027ZM782.778 256.288C782.778 256.013 782.664 255.803 782.436 255.659C782.211 255.515 781.837 255.388 781.312 255.278C780.787 255.168 780.349 255.029 779.998 254.859C779.228 254.487 778.843 253.947 778.843 253.241C778.843 252.648 779.093 252.153 779.592 251.755C780.091 251.358 780.726 251.159 781.496 251.159C782.317 251.159 782.979 251.362 783.483 251.768C783.991 252.174 784.245 252.701 784.245 253.349H782.702C782.702 253.052 782.592 252.807 782.372 252.612C782.152 252.413 781.86 252.314 781.496 252.314C781.158 252.314 780.88 252.392 780.665 252.549C780.453 252.705 780.347 252.915 780.347 253.177C780.347 253.414 780.447 253.598 780.646 253.73C780.844 253.861 781.247 253.994 781.852 254.129C782.457 254.261 782.931 254.419 783.274 254.605C783.621 254.787 783.877 255.008 784.042 255.266C784.211 255.524 784.296 255.837 784.296 256.205C784.296 256.823 784.039 257.324 783.527 257.71C783.015 258.09 782.345 258.281 781.515 258.281C780.952 258.281 780.451 258.179 780.011 257.976C779.571 257.773 779.228 257.494 778.983 257.138C778.737 256.783 778.614 256.4 778.614 255.989H780.112C780.134 256.353 780.271 256.635 780.525 256.834C780.779 257.028 781.115 257.126 781.534 257.126C781.941 257.126 782.249 257.049 782.461 256.897C782.673 256.74 782.778 256.537 782.778 256.288ZM788.669 258.281C787.691 258.281 786.898 257.974 786.289 257.36C785.684 256.743 785.381 255.922 785.381 254.897V254.707C785.381 254.022 785.512 253.41 785.775 252.873C786.041 252.331 786.414 251.91 786.892 251.609C787.37 251.309 787.903 251.159 788.491 251.159C789.427 251.159 790.148 251.457 790.656 252.054C791.168 252.65 791.424 253.495 791.424 254.586V255.209H786.936C786.983 255.776 787.171 256.224 787.501 256.554C787.835 256.884 788.254 257.049 788.758 257.049C789.465 257.049 790.04 256.764 790.484 256.192L791.316 256.986C791.041 257.396 790.673 257.716 790.212 257.944C789.754 258.169 789.24 258.281 788.669 258.281ZM788.485 252.397C788.062 252.397 787.719 252.545 787.457 252.841C787.198 253.137 787.033 253.55 786.962 254.079H789.9V253.964C789.867 253.448 789.729 253.059 789.488 252.796C789.247 252.53 788.912 252.397 788.485 252.397ZM796.223 252.695C796.02 252.661 795.81 252.644 795.594 252.644C794.888 252.644 794.412 252.915 794.166 253.457V258.154H792.624V251.286H794.096L794.134 252.054C794.507 251.457 795.023 251.159 795.683 251.159C795.903 251.159 796.085 251.188 796.229 251.248L796.223 252.695Z" fill="#0F38E2"/>
<path d="M623.387 193.855C623.387 194.761 623.23 195.556 622.917 196.242C622.604 196.923 622.156 197.448 621.572 197.816C620.992 198.18 620.323 198.362 619.566 198.362C618.817 198.362 618.148 198.18 617.56 197.816C616.976 197.448 616.523 196.925 616.201 196.248C615.884 195.571 615.723 194.79 615.719 193.906V193.385C615.719 192.484 615.878 191.688 616.195 190.998C616.517 190.309 616.967 189.782 617.547 189.418C618.131 189.05 618.8 188.866 619.553 188.866C620.306 188.866 620.973 189.048 621.553 189.412C622.137 189.771 622.587 190.292 622.905 190.973C623.222 191.65 623.383 192.439 623.387 193.341V193.855ZM621.781 193.372C621.781 192.348 621.586 191.563 621.197 191.018C620.812 190.472 620.264 190.199 619.553 190.199C618.859 190.199 618.315 190.472 617.922 191.018C617.532 191.559 617.333 192.327 617.325 193.322V193.855C617.325 194.871 617.522 195.656 617.915 196.21C618.313 196.764 618.863 197.041 619.566 197.041C620.277 197.041 620.823 196.771 621.203 196.229C621.589 195.687 621.781 194.896 621.781 193.855V193.372ZM629.817 195.854C629.817 195.448 629.673 195.135 629.386 194.915C629.102 194.695 628.588 194.473 627.843 194.248C627.098 194.024 626.506 193.775 626.066 193.499C625.224 192.97 624.803 192.281 624.803 191.43C624.803 190.685 625.105 190.072 625.71 189.589C626.32 189.107 627.109 188.866 628.078 188.866C628.721 188.866 629.295 188.984 629.798 189.221C630.302 189.458 630.697 189.797 630.985 190.237C631.273 190.673 631.417 191.157 631.417 191.69H629.817C629.817 191.208 629.665 190.831 629.36 190.56C629.06 190.285 628.628 190.148 628.065 190.148C627.54 190.148 627.132 190.26 626.84 190.484C626.552 190.709 626.408 191.022 626.408 191.424C626.408 191.762 626.565 192.046 626.878 192.274C627.191 192.499 627.708 192.719 628.427 192.935C629.146 193.146 629.724 193.389 630.16 193.664C630.596 193.935 630.915 194.248 631.118 194.604C631.322 194.955 631.423 195.368 631.423 195.842C631.423 196.612 631.127 197.226 630.534 197.683C629.946 198.135 629.146 198.362 628.135 198.362C627.466 198.362 626.851 198.239 626.288 197.994C625.729 197.744 625.293 197.401 624.98 196.965C624.671 196.529 624.517 196.022 624.517 195.442H626.123C626.123 195.967 626.296 196.373 626.643 196.661C626.99 196.948 627.488 197.092 628.135 197.092C628.694 197.092 629.113 196.98 629.392 196.756C629.675 196.527 629.817 196.227 629.817 195.854Z" fill="#0F38E2"/>
<g opacity="0.05" filter="url(#filter11_f)">
<circle cx="418.702" cy="269.423" r="22.6952" transform="rotate(25.2533 418.702 269.423)" fill="url(#paint11_linear)"/>
</g>
<circle cx="419.646" cy="269.086" r="8.51069" transform="rotate(25.2533 419.646 269.086)" fill="#3549D0"/>
<g opacity="0.2" filter="url(#filter12_f)">
<circle cx="418.703" cy="269.423" r="13.4753" transform="rotate(25.2533 418.703 269.423)" fill="url(#paint12_linear)"/>
</g>
<g opacity="0.05" filter="url(#filter13_f)">
<circle cx="382.597" cy="273.961" r="22.6952" transform="rotate(25.2533 382.597 273.961)" fill="url(#paint13_linear)"/>
</g>
<circle cx="383.54" cy="273.627" r="8.51069" transform="rotate(25.2533 383.54 273.627)" fill="#3549D0"/>
<g opacity="0.2" filter="url(#filter14_f)">
<circle cx="382.598" cy="273.961" r="13.4753" transform="rotate(25.2533 382.598 273.961)" fill="url(#paint14_linear)"/>
</g>
<g opacity="0.05" filter="url(#filter15_f)">
<circle cx="454.765" cy="293.067" r="22.6952" transform="rotate(25.2533 454.765 293.067)" fill="url(#paint15_linear)"/>
</g>
<circle cx="455.71" cy="292.73" r="8.51069" transform="rotate(25.2533 455.71 292.73)" fill="#3549D0"/>
<g opacity="0.2" filter="url(#filter16_f)">
<circle cx="454.766" cy="293.062" r="13.4753" transform="rotate(25.2533 454.766 293.062)" fill="url(#paint16_linear)"/>
</g>
<g opacity="0.05" filter="url(#filter17_f)">
<circle cx="358.644" cy="260.118" r="22.6952" transform="rotate(25.2533 358.644 260.118)" fill="url(#paint17_linear)"/>
</g>
<circle cx="359.587" cy="259.782" r="8.51069" transform="rotate(25.2533 359.587 259.782)" fill="#3549D0"/>
<g opacity="0.2" filter="url(#filter18_f)">
<circle cx="358.645" cy="260.119" r="13.4753" transform="rotate(25.2533 358.645 260.119)" fill="url(#paint18_linear)"/>
</g>
<g opacity="0.05" filter="url(#filter19_f)">
<circle cx="312.964" cy="258.426" r="22.6952" transform="rotate(25.2533 312.964 258.426)" fill="url(#paint19_linear)"/>
</g>
<circle cx="313.907" cy="258.09" r="8.51069" transform="rotate(25.2533 313.907 258.09)" fill="#3549D0"/>
<g opacity="0.2" filter="url(#filter20_f)">
<circle cx="312.964" cy="258.427" r="13.4753" transform="rotate(25.2533 312.964 258.427)" fill="url(#paint20_linear)"/>
</g>
<g opacity="0.05" filter="url(#filter21_f)">
<circle cx="297.738" cy="307.489" r="22.6952" transform="rotate(25.2533 297.738 307.489)" fill="url(#paint21_linear)"/>
</g>
<circle cx="298.682" cy="307.151" r="8.51069" transform="rotate(25.2533 298.682 307.151)" fill="#3549D0"/>
<g opacity="0.2" filter="url(#filter22_f)">
<circle cx="297.738" cy="307.49" r="13.4753" transform="rotate(25.2533 297.738 307.49)" fill="url(#paint22_linear)"/>
</g>
<g opacity="0.05" filter="url(#filter23_f)">
<circle cx="276.469" cy="344.008" r="22.6952" transform="rotate(25.2533 276.469 344.008)" fill="url(#paint23_linear)"/>
</g>
<circle cx="277.412" cy="343.672" r="8.51069" transform="rotate(25.2533 277.412 343.672)" fill="#3549D0"/>
<g opacity="0.2" filter="url(#filter24_f)">
<circle cx="276.47" cy="344.009" r="13.4753" transform="rotate(25.2533 276.47 344.009)" fill="url(#paint24_linear)"/>
</g>
<g opacity="0.05" filter="url(#filter25_f)">
<circle cx="286.742" cy="375.161" r="22.6952" transform="rotate(25.2533 286.742 375.161)" fill="url(#paint25_linear)"/>
</g>
<circle cx="287.686" cy="374.825" r="8.51069" transform="rotate(25.2533 287.686 374.825)" fill="#3549D0"/>
<g opacity="0.2" filter="url(#filter26_f)">
<circle cx="286.743" cy="375.16" r="13.4753" transform="rotate(25.2533 286.743 375.16)" fill="url(#paint26_linear)"/>
</g>
<g opacity="0.05" filter="url(#filter27_f)">
<circle cx="339.189" cy="386.157" r="22.6952" transform="rotate(25.2533 339.189 386.157)" fill="url(#paint27_linear)"/>
</g>
<circle cx="340.132" cy="385.821" r="8.51069" transform="rotate(25.2533 340.132 385.821)" fill="#3549D0"/>
<g opacity="0.2" filter="url(#filter28_f)">
<circle cx="339.19" cy="386.158" r="13.4753" transform="rotate(25.2533 339.19 386.158)" fill="url(#paint28_linear)"/>
</g>
<g opacity="0.05" filter="url(#filter29_f)">
<circle cx="308.736" cy="394.616" r="22.6952" transform="rotate(25.2533 308.736 394.616)" fill="url(#paint29_linear)"/>
</g>
<circle cx="309.681" cy="394.28" r="8.51069" transform="rotate(25.2533 309.681 394.28)" fill="#3549D0"/>
<g opacity="0.2" filter="url(#filter30_f)">
<circle cx="308.738" cy="394.613" r="13.4753" transform="rotate(25.2533 308.738 394.613)" fill="url(#paint30_linear)"/>
</g>
<g opacity="0.05" filter="url(#filter31_f)">
<circle cx="384.719" cy="405.562" r="22.6952" transform="rotate(25.2533 384.719 405.562)" fill="url(#paint31_linear)"/>
</g>
<circle cx="385.663" cy="405.226" r="8.51069" transform="rotate(25.2533 385.663 405.226)" fill="#3549D0"/>
<g opacity="0.2" filter="url(#filter32_f)">
<circle cx="384.719" cy="405.561" r="13.4753" transform="rotate(25.2533 384.719 405.561)" fill="url(#paint32_linear)"/>
</g>
<g opacity="0.05" filter="url(#filter33_f)">
<circle cx="433.929" cy="394.616" r="22.6952" transform="rotate(25.2533 433.929 394.616)" fill="url(#paint33_linear)"/>
</g>
<circle cx="434.872" cy="394.28" r="8.51069" transform="rotate(25.2533 434.872 394.28)" fill="#3549D0"/>
<g opacity="0.2" filter="url(#filter34_f)">
<circle cx="433.93" cy="394.617" r="13.4753" transform="rotate(25.2533 433.93 394.617)" fill="url(#paint34_linear)"/>
</g>
<g opacity="0.05" filter="url(#filter35_f)">
<circle cx="433.929" cy="346.4" r="22.6952" transform="rotate(25.2533 433.929 346.4)" fill="url(#paint35_linear)"/>
</g>
<circle cx="434.872" cy="346.06" r="8.51069" transform="rotate(25.2533 434.872 346.06)" fill="#3549D0"/>
<g opacity="0.2" filter="url(#filter36_f)">
<circle cx="433.93" cy="346.397" r="13.4753" transform="rotate(25.2533 433.93 346.397)" fill="url(#paint36_linear)"/>
</g>
<path d="M370.73 332.264C365.093 322.066 331.161 278.389 314.9 257.824" stroke="url(#paint37_linear)"/>
<path d="M364.808 338.185C363.735 340.92 345.187 372.033 336.048 387.247" stroke="url(#paint38_linear)"/>
<path d="M359.733 262.9L367.6 325.828" stroke="url(#paint39_linear)"/>
<path d="M384.581 274.179L369.723 321.937" stroke="url(#paint40_linear)"/>
<path d="M421.485 269.667L375.807 320.421" stroke="url(#paint41_linear)"/>
<path d="M452.855 293.634L381.749 321.935" stroke="url(#paint42_linear)"/>
<path d="M434.172 346.644L373.268 332.264" stroke="url(#paint43_linear)"/>
<path d="M436.711 394.86L374.96 338.185" stroke="url(#paint44_linear)"/>
<path d="M388.118 404.715L368.661 336.439" stroke="url(#paint45_linear)"/>
<path d="M297.138 306.887C299.999 307.781 340.061 320.23 359.734 326.342" stroke="url(#paint46_linear)"/>
<path d="M275.269 341.393C279.514 342.242 335.054 334.2 362.294 330.073" stroke="url(#paint47_linear)"/>
<path d="M286.14 374.559C288.792 373.432 336.871 346.457 360.579 333.11" stroke="url(#paint48_linear)"/>
<path d="M306.441 397.398L363.117 333.956" stroke="url(#paint49_linear)"/>
<g opacity="0.05" filter="url(#filter37_f)">
<circle cx="361.134" cy="320.648" r="90.0326" transform="rotate(25.2533 361.134 320.648)" fill="url(#paint50_linear)"/>
</g>
<circle cx="364.877" cy="319.313" r="33.7622" transform="rotate(25.2533 364.877 319.313)" fill="#3549D0"/>
<g opacity="0.2" filter="url(#filter38_f)">
<circle cx="361.136" cy="320.642" r="53.4569" transform="rotate(25.2533 361.136 320.642)" fill="url(#paint51_linear)"/>
</g>
<path fill-rule="evenodd" clip-rule="evenodd" d="M346.659 302.834C346.375 302.834 346.22 303.166 346.402 303.384L351.708 309.752C351.87 309.946 352.109 310.058 352.361 310.058H356.538V310.059L357.459 310.059H371.215C372.296 310.059 373.378 310.471 374.356 311.243C375.335 312.016 375.85 313.252 375.85 315.003C375.85 316.754 375.335 318.042 374.356 318.814C373.378 319.587 372.296 319.947 371.215 319.947L357.041 319.947C356.763 319.947 356.538 320.172 356.538 320.45V337.994C356.538 338.409 356.874 338.745 357.289 338.745H363.717C364.132 338.745 364.468 338.409 364.468 337.994V327.908C364.468 327.494 364.805 327.157 365.219 327.157H371.678C374.82 327.157 377.601 326.024 380.073 323.707C382.545 321.389 383.781 318.505 383.781 315.003C383.781 311.346 382.493 308.411 379.97 306.196C377.446 303.981 374.717 302.848 371.678 302.848H359.19C359.139 302.839 359.087 302.834 359.033 302.834H346.659Z" fill="white"/>
<defs>
<filter id="filter0_d" x="145.227" y="141.368" width="38.2915" height="38.2915" filterUnits="userSpaceOnUse" color-interpolation-filters="sRGB">
<feFlood flood-opacity="0" result="BackgroundImageFix"/>
<feColorMatrix in="SourceAlpha" type="matrix" values="0 0 0 0 0 0 0 0 0 0 0 0 0 0 0 0 0 0 127 0" result="hardAlpha"/>
<feOffset dy="1"/>
<feGaussianBlur stdDeviation="3.5"/>
<feColorMatrix type="matrix" values="0 0 0 0 0.203922 0 0 0 0 0.333333 0 0 0 0 1 0 0 0 0.44 0"/>
<feBlend mode="normal" in2="BackgroundImageFix" result="effect1_dropShadow"/>
<feBlend mode="normal" in="SourceGraphic" in2="effect1_dropShadow" result="shape"/>
</filter>
<filter id="filter1_d" x="339.559" y="123.555" width="38.2915" height="38.2915" filterUnits="userSpaceOnUse" color-interpolation-filters="sRGB">
<feFlood flood-opacity="0" result="BackgroundImageFix"/>
<feColorMatrix in="SourceAlpha" type="matrix" values="0 0 0 0 0 0 0 0 0 0 0 0 0 0 0 0 0 0 127 0" result="hardAlpha"/>
<feOffset dy="1"/>
<feGaussianBlur stdDeviation="3.5"/>
<feColorMatrix type="matrix" values="0 0 0 0 0.203922 0 0 0 0 0.333333 0 0 0 0 1 0 0 0 0.44 0"/>
<feBlend mode="normal" in2="BackgroundImageFix" result="effect1_dropShadow"/>
<feBlend mode="normal" in="SourceGraphic" in2="effect1_dropShadow" result="shape"/>
</filter>
<filter id="filter2_d" x="527.413" y="274.162" width="38.2915" height="38.2915" filterUnits="userSpaceOnUse" color-interpolation-filters="sRGB">
<feFlood flood-opacity="0" result="BackgroundImageFix"/>
<feColorMatrix in="SourceAlpha" type="matrix" values="0 0 0 0 0 0 0 0 0 0 0 0 0 0 0 0 0 0 127 0" result="hardAlpha"/>
<feOffset dy="1"/>
<feGaussianBlur stdDeviation="3.5"/>
<feColorMatrix type="matrix" values="0 0 0 0 0.203922 0 0 0 0 0.333333 0 0 0 0 1 0 0 0 0.44 0"/>
<feBlend mode="normal" in2="BackgroundImageFix" result="effect1_dropShadow"/>
<feBlend mode="normal" in="SourceGraphic" in2="effect1_dropShadow" result="shape"/>
</filter>
<filter id="filter3_d" x="347.656" y="471.733" width="38.2915" height="38.2915" filterUnits="userSpaceOnUse" color-interpolation-filters="sRGB">
<feFlood flood-opacity="0" result="BackgroundImageFix"/>
<feColorMatrix in="SourceAlpha" type="matrix" values="0 0 0 0 0 0 0 0 0 0 0 0 0 0 0 0 0 0 127 0" result="hardAlpha"/>
<feOffset dy="1"/>
<feGaussianBlur stdDeviation="3.5"/>
<feColorMatrix type="matrix" values="0 0 0 0 0.203922 0 0 0 0 0.333333 0 0 0 0 1 0 0 0 0.44 0"/>
<feBlend mode="normal" in2="BackgroundImageFix" result="effect1_dropShadow"/>
<feBlend mode="normal" in="SourceGraphic" in2="effect1_dropShadow" result="shape"/>
</filter>
<filter id="filter4_d" x="104.741" y="402.097" width="38.2915" height="38.2915" filterUnits="userSpaceOnUse" color-interpolation-filters="sRGB">
<feFlood flood-opacity="0" result="BackgroundImageFix"/>
<feColorMatrix in="SourceAlpha" type="matrix" values="0 0 0 0 0 0 0 0 0 0 0 0 0 0 0 0 0 0 127 0" result="hardAlpha"/>
<feOffset dy="1"/>
<feGaussianBlur stdDeviation="3.5"/>
<feColorMatrix type="matrix" values="0 0 0 0 0.203922 0 0 0 0 0.333333 0 0 0 0 1 0 0 0 0.44 0"/>
<feBlend mode="normal" in2="BackgroundImageFix" result="effect1_dropShadow"/>
<feBlend mode="normal" in="SourceGraphic" in2="effect1_dropShadow" result="shape"/>
</filter>
<filter id="filter5_d" x="39.9639" y="274.162" width="38.2915" height="38.2915" filterUnits="userSpaceOnUse" color-interpolation-filters="sRGB">
<feFlood flood-opacity="0" result="BackgroundImageFix"/>
<feColorMatrix in="SourceAlpha" type="matrix" values="0 0 0 0 0 0 0 0 0 0 0 0 0 0 0 0 0 0 127 0" result="hardAlpha"/>
<feOffset dy="1"/>
<feGaussianBlur stdDeviation="3.5"/>
<feColorMatrix type="matrix" values="0 0 0 0 0.203922 0 0 0 0 0.333333 0 0 0 0 1 0 0 0 0.44 0"/>
<feBlend mode="normal" in2="BackgroundImageFix" result="effect1_dropShadow"/>
<feBlend mode="normal" in="SourceGraphic" in2="effect1_dropShadow" result="shape"/>
</filter>
<filter id="filter6_d" x="491.785" y="463.636" width="38.2915" height="38.2915" filterUnits="userSpaceOnUse" color-interpolation-filters="sRGB">
<feFlood flood-opacity="0" result="BackgroundImageFix"/>
<feColorMatrix in="SourceAlpha" type="matrix" values="0 0 0 0 0 0 0 0 0 0 0 0 0 0 0 0 0 0 127 0" result="hardAlpha"/>
<feOffset dy="1"/>
<feGaussianBlur stdDeviation="3.5"/>
<feColorMatrix type="matrix" values="0 0 0 0 0.203922 0 0 0 0 0.333333 0 0 0 0 1 0 0 0 0.44 0"/>
<feBlend mode="normal" in2="BackgroundImageFix" result="effect1_dropShadow"/>
<feBlend mode="normal" in="SourceGraphic" in2="effect1_dropShadow" result="shape"/>
</filter>
<filter id="filter7_d" x="611.623" y="364.85" width="38.2915" height="38.2915" filterUnits="userSpaceOnUse" color-interpolation-filters="sRGB">
<feFlood flood-opacity="0" result="BackgroundImageFix"/>
<feColorMatrix in="SourceAlpha" type="matrix" values="0 0 0 0 0 0 0 0 0 0 0 0 0 0 0 0 0 0 127 0" result="hardAlpha"/>
<feOffset dy="1"/>
<feGaussianBlur stdDeviation="3.5"/>
<feColorMatrix type="matrix" values="0 0 0 0 0.203922 0 0 0 0 0.333333 0 0 0 0 1 0 0 0 0.44 0"/>
<feBlend mode="normal" in2="BackgroundImageFix" result="effect1_dropShadow"/>
<feBlend mode="normal" in="SourceGraphic" in2="effect1_dropShadow" result="shape"/>
</filter>
<filter id="filter8_d" x="626.198" y="89.5466" width="38.2915" height="38.2915" filterUnits="userSpaceOnUse" color-interpolation-filters="sRGB">
<feFlood flood-opacity="0" result="BackgroundImageFix"/>
<feColorMatrix in="SourceAlpha" type="matrix" values="0 0 0 0 0 0 0 0 0 0 0 0 0 0 0 0 0 0 127 0" result="hardAlpha"/>
<feOffset dy="1"/>
<feGaussianBlur stdDeviation="3.5"/>
<feColorMatrix type="matrix" values="0 0 0 0 0.203922 0 0 0 0 0.333333 0 0 0 0 1 0 0 0 0.44 0"/>
<feBlend mode="normal" in2="BackgroundImageFix" result="effect1_dropShadow"/>
<feBlend mode="normal" in="SourceGraphic" in2="effect1_dropShadow" result="shape"/>
</filter>
<filter id="filter9_d" x="699.073" y="236.915" width="38.2915" height="38.2915" filterUnits="userSpaceOnUse" color-interpolation-filters="sRGB">
<feFlood flood-opacity="0" result="BackgroundImageFix"/>
<feColorMatrix in="SourceAlpha" type="matrix" values="0 0 0 0 0 0 0 0 0 0 0 0 0 0 0 0 0 0 127 0" result="hardAlpha"/>
<feOffset dy="1"/>
<feGaussianBlur stdDeviation="3.5"/>
<feColorMatrix type="matrix" values="0 0 0 0 0.203922 0 0 0 0 0.333333 0 0 0 0 1 0 0 0 0.44 0"/>
<feBlend mode="normal" in2="BackgroundImageFix" result="effect1_dropShadow"/>
<feBlend mode="normal" in="SourceGraphic" in2="effect1_dropShadow" result="shape"/>
</filter>
<filter id="filter10_d" x="574.377" y="176.996" width="38.2915" height="38.2915" filterUnits="userSpaceOnUse" color-interpolation-filters="sRGB">
<feFlood flood-opacity="0" result="BackgroundImageFix"/>
<feColorMatrix in="SourceAlpha" type="matrix" values="0 0 0 0 0 0 0 0 0 0 0 0 0 0 0 0 0 0 127 0" result="hardAlpha"/>
<feOffset dy="1"/>
<feGaussianBlur stdDeviation="3.5"/>
<feColorMatrix type="matrix" values="0 0 0 0 0.203922 0 0 0 0 0.333333 0 0 0 0 1 0 0 0 0.44 0"/>
<feBlend mode="normal" in2="BackgroundImageFix" result="effect1_dropShadow"/>
<feBlend mode="normal" in="SourceGraphic" in2="effect1_dropShadow" result="shape"/>
</filter>
<filter id="filter11_f" x="373.494" y="224.215" width="90.4169" height="90.4169" filterUnits="userSpaceOnUse" color-interpolation-filters="sRGB">
<feFlood flood-opacity="0" result="BackgroundImageFix"/>
<feBlend mode="normal" in="SourceGraphic" in2="BackgroundImageFix" result="shape"/>
<feGaussianBlur stdDeviation="7.5" result="effect1_foregroundBlur"/>
</filter>
<filter id="filter12_f" x="385.767" y="236.487" width="65.8725" height="65.8725" filterUnits="userSpaceOnUse" color-interpolation-filters="sRGB">
<feFlood flood-opacity="0" result="BackgroundImageFix"/>
<feBlend mode="normal" in="SourceGraphic" in2="BackgroundImageFix" result="shape"/>
<feGaussianBlur stdDeviation="7.5" result="effect1_foregroundBlur"/>
</filter>
<filter id="filter13_f" x="337.389" y="228.752" width="90.4169" height="90.4169" filterUnits="userSpaceOnUse" color-interpolation-filters="sRGB">
<feFlood flood-opacity="0" result="BackgroundImageFix"/>
<feBlend mode="normal" in="SourceGraphic" in2="BackgroundImageFix" result="shape"/>
<feGaussianBlur stdDeviation="7.5" result="effect1_foregroundBlur"/>
</filter>
<filter id="filter14_f" x="349.661" y="241.024" width="65.8725" height="65.8725" filterUnits="userSpaceOnUse" color-interpolation-filters="sRGB">
<feFlood flood-opacity="0" result="BackgroundImageFix"/>
<feBlend mode="normal" in="SourceGraphic" in2="BackgroundImageFix" result="shape"/>
<feGaussianBlur stdDeviation="7.5" result="effect1_foregroundBlur"/>
</filter>
<filter id="filter15_f" x="409.557" y="247.858" width="90.4169" height="90.4169" filterUnits="userSpaceOnUse" color-interpolation-filters="sRGB">
<feFlood flood-opacity="0" result="BackgroundImageFix"/>
<feBlend mode="normal" in="SourceGraphic" in2="BackgroundImageFix" result="shape"/>
<feGaussianBlur stdDeviation="7.5" result="effect1_foregroundBlur"/>
</filter>
<filter id="filter16_f" x="421.829" y="260.126" width="65.8725" height="65.8725" filterUnits="userSpaceOnUse" color-interpolation-filters="sRGB">
<feFlood flood-opacity="0" result="BackgroundImageFix"/>
<feBlend mode="normal" in="SourceGraphic" in2="BackgroundImageFix" result="shape"/>
<feGaussianBlur stdDeviation="7.5" result="effect1_foregroundBlur"/>
</filter>
<filter id="filter17_f" x="313.436" y="214.91" width="90.4169" height="90.4169" filterUnits="userSpaceOnUse" color-interpolation-filters="sRGB">
<feFlood flood-opacity="0" result="BackgroundImageFix"/>
<feBlend mode="normal" in="SourceGraphic" in2="BackgroundImageFix" result="shape"/>
<feGaussianBlur stdDeviation="7.5" result="effect1_foregroundBlur"/>
</filter>
<filter id="filter18_f" x="325.708" y="227.183" width="65.8725" height="65.8725" filterUnits="userSpaceOnUse" color-interpolation-filters="sRGB">
<feFlood flood-opacity="0" result="BackgroundImageFix"/>
<feBlend mode="normal" in="SourceGraphic" in2="BackgroundImageFix" result="shape"/>
<feGaussianBlur stdDeviation="7.5" result="effect1_foregroundBlur"/>
</filter>
<filter id="filter19_f" x="267.756" y="213.218" width="90.4169" height="90.4169" filterUnits="userSpaceOnUse" color-interpolation-filters="sRGB">
<feFlood flood-opacity="0" result="BackgroundImageFix"/>
<feBlend mode="normal" in="SourceGraphic" in2="BackgroundImageFix" result="shape"/>
<feGaussianBlur stdDeviation="7.5" result="effect1_foregroundBlur"/>
</filter>
<filter id="filter20_f" x="280.027" y="225.491" width="65.8725" height="65.8725" filterUnits="userSpaceOnUse" color-interpolation-filters="sRGB">
<feFlood flood-opacity="0" result="BackgroundImageFix"/>
<feBlend mode="normal" in="SourceGraphic" in2="BackgroundImageFix" result="shape"/>
<feGaussianBlur stdDeviation="7.5" result="effect1_foregroundBlur"/>
</filter>
<filter id="filter21_f" x="252.53" y="262.28" width="90.4169" height="90.4169" filterUnits="userSpaceOnUse" color-interpolation-filters="sRGB">
<feFlood flood-opacity="0" result="BackgroundImageFix"/>
<feBlend mode="normal" in="SourceGraphic" in2="BackgroundImageFix" result="shape"/>
<feGaussianBlur stdDeviation="7.5" result="effect1_foregroundBlur"/>
</filter>
<filter id="filter22_f" x="264.802" y="274.553" width="65.8725" height="65.8725" filterUnits="userSpaceOnUse" color-interpolation-filters="sRGB">
<feFlood flood-opacity="0" result="BackgroundImageFix"/>
<feBlend mode="normal" in="SourceGraphic" in2="BackgroundImageFix" result="shape"/>
<feGaussianBlur stdDeviation="7.5" result="effect1_foregroundBlur"/>
</filter>
<filter id="filter23_f" x="231.261" y="298.8" width="90.4169" height="90.4169" filterUnits="userSpaceOnUse" color-interpolation-filters="sRGB">
<feFlood flood-opacity="0" result="BackgroundImageFix"/>
<feBlend mode="normal" in="SourceGraphic" in2="BackgroundImageFix" result="shape"/>
<feGaussianBlur stdDeviation="7.5" result="effect1_foregroundBlur"/>
</filter>
<filter id="filter24_f" x="243.533" y="311.073" width="65.8725" height="65.8725" filterUnits="userSpaceOnUse" color-interpolation-filters="sRGB">
<feFlood flood-opacity="0" result="BackgroundImageFix"/>
<feBlend mode="normal" in="SourceGraphic" in2="BackgroundImageFix" result="shape"/>
<feGaussianBlur stdDeviation="7.5" result="effect1_foregroundBlur"/>
</filter>
<filter id="filter25_f" x="241.534" y="329.952" width="90.4169" height="90.4169" filterUnits="userSpaceOnUse" color-interpolation-filters="sRGB">
<feFlood flood-opacity="0" result="BackgroundImageFix"/>
<feBlend mode="normal" in="SourceGraphic" in2="BackgroundImageFix" result="shape"/>
<feGaussianBlur stdDeviation="7.5" result="effect1_foregroundBlur"/>
</filter>
<filter id="filter26_f" x="253.807" y="342.224" width="65.8725" height="65.8725" filterUnits="userSpaceOnUse" color-interpolation-filters="sRGB">
<feFlood flood-opacity="0" result="BackgroundImageFix"/>
<feBlend mode="normal" in="SourceGraphic" in2="BackgroundImageFix" result="shape"/>
<feGaussianBlur stdDeviation="7.5" result="effect1_foregroundBlur"/>
</filter>
<filter id="filter27_f" x="293.98" y="340.949" width="90.4169" height="90.4169" filterUnits="userSpaceOnUse" color-interpolation-filters="sRGB">
<feFlood flood-opacity="0" result="BackgroundImageFix"/>
<feBlend mode="normal" in="SourceGraphic" in2="BackgroundImageFix" result="shape"/>
<feGaussianBlur stdDeviation="7.5" result="effect1_foregroundBlur"/>
</filter>
<filter id="filter28_f" x="306.253" y="353.222" width="65.8725" height="65.8725" filterUnits="userSpaceOnUse" color-interpolation-filters="sRGB">
<feFlood flood-opacity="0" result="BackgroundImageFix"/>
<feBlend mode="normal" in="SourceGraphic" in2="BackgroundImageFix" result="shape"/>
<feGaussianBlur stdDeviation="7.5" result="effect1_foregroundBlur"/>
</filter>
<filter id="filter29_f" x="263.527" y="349.408" width="90.4169" height="90.4169" filterUnits="userSpaceOnUse" color-interpolation-filters="sRGB">
<feFlood flood-opacity="0" result="BackgroundImageFix"/>
<feBlend mode="normal" in="SourceGraphic" in2="BackgroundImageFix" result="shape"/>
<feGaussianBlur stdDeviation="7.5" result="effect1_foregroundBlur"/>
</filter>
<filter id="filter30_f" x="275.802" y="361.677" width="65.8725" height="65.8725" filterUnits="userSpaceOnUse" color-interpolation-filters="sRGB">
<feFlood flood-opacity="0" result="BackgroundImageFix"/>
<feBlend mode="normal" in="SourceGraphic" in2="BackgroundImageFix" result="shape"/>
<feGaussianBlur stdDeviation="7.5" result="effect1_foregroundBlur"/>
</filter>
<filter id="filter31_f" x="339.511" y="360.354" width="90.4169" height="90.4169" filterUnits="userSpaceOnUse" color-interpolation-filters="sRGB">
<feFlood flood-opacity="0" result="BackgroundImageFix"/>
<feBlend mode="normal" in="SourceGraphic" in2="BackgroundImageFix" result="shape"/>
<feGaussianBlur stdDeviation="7.5" result="effect1_foregroundBlur"/>
</filter>
<filter id="filter32_f" x="351.782" y="372.625" width="65.8725" height="65.8725" filterUnits="userSpaceOnUse" color-interpolation-filters="sRGB">
<feFlood flood-opacity="0" result="BackgroundImageFix"/>
<feBlend mode="normal" in="SourceGraphic" in2="BackgroundImageFix" result="shape"/>
<feGaussianBlur stdDeviation="7.5" result="effect1_foregroundBlur"/>
</filter>
<filter id="filter33_f" x="388.721" y="349.408" width="90.4169" height="90.4169" filterUnits="userSpaceOnUse" color-interpolation-filters="sRGB">
<feFlood flood-opacity="0" result="BackgroundImageFix"/>
<feBlend mode="normal" in="SourceGraphic" in2="BackgroundImageFix" result="shape"/>
<feGaussianBlur stdDeviation="7.5" result="effect1_foregroundBlur"/>
</filter>
<filter id="filter34_f" x="400.993" y="361.681" width="65.8725" height="65.8725" filterUnits="userSpaceOnUse" color-interpolation-filters="sRGB">
<feFlood flood-opacity="0" result="BackgroundImageFix"/>
<feBlend mode="normal" in="SourceGraphic" in2="BackgroundImageFix" result="shape"/>
<feGaussianBlur stdDeviation="7.5" result="effect1_foregroundBlur"/>
</filter>
<filter id="filter35_f" x="388.721" y="301.192" width="90.4169" height="90.4169" filterUnits="userSpaceOnUse" color-interpolation-filters="sRGB">
<feFlood flood-opacity="0" result="BackgroundImageFix"/>
<feBlend mode="normal" in="SourceGraphic" in2="BackgroundImageFix" result="shape"/>
<feGaussianBlur stdDeviation="7.5" result="effect1_foregroundBlur"/>
</filter>
<filter id="filter36_f" x="400.993" y="313.461" width="65.8725" height="65.8725" filterUnits="userSpaceOnUse" color-interpolation-filters="sRGB">
<feFlood flood-opacity="0" result="BackgroundImageFix"/>
<feBlend mode="normal" in="SourceGraphic" in2="BackgroundImageFix" result="shape"/>
<feGaussianBlur stdDeviation="7.5" result="effect1_foregroundBlur"/>
</filter>
<filter id="filter37_f" x="226.296" y="185.81" width="269.676" height="269.676" filterUnits="userSpaceOnUse" color-interpolation-filters="sRGB">
<feFlood flood-opacity="0" result="BackgroundImageFix"/>
<feBlend mode="normal" in="SourceGraphic" in2="BackgroundImageFix" result="shape"/>
<feGaussianBlur stdDeviation="7.5" result="effect1_foregroundBlur"/>
</filter>
<filter id="filter38_f" x="274.982" y="234.489" width="172.308" height="172.308" filterUnits="userSpaceOnUse" color-interpolation-filters="sRGB">
<feFlood flood-opacity="0" result="BackgroundImageFix"/>
<feBlend mode="normal" in="SourceGraphic" in2="BackgroundImageFix" result="shape"/>
<feGaussianBlur stdDeviation="7.5" result="effect1_foregroundBlur"/>
</filter>
<linearGradient id="paint0_linear" x1="164.372" y1="147.368" x2="164.372" y2="171.66" gradientUnits="userSpaceOnUse">
<stop stop-color="white"/>
<stop offset="1" stop-color="#F1F1F1"/>
</linearGradient>
<linearGradient id="paint1_linear" x1="358.704" y1="129.555" x2="358.704" y2="153.846" gradientUnits="userSpaceOnUse">
<stop stop-color="white"/>
<stop offset="1" stop-color="#F1F1F1"/>
</linearGradient>
<linearGradient id="paint2_linear" x1="546.559" y1="280.162" x2="546.559" y2="304.453" gradientUnits="userSpaceOnUse">
<stop stop-color="white"/>
<stop offset="1" stop-color="#F1F1F1"/>
</linearGradient>
<linearGradient id="paint3_linear" x1="366.802" y1="477.733" x2="366.802" y2="502.024" gradientUnits="userSpaceOnUse">
<stop stop-color="white"/>
<stop offset="1" stop-color="#F1F1F1"/>
</linearGradient>
<linearGradient id="paint4_linear" x1="123.887" y1="408.097" x2="123.887" y2="432.389" gradientUnits="userSpaceOnUse">
<stop stop-color="white"/>
<stop offset="1" stop-color="#F1F1F1"/>
</linearGradient>
<linearGradient id="paint5_linear" x1="59.1096" y1="280.162" x2="59.1096" y2="304.453" gradientUnits="userSpaceOnUse">
<stop stop-color="white"/>
<stop offset="1" stop-color="#F1F1F1"/>
</linearGradient>
<linearGradient id="paint6_linear" x1="510.931" y1="469.636" x2="510.931" y2="493.927" gradientUnits="userSpaceOnUse">
<stop stop-color="white"/>
<stop offset="1" stop-color="#F1F1F1"/>
</linearGradient>
<linearGradient id="paint7_linear" x1="630.769" y1="370.85" x2="630.769" y2="395.142" gradientUnits="userSpaceOnUse">
<stop stop-color="white"/>
<stop offset="1" stop-color="#F1F1F1"/>
</linearGradient>
<linearGradient id="paint8_linear" x1="645.344" y1="95.5466" x2="645.344" y2="119.838" gradientUnits="userSpaceOnUse">
<stop stop-color="white"/>
<stop offset="1" stop-color="#F1F1F1"/>
</linearGradient>
<linearGradient id="paint9_linear" x1="718.219" y1="242.915" x2="718.219" y2="267.206" gradientUnits="userSpaceOnUse">
<stop stop-color="white"/>
<stop offset="1" stop-color="#F1F1F1"/>
</linearGradient>
<linearGradient id="paint10_linear" x1="593.523" y1="182.996" x2="593.523" y2="207.287" gradientUnits="userSpaceOnUse">
<stop stop-color="white"/>
<stop offset="1" stop-color="#F1F1F1"/>
</linearGradient>
<linearGradient id="paint11_linear" x1="441.398" y1="246.728" x2="396.007" y2="246.728" gradientUnits="userSpaceOnUse">
<stop stop-color="#3549D0"/>
<stop offset="1" stop-color="white"/>
</linearGradient>
<linearGradient id="paint12_linear" x1="432.179" y1="255.948" x2="405.228" y2="255.948" gradientUnits="userSpaceOnUse">
<stop stop-color="#3549D0"/>
<stop offset="1" stop-color="white"/>
</linearGradient>
<linearGradient id="paint13_linear" x1="405.292" y1="251.266" x2="359.902" y2="251.266" gradientUnits="userSpaceOnUse">
<stop stop-color="#3549D0"/>
<stop offset="1" stop-color="white"/>
</linearGradient>
<linearGradient id="paint14_linear" x1="396.073" y1="260.485" x2="369.123" y2="260.485" gradientUnits="userSpaceOnUse">
<stop stop-color="#3549D0"/>
<stop offset="1" stop-color="white"/>
</linearGradient>
<linearGradient id="paint15_linear" x1="477.46" y1="270.372" x2="432.07" y2="270.372" gradientUnits="userSpaceOnUse">
<stop stop-color="#3549D0"/>
<stop offset="1" stop-color="white"/>
</linearGradient>
<linearGradient id="paint16_linear" x1="468.241" y1="279.587" x2="441.29" y2="279.587" gradientUnits="userSpaceOnUse">
<stop stop-color="#3549D0"/>
<stop offset="1" stop-color="white"/>
</linearGradient>
<linearGradient id="paint17_linear" x1="381.339" y1="237.423" x2="335.949" y2="237.423" gradientUnits="userSpaceOnUse">
<stop stop-color="#3549D0"/>
<stop offset="1" stop-color="white"/>
</linearGradient>
<linearGradient id="paint18_linear" x1="372.12" y1="246.644" x2="345.169" y2="246.644" gradientUnits="userSpaceOnUse">
<stop stop-color="#3549D0"/>
<stop offset="1" stop-color="white"/>
</linearGradient>
<linearGradient id="paint19_linear" x1="335.659" y1="235.731" x2="290.269" y2="235.731" gradientUnits="userSpaceOnUse">
<stop stop-color="#3549D0"/>
<stop offset="1" stop-color="white"/>
</linearGradient>
<linearGradient id="paint20_linear" x1="326.439" y1="244.952" x2="299.489" y2="244.952" gradientUnits="userSpaceOnUse">
<stop stop-color="#3549D0"/>
<stop offset="1" stop-color="white"/>
</linearGradient>
<linearGradient id="paint21_linear" x1="320.434" y1="284.793" x2="275.043" y2="284.793" gradientUnits="userSpaceOnUse">
<stop stop-color="#3549D0"/>
<stop offset="1" stop-color="white"/>
</linearGradient>
<linearGradient id="paint22_linear" x1="311.214" y1="294.014" x2="284.263" y2="294.014" gradientUnits="userSpaceOnUse">
<stop stop-color="#3549D0"/>
<stop offset="1" stop-color="white"/>
</linearGradient>
<linearGradient id="paint23_linear" x1="299.164" y1="321.313" x2="253.774" y2="321.313" gradientUnits="userSpaceOnUse">
<stop stop-color="#3549D0"/>
<stop offset="1" stop-color="white"/>
</linearGradient>
<linearGradient id="paint24_linear" x1="289.945" y1="330.534" x2="262.995" y2="330.534" gradientUnits="userSpaceOnUse">
<stop stop-color="#3549D0"/>
<stop offset="1" stop-color="white"/>
</linearGradient>
<linearGradient id="paint25_linear" x1="309.438" y1="352.465" x2="264.047" y2="352.465" gradientUnits="userSpaceOnUse">
<stop stop-color="#3549D0"/>
<stop offset="1" stop-color="white"/>
</linearGradient>
<linearGradient id="paint26_linear" x1="300.219" y1="361.685" x2="273.268" y2="361.685" gradientUnits="userSpaceOnUse">
<stop stop-color="#3549D0"/>
<stop offset="1" stop-color="white"/>
</linearGradient>
<linearGradient id="paint27_linear" x1="361.884" y1="363.462" x2="316.493" y2="363.462" gradientUnits="userSpaceOnUse">
<stop stop-color="#3549D0"/>
<stop offset="1" stop-color="white"/>
</linearGradient>
<linearGradient id="paint28_linear" x1="352.665" y1="372.683" x2="325.714" y2="372.683" gradientUnits="userSpaceOnUse">
<stop stop-color="#3549D0"/>
<stop offset="1" stop-color="white"/>
</linearGradient>
<linearGradient id="paint29_linear" x1="331.431" y1="371.921" x2="286.04" y2="371.921" gradientUnits="userSpaceOnUse">
<stop stop-color="#3549D0"/>
<stop offset="1" stop-color="white"/>
</linearGradient>
<linearGradient id="paint30_linear" x1="322.214" y1="381.138" x2="295.263" y2="381.138" gradientUnits="userSpaceOnUse">
<stop stop-color="#3549D0"/>
<stop offset="1" stop-color="white"/>
</linearGradient>
<linearGradient id="paint31_linear" x1="407.414" y1="382.867" x2="362.024" y2="382.867" gradientUnits="userSpaceOnUse">
<stop stop-color="#3549D0"/>
<stop offset="1" stop-color="white"/>
</linearGradient>
<linearGradient id="paint32_linear" x1="398.194" y1="392.086" x2="371.244" y2="392.086" gradientUnits="userSpaceOnUse">
<stop stop-color="#3549D0"/>
<stop offset="1" stop-color="white"/>
</linearGradient>
<linearGradient id="paint33_linear" x1="456.624" y1="371.921" x2="411.234" y2="371.921" gradientUnits="userSpaceOnUse">
<stop stop-color="#3549D0"/>
<stop offset="1" stop-color="white"/>
</linearGradient>
<linearGradient id="paint34_linear" x1="447.405" y1="381.142" x2="420.455" y2="381.142" gradientUnits="userSpaceOnUse">
<stop stop-color="#3549D0"/>
<stop offset="1" stop-color="white"/>
</linearGradient>
<linearGradient id="paint35_linear" x1="456.624" y1="323.705" x2="411.234" y2="323.705" gradientUnits="userSpaceOnUse">
<stop stop-color="#3549D0"/>
<stop offset="1" stop-color="white"/>
</linearGradient>
<linearGradient id="paint36_linear" x1="447.405" y1="332.922" x2="420.455" y2="332.922" gradientUnits="userSpaceOnUse">
<stop stop-color="#3549D0"/>
<stop offset="1" stop-color="white"/>
</linearGradient>
<linearGradient id="paint37_linear" x1="342.815" y1="257.824" x2="342.815" y2="332.264" gradientUnits="userSpaceOnUse">
<stop stop-color="#3549D0"/>
<stop offset="1" stop-color="white" stop-opacity="0"/>
</linearGradient>
<linearGradient id="paint38_linear" x1="350.428" y1="338.185" x2="350.428" y2="387.247" gradientUnits="userSpaceOnUse">
<stop stop-color="#3549D0"/>
<stop offset="1" stop-color="white" stop-opacity="0"/>
</linearGradient>
<linearGradient id="paint39_linear" x1="360.23" y1="262.838" x2="368.096" y2="325.766" gradientUnits="userSpaceOnUse">
<stop stop-color="#3549D0"/>
<stop offset="1" stop-color="white" stop-opacity="0"/>
</linearGradient>
<linearGradient id="paint40_linear" x1="377.152" y1="274.179" x2="377.152" y2="321.937" gradientUnits="userSpaceOnUse">
<stop stop-color="#3549D0"/>
<stop offset="1" stop-color="white" stop-opacity="0"/>
</linearGradient>
<linearGradient id="paint41_linear" x1="398.646" y1="269.667" x2="398.646" y2="320.421" gradientUnits="userSpaceOnUse">
<stop stop-color="#3549D0"/>
<stop offset="1" stop-color="white" stop-opacity="0"/>
</linearGradient>
<linearGradient id="paint42_linear" x1="417.302" y1="293.634" x2="417.302" y2="321.935" gradientUnits="userSpaceOnUse">
<stop stop-color="#3549D0"/>
<stop offset="1" stop-color="white" stop-opacity="0"/>
</linearGradient>
<linearGradient id="paint43_linear" x1="403.72" y1="332.264" x2="403.72" y2="346.644" gradientUnits="userSpaceOnUse">
<stop stop-color="#3549D0"/>
<stop offset="1" stop-color="white" stop-opacity="0"/>
</linearGradient>
<linearGradient id="paint44_linear" x1="405.835" y1="338.185" x2="405.835" y2="394.86" gradientUnits="userSpaceOnUse">
<stop stop-color="#3549D0"/>
<stop offset="1" stop-color="white" stop-opacity="0"/>
</linearGradient>
<linearGradient id="paint45_linear" x1="378.39" y1="336.439" x2="378.39" y2="404.715" gradientUnits="userSpaceOnUse">
<stop stop-color="#3549D0"/>
<stop offset="1" stop-color="white" stop-opacity="0"/>
</linearGradient>
<linearGradient id="paint46_linear" x1="328.436" y1="306.887" x2="328.436" y2="326.342" gradientUnits="userSpaceOnUse">
<stop stop-color="#3549D0"/>
<stop offset="1" stop-color="white" stop-opacity="0"/>
</linearGradient>
<linearGradient id="paint47_linear" x1="318.781" y1="330.073" x2="318.781" y2="341.456" gradientUnits="userSpaceOnUse">
<stop stop-color="#3549D0"/>
<stop offset="1" stop-color="white" stop-opacity="0"/>
</linearGradient>
<linearGradient id="paint48_linear" x1="323.359" y1="333.11" x2="323.359" y2="374.559" gradientUnits="userSpaceOnUse">
<stop stop-color="#3549D0"/>
<stop offset="1" stop-color="white" stop-opacity="0"/>
</linearGradient>
<linearGradient id="paint49_linear" x1="334.779" y1="333.956" x2="334.779" y2="397.398" gradientUnits="userSpaceOnUse">
<stop stop-color="#3549D0"/>
<stop offset="1" stop-color="white" stop-opacity="0"/>
</linearGradient>
<linearGradient id="paint50_linear" x1="451.166" y1="230.615" x2="271.101" y2="230.615" gradientUnits="userSpaceOnUse">
<stop stop-color="#3549D0"/>
<stop offset="1" stop-color="white"/>
</linearGradient>
<linearGradient id="paint51_linear" x1="414.593" y1="267.186" x2="307.679" y2="267.186" gradientUnits="userSpaceOnUse">
<stop stop-color="#3549D0"/>
<stop offset="1" stop-color="white"/>
</linearGradient>
</defs>
</svg>
