<svg width="800" height="459" viewBox="0 0 800 459" fill="none" xmlns="http://www.w3.org/2000/svg">
<g clip-path="url(#clip0)">
<g opacity="0.8" filter="url(#filter0_f)">
<ellipse cx="392.829" cy="190.785" rx="102.428" ry="102.065" fill="url(#paint0_linear)"/>
</g>
<path opacity="0.3" d="M491.448 190.477C491.448 243.672 451.098 271.385 398.529 271.385C345.959 271.385 292.918 246.165 292.918 192.97C292.918 139.775 332.588 105.263 385.157 105.263C437.727 105.263 491.448 107.756 491.448 190.477Z" fill="url(#paint1_linear)"/>
<path opacity="0.3" d="M487.372 184.36C487.372 237.556 444.756 280.679 392.187 280.679C339.617 280.679 297.001 237.556 297.001 184.36C297.001 131.165 330.778 96.6536 383.348 96.6536C435.917 96.6536 487.372 131.165 487.372 184.36Z" fill="url(#paint2_linear)"/>
<circle cx="392.103" cy="188.242" r="87.8994" fill="url(#paint3_radial)"/>
<path d="M421.977 230.408H364.178C356.296 230.408 349.916 224.027 349.916 216.145C349.916 211.266 355.733 208.264 357.61 207.325L381.068 197.004C382.944 196.629 383.695 196.066 383.695 193.439C381.63 190.999 373.373 180.678 373.373 171.858C373.373 158.346 382.381 147.462 393.641 147.462C404.9 147.462 413.908 158.346 413.908 171.67C413.908 180.49 405.276 190.999 403.211 193.439C403.024 196.254 403.587 196.629 405.276 197.192L428.358 205.261C432.299 206.762 436.052 212.017 436.052 215.958C436.239 224.027 429.859 230.408 421.977 230.408ZM382.193 200.757L359.111 210.891C356.484 212.205 353.669 214.269 353.669 216.333C353.669 222.151 358.361 226.842 364.178 226.842H421.977C427.795 226.842 432.486 222.151 432.486 216.333C432.486 213.894 429.671 210.14 427.232 209.202L404.337 200.945C400.021 199.444 399.27 196.629 399.646 192.688V192.125L400.021 191.75C400.209 191.562 410.155 180.302 410.155 172.045C410.155 160.974 402.648 151.591 393.641 151.591C384.633 151.591 377.127 160.974 377.127 172.233C377.127 180.49 386.885 191.75 386.885 191.75L387.26 192.313V192.876C387.636 197.379 386.134 199.631 382.193 200.757Z" fill="white"/>
<g opacity="0.5">
<path d="M32.2441 265.907C25.7696 205.604 61.9549 146.448 125.795 99.5587C189.629 52.6737 281.072 18.0878 384.995 6.92993C488.918 -4.22791 585.619 10.1576 657.951 42.4229C730.29 74.6912 778.208 124.817 784.683 185.12C791.157 245.424 754.972 304.58 691.132 351.469C627.298 398.354 535.855 432.94 431.932 444.098C328.009 455.255 231.308 440.87 158.976 408.605C86.6372 376.336 38.7187 326.211 32.2441 265.907Z" stroke="url(#paint4_linear)" stroke-width="0.5"/>
<path d="M142.353 270.537C130.146 224.978 149.044 175.666 189.551 132.758C230.054 89.8541 292.136 53.3867 366.199 33.5416C440.262 13.6965 512.26 14.2374 568.789 31.1419C625.322 48.0478 666.345 81.3039 678.552 126.863C690.76 172.422 671.861 221.734 631.355 264.641C590.851 307.546 528.77 344.013 454.707 363.858C380.644 383.703 308.646 383.162 252.117 366.258C195.583 349.352 154.561 316.096 142.353 270.537Z" stroke="url(#paint5_linear)" stroke-width="0.5"/>
<path d="M4.59525 203.965C5.74872 147.91 44.8888 97.902 107.33 62.3798C169.766 26.8607 255.46 5.8523 349.61 7.78967C443.761 9.72705 528.518 34.2429 589.44 72.3004C650.367 110.361 687.417 161.937 686.263 217.992C685.11 274.047 645.97 324.054 583.528 359.576C521.092 395.096 435.399 416.104 341.248 414.167C247.098 412.229 162.341 387.713 101.419 349.656C40.4916 311.595 3.44179 260.02 4.59525 203.965Z" stroke="url(#paint6_linear)" stroke-width="0.5"/>
</g>
<g opacity="0.8" filter="url(#filter1_f)">
<ellipse cx="587.88" cy="297.255" rx="16.2117" ry="16.1542" fill="url(#paint7_linear)"/>
</g>
<path opacity="0.3" d="M603.488 297.207C603.488 305.626 597.102 310.012 588.782 310.012C580.461 310.012 572.066 306.021 572.066 297.601C572.066 289.182 578.345 283.719 586.665 283.719C594.986 283.719 603.488 284.114 603.488 297.207Z" fill="url(#paint8_linear)"/>
<path opacity="0.3" d="M602.845 296.238C602.845 304.658 596.1 311.483 587.779 311.483C579.459 311.483 572.714 304.658 572.714 296.238C572.714 287.819 578.06 282.357 586.38 282.357C594.701 282.357 602.845 287.819 602.845 296.238Z" fill="url(#paint9_linear)"/>
<circle cx="587.766" cy="296.853" r="13.9121" fill="url(#paint10_radial)"/>
<g opacity="0.8" filter="url(#filter2_f)">
<ellipse cx="682.573" cy="129.105" rx="8.10583" ry="8.07708" fill="url(#paint11_linear)"/>
</g>
<path opacity="0.3" d="M690.377 129.081C690.377 133.29 687.184 135.483 683.024 135.483C678.864 135.483 674.666 133.488 674.666 129.278C674.666 125.068 677.805 122.337 681.966 122.337C686.126 122.337 690.377 122.534 690.377 129.081Z" fill="url(#paint12_linear)"/>
<path opacity="0.3" d="M690.054 128.597C690.054 132.806 686.681 136.219 682.521 136.219C678.361 136.219 674.988 132.806 674.988 128.597C674.988 124.387 677.661 121.656 681.821 121.656C685.982 121.656 690.054 124.387 690.054 128.597Z" fill="url(#paint13_linear)"/>
<circle cx="682.517" cy="128.905" r="6.95607" fill="url(#paint14_radial)"/>
<path d="M624.992 294.805C624.899 295.791 624.535 296.561 623.9 297.115C623.265 297.665 622.421 297.94 621.367 297.94C620.631 297.94 619.981 297.767 619.418 297.42C618.86 297.069 618.428 296.571 618.124 295.928C617.819 295.285 617.66 294.538 617.647 293.687V292.824C617.647 291.952 617.802 291.184 618.111 290.52C618.42 289.856 618.862 289.343 619.438 288.984C620.017 288.624 620.686 288.444 621.443 288.444C622.463 288.444 623.284 288.721 623.906 289.276C624.528 289.83 624.89 290.613 624.992 291.624H623.392C623.316 290.96 623.121 290.482 622.808 290.19C622.499 289.894 622.044 289.745 621.443 289.745C620.745 289.745 620.208 290.002 619.831 290.514C619.459 291.021 619.268 291.768 619.26 292.754V293.573C619.26 294.572 619.438 295.334 619.793 295.858C620.153 296.383 620.677 296.645 621.367 296.645C621.998 296.645 622.472 296.504 622.789 296.22C623.106 295.937 623.307 295.465 623.392 294.805H624.992ZM625.995 294.316C625.995 293.643 626.128 293.038 626.395 292.5C626.661 291.959 627.036 291.544 627.518 291.256C628 290.964 628.555 290.818 629.181 290.818C630.108 290.818 630.859 291.117 631.435 291.713C632.014 292.31 632.327 293.101 632.374 294.087L632.38 294.449C632.38 295.126 632.249 295.731 631.987 296.265C631.729 296.798 631.356 297.21 630.87 297.502C630.387 297.794 629.829 297.94 629.194 297.94C628.225 297.94 627.448 297.619 626.864 296.975C626.285 296.328 625.995 295.467 625.995 294.392V294.316ZM627.537 294.449C627.537 295.156 627.683 295.71 627.975 296.112C628.267 296.51 628.673 296.709 629.194 296.709C629.714 296.709 630.118 296.506 630.406 296.099C630.698 295.693 630.844 295.099 630.844 294.316C630.844 293.622 630.694 293.072 630.394 292.665C630.097 292.259 629.693 292.056 629.181 292.056C628.678 292.056 628.278 292.257 627.981 292.659C627.685 293.057 627.537 293.654 627.537 294.449ZM636.678 294.506H633.345V293.262H636.678V294.506ZM637.662 294.328C637.662 293.271 637.907 292.422 638.398 291.783C638.889 291.14 639.547 290.818 640.372 290.818C641.1 290.818 641.688 291.072 642.137 291.58V288.063H643.679V297.813H642.283L642.207 297.102C641.745 297.661 641.13 297.94 640.359 297.94C639.555 297.94 638.904 297.617 638.404 296.969C637.909 296.322 637.662 295.441 637.662 294.328ZM639.204 294.462C639.204 295.16 639.337 295.706 639.604 296.099C639.875 296.489 640.258 296.683 640.753 296.683C641.383 296.683 641.845 296.402 642.137 295.839V292.907C641.853 292.356 641.396 292.081 640.766 292.081C640.266 292.081 639.881 292.28 639.61 292.678C639.34 293.072 639.204 293.666 639.204 294.462ZM648.313 297.94C647.335 297.94 646.542 297.634 645.933 297.02C645.327 296.402 645.025 295.581 645.025 294.557V294.367C645.025 293.681 645.156 293.07 645.418 292.532C645.685 291.99 646.057 291.569 646.536 291.269C647.014 290.968 647.547 290.818 648.135 290.818C649.07 290.818 649.792 291.117 650.3 291.713C650.812 292.31 651.068 293.154 651.068 294.246V294.868H646.58C646.627 295.435 646.815 295.884 647.145 296.214C647.479 296.544 647.898 296.709 648.402 296.709C649.109 296.709 649.684 296.423 650.128 295.852L650.96 296.645C650.685 297.056 650.317 297.375 649.855 297.604C649.398 297.828 648.884 297.94 648.313 297.94ZM648.129 292.056C647.706 292.056 647.363 292.204 647.101 292.5C646.842 292.797 646.677 293.209 646.605 293.738H649.544V293.624C649.511 293.108 649.373 292.718 649.132 292.456C648.891 292.189 648.556 292.056 648.129 292.056ZM654.604 295.858L656.057 290.945H657.65L655.27 297.813H653.931L651.531 290.945H653.131L654.604 295.858ZM661.554 297.94C660.577 297.94 659.783 297.634 659.174 297.02C658.569 296.402 658.266 295.581 658.266 294.557V294.367C658.266 293.681 658.397 293.07 658.66 292.532C658.926 291.99 659.299 291.569 659.777 291.269C660.255 290.968 660.788 290.818 661.376 290.818C662.312 290.818 663.033 291.117 663.541 291.713C664.053 292.31 664.309 293.154 664.309 294.246V294.868H659.821C659.868 295.435 660.056 295.884 660.386 296.214C660.721 296.544 661.139 296.709 661.643 296.709C662.35 296.709 662.925 296.423 663.37 295.852L664.201 296.645C663.926 297.056 663.558 297.375 663.097 297.604C662.64 297.828 662.125 297.94 661.554 297.94ZM661.37 292.056C660.947 292.056 660.604 292.204 660.342 292.5C660.084 292.797 659.919 293.209 659.847 293.738H662.786V293.624C662.752 293.108 662.614 292.718 662.373 292.456C662.132 292.189 661.798 292.056 661.37 292.056ZM667.153 297.813H665.61V288.063H667.153V297.813ZM668.549 294.316C668.549 293.643 668.683 293.038 668.949 292.5C669.216 291.959 669.59 291.544 670.073 291.256C670.555 290.964 671.11 290.818 671.736 290.818C672.663 290.818 673.414 291.117 673.989 291.713C674.569 292.31 674.882 293.101 674.929 294.087L674.935 294.449C674.935 295.126 674.804 295.731 674.542 296.265C674.283 296.798 673.911 297.21 673.424 297.502C672.942 297.794 672.383 297.94 671.749 297.94C670.779 297.94 670.003 297.619 669.419 296.975C668.839 296.328 668.549 295.467 668.549 294.392V294.316ZM670.092 294.449C670.092 295.156 670.238 295.71 670.53 296.112C670.822 296.51 671.228 296.709 671.749 296.709C672.269 296.709 672.673 296.506 672.961 296.099C673.253 295.693 673.399 295.099 673.399 294.316C673.399 293.622 673.249 293.072 672.948 292.665C672.652 292.259 672.248 292.056 671.736 292.056C671.232 292.056 670.832 292.257 670.536 292.659C670.24 293.057 670.092 293.654 670.092 294.449ZM682.254 294.449C682.254 295.511 682.013 296.36 681.53 296.995C681.048 297.625 680.4 297.94 679.588 297.94C678.835 297.94 678.232 297.693 677.779 297.198V300.454H676.236V290.945H677.658L677.722 291.643C678.174 291.093 678.79 290.818 679.569 290.818C680.407 290.818 681.063 291.131 681.537 291.758C682.015 292.38 682.254 293.245 682.254 294.354V294.449ZM680.718 294.316C680.718 293.63 680.58 293.086 680.305 292.684C680.034 292.282 679.645 292.081 679.137 292.081C678.507 292.081 678.054 292.342 677.779 292.862V295.909C678.058 296.442 678.515 296.709 679.15 296.709C679.641 296.709 680.024 296.512 680.299 296.119C680.578 295.721 680.718 295.12 680.718 294.316ZM686.589 297.94C685.612 297.94 684.818 297.634 684.209 297.02C683.604 296.402 683.301 295.581 683.301 294.557V294.367C683.301 293.681 683.432 293.07 683.695 292.532C683.961 291.99 684.334 291.569 684.812 291.269C685.29 290.968 685.823 290.818 686.412 290.818C687.347 290.818 688.068 291.117 688.576 291.713C689.088 292.31 689.344 293.154 689.344 294.246V294.868H684.856C684.903 295.435 685.091 295.884 685.421 296.214C685.756 296.544 686.175 296.709 686.678 296.709C687.385 296.709 687.96 296.423 688.405 295.852L689.236 296.645C688.961 297.056 688.593 297.375 688.132 297.604C687.675 297.828 687.161 297.94 686.589 297.94ZM686.405 292.056C685.982 292.056 685.639 292.204 685.377 292.5C685.119 292.797 684.954 293.209 684.882 293.738H687.821V293.624C687.787 293.108 687.649 292.718 687.408 292.456C687.167 292.189 686.833 292.056 686.405 292.056ZM694.143 292.354C693.94 292.321 693.73 292.304 693.515 292.304C692.808 292.304 692.332 292.574 692.086 293.116V297.813H690.544V290.945H692.017L692.055 291.713C692.427 291.117 692.943 290.818 693.604 290.818C693.824 290.818 694.006 290.848 694.149 290.907L694.143 292.354Z" fill="#2C4DFF"/>
<g opacity="0.8" filter="url(#filter3_f)">
<ellipse cx="37.1697" cy="215.016" rx="16.2117" ry="16.1542" fill="url(#paint15_linear)"/>
</g>
<path opacity="0.3" d="M52.7784 214.967C52.7784 223.387 46.3922 227.773 38.0718 227.773C29.7514 227.773 21.3564 223.781 21.3564 215.362C21.3564 206.942 27.6351 201.48 35.9555 201.48C44.2758 201.48 52.7784 201.875 52.7784 214.967Z" fill="url(#paint16_linear)"/>
<path opacity="0.3" d="M52.1336 213.999C52.1336 222.418 45.3886 229.244 37.0683 229.244C28.7479 229.244 22.0029 222.418 22.0029 213.999C22.0029 205.579 27.349 200.117 35.6693 200.117C43.9897 200.117 52.1336 205.579 52.1336 213.999Z" fill="url(#paint17_linear)"/>
<circle cx="37.0557" cy="214.614" r="13.9121" fill="url(#paint18_radial)"/>
<path d="M74.6997 207.571V213.747C74.6997 214.729 74.3844 215.508 73.7539 216.083C73.1276 216.655 72.2918 216.94 71.2466 216.94C70.1886 216.94 69.3486 216.659 68.7266 216.096C68.1045 215.529 67.7935 214.744 67.7935 213.741V207.571H69.3931V213.754C69.3931 214.372 69.5496 214.843 69.8628 215.169C70.1759 215.495 70.6372 215.658 71.2466 215.658C72.4823 215.658 73.1001 215.006 73.1001 213.703V207.571H74.6997ZM80.1206 214.947C80.1206 214.672 80.0063 214.463 79.7778 214.319C79.5535 214.175 79.179 214.048 78.6543 213.938C78.1296 213.828 77.6916 213.688 77.3403 213.519C76.5701 213.147 76.1851 212.607 76.1851 211.9C76.1851 211.308 76.4347 210.813 76.9341 210.415C77.4334 210.017 78.0682 209.818 78.8384 209.818C79.6593 209.818 80.3216 210.021 80.8252 210.428C81.333 210.834 81.5869 211.361 81.5869 212.008H80.0444C80.0444 211.712 79.9344 211.467 79.7144 211.272C79.4943 211.073 79.2023 210.974 78.8384 210.974C78.4998 210.974 78.2227 211.052 78.0068 211.208C77.7952 211.365 77.6895 211.574 77.6895 211.837C77.6895 212.074 77.7889 212.258 77.9878 212.389C78.1867 212.52 78.5887 212.654 79.1938 212.789C79.799 212.92 80.2729 213.079 80.6157 213.265C80.9627 213.447 81.2188 213.667 81.3838 213.925C81.5531 214.183 81.6377 214.496 81.6377 214.865C81.6377 215.482 81.3817 215.984 80.8696 216.369C80.3576 216.75 79.6868 216.94 78.8574 216.94C78.2946 216.94 77.7931 216.839 77.353 216.636C76.9129 216.432 76.5701 216.153 76.3247 215.798C76.0793 215.442 75.9565 215.059 75.9565 214.649H77.4546C77.4757 215.013 77.6133 215.294 77.8672 215.493C78.1211 215.688 78.4575 215.785 78.8765 215.785C79.2827 215.785 79.5916 215.709 79.8032 215.557C80.0148 215.4 80.1206 215.197 80.1206 214.947ZM86.0112 216.94C85.0337 216.94 84.2402 216.634 83.6309 216.02C83.0257 215.402 82.7231 214.581 82.7231 213.557V213.367C82.7231 212.681 82.8543 212.07 83.1167 211.532C83.3833 210.99 83.7557 210.569 84.2339 210.269C84.7121 209.968 85.2453 209.818 85.8335 209.818C86.7687 209.818 87.4902 210.117 87.998 210.713C88.5101 211.31 88.7661 212.154 88.7661 213.246V213.868H84.2783C84.3249 214.435 84.5132 214.884 84.8433 215.214C85.1776 215.544 85.5965 215.709 86.1001 215.709C86.8068 215.709 87.3823 215.423 87.8267 214.852L88.6582 215.645C88.3831 216.056 88.015 216.375 87.5537 216.604C87.0967 216.828 86.5825 216.94 86.0112 216.94ZM85.8271 211.056C85.404 211.056 85.0612 211.204 84.7988 211.5C84.5407 211.797 84.3757 212.209 84.3037 212.738H87.2427V212.624C87.2088 212.108 87.0713 211.718 86.8301 211.456C86.5889 211.189 86.2546 211.056 85.8271 211.056ZM93.5649 211.354C93.3618 211.321 93.1523 211.304 92.9365 211.304C92.2298 211.304 91.7537 211.574 91.5083 212.116V216.813H89.9658V209.945H91.4385L91.4766 210.713C91.849 210.117 92.3652 209.818 93.0254 209.818C93.2454 209.818 93.4274 209.848 93.5713 209.907L93.5649 211.354Z" fill="#2C4DFF"/>
<g opacity="0.8" filter="url(#filter4_f)">
<ellipse cx="110.619" cy="353.061" rx="22.1068" ry="22.0284" fill="url(#paint19_linear)"/>
</g>
<path opacity="0.3" d="M131.903 352.994C131.903 364.475 123.194 370.456 111.848 370.456C100.502 370.456 89.0547 365.013 89.0547 353.532C89.0547 342.051 97.6165 334.603 108.962 334.603C120.308 334.603 131.903 335.141 131.903 352.994Z" fill="url(#paint20_linear)"/>
<path opacity="0.3" d="M131.024 351.674C131.024 363.155 121.826 372.462 110.48 372.462C99.1342 372.462 89.9365 363.155 89.9365 351.674C89.9365 340.193 97.2266 332.744 108.573 332.744C119.918 332.744 131.024 340.193 131.024 351.674Z" fill="url(#paint21_linear)"/>
<circle cx="110.462" cy="352.512" r="18.9711" fill="url(#paint22_radial)"/>
<path d="M145.545 351.379V354.813H143.939V345.571H147.475C148.508 345.571 149.326 345.84 149.932 346.377C150.541 346.915 150.846 347.626 150.846 348.51C150.846 349.416 150.547 350.12 149.951 350.624C149.358 351.127 148.527 351.379 147.456 351.379H145.545ZM145.545 350.091H147.475C148.046 350.091 148.482 349.957 148.783 349.691C149.083 349.42 149.233 349.031 149.233 348.523C149.233 348.023 149.081 347.626 148.776 347.329C148.472 347.029 148.053 346.875 147.52 346.866H145.545V350.091ZM155.702 349.354C155.499 349.321 155.289 349.304 155.073 349.304C154.367 349.304 153.89 349.574 153.645 350.116V354.813H152.103V347.945H153.575L153.613 348.713C153.986 348.117 154.502 347.818 155.162 347.818C155.382 347.818 155.564 347.848 155.708 347.907L155.702 349.354ZM156.159 351.316C156.159 350.643 156.292 350.038 156.559 349.5C156.825 348.959 157.2 348.544 157.682 348.256C158.165 347.964 158.719 347.818 159.345 347.818C160.272 347.818 161.023 348.117 161.599 348.713C162.178 349.31 162.492 350.101 162.538 351.087L162.544 351.449C162.544 352.126 162.413 352.731 162.151 353.265C161.893 353.798 161.52 354.21 161.034 354.502C160.551 354.794 159.993 354.94 159.358 354.94C158.389 354.94 157.612 354.619 157.028 353.975C156.449 353.328 156.159 352.467 156.159 351.392V351.316ZM157.701 351.449C157.701 352.156 157.847 352.71 158.139 353.112C158.431 353.51 158.837 353.709 159.358 353.709C159.878 353.709 160.283 353.506 160.57 353.099C160.862 352.693 161.008 352.099 161.008 351.316C161.008 350.622 160.858 350.072 160.558 349.665C160.261 349.259 159.857 349.056 159.345 349.056C158.842 349.056 158.442 349.257 158.146 349.659C157.849 350.057 157.701 350.654 157.701 351.449ZM165.299 347.945L165.344 348.662C165.826 348.1 166.486 347.818 167.324 347.818C168.243 347.818 168.871 348.169 169.209 348.872C169.709 348.169 170.411 347.818 171.317 347.818C172.074 347.818 172.637 348.028 173.005 348.447C173.378 348.866 173.568 349.483 173.577 350.3V354.813H172.034V350.345C172.034 349.909 171.939 349.589 171.749 349.386C171.558 349.183 171.243 349.081 170.803 349.081C170.451 349.081 170.164 349.177 169.939 349.367C169.719 349.553 169.565 349.799 169.476 350.103L169.482 354.813H167.94V350.294C167.919 349.486 167.506 349.081 166.702 349.081C166.084 349.081 165.646 349.333 165.388 349.837V354.813H163.846V347.945H165.299ZM174.872 351.316C174.872 350.643 175.005 350.038 175.271 349.5C175.538 348.959 175.913 348.544 176.395 348.256C176.877 347.964 177.432 347.818 178.058 347.818C178.985 347.818 179.736 348.117 180.312 348.713C180.891 349.31 181.204 350.101 181.251 351.087L181.257 351.449C181.257 352.126 181.126 352.731 180.864 353.265C180.606 353.798 180.233 354.21 179.747 354.502C179.264 354.794 178.706 354.94 178.071 354.94C177.102 354.94 176.325 354.619 175.741 353.975C175.161 353.328 174.872 352.467 174.872 351.392V351.316ZM176.414 351.449C176.414 352.156 176.56 352.71 176.852 353.112C177.144 353.51 177.55 353.709 178.071 353.709C178.591 353.709 178.995 353.506 179.283 353.099C179.575 352.693 179.721 352.099 179.721 351.316C179.721 350.622 179.571 350.072 179.271 349.665C178.974 349.259 178.57 349.056 178.058 349.056C177.555 349.056 177.155 349.257 176.858 349.659C176.562 350.057 176.414 350.654 176.414 351.449ZM184.495 346.276V347.945H185.707V349.088H184.495V352.922C184.495 353.184 184.545 353.375 184.647 353.493C184.753 353.607 184.939 353.664 185.206 353.664C185.383 353.664 185.563 353.643 185.745 353.601V354.794C185.394 354.892 185.055 354.94 184.729 354.94C183.545 354.94 182.952 354.286 182.952 352.979V349.088H181.822V347.945H182.952V346.276H184.495ZM189.916 354.94C188.938 354.94 188.145 354.634 187.535 354.02C186.93 353.402 186.627 352.581 186.627 351.557V351.367C186.627 350.681 186.759 350.07 187.021 349.532C187.288 348.99 187.66 348.569 188.138 348.269C188.616 347.968 189.15 347.818 189.738 347.818C190.673 347.818 191.395 348.117 191.902 348.713C192.414 349.31 192.67 350.154 192.67 351.246V351.868H188.183C188.229 352.435 188.417 352.884 188.748 353.214C189.082 353.544 189.501 353.709 190.004 353.709C190.711 353.709 191.287 353.423 191.731 352.852L192.562 353.645C192.287 354.056 191.919 354.375 191.458 354.604C191.001 354.828 190.487 354.94 189.916 354.94ZM189.731 349.056C189.308 349.056 188.965 349.204 188.703 349.5C188.445 349.797 188.28 350.209 188.208 350.738H191.147V350.624C191.113 350.108 190.976 349.718 190.734 349.456C190.493 349.189 190.159 349.056 189.731 349.056ZM197.469 349.354C197.266 349.321 197.057 349.304 196.841 349.304C196.134 349.304 195.658 349.574 195.413 350.116V354.813H193.87V347.945H195.343L195.381 348.713C195.753 348.117 196.27 347.818 196.93 347.818C197.15 347.818 197.332 347.848 197.476 347.907L197.469 349.354Z" fill="#2C4DFF"/>
<g opacity="0.8" filter="url(#filter5_f)">
<ellipse cx="398.435" cy="410.303" rx="25.023" ry="24.9343" fill="url(#paint23_linear)"/>
</g>
<path opacity="0.3" d="M422.528 410.228C422.528 423.224 412.67 429.994 399.828 429.994C386.985 429.994 374.027 423.833 374.027 410.837C374.027 397.842 383.719 389.411 396.561 389.411C409.404 389.411 422.528 390.02 422.528 410.228Z" fill="url(#paint24_linear)"/>
<path opacity="0.3" d="M421.533 408.734C421.533 421.729 411.122 432.264 398.279 432.264C385.436 432.264 375.025 421.729 375.025 408.734C375.025 395.738 383.277 387.307 396.12 387.307C408.962 387.307 421.533 395.738 421.533 408.734Z" fill="url(#paint25_linear)"/>
<circle cx="398.259" cy="409.682" r="21.4737" fill="url(#paint26_radial)"/>
<path d="M432.939 410.813V401.571H436.107C437.152 401.571 437.948 401.781 438.494 402.2C439.04 402.619 439.312 403.243 439.312 404.072C439.312 404.495 439.198 404.876 438.97 405.215C438.741 405.553 438.407 405.816 437.967 406.002C438.466 406.137 438.851 406.393 439.122 406.77C439.397 407.142 439.535 407.591 439.535 408.116C439.535 408.983 439.255 409.65 438.697 410.115C438.142 410.581 437.347 410.813 436.31 410.813H432.939ZM434.545 406.643V409.531H436.329C436.833 409.531 437.226 409.406 437.51 409.157C437.793 408.907 437.935 408.56 437.935 408.116C437.935 407.155 437.444 406.664 436.462 406.643H434.545ZM434.545 405.462H436.12C436.619 405.462 437.008 405.35 437.288 405.126C437.571 404.897 437.713 404.576 437.713 404.161C437.713 403.704 437.582 403.374 437.319 403.171C437.061 402.968 436.657 402.866 436.107 402.866H434.545V405.462ZM444.016 410.94C443.039 410.94 442.245 410.634 441.636 410.02C441.031 409.402 440.728 408.581 440.728 407.557V407.367C440.728 406.681 440.859 406.07 441.122 405.532C441.388 404.99 441.761 404.569 442.239 404.269C442.717 403.968 443.25 403.818 443.838 403.818C444.774 403.818 445.495 404.117 446.003 404.713C446.515 405.31 446.771 406.154 446.771 407.246V407.868H442.283C442.33 408.435 442.518 408.884 442.848 409.214C443.182 409.544 443.601 409.709 444.105 409.709C444.812 409.709 445.387 409.423 445.832 408.852L446.663 409.645C446.388 410.056 446.02 410.375 445.559 410.604C445.102 410.828 444.587 410.94 444.016 410.94ZM443.832 405.056C443.409 405.056 443.066 405.204 442.804 405.5C442.546 405.797 442.381 406.209 442.309 406.738H445.248V406.624C445.214 406.108 445.076 405.718 444.835 405.456C444.594 405.189 444.259 405.056 443.832 405.056ZM449.405 403.945L449.45 404.739C449.958 404.125 450.624 403.818 451.449 403.818C452.88 403.818 453.607 404.637 453.633 406.275V410.813H452.09V406.364C452.09 405.928 451.995 405.606 451.805 405.399C451.618 405.187 451.312 405.081 450.884 405.081C450.262 405.081 449.799 405.363 449.494 405.926V410.813H447.952V403.945H449.405ZM458.235 410.94C457.257 410.94 456.464 410.634 455.854 410.02C455.249 409.402 454.947 408.581 454.947 407.557V407.367C454.947 406.681 455.078 406.07 455.34 405.532C455.607 404.99 455.979 404.569 456.458 404.269C456.936 403.968 457.469 403.818 458.057 403.818C458.992 403.818 459.714 404.117 460.222 404.713C460.734 405.31 460.99 406.154 460.99 407.246V407.868H456.502C456.549 408.435 456.737 408.884 457.067 409.214C457.401 409.544 457.82 409.709 458.324 409.709C459.03 409.709 459.606 409.423 460.05 408.852L460.882 409.645C460.607 410.056 460.239 410.375 459.777 410.604C459.32 410.828 458.806 410.94 458.235 410.94ZM458.051 405.056C457.628 405.056 457.285 405.204 457.022 405.5C456.764 405.797 456.599 406.209 456.527 406.738H459.466V406.624C459.432 406.108 459.295 405.718 459.054 405.456C458.812 405.189 458.478 405.056 458.051 405.056ZM462.602 410.813V405.088H461.555V403.945H462.602V403.475C462.606 402.938 462.721 402.477 462.945 402.092C463.169 401.707 463.486 401.417 463.897 401.222C464.307 401.027 464.8 400.93 465.376 400.93C465.715 400.93 466.038 400.966 466.347 401.038C466.66 401.11 466.984 401.201 467.318 401.311L467.083 402.587C466.5 402.384 465.966 402.282 465.484 402.282C465.014 402.282 464.674 402.386 464.462 402.593C464.25 402.796 464.145 403.103 464.145 403.514V403.945H465.497V405.088H464.145V410.813H462.602ZM468.048 410.813H466.506V403.945H468.048V410.813ZM472.581 409.709C472.966 409.709 473.285 409.597 473.539 409.372C473.793 409.148 473.928 408.871 473.945 408.541H475.399C475.382 408.968 475.249 409.368 474.999 409.741C474.749 410.109 474.411 410.401 473.983 410.617C473.556 410.832 473.095 410.94 472.6 410.94C471.639 410.94 470.877 410.629 470.314 410.007C469.752 409.385 469.47 408.526 469.47 407.43V407.271C469.47 406.226 469.75 405.39 470.308 404.764C470.867 404.134 471.628 403.818 472.593 403.818C473.41 403.818 474.074 404.057 474.586 404.536C475.103 405.009 475.374 405.634 475.399 406.408H473.945C473.928 406.015 473.793 405.691 473.539 405.437C473.289 405.183 472.97 405.056 472.581 405.056C472.081 405.056 471.696 405.238 471.425 405.602C471.154 405.962 471.017 406.51 471.013 407.246V407.494C471.013 408.238 471.146 408.795 471.413 409.163C471.683 409.527 472.073 409.709 472.581 409.709ZM478.205 410.813H476.662V403.945H478.205V410.813ZM476.567 402.161C476.567 401.925 476.641 401.728 476.789 401.571C476.941 401.415 477.157 401.336 477.437 401.336C477.716 401.336 477.932 401.415 478.084 401.571C478.236 401.728 478.312 401.925 478.312 402.161C478.312 402.394 478.236 402.589 478.084 402.745C477.932 402.898 477.716 402.974 477.437 402.974C477.157 402.974 476.941 402.898 476.789 402.745C476.641 402.589 476.567 402.394 476.567 402.161ZM483.994 410.813C483.926 410.682 483.867 410.468 483.816 410.172C483.325 410.684 482.724 410.94 482.013 410.94C481.323 410.94 480.761 410.744 480.325 410.35C479.889 409.956 479.671 409.47 479.671 408.89C479.671 408.158 479.942 407.597 480.483 407.208C481.029 406.814 481.808 406.618 482.819 406.618H483.765V406.167C483.765 405.811 483.666 405.528 483.467 405.316C483.268 405.1 482.965 404.993 482.559 404.993C482.208 404.993 481.92 405.081 481.696 405.259C481.472 405.433 481.359 405.655 481.359 405.926H479.817C479.817 405.549 479.942 405.198 480.191 404.872C480.441 404.542 480.78 404.284 481.207 404.098C481.639 403.911 482.119 403.818 482.648 403.818C483.452 403.818 484.093 404.021 484.571 404.428C485.049 404.83 485.295 405.397 485.308 406.129V409.226C485.308 409.844 485.394 410.337 485.568 410.705V410.813H483.994ZM482.299 409.703C482.604 409.703 482.889 409.628 483.156 409.48C483.427 409.332 483.63 409.133 483.765 408.884V407.589H482.934C482.362 407.589 481.933 407.688 481.645 407.887C481.357 408.086 481.213 408.367 481.213 408.731C481.213 409.028 481.311 409.265 481.505 409.442C481.704 409.616 481.969 409.703 482.299 409.703ZM490.519 405.354C490.316 405.321 490.106 405.304 489.891 405.304C489.184 405.304 488.708 405.574 488.462 406.116V410.813H486.92V403.945H488.393L488.431 404.713C488.803 404.117 489.319 403.818 489.979 403.818C490.2 403.818 490.382 403.848 490.525 403.907L490.519 405.354ZM494.01 408.604L495.407 403.945H497.051L494.321 411.854C493.902 413.01 493.191 413.587 492.188 413.587C491.964 413.587 491.717 413.549 491.446 413.473V412.28L491.738 412.299C492.127 412.299 492.419 412.227 492.614 412.083C492.813 411.943 492.969 411.706 493.083 411.372L493.306 410.782L490.894 403.945H492.557L494.01 408.604Z" fill="#2C4DFF"/>
</g>
<defs>
<filter id="filter0_f" x="260.4" y="58.7196" width="264.856" height="264.13" filterUnits="userSpaceOnUse" color-interpolation-filters="sRGB">
<feFlood flood-opacity="0" result="BackgroundImageFix"/>
<feBlend mode="normal" in="SourceGraphic" in2="BackgroundImageFix" result="shape"/>
<feGaussianBlur stdDeviation="15" result="effect1_foregroundBlur"/>
</filter>
<filter id="filter1_f" x="541.668" y="251.101" width="92.4233" height="92.3083" filterUnits="userSpaceOnUse" color-interpolation-filters="sRGB">
<feFlood flood-opacity="0" result="BackgroundImageFix"/>
<feBlend mode="normal" in="SourceGraphic" in2="BackgroundImageFix" result="shape"/>
<feGaussianBlur stdDeviation="15" result="effect1_foregroundBlur"/>
</filter>
<filter id="filter2_f" x="644.467" y="91.028" width="76.2117" height="76.1542" filterUnits="userSpaceOnUse" color-interpolation-filters="sRGB">
<feFlood flood-opacity="0" result="BackgroundImageFix"/>
<feBlend mode="normal" in="SourceGraphic" in2="BackgroundImageFix" result="shape"/>
<feGaussianBlur stdDeviation="15" result="effect1_foregroundBlur"/>
</filter>
<filter id="filter3_f" x="-9.04199" y="168.862" width="92.4233" height="92.3083" filterUnits="userSpaceOnUse" color-interpolation-filters="sRGB">
<feFlood flood-opacity="0" result="BackgroundImageFix"/>
<feBlend mode="normal" in="SourceGraphic" in2="BackgroundImageFix" result="shape"/>
<feGaussianBlur stdDeviation="15" result="effect1_foregroundBlur"/>
</filter>
<filter id="filter4_f" x="58.5117" y="301.032" width="104.214" height="104.057" filterUnits="userSpaceOnUse" color-interpolation-filters="sRGB">
<feFlood flood-opacity="0" result="BackgroundImageFix"/>
<feBlend mode="normal" in="SourceGraphic" in2="BackgroundImageFix" result="shape"/>
<feGaussianBlur stdDeviation="15" result="effect1_foregroundBlur"/>
</filter>
<filter id="filter5_f" x="343.412" y="355.369" width="110.046" height="109.869" filterUnits="userSpaceOnUse" color-interpolation-filters="sRGB">
<feFlood flood-opacity="0" result="BackgroundImageFix"/>
<feBlend mode="normal" in="SourceGraphic" in2="BackgroundImageFix" result="shape"/>
<feGaussianBlur stdDeviation="15" result="effect1_foregroundBlur"/>
</filter>
<linearGradient id="paint0_linear" x1="392.829" y1="88.7196" x2="392.829" y2="292.85" gradientUnits="userSpaceOnUse">
<stop stop-color="#6447D9"/>
<stop offset="0.520833" stop-color="#3943AE"/>
<stop offset="1" stop-color="#203FC6"/>
</linearGradient>
<linearGradient id="paint1_linear" x1="392.183" y1="105.263" x2="392.183" y2="271.385" gradientUnits="userSpaceOnUse">
<stop stop-color="#6447D9"/>
<stop offset="0.520833" stop-color="#3943AE"/>
<stop offset="1" stop-color="#203FC6"/>
</linearGradient>
<linearGradient id="paint2_linear" x1="392.187" y1="96.6536" x2="392.187" y2="280.679" gradientUnits="userSpaceOnUse">
<stop stop-color="#6447D9"/>
<stop offset="0.520833" stop-color="#3943AE"/>
<stop offset="1" stop-color="#203FC6"/>
</linearGradient>
<radialGradient id="paint3_radial" cx="0" cy="0" r="1" gradientUnits="userSpaceOnUse" gradientTransform="translate(404.062 171.499) rotate(96.5198) scale(105.323)">
<stop stop-color="#6447D9"/>
<stop offset="0.520833" stop-color="#3943AE"/>
<stop offset="1" stop-color="#203FC6"/>
</radialGradient>
<linearGradient id="paint4_linear" x1="431.959" y1="444.346" x2="384.968" y2="6.68136" gradientUnits="userSpaceOnUse">
<stop stop-color="#2C4DFF"/>
<stop offset="1" stop-color="#2C4DFF" stop-opacity="0.3"/>
</linearGradient>
<linearGradient id="paint5_linear" x1="454.771" y1="364.1" x2="366.134" y2="33.3001" gradientUnits="userSpaceOnUse">
<stop stop-color="#2C4DFF"/>
<stop offset="1" stop-color="#2C4DFF" stop-opacity="0.3"/>
</linearGradient>
<linearGradient id="paint6_linear" x1="341.243" y1="414.417" x2="349.616" y2="7.53973" gradientUnits="userSpaceOnUse">
<stop stop-color="#2C4DFF"/>
<stop offset="1" stop-color="#2C4DFF" stop-opacity="0.3"/>
</linearGradient>
<linearGradient id="paint7_linear" x1="587.88" y1="281.101" x2="587.88" y2="313.409" gradientUnits="userSpaceOnUse">
<stop stop-color="#6447D9"/>
<stop offset="0.479167" stop-color="#3943AE"/>
<stop offset="1" stop-color="#203FC6"/>
</linearGradient>
<linearGradient id="paint8_linear" x1="587.777" y1="283.719" x2="587.777" y2="310.012" gradientUnits="userSpaceOnUse">
<stop stop-color="#6447D9"/>
<stop offset="0.479167" stop-color="#3943AE"/>
<stop offset="1" stop-color="#203FC6"/>
</linearGradient>
<linearGradient id="paint9_linear" x1="587.779" y1="282.357" x2="587.779" y2="311.483" gradientUnits="userSpaceOnUse">
<stop stop-color="#6447D9"/>
<stop offset="0.479167" stop-color="#3943AE"/>
<stop offset="1" stop-color="#203FC6"/>
</linearGradient>
<radialGradient id="paint10_radial" cx="0" cy="0" r="1" gradientUnits="userSpaceOnUse" gradientTransform="translate(589.658 294.203) rotate(96.5198) scale(16.6699)">
<stop stop-color="#6447D9"/>
<stop offset="0.546875" stop-color="#3943AE"/>
<stop offset="1" stop-color="#203FC6"/>
</radialGradient>
<linearGradient id="paint11_linear" x1="682.573" y1="121.028" x2="682.573" y2="137.182" gradientUnits="userSpaceOnUse">
<stop stop-color="#6447D9"/>
<stop offset="0.479167" stop-color="#3943AE"/>
<stop offset="1" stop-color="#203FC6"/>
</linearGradient>
<linearGradient id="paint12_linear" x1="682.522" y1="122.337" x2="682.522" y2="135.483" gradientUnits="userSpaceOnUse">
<stop stop-color="#6447D9"/>
<stop offset="0.479167" stop-color="#3943AE"/>
<stop offset="1" stop-color="#203FC6"/>
</linearGradient>
<linearGradient id="paint13_linear" x1="682.521" y1="121.656" x2="682.521" y2="136.219" gradientUnits="userSpaceOnUse">
<stop stop-color="#6447D9"/>
<stop offset="0.479167" stop-color="#3943AE"/>
<stop offset="1" stop-color="#203FC6"/>
</linearGradient>
<radialGradient id="paint14_radial" cx="0" cy="0" r="1" gradientUnits="userSpaceOnUse" gradientTransform="translate(683.463 127.58) rotate(96.5198) scale(8.33494)">
<stop stop-color="#6447D9"/>
<stop offset="0.546875" stop-color="#3943AE"/>
<stop offset="1" stop-color="#203FC6"/>
</radialGradient>
<linearGradient id="paint15_linear" x1="37.1697" y1="198.862" x2="37.1697" y2="231.17" gradientUnits="userSpaceOnUse">
<stop stop-color="#6447D9"/>
<stop offset="0.479167" stop-color="#3943AE"/>
<stop offset="1" stop-color="#203FC6"/>
</linearGradient>
<linearGradient id="paint16_linear" x1="37.0674" y1="201.48" x2="37.0674" y2="227.773" gradientUnits="userSpaceOnUse">
<stop stop-color="#6447D9"/>
<stop offset="0.479167" stop-color="#3943AE"/>
<stop offset="1" stop-color="#203FC6"/>
</linearGradient>
<linearGradient id="paint17_linear" x1="37.0683" y1="200.117" x2="37.0683" y2="229.244" gradientUnits="userSpaceOnUse">
<stop stop-color="#6447D9"/>
<stop offset="0.479167" stop-color="#3943AE"/>
<stop offset="1" stop-color="#203FC6"/>
</linearGradient>
<radialGradient id="paint18_radial" cx="0" cy="0" r="1" gradientUnits="userSpaceOnUse" gradientTransform="translate(38.9485 211.964) rotate(96.5198) scale(16.6699)">
<stop stop-color="#6447D9"/>
<stop offset="0.546875" stop-color="#3943AE"/>
<stop offset="1" stop-color="#203FC6"/>
</radialGradient>
<linearGradient id="paint19_linear" x1="110.619" y1="331.032" x2="110.619" y2="375.089" gradientUnits="userSpaceOnUse">
<stop stop-color="#6447D9"/>
<stop offset="0.479167" stop-color="#3943AE"/>
<stop offset="1" stop-color="#203FC6"/>
</linearGradient>
<linearGradient id="paint20_linear" x1="110.479" y1="334.603" x2="110.479" y2="370.456" gradientUnits="userSpaceOnUse">
<stop stop-color="#6447D9"/>
<stop offset="0.479167" stop-color="#3943AE"/>
<stop offset="1" stop-color="#203FC6"/>
</linearGradient>
<linearGradient id="paint21_linear" x1="110.48" y1="332.744" x2="110.48" y2="372.462" gradientUnits="userSpaceOnUse">
<stop stop-color="#6447D9"/>
<stop offset="0.479167" stop-color="#3943AE"/>
<stop offset="1" stop-color="#203FC6"/>
</linearGradient>
<radialGradient id="paint22_radial" cx="0" cy="0" r="1" gradientUnits="userSpaceOnUse" gradientTransform="translate(113.043 348.898) rotate(96.5198) scale(22.7316)">
<stop stop-color="#6447D9"/>
<stop offset="0.546875" stop-color="#3943AE"/>
<stop offset="1" stop-color="#203FC6"/>
</radialGradient>
<linearGradient id="paint23_linear" x1="398.435" y1="385.369" x2="398.435" y2="435.237" gradientUnits="userSpaceOnUse">
<stop stop-color="#6447D9"/>
<stop offset="0.479167" stop-color="#3943AE"/>
<stop offset="1" stop-color="#203FC6"/>
</linearGradient>
<linearGradient id="paint24_linear" x1="398.278" y1="389.411" x2="398.278" y2="429.994" gradientUnits="userSpaceOnUse">
<stop stop-color="#6447D9"/>
<stop offset="0.479167" stop-color="#3943AE"/>
<stop offset="1" stop-color="#203FC6"/>
</linearGradient>
<linearGradient id="paint25_linear" x1="398.279" y1="387.307" x2="398.279" y2="432.264" gradientUnits="userSpaceOnUse">
<stop stop-color="#6447D9"/>
<stop offset="0.479167" stop-color="#3943AE"/>
<stop offset="1" stop-color="#203FC6"/>
</linearGradient>
<radialGradient id="paint26_radial" cx="0" cy="0" r="1" gradientUnits="userSpaceOnUse" gradientTransform="translate(401.18 405.592) rotate(96.5198) scale(25.7303)">
<stop stop-color="#6447D9"/>
<stop offset="0.546875" stop-color="#3943AE"/>
<stop offset="1" stop-color="#203FC6"/>
</radialGradient>
<clipPath id="clip0">
<rect width="800" height="459" fill="white"/>
</clipPath>
</defs>
</svg>
