<svg width="800" height="459" viewBox="0 0 800 459" fill="none" xmlns="http://www.w3.org/2000/svg">
<g clip-path="url(#clip0)">
<g opacity="0.8" filter="url(#filter0_f)">
<ellipse cx="392.829" cy="190.785" rx="102.428" ry="102.065" fill="url(#paint0_linear)"/>
</g>
<path opacity="0.3" d="M491.448 190.477C491.448 243.672 451.098 271.385 398.529 271.385C345.959 271.385 292.918 246.165 292.918 192.97C292.918 139.775 332.588 105.263 385.157 105.263C437.727 105.263 491.448 107.756 491.448 190.477Z" fill="url(#paint1_linear)"/>
<path opacity="0.3" d="M487.372 184.36C487.372 237.556 444.756 280.679 392.187 280.679C339.617 280.679 297.001 237.556 297.001 184.36C297.001 131.165 330.778 96.6536 383.348 96.6536C435.917 96.6536 487.372 131.165 487.372 184.36Z" fill="url(#paint2_linear)"/>
<circle cx="392.103" cy="188.242" r="87.8994" fill="url(#paint3_radial)"/>
<path d="M421.977 230.408H364.178C356.296 230.408 349.916 224.027 349.916 216.145C349.916 211.266 355.733 208.264 357.61 207.325L381.068 197.004C382.944 196.629 383.695 196.066 383.695 193.439C381.63 190.999 373.373 180.678 373.373 171.858C373.373 158.346 382.381 147.462 393.641 147.462C404.9 147.462 413.908 158.346 413.908 171.67C413.908 180.49 405.276 190.999 403.211 193.439C403.024 196.254 403.587 196.629 405.276 197.192L428.358 205.261C432.299 206.762 436.052 212.017 436.052 215.958C436.239 224.027 429.859 230.408 421.977 230.408ZM382.193 200.757L359.111 210.891C356.484 212.205 353.669 214.269 353.669 216.333C353.669 222.151 358.361 226.842 364.178 226.842H421.977C427.795 226.842 432.486 222.151 432.486 216.333C432.486 213.894 429.671 210.14 427.232 209.202L404.337 200.945C400.021 199.444 399.27 196.629 399.646 192.688V192.125L400.021 191.75C400.209 191.562 410.155 180.302 410.155 172.045C410.155 160.974 402.648 151.591 393.641 151.591C384.633 151.591 377.127 160.974 377.127 172.233C377.127 180.49 386.885 191.75 386.885 191.75L387.26 192.313V192.876C387.636 197.379 386.134 199.631 382.193 200.757Z" fill="white"/>
<g opacity="0.5">
<path d="M32.2441 265.907C25.7696 205.604 61.9549 146.448 125.795 99.5588C189.629 52.6738 281.072 18.0878 384.995 6.92999C488.918 -4.22785 585.619 10.1576 657.951 42.423C730.29 74.6913 778.208 124.817 784.683 185.12C791.157 245.424 754.972 304.58 691.132 351.469C627.298 398.354 535.855 432.94 431.932 444.098C328.009 455.256 231.308 440.87 158.976 408.605C86.6372 376.336 38.7187 326.211 32.2441 265.907Z" stroke="url(#paint4_linear)" stroke-width="0.5"/>
<path d="M142.353 270.537C130.146 224.978 149.044 175.666 189.551 132.758C230.054 89.8541 292.136 53.3867 366.199 33.5416C440.262 13.6965 512.26 14.2373 568.789 31.1419C625.322 48.0477 666.345 81.3039 678.552 126.863C690.76 172.422 671.861 221.734 631.355 264.641C590.851 307.546 528.77 344.013 454.707 363.858C380.644 383.703 308.646 383.162 252.117 366.258C195.583 349.352 154.561 316.096 142.353 270.537Z" stroke="url(#paint5_linear)" stroke-width="0.5"/>
<path d="M4.59525 203.965C5.74872 147.91 44.8888 97.9019 107.33 62.3798C169.766 26.8606 255.46 5.85224 349.61 7.78961C443.761 9.72699 528.518 34.2428 589.44 72.3003C650.367 110.361 687.417 161.937 686.263 217.992C685.11 274.047 645.97 324.054 583.528 359.576C521.092 395.095 435.399 416.104 341.248 414.167C247.098 412.229 162.341 387.713 101.419 349.656C40.4916 311.595 3.44179 260.02 4.59525 203.965Z" stroke="url(#paint6_linear)" stroke-width="0.5"/>
</g>
<g opacity="0.8" filter="url(#filter1_f)">
<ellipse cx="587.88" cy="297.255" rx="16.2117" ry="16.1542" fill="url(#paint7_linear)"/>
</g>
<path opacity="0.3" d="M603.488 297.206C603.488 305.626 597.102 310.012 588.782 310.012C580.461 310.012 572.066 306.02 572.066 297.601C572.066 289.182 578.345 283.719 586.665 283.719C594.986 283.719 603.488 284.114 603.488 297.206Z" fill="url(#paint8_linear)"/>
<path opacity="0.3" d="M602.845 296.238C602.845 304.658 596.1 311.483 587.779 311.483C579.459 311.483 572.714 304.658 572.714 296.238C572.714 287.819 578.06 282.357 586.38 282.357C594.701 282.357 602.845 287.819 602.845 296.238Z" fill="url(#paint9_linear)"/>
<circle cx="587.766" cy="296.853" r="13.9121" fill="url(#paint10_radial)"/>
<g opacity="0.8" filter="url(#filter2_f)">
<ellipse cx="682.573" cy="129.105" rx="8.10583" ry="8.07708" fill="url(#paint11_linear)"/>
</g>
<path opacity="0.3" d="M690.377 129.081C690.377 133.29 687.184 135.483 683.024 135.483C678.864 135.483 674.666 133.488 674.666 129.278C674.666 125.068 677.805 122.337 681.966 122.337C686.126 122.337 690.377 122.534 690.377 129.081Z" fill="url(#paint12_linear)"/>
<path opacity="0.3" d="M690.054 128.597C690.054 132.806 686.681 136.219 682.521 136.219C678.361 136.219 674.988 132.806 674.988 128.597C674.988 124.387 677.661 121.656 681.821 121.656C685.982 121.656 690.054 124.387 690.054 128.597Z" fill="url(#paint13_linear)"/>
<circle cx="682.517" cy="128.905" r="6.95607" fill="url(#paint14_radial)"/>
<path d="M624.992 294.805C624.899 295.791 624.535 296.561 623.9 297.115C623.265 297.665 622.421 297.94 621.367 297.94C620.631 297.94 619.981 297.767 619.418 297.42C618.86 297.069 618.428 296.571 618.124 295.928C617.819 295.285 617.66 294.538 617.647 293.687V292.824C617.647 291.952 617.802 291.184 618.111 290.52C618.42 289.856 618.862 289.343 619.438 288.984C620.017 288.624 620.686 288.444 621.443 288.444C622.463 288.444 623.284 288.721 623.906 289.276C624.528 289.83 624.89 290.613 624.992 291.624H623.392C623.316 290.96 623.121 290.482 622.808 290.19C622.499 289.894 622.044 289.746 621.443 289.746C620.745 289.746 620.208 290.002 619.831 290.514C619.459 291.021 619.268 291.768 619.26 292.754V293.573C619.26 294.572 619.438 295.334 619.793 295.858C620.153 296.383 620.677 296.645 621.367 296.645C621.998 296.645 622.472 296.504 622.789 296.22C623.106 295.937 623.307 295.465 623.392 294.805H624.992ZM625.995 294.316C625.995 293.643 626.128 293.038 626.395 292.5C626.661 291.959 627.036 291.544 627.518 291.256C628 290.964 628.555 290.818 629.181 290.818C630.108 290.818 630.859 291.117 631.435 291.713C632.014 292.31 632.327 293.101 632.374 294.087L632.38 294.449C632.38 295.126 632.249 295.731 631.987 296.265C631.729 296.798 631.356 297.21 630.87 297.502C630.387 297.794 629.829 297.94 629.194 297.94C628.225 297.94 627.448 297.619 626.864 296.975C626.285 296.328 625.995 295.467 625.995 294.392V294.316ZM627.537 294.449C627.537 295.156 627.683 295.71 627.975 296.112C628.267 296.51 628.673 296.709 629.194 296.709C629.714 296.709 630.118 296.506 630.406 296.1C630.698 295.693 630.844 295.099 630.844 294.316C630.844 293.622 630.694 293.072 630.394 292.665C630.097 292.259 629.693 292.056 629.181 292.056C628.678 292.056 628.278 292.257 627.981 292.659C627.685 293.057 627.537 293.654 627.537 294.449ZM636.678 294.506H633.345V293.262H636.678V294.506ZM637.662 294.316C637.662 293.643 637.795 293.038 638.062 292.5C638.328 291.959 638.703 291.544 639.185 291.256C639.667 290.964 640.222 290.818 640.848 290.818C641.775 290.818 642.526 291.117 643.102 291.713C643.681 292.31 643.994 293.101 644.041 294.087L644.047 294.449C644.047 295.126 643.916 295.731 643.654 296.265C643.396 296.798 643.023 297.21 642.537 297.502C642.054 297.794 641.496 297.94 640.861 297.94C639.892 297.94 639.115 297.619 638.531 296.975C637.951 296.328 637.662 295.467 637.662 294.392V294.316ZM639.204 294.449C639.204 295.156 639.35 295.71 639.642 296.112C639.934 296.51 640.34 296.709 640.861 296.709C641.381 296.709 641.785 296.506 642.073 296.1C642.365 295.693 642.511 295.099 642.511 294.316C642.511 293.622 642.361 293.072 642.061 292.665C641.764 292.259 641.36 292.056 640.848 292.056C640.345 292.056 639.945 292.257 639.648 292.659C639.352 293.057 639.204 293.654 639.204 294.449ZM648.173 296.709C648.558 296.709 648.878 296.597 649.132 296.372C649.386 296.148 649.521 295.871 649.538 295.541H650.992C650.975 295.968 650.841 296.368 650.592 296.741C650.342 297.109 650.004 297.401 649.576 297.617C649.149 297.832 648.688 297.94 648.192 297.94C647.232 297.94 646.47 297.629 645.907 297.007C645.344 296.385 645.063 295.526 645.063 294.43V294.271C645.063 293.226 645.342 292.39 645.901 291.764C646.459 291.134 647.221 290.818 648.186 290.818C649.003 290.818 649.667 291.057 650.179 291.536C650.695 292.01 650.966 292.634 650.992 293.408H649.538C649.521 293.015 649.386 292.691 649.132 292.437C648.882 292.183 648.563 292.056 648.173 292.056C647.674 292.056 647.289 292.238 647.018 292.602C646.747 292.962 646.61 293.51 646.605 294.246V294.494C646.605 295.238 646.739 295.795 647.005 296.163C647.276 296.527 647.666 296.709 648.173 296.709ZM657.974 297.813H656.432V295.039H653.759V297.813H652.217V290.945H653.759V293.808H656.432V290.945H657.974V297.813ZM659.333 294.316C659.333 293.643 659.466 293.038 659.732 292.5C659.999 291.959 660.374 291.544 660.856 291.256C661.338 290.964 661.893 290.818 662.519 290.818C663.446 290.818 664.197 291.117 664.772 291.713C665.352 292.31 665.665 293.101 665.712 294.087L665.718 294.449C665.718 295.126 665.587 295.731 665.325 296.265C665.067 296.798 664.694 297.21 664.208 297.502C663.725 297.794 663.167 297.94 662.532 297.94C661.563 297.94 660.786 297.619 660.202 296.975C659.622 296.328 659.333 295.467 659.333 294.392V294.316ZM660.875 294.449C660.875 295.156 661.021 295.71 661.313 296.112C661.605 296.51 662.011 296.709 662.532 296.709C663.052 296.709 663.456 296.506 663.744 296.1C664.036 295.693 664.182 295.099 664.182 294.316C664.182 293.622 664.032 293.072 663.731 292.665C663.435 292.259 663.031 292.056 662.519 292.056C662.015 292.056 661.616 292.257 661.319 292.659C661.023 293.057 660.875 293.654 660.875 294.449ZM667.14 297.813V290.945H669.927C670.866 290.945 671.581 291.11 672.072 291.44C672.563 291.766 672.809 292.236 672.809 292.85C672.809 293.167 672.709 293.453 672.51 293.706C672.316 293.956 672.026 294.149 671.641 294.284C672.089 294.377 672.445 294.566 672.707 294.849C672.969 295.133 673.101 295.467 673.101 295.852C673.101 296.491 672.864 296.978 672.39 297.312C671.92 297.646 671.243 297.813 670.358 297.813H667.14ZM668.683 294.887V296.595H670.371C671.162 296.595 671.558 296.311 671.558 295.744C671.558 295.173 671.156 294.887 670.352 294.887H668.683ZM668.683 293.783H669.952C670.828 293.783 671.266 293.524 671.266 293.008C671.266 292.467 670.851 292.187 670.022 292.17H668.683V293.783ZM678.541 297.813C678.473 297.682 678.414 297.468 678.363 297.172C677.872 297.684 677.271 297.94 676.56 297.94C675.87 297.94 675.307 297.744 674.872 297.35C674.436 296.956 674.218 296.47 674.218 295.89C674.218 295.158 674.489 294.597 675.03 294.208C675.576 293.814 676.355 293.618 677.366 293.618H678.312V293.167C678.312 292.811 678.213 292.528 678.014 292.316C677.815 292.1 677.512 291.993 677.106 291.993C676.755 291.993 676.467 292.081 676.243 292.259C676.018 292.433 675.906 292.655 675.906 292.926H674.364C674.364 292.549 674.489 292.198 674.738 291.872C674.988 291.542 675.326 291.284 675.754 291.098C676.186 290.911 676.666 290.818 677.195 290.818C677.999 290.818 678.64 291.021 679.118 291.428C679.596 291.83 679.842 292.397 679.854 293.129V296.226C679.854 296.844 679.941 297.337 680.115 297.705V297.813H678.541ZM676.846 296.703C677.15 296.703 677.436 296.628 677.703 296.48C677.973 296.332 678.177 296.133 678.312 295.884V294.589H677.48C676.909 294.589 676.48 294.688 676.192 294.887C675.904 295.086 675.76 295.367 675.76 295.731C675.76 296.028 675.858 296.265 676.052 296.442C676.251 296.616 676.516 296.703 676.846 296.703ZM686.773 292.17H684.545V297.813H683.003V292.17H680.8V290.945H686.773V292.17ZM690.423 297.94C689.446 297.94 688.652 297.634 688.043 297.02C687.438 296.402 687.135 295.581 687.135 294.557V294.367C687.135 293.681 687.266 293.07 687.529 292.532C687.795 291.99 688.168 291.569 688.646 291.269C689.124 290.968 689.657 290.818 690.246 290.818C691.181 290.818 691.902 291.117 692.41 291.713C692.922 292.31 693.178 293.154 693.178 294.246V294.868H688.69C688.737 295.435 688.925 295.884 689.255 296.214C689.59 296.544 690.009 296.709 690.512 296.709C691.219 296.709 691.794 296.423 692.239 295.852L693.07 296.645C692.795 297.056 692.427 297.375 691.966 297.604C691.509 297.828 690.995 297.94 690.423 297.94ZM690.239 292.056C689.816 292.056 689.473 292.204 689.211 292.5C688.953 292.797 688.788 293.209 688.716 293.738H691.655V293.624C691.621 293.108 691.483 292.718 691.242 292.456C691.001 292.189 690.667 292.056 690.239 292.056ZM700.218 290.945V297.813H698.675V292.189H696.733L696.606 294.582C696.526 295.733 696.303 296.561 695.939 297.064C695.58 297.564 695.028 297.813 694.283 297.813H693.807L693.8 296.531L694.118 296.499C694.456 296.453 694.702 296.248 694.854 295.884C695.011 295.516 695.11 294.847 695.152 293.878L695.279 290.945H700.218ZM703.519 293.129H705.029C705.592 293.129 706.083 293.226 706.502 293.421C706.921 293.615 707.238 293.888 707.454 294.24C707.674 294.591 707.784 294.999 707.784 295.465C707.784 296.171 707.535 296.739 707.035 297.166C706.536 297.593 705.871 297.809 705.042 297.813H701.976V290.945H703.519V293.129ZM703.519 294.367V296.582H705.023C705.4 296.582 705.696 296.489 705.912 296.303C706.132 296.112 706.242 295.843 706.242 295.496C706.242 295.149 706.134 294.877 705.918 294.678C705.706 294.475 705.419 294.371 705.055 294.367H703.519Z" fill="#2C4DFF"/>
<g opacity="0.8" filter="url(#filter3_f)">
<ellipse cx="37.1697" cy="215.016" rx="16.2117" ry="16.1542" fill="url(#paint15_linear)"/>
</g>
<path opacity="0.3" d="M52.7784 214.967C52.7784 223.387 46.3922 227.773 38.0718 227.773C29.7514 227.773 21.3564 223.781 21.3564 215.362C21.3564 206.942 27.6351 201.48 35.9555 201.48C44.2758 201.48 52.7784 201.875 52.7784 214.967Z" fill="url(#paint16_linear)"/>
<path opacity="0.3" d="M52.1336 213.999C52.1336 222.418 45.3886 229.244 37.0683 229.244C28.7479 229.244 22.0029 222.418 22.0029 213.999C22.0029 205.579 27.349 200.117 35.6693 200.117C43.9897 200.117 52.1336 205.579 52.1336 213.999Z" fill="url(#paint17_linear)"/>
<circle cx="37.0557" cy="214.614" r="13.9121" fill="url(#paint18_radial)"/>
<path d="M75.252 216.813H73.6523V208.866H69.5835V216.813H67.9839V207.571H75.252V216.813ZM76.7563 213.316C76.7563 212.643 76.8896 212.038 77.1562 211.5C77.4229 210.959 77.7974 210.544 78.2798 210.256C78.7622 209.964 79.3166 209.818 79.9429 209.818C80.8696 209.818 81.6208 210.117 82.1963 210.713C82.776 211.31 83.0892 212.101 83.1357 213.087L83.1421 213.449C83.1421 214.126 83.0109 214.731 82.7485 215.265C82.4904 215.798 82.118 216.21 81.6313 216.502C81.1489 216.794 80.5903 216.94 79.9556 216.94C78.9865 216.94 78.21 216.619 77.626 215.975C77.0462 215.328 76.7563 214.467 76.7563 213.392V213.316ZM78.2988 213.449C78.2988 214.156 78.4448 214.71 78.7368 215.112C79.0288 215.51 79.4351 215.709 79.9556 215.709C80.4761 215.709 80.8802 215.506 81.168 215.099C81.46 214.693 81.606 214.099 81.606 213.316C81.606 212.622 81.4557 212.072 81.1553 211.665C80.859 211.259 80.4549 211.056 79.9429 211.056C79.4393 211.056 79.0394 211.257 78.7432 211.659C78.4469 212.057 78.2988 212.654 78.2988 213.449ZM90.1816 209.945V216.813H88.6392V211.189H86.6968L86.5698 213.582C86.4894 214.733 86.2673 215.561 85.9033 216.064C85.5436 216.564 84.9914 216.813 84.2466 216.813H83.7705L83.7642 215.531L84.0815 215.499C84.4201 215.453 84.6655 215.248 84.8179 214.884C84.9744 214.516 85.0739 213.847 85.1162 212.878L85.2432 209.945H90.1816ZM93.4824 212.129H94.9932C95.556 212.129 96.0469 212.226 96.4658 212.421C96.8848 212.615 97.2021 212.888 97.418 213.24C97.638 213.591 97.748 213.999 97.748 214.465C97.748 215.171 97.4984 215.738 96.999 216.166C96.4997 216.593 95.8353 216.809 95.0059 216.813H91.9399V209.945H93.4824V212.129ZM93.4824 213.367V215.582H94.9868C95.3634 215.582 95.6597 215.489 95.8755 215.303C96.0955 215.112 96.2056 214.843 96.2056 214.496C96.2056 214.149 96.0977 213.877 95.8818 213.678C95.6702 213.474 95.3825 213.371 95.0186 213.367H93.4824ZM104.185 211.824C104.185 212.129 104.091 212.41 103.905 212.668C103.723 212.922 103.465 213.125 103.131 213.278C103.918 213.553 104.312 214.084 104.312 214.871C104.312 215.502 104.056 216.005 103.543 216.382C103.031 216.754 102.346 216.94 101.487 216.94C100.962 216.94 100.484 216.854 100.052 216.68C99.6206 216.502 99.2842 216.253 99.043 215.931C98.8018 215.605 98.6812 215.22 98.6812 214.776H100.217C100.217 215.055 100.342 215.29 100.592 215.48C100.841 215.667 101.157 215.76 101.538 215.76C101.914 215.76 102.213 215.673 102.433 215.499C102.657 215.322 102.769 215.091 102.769 214.807C102.769 214.473 102.672 214.232 102.477 214.084C102.282 213.936 101.982 213.862 101.576 213.862H100.471V212.751H101.614C102.304 212.742 102.648 212.459 102.648 211.9C102.648 211.621 102.549 211.403 102.35 211.246C102.151 211.09 101.878 211.012 101.531 211.012C101.193 211.012 100.907 211.096 100.674 211.266C100.442 211.431 100.325 211.64 100.325 211.894H98.7891C98.7891 211.289 99.043 210.794 99.5508 210.409C100.059 210.019 100.704 209.825 101.487 209.825C102.337 209.825 103 209.998 103.474 210.345C103.948 210.692 104.185 211.185 104.185 211.824ZM105.333 213.316C105.333 212.643 105.467 212.038 105.733 211.5C106 210.959 106.375 210.544 106.857 210.256C107.339 209.964 107.894 209.818 108.52 209.818C109.447 209.818 110.198 210.117 110.773 210.713C111.353 211.31 111.666 212.101 111.713 213.087L111.719 213.449C111.719 214.126 111.588 214.731 111.326 215.265C111.068 215.798 110.695 216.21 110.208 216.502C109.726 216.794 109.167 216.94 108.533 216.94C107.564 216.94 106.787 216.619 106.203 215.975C105.623 215.328 105.333 214.467 105.333 213.392V213.316ZM106.876 213.449C106.876 214.156 107.022 214.71 107.314 215.112C107.606 215.51 108.012 215.709 108.533 215.709C109.053 215.709 109.457 215.506 109.745 215.099C110.037 214.693 110.183 214.099 110.183 213.316C110.183 212.622 110.033 212.072 109.732 211.665C109.436 211.259 109.032 211.056 108.52 211.056C108.016 211.056 107.617 211.257 107.32 211.659C107.024 212.057 106.876 212.654 106.876 213.449ZM113.141 216.813V209.945H115.928C116.867 209.945 117.582 210.11 118.073 210.44C118.564 210.766 118.81 211.236 118.81 211.849C118.81 212.167 118.71 212.453 118.511 212.706C118.317 212.956 118.027 213.149 117.642 213.284C118.09 213.377 118.446 213.565 118.708 213.849C118.97 214.133 119.102 214.467 119.102 214.852C119.102 215.491 118.865 215.978 118.391 216.312C117.921 216.646 117.244 216.813 116.359 216.813H113.141ZM114.684 213.887V215.595H116.372C117.163 215.595 117.559 215.311 117.559 214.744C117.559 214.173 117.157 213.887 116.353 213.887H114.684ZM114.684 212.783H115.953C116.829 212.783 117.267 212.524 117.267 212.008C117.267 211.467 116.852 211.187 116.023 211.17H114.684V212.783ZM124.542 216.813C124.474 216.682 124.415 216.468 124.364 216.172C123.873 216.684 123.272 216.94 122.561 216.94C121.871 216.94 121.308 216.744 120.873 216.35C120.437 215.956 120.219 215.47 120.219 214.89C120.219 214.158 120.49 213.597 121.031 213.208C121.577 212.814 122.356 212.618 123.367 212.618H124.313V212.167C124.313 211.811 124.214 211.528 124.015 211.316C123.816 211.1 123.513 210.993 123.107 210.993C122.756 210.993 122.468 211.081 122.244 211.259C122.019 211.433 121.907 211.655 121.907 211.926H120.365C120.365 211.549 120.49 211.198 120.739 210.872C120.989 210.542 121.327 210.284 121.755 210.098C122.187 209.911 122.667 209.818 123.196 209.818C124 209.818 124.641 210.021 125.119 210.428C125.597 210.83 125.843 211.397 125.855 212.129V215.226C125.855 215.844 125.942 216.337 126.116 216.705V216.813H124.542ZM122.847 215.703C123.151 215.703 123.437 215.628 123.704 215.48C123.974 215.332 124.178 215.133 124.313 214.884V213.589H123.481C122.91 213.589 122.481 213.688 122.193 213.887C121.905 214.086 121.761 214.367 121.761 214.731C121.761 215.028 121.859 215.265 122.053 215.442C122.252 215.616 122.517 215.703 122.847 215.703ZM132.774 211.17H130.546V216.813H129.004V211.17H126.801V209.945H132.774V211.17ZM136.424 216.94C135.447 216.94 134.653 216.634 134.044 216.02C133.439 215.402 133.136 214.581 133.136 213.557V213.367C133.136 212.681 133.267 212.07 133.53 211.532C133.796 210.99 134.169 210.569 134.647 210.269C135.125 209.968 135.658 209.818 136.247 209.818C137.182 209.818 137.903 210.117 138.411 210.713C138.923 211.31 139.179 212.154 139.179 213.246V213.868H134.691C134.738 214.435 134.926 214.884 135.256 215.214C135.591 215.544 136.01 215.709 136.513 215.709C137.22 215.709 137.795 215.423 138.24 214.852L139.071 215.645C138.796 216.056 138.428 216.375 137.967 216.604C137.51 216.828 136.996 216.94 136.424 216.94ZM136.24 211.056C135.817 211.056 135.474 211.204 135.212 211.5C134.954 211.797 134.789 212.209 134.717 212.738H137.656V212.624C137.622 212.108 137.484 211.718 137.243 211.456C137.002 211.189 136.668 211.056 136.24 211.056ZM146.219 209.945V216.813H144.676V211.189H142.734L142.607 213.582C142.527 214.733 142.304 215.561 141.94 216.064C141.581 216.564 141.028 216.813 140.284 216.813H139.808L139.801 215.531L140.119 215.499C140.457 215.453 140.703 215.248 140.855 214.884C141.012 214.516 141.111 213.847 141.153 212.878L141.28 209.945H146.219ZM149.52 212.129H151.03C151.593 212.129 152.084 212.226 152.503 212.421C152.922 212.615 153.239 212.888 153.455 213.24C153.675 213.591 153.785 213.999 153.785 214.465C153.785 215.171 153.535 215.738 153.036 216.166C152.537 216.593 151.872 216.809 151.043 216.813H147.977V209.945H149.52V212.129ZM149.52 213.367V215.582H151.024C151.401 215.582 151.697 215.489 151.913 215.303C152.133 215.112 152.243 214.843 152.243 214.496C152.243 214.149 152.135 213.877 151.919 213.678C151.707 213.474 151.42 213.371 151.056 213.367H149.52Z" fill="#2C4DFF"/>
<g opacity="0.8" filter="url(#filter4_f)">
<ellipse cx="110.619" cy="353.061" rx="22.1068" ry="22.0284" fill="url(#paint19_linear)"/>
</g>
<path opacity="0.3" d="M131.903 352.994C131.903 364.475 123.194 370.456 111.848 370.456C100.502 370.456 89.0547 365.013 89.0547 353.532C89.0547 342.051 97.6165 334.603 108.962 334.603C120.308 334.603 131.903 335.141 131.903 352.994Z" fill="url(#paint20_linear)"/>
<path opacity="0.3" d="M131.024 351.674C131.024 363.155 121.826 372.462 110.48 372.462C99.1342 372.462 89.9365 363.155 89.9365 351.674C89.9365 340.193 97.2266 332.744 108.573 332.744C119.918 332.744 131.024 340.193 131.024 351.674Z" fill="url(#paint21_linear)"/>
<circle cx="110.462" cy="352.512" r="18.9711" fill="url(#paint22_radial)"/>
<path d="M151.252 354.813H149.652V346.866H145.583V354.813H143.984V345.571H151.252V354.813ZM159.06 351.449C159.06 352.511 158.818 353.36 158.336 353.995C157.854 354.625 157.206 354.94 156.394 354.94C155.64 354.94 155.037 354.693 154.584 354.198V357.454H153.042V347.945H154.464L154.527 348.643C154.98 348.093 155.596 347.818 156.375 347.818C157.212 347.818 157.868 348.131 158.342 348.758C158.82 349.38 159.06 350.245 159.06 351.354V351.449ZM157.523 351.316C157.523 350.63 157.386 350.086 157.111 349.684C156.84 349.282 156.451 349.081 155.943 349.081C155.312 349.081 154.86 349.342 154.584 349.862V352.909C154.864 353.442 155.321 353.709 155.956 353.709C156.446 353.709 156.829 353.512 157.104 353.119C157.384 352.721 157.523 352.12 157.523 351.316ZM160.082 351.316C160.082 350.643 160.215 350.038 160.481 349.5C160.748 348.959 161.123 348.544 161.605 348.256C162.087 347.964 162.642 347.818 163.268 347.818C164.195 347.818 164.946 348.117 165.521 348.713C166.101 349.31 166.414 350.101 166.461 351.087L166.467 351.449C166.467 352.126 166.336 352.731 166.074 353.265C165.816 353.798 165.443 354.21 164.957 354.502C164.474 354.794 163.916 354.94 163.281 354.94C162.312 354.94 161.535 354.619 160.951 353.975C160.371 353.328 160.082 352.467 160.082 351.392V351.316ZM161.624 351.449C161.624 352.156 161.77 352.71 162.062 353.112C162.354 353.51 162.76 353.709 163.281 353.709C163.801 353.709 164.205 353.506 164.493 353.099C164.785 352.693 164.931 352.099 164.931 351.316C164.931 350.622 164.781 350.072 164.48 349.665C164.184 349.259 163.78 349.056 163.268 349.056C162.764 349.056 162.365 349.257 162.068 349.659C161.772 350.057 161.624 350.654 161.624 351.449ZM171.85 352.915L173.881 347.945H175.811V354.813H174.269V350.268L172.377 354.813H171.33L169.432 350.243V354.813H167.889V347.945H169.832L171.85 352.915ZM177.258 351.316C177.258 350.643 177.392 350.038 177.658 349.5C177.925 348.959 178.299 348.544 178.782 348.256C179.264 347.964 179.819 347.818 180.445 347.818C181.372 347.818 182.123 348.117 182.698 348.713C183.278 349.31 183.591 350.101 183.638 351.087L183.644 351.449C183.644 352.126 183.513 352.731 183.25 353.265C182.992 353.798 182.62 354.21 182.133 354.502C181.651 354.794 181.092 354.94 180.458 354.94C179.488 354.94 178.712 354.619 178.128 353.975C177.548 353.328 177.258 352.467 177.258 351.392V351.316ZM178.801 351.449C178.801 352.156 178.947 352.71 179.239 353.112C179.531 353.51 179.937 353.709 180.458 353.709C180.978 353.709 181.382 353.506 181.67 353.099C181.962 352.693 182.108 352.099 182.108 351.316C182.108 350.622 181.958 350.072 181.657 349.665C181.361 349.259 180.957 349.056 180.445 349.056C179.941 349.056 179.541 349.257 179.245 349.659C178.949 350.057 178.801 350.654 178.801 351.449ZM187.25 352.604L188.646 347.945H190.29L187.561 355.854C187.142 357.01 186.431 357.587 185.428 357.587C185.203 357.587 184.956 357.549 184.685 357.473V356.28L184.977 356.299C185.366 356.299 185.658 356.227 185.853 356.083C186.052 355.943 186.208 355.706 186.323 355.372L186.545 354.782L184.133 347.945H185.796L187.25 352.604ZM196.587 349.17H194.359V354.813H192.816V349.17H190.614V347.945H196.587V349.17ZM200.237 354.94C199.259 354.94 198.466 354.634 197.856 354.02C197.251 353.402 196.949 352.581 196.949 351.557V351.367C196.949 350.681 197.08 350.07 197.342 349.532C197.609 348.99 197.981 348.569 198.459 348.269C198.938 347.968 199.471 347.818 200.059 347.818C200.994 347.818 201.716 348.117 202.224 348.713C202.736 349.31 202.992 350.154 202.992 351.246V351.868H198.504C198.55 352.435 198.739 352.884 199.069 353.214C199.403 353.544 199.822 353.709 200.326 353.709C201.032 353.709 201.608 353.423 202.052 352.852L202.884 353.645C202.609 354.056 202.241 354.375 201.779 354.604C201.322 354.828 200.808 354.94 200.237 354.94ZM200.053 349.056C199.63 349.056 199.287 349.204 199.024 349.5C198.766 349.797 198.601 350.209 198.529 350.738H201.468V350.624C201.434 350.108 201.297 349.718 201.056 349.456C200.814 349.189 200.48 349.056 200.053 349.056ZM210.209 351.449C210.209 352.511 209.968 353.36 209.485 353.995C209.003 354.625 208.355 354.94 207.543 354.94C206.79 354.94 206.187 354.693 205.734 354.198V357.454H204.191V347.945H205.613L205.677 348.643C206.13 348.093 206.745 347.818 207.524 347.818C208.362 347.818 209.018 348.131 209.492 348.758C209.97 349.38 210.209 350.245 210.209 351.354V351.449ZM208.673 351.316C208.673 350.63 208.535 350.086 208.26 349.684C207.989 349.282 207.6 349.081 207.092 349.081C206.462 349.081 206.009 349.342 205.734 349.862V352.909C206.013 353.442 206.47 353.709 207.105 353.709C207.596 353.709 207.979 353.512 208.254 353.119C208.533 352.721 208.673 352.12 208.673 351.316Z" fill="#2C4DFF"/>
<g opacity="0.8" filter="url(#filter5_f)">
<ellipse cx="398.435" cy="410.303" rx="25.023" ry="24.9343" fill="url(#paint23_linear)"/>
</g>
<path opacity="0.3" d="M422.528 410.228C422.528 423.224 412.67 429.994 399.828 429.994C386.985 429.994 374.027 423.833 374.027 410.837C374.027 397.842 383.719 389.411 396.561 389.411C409.404 389.411 422.528 390.02 422.528 410.228Z" fill="url(#paint24_linear)"/>
<path opacity="0.3" d="M421.533 408.734C421.533 421.729 411.122 432.264 398.279 432.264C385.436 432.264 375.025 421.729 375.025 408.734C375.025 395.738 383.277 387.307 396.12 387.307C408.962 387.307 421.533 395.738 421.533 408.734Z" fill="url(#paint25_linear)"/>
<circle cx="398.259" cy="409.682" r="21.4737" fill="url(#paint26_radial)"/>
<path d="M432.939 410.813V401.571H436.107C437.152 401.571 437.948 401.781 438.494 402.2C439.04 402.619 439.312 403.243 439.312 404.072C439.312 404.495 439.198 404.876 438.97 405.215C438.741 405.553 438.407 405.816 437.967 406.002C438.466 406.137 438.851 406.393 439.122 406.77C439.397 407.142 439.535 407.591 439.535 408.116C439.535 408.983 439.255 409.65 438.697 410.115C438.142 410.581 437.347 410.813 436.31 410.813H432.939ZM434.545 406.643V409.531H436.329C436.833 409.531 437.226 409.406 437.51 409.157C437.793 408.907 437.935 408.56 437.935 408.116C437.935 407.155 437.444 406.664 436.462 406.643H434.545ZM434.545 405.462H436.12C436.619 405.462 437.008 405.35 437.288 405.126C437.571 404.897 437.713 404.576 437.713 404.161C437.713 403.704 437.582 403.374 437.319 403.171C437.061 402.968 436.657 402.866 436.107 402.866H434.545V405.462ZM442.651 406.129H444.162C444.725 406.129 445.216 406.226 445.635 406.421C446.054 406.615 446.371 406.888 446.587 407.24C446.807 407.591 446.917 407.999 446.917 408.465C446.917 409.171 446.667 409.738 446.168 410.166C445.669 410.593 445.004 410.809 444.175 410.813H441.109V403.945H442.651V406.129ZM449.602 410.813H448.06V403.945H449.602V410.813ZM442.651 407.367V409.582H444.156C444.532 409.582 444.829 409.489 445.044 409.303C445.264 409.112 445.375 408.843 445.375 408.496C445.375 408.149 445.267 407.877 445.051 407.678C444.839 407.474 444.551 407.371 444.188 407.367H442.651ZM456.026 405.189H453.042V410.813H451.506V403.945H456.026V405.189ZM456.483 407.316C456.483 406.643 456.616 406.038 456.883 405.5C457.149 404.959 457.524 404.544 458.006 404.256C458.489 403.964 459.043 403.818 459.669 403.818C460.596 403.818 461.347 404.117 461.923 404.713C462.503 405.31 462.816 406.101 462.862 407.087L462.869 407.449C462.869 408.126 462.737 408.731 462.475 409.265C462.217 409.798 461.845 410.21 461.358 410.502C460.875 410.794 460.317 410.94 459.682 410.94C458.713 410.94 457.937 410.619 457.353 409.975C456.773 409.328 456.483 408.467 456.483 407.392V407.316ZM458.025 407.449C458.025 408.156 458.171 408.71 458.463 409.112C458.755 409.51 459.162 409.709 459.682 409.709C460.203 409.709 460.607 409.506 460.895 409.099C461.187 408.693 461.333 408.099 461.333 407.316C461.333 406.622 461.182 406.072 460.882 405.665C460.586 405.259 460.181 405.056 459.669 405.056C459.166 405.056 458.766 405.257 458.47 405.659C458.174 406.057 458.025 406.654 458.025 407.449ZM463.745 409.582C464.172 409.104 464.458 408.651 464.602 408.224C464.75 407.792 464.839 407.242 464.868 406.573L464.957 403.945H469.724V409.582H470.676V412.857H469.14V410.813H464.735V412.857H463.173L463.18 409.582H463.745ZM465.554 409.582H468.188V405.272H466.455L466.411 406.586C466.351 407.847 466.066 408.846 465.554 409.582ZM471.489 407.316C471.489 406.643 471.622 406.038 471.889 405.5C472.155 404.959 472.53 404.544 473.012 404.256C473.495 403.964 474.049 403.818 474.675 403.818C475.602 403.818 476.353 404.117 476.929 404.713C477.508 405.31 477.822 406.101 477.868 407.087L477.875 407.449C477.875 408.126 477.743 408.731 477.481 409.265C477.223 409.798 476.85 410.21 476.364 410.502C475.881 410.794 475.323 410.94 474.688 410.94C473.719 410.94 472.942 410.619 472.358 409.975C471.779 409.328 471.489 408.467 471.489 407.392V407.316ZM473.031 407.449C473.031 408.156 473.177 408.71 473.469 409.112C473.761 409.51 474.167 409.709 474.688 409.709C475.208 409.709 475.613 409.506 475.9 409.099C476.192 408.693 476.338 408.099 476.338 407.316C476.338 406.622 476.188 406.072 475.888 405.665C475.591 405.259 475.187 405.056 474.675 405.056C474.172 405.056 473.772 405.257 473.476 405.659C473.179 406.057 473.031 406.654 473.031 407.449ZM485.003 410.813H483.46V405.189H480.782V410.813H479.239V403.945H485.003V410.813ZM486.355 407.316C486.355 406.643 486.488 406.038 486.755 405.5C487.021 404.959 487.396 404.544 487.878 404.256C488.361 403.964 488.915 403.818 489.542 403.818C490.468 403.818 491.219 404.117 491.795 404.713C492.375 405.31 492.688 406.101 492.734 407.087L492.741 407.449C492.741 408.126 492.61 408.731 492.347 409.265C492.089 409.798 491.717 410.21 491.23 410.502C490.748 410.794 490.189 410.94 489.554 410.94C488.585 410.94 487.809 410.619 487.225 409.975C486.645 409.328 486.355 408.467 486.355 407.392V407.316ZM487.897 407.449C487.897 408.156 488.043 408.71 488.335 409.112C488.627 409.51 489.034 409.709 489.554 409.709C490.075 409.709 490.479 409.506 490.767 409.099C491.059 408.693 491.205 408.099 491.205 407.316C491.205 406.622 491.054 406.072 490.754 405.665C490.458 405.259 490.054 405.056 489.542 405.056C489.038 405.056 488.638 405.257 488.342 405.659C488.046 406.057 487.897 406.654 487.897 407.449ZM499.78 403.945V410.813H498.238V405.189H496.295L496.168 407.582C496.088 408.733 495.866 409.561 495.502 410.064C495.142 410.564 494.59 410.813 493.845 410.813H493.369L493.363 409.531L493.68 409.499C494.019 409.453 494.264 409.248 494.417 408.884C494.573 408.516 494.673 407.847 494.715 406.878L494.842 403.945H499.78ZM503.824 408.604L505.22 403.945H506.864L504.135 411.854C503.716 413.01 503.005 413.587 502.002 413.587C501.778 413.587 501.53 413.549 501.259 413.473V412.28L501.551 412.299C501.941 412.299 502.233 412.227 502.427 412.083C502.626 411.943 502.783 411.706 502.897 411.372L503.119 410.782L500.707 403.945H502.37L503.824 408.604ZM513.263 410.813H511.72V408.522C511.322 408.615 510.903 408.661 510.463 408.661C509.524 408.661 508.807 408.437 508.312 407.989C507.816 407.536 507.569 406.888 507.569 406.046V403.939H509.111V406.046C509.111 406.546 509.221 406.899 509.441 407.106C509.666 407.314 510.006 407.417 510.463 407.417C510.878 407.417 511.297 407.369 511.72 407.271V403.945H513.263V410.813ZM519.007 410.813C518.94 410.682 518.88 410.468 518.83 410.172C518.339 410.684 517.738 410.94 517.027 410.94C516.337 410.94 515.774 410.744 515.338 410.35C514.903 409.956 514.685 409.47 514.685 408.89C514.685 408.158 514.955 407.597 515.497 407.208C516.043 406.814 516.822 406.618 517.833 406.618H518.779V406.167C518.779 405.811 518.679 405.528 518.48 405.316C518.282 405.1 517.979 404.993 517.573 404.993C517.222 404.993 516.934 405.081 516.709 405.259C516.485 405.433 516.373 405.655 516.373 405.926H514.831C514.831 405.549 514.955 405.198 515.205 404.872C515.455 404.542 515.793 404.284 516.221 404.098C516.652 403.911 517.133 403.818 517.662 403.818C518.466 403.818 519.107 404.021 519.585 404.428C520.063 404.83 520.309 405.397 520.321 406.129V409.226C520.321 409.844 520.408 410.337 520.582 410.705V410.813H519.007ZM517.312 409.703C517.617 409.703 517.903 409.628 518.169 409.48C518.44 409.332 518.643 409.133 518.779 408.884V407.589H517.947C517.376 407.589 516.946 407.688 516.659 407.887C516.371 408.086 516.227 408.367 516.227 408.731C516.227 409.028 516.324 409.265 516.519 409.442C516.718 409.616 516.982 409.703 517.312 409.703ZM527.24 405.17H525.012V410.813H523.47V405.17H521.267V403.945H527.24V405.17ZM530.89 410.94C529.913 410.94 529.119 410.634 528.51 410.02C527.905 409.402 527.602 408.581 527.602 407.557V407.367C527.602 406.681 527.733 406.07 527.996 405.532C528.262 404.99 528.635 404.569 529.113 404.269C529.591 403.968 530.124 403.818 530.712 403.818C531.648 403.818 532.369 404.117 532.877 404.713C533.389 405.31 533.645 406.154 533.645 407.246V407.868H529.157C529.204 408.435 529.392 408.884 529.722 409.214C530.056 409.544 530.475 409.709 530.979 409.709C531.686 409.709 532.261 409.423 532.706 408.852L533.537 409.645C533.262 410.056 532.894 410.375 532.433 410.604C531.976 410.828 531.461 410.94 530.89 410.94ZM530.706 405.056C530.283 405.056 529.94 405.204 529.678 405.5C529.42 405.797 529.255 406.209 529.183 406.738H532.122V406.624C532.088 406.108 531.95 405.718 531.709 405.456C531.468 405.189 531.133 405.056 530.706 405.056ZM540.685 403.945V410.813H539.142V405.189H537.2L537.073 407.582C536.992 408.733 536.77 409.561 536.406 410.064C536.047 410.564 535.494 410.813 534.75 410.813H534.273L534.267 409.531L534.584 409.499C534.923 409.453 535.168 409.248 535.321 408.884C535.477 408.516 535.577 407.847 535.619 406.878L535.746 403.945H540.685ZM543.985 406.129H545.496C546.059 406.129 546.55 406.226 546.969 406.421C547.388 406.615 547.705 406.888 547.921 407.24C548.141 407.591 548.251 407.999 548.251 408.465C548.251 409.171 548.001 409.738 547.502 410.166C547.003 410.593 546.338 410.809 545.509 410.813H542.443V403.945H543.985V406.129ZM543.985 407.367V409.582H545.49C545.866 409.582 546.163 409.489 546.378 409.303C546.598 409.112 546.708 408.843 546.708 408.496C546.708 408.149 546.601 407.877 546.385 407.678C546.173 407.474 545.885 407.371 545.521 407.367H543.985Z" fill="#2C4DFF"/>
</g>
<defs>
<filter id="filter0_f" x="260.4" y="58.7196" width="264.856" height="264.13" filterUnits="userSpaceOnUse" color-interpolation-filters="sRGB">
<feFlood flood-opacity="0" result="BackgroundImageFix"/>
<feBlend mode="normal" in="SourceGraphic" in2="BackgroundImageFix" result="shape"/>
<feGaussianBlur stdDeviation="15" result="effect1_foregroundBlur"/>
</filter>
<filter id="filter1_f" x="541.668" y="251.101" width="92.4233" height="92.3083" filterUnits="userSpaceOnUse" color-interpolation-filters="sRGB">
<feFlood flood-opacity="0" result="BackgroundImageFix"/>
<feBlend mode="normal" in="SourceGraphic" in2="BackgroundImageFix" result="shape"/>
<feGaussianBlur stdDeviation="15" result="effect1_foregroundBlur"/>
</filter>
<filter id="filter2_f" x="644.467" y="91.028" width="76.2117" height="76.1542" filterUnits="userSpaceOnUse" color-interpolation-filters="sRGB">
<feFlood flood-opacity="0" result="BackgroundImageFix"/>
<feBlend mode="normal" in="SourceGraphic" in2="BackgroundImageFix" result="shape"/>
<feGaussianBlur stdDeviation="15" result="effect1_foregroundBlur"/>
</filter>
<filter id="filter3_f" x="-9.04199" y="168.862" width="92.4233" height="92.3083" filterUnits="userSpaceOnUse" color-interpolation-filters="sRGB">
<feFlood flood-opacity="0" result="BackgroundImageFix"/>
<feBlend mode="normal" in="SourceGraphic" in2="BackgroundImageFix" result="shape"/>
<feGaussianBlur stdDeviation="15" result="effect1_foregroundBlur"/>
</filter>
<filter id="filter4_f" x="58.5117" y="301.032" width="104.214" height="104.057" filterUnits="userSpaceOnUse" color-interpolation-filters="sRGB">
<feFlood flood-opacity="0" result="BackgroundImageFix"/>
<feBlend mode="normal" in="SourceGraphic" in2="BackgroundImageFix" result="shape"/>
<feGaussianBlur stdDeviation="15" result="effect1_foregroundBlur"/>
</filter>
<filter id="filter5_f" x="343.412" y="355.369" width="110.046" height="109.869" filterUnits="userSpaceOnUse" color-interpolation-filters="sRGB">
<feFlood flood-opacity="0" result="BackgroundImageFix"/>
<feBlend mode="normal" in="SourceGraphic" in2="BackgroundImageFix" result="shape"/>
<feGaussianBlur stdDeviation="15" result="effect1_foregroundBlur"/>
</filter>
<linearGradient id="paint0_linear" x1="392.829" y1="88.7196" x2="392.829" y2="292.85" gradientUnits="userSpaceOnUse">
<stop stop-color="#6447D9"/>
<stop offset="0.520833" stop-color="#3943AE"/>
<stop offset="1" stop-color="#203FC6"/>
</linearGradient>
<linearGradient id="paint1_linear" x1="392.183" y1="105.263" x2="392.183" y2="271.385" gradientUnits="userSpaceOnUse">
<stop stop-color="#6447D9"/>
<stop offset="0.520833" stop-color="#3943AE"/>
<stop offset="1" stop-color="#203FC6"/>
</linearGradient>
<linearGradient id="paint2_linear" x1="392.187" y1="96.6536" x2="392.187" y2="280.679" gradientUnits="userSpaceOnUse">
<stop stop-color="#6447D9"/>
<stop offset="0.520833" stop-color="#3943AE"/>
<stop offset="1" stop-color="#203FC6"/>
</linearGradient>
<radialGradient id="paint3_radial" cx="0" cy="0" r="1" gradientUnits="userSpaceOnUse" gradientTransform="translate(404.062 171.499) rotate(96.5198) scale(105.323)">
<stop stop-color="#6447D9"/>
<stop offset="0.520833" stop-color="#3943AE"/>
<stop offset="1" stop-color="#203FC6"/>
</radialGradient>
<linearGradient id="paint4_linear" x1="431.959" y1="444.346" x2="384.968" y2="6.68142" gradientUnits="userSpaceOnUse">
<stop stop-color="#2C4DFF"/>
<stop offset="1" stop-color="#2C4DFF" stop-opacity="0.3"/>
</linearGradient>
<linearGradient id="paint5_linear" x1="454.771" y1="364.1" x2="366.134" y2="33.3001" gradientUnits="userSpaceOnUse">
<stop stop-color="#2C4DFF"/>
<stop offset="1" stop-color="#2C4DFF" stop-opacity="0.3"/>
</linearGradient>
<linearGradient id="paint6_linear" x1="341.243" y1="414.416" x2="349.616" y2="7.53967" gradientUnits="userSpaceOnUse">
<stop stop-color="#2C4DFF"/>
<stop offset="1" stop-color="#2C4DFF" stop-opacity="0.3"/>
</linearGradient>
<linearGradient id="paint7_linear" x1="587.88" y1="281.101" x2="587.88" y2="313.409" gradientUnits="userSpaceOnUse">
<stop stop-color="#6447D9"/>
<stop offset="0.479167" stop-color="#3943AE"/>
<stop offset="1" stop-color="#203FC6"/>
</linearGradient>
<linearGradient id="paint8_linear" x1="587.777" y1="283.719" x2="587.777" y2="310.012" gradientUnits="userSpaceOnUse">
<stop stop-color="#6447D9"/>
<stop offset="0.479167" stop-color="#3943AE"/>
<stop offset="1" stop-color="#203FC6"/>
</linearGradient>
<linearGradient id="paint9_linear" x1="587.779" y1="282.357" x2="587.779" y2="311.483" gradientUnits="userSpaceOnUse">
<stop stop-color="#6447D9"/>
<stop offset="0.479167" stop-color="#3943AE"/>
<stop offset="1" stop-color="#203FC6"/>
</linearGradient>
<radialGradient id="paint10_radial" cx="0" cy="0" r="1" gradientUnits="userSpaceOnUse" gradientTransform="translate(589.658 294.203) rotate(96.5198) scale(16.6699)">
<stop stop-color="#6447D9"/>
<stop offset="0.546875" stop-color="#3943AE"/>
<stop offset="1" stop-color="#203FC6"/>
</radialGradient>
<linearGradient id="paint11_linear" x1="682.573" y1="121.028" x2="682.573" y2="137.182" gradientUnits="userSpaceOnUse">
<stop stop-color="#6447D9"/>
<stop offset="0.479167" stop-color="#3943AE"/>
<stop offset="1" stop-color="#203FC6"/>
</linearGradient>
<linearGradient id="paint12_linear" x1="682.522" y1="122.337" x2="682.522" y2="135.483" gradientUnits="userSpaceOnUse">
<stop stop-color="#6447D9"/>
<stop offset="0.479167" stop-color="#3943AE"/>
<stop offset="1" stop-color="#203FC6"/>
</linearGradient>
<linearGradient id="paint13_linear" x1="682.521" y1="121.656" x2="682.521" y2="136.219" gradientUnits="userSpaceOnUse">
<stop stop-color="#6447D9"/>
<stop offset="0.479167" stop-color="#3943AE"/>
<stop offset="1" stop-color="#203FC6"/>
</linearGradient>
<radialGradient id="paint14_radial" cx="0" cy="0" r="1" gradientUnits="userSpaceOnUse" gradientTransform="translate(683.463 127.58) rotate(96.5198) scale(8.33494)">
<stop stop-color="#6447D9"/>
<stop offset="0.546875" stop-color="#3943AE"/>
<stop offset="1" stop-color="#203FC6"/>
</radialGradient>
<linearGradient id="paint15_linear" x1="37.1697" y1="198.862" x2="37.1697" y2="231.17" gradientUnits="userSpaceOnUse">
<stop stop-color="#6447D9"/>
<stop offset="0.479167" stop-color="#3943AE"/>
<stop offset="1" stop-color="#203FC6"/>
</linearGradient>
<linearGradient id="paint16_linear" x1="37.0674" y1="201.48" x2="37.0674" y2="227.773" gradientUnits="userSpaceOnUse">
<stop stop-color="#6447D9"/>
<stop offset="0.479167" stop-color="#3943AE"/>
<stop offset="1" stop-color="#203FC6"/>
</linearGradient>
<linearGradient id="paint17_linear" x1="37.0683" y1="200.117" x2="37.0683" y2="229.244" gradientUnits="userSpaceOnUse">
<stop stop-color="#6447D9"/>
<stop offset="0.479167" stop-color="#3943AE"/>
<stop offset="1" stop-color="#203FC6"/>
</linearGradient>
<radialGradient id="paint18_radial" cx="0" cy="0" r="1" gradientUnits="userSpaceOnUse" gradientTransform="translate(38.9485 211.964) rotate(96.5198) scale(16.6699)">
<stop stop-color="#6447D9"/>
<stop offset="0.546875" stop-color="#3943AE"/>
<stop offset="1" stop-color="#203FC6"/>
</radialGradient>
<linearGradient id="paint19_linear" x1="110.619" y1="331.032" x2="110.619" y2="375.089" gradientUnits="userSpaceOnUse">
<stop stop-color="#6447D9"/>
<stop offset="0.479167" stop-color="#3943AE"/>
<stop offset="1" stop-color="#203FC6"/>
</linearGradient>
<linearGradient id="paint20_linear" x1="110.479" y1="334.603" x2="110.479" y2="370.456" gradientUnits="userSpaceOnUse">
<stop stop-color="#6447D9"/>
<stop offset="0.479167" stop-color="#3943AE"/>
<stop offset="1" stop-color="#203FC6"/>
</linearGradient>
<linearGradient id="paint21_linear" x1="110.48" y1="332.744" x2="110.48" y2="372.462" gradientUnits="userSpaceOnUse">
<stop stop-color="#6447D9"/>
<stop offset="0.479167" stop-color="#3943AE"/>
<stop offset="1" stop-color="#203FC6"/>
</linearGradient>
<radialGradient id="paint22_radial" cx="0" cy="0" r="1" gradientUnits="userSpaceOnUse" gradientTransform="translate(113.043 348.898) rotate(96.5198) scale(22.7316)">
<stop stop-color="#6447D9"/>
<stop offset="0.546875" stop-color="#3943AE"/>
<stop offset="1" stop-color="#203FC6"/>
</radialGradient>
<linearGradient id="paint23_linear" x1="398.435" y1="385.369" x2="398.435" y2="435.237" gradientUnits="userSpaceOnUse">
<stop stop-color="#6447D9"/>
<stop offset="0.479167" stop-color="#3943AE"/>
<stop offset="1" stop-color="#203FC6"/>
</linearGradient>
<linearGradient id="paint24_linear" x1="398.278" y1="389.411" x2="398.278" y2="429.994" gradientUnits="userSpaceOnUse">
<stop stop-color="#6447D9"/>
<stop offset="0.479167" stop-color="#3943AE"/>
<stop offset="1" stop-color="#203FC6"/>
</linearGradient>
<linearGradient id="paint25_linear" x1="398.279" y1="387.307" x2="398.279" y2="432.264" gradientUnits="userSpaceOnUse">
<stop stop-color="#6447D9"/>
<stop offset="0.479167" stop-color="#3943AE"/>
<stop offset="1" stop-color="#203FC6"/>
</linearGradient>
<radialGradient id="paint26_radial" cx="0" cy="0" r="1" gradientUnits="userSpaceOnUse" gradientTransform="translate(401.18 405.592) rotate(96.5198) scale(25.7303)">
<stop stop-color="#6447D9"/>
<stop offset="0.546875" stop-color="#3943AE"/>
<stop offset="1" stop-color="#203FC6"/>
</radialGradient>
<clipPath id="clip0">
<rect width="800" height="459" fill="white"/>
</clipPath>
</defs>
</svg>
