<svg width="266" height="117" viewBox="0 0 266 117" fill="none" xmlns="http://www.w3.org/2000/svg">
<g opacity="0.05" filter="url(#filter0_f)">
<path d="M71.6463 101.358C64.664 101.908 58.5379 96.9367 57.9633 90.2543C57.3887 83.5718 62.5831 77.7088 69.5654 77.1589C76.5477 76.6089 82.6738 81.5803 83.2485 88.2627C83.8231 94.9452 78.6286 100.808 71.6463 101.358Z" fill="url(#paint0_linear)"/>
</g>
<g opacity="0.2" filter="url(#filter1_f)">
<path d="M71.2163 96.4352C67.0706 96.7617 63.4332 93.8099 63.092 89.8422C62.7508 85.8745 65.835 82.3934 69.9808 82.0668C74.1265 81.7403 77.7639 84.692 78.1051 88.6598C78.4463 92.6275 75.3621 96.1086 71.2163 96.4352Z" fill="url(#paint1_linear)"/>
</g>
<path d="M71.0823 93.8593C68.464 94.0655 66.1667 92.2013 65.9512 89.6953C65.7357 87.1894 67.6836 84.9908 70.302 84.7845C72.9204 84.5783 75.2177 86.4426 75.4331 88.9485C75.6486 91.4544 73.7007 93.6531 71.0823 93.8593Z" fill="white"/>
<g opacity="0.05" filter="url(#filter2_f)">
<path d="M130.835 33.2127C123.853 33.7626 117.726 28.7912 117.152 22.1088C116.577 15.4263 121.772 9.5633 128.754 9.01335C135.736 8.4634 141.862 13.4348 142.437 20.1172C143.012 26.7997 137.817 32.6627 130.835 33.2127Z" fill="url(#paint2_linear)"/>
</g>
<g opacity="0.2" filter="url(#filter3_f)">
<path d="M130.405 28.2897C126.259 28.6162 122.622 25.6644 122.28 21.6967C121.939 17.729 125.024 14.2479 129.169 13.9213C133.315 13.5948 136.952 16.5465 137.294 20.5142C137.635 24.482 134.551 27.9631 130.405 28.2897Z" fill="url(#paint3_linear)"/>
</g>
<path d="M130.271 25.7138C127.652 25.92 125.355 24.0557 125.14 21.5498C124.924 19.0439 126.872 16.8453 129.49 16.639C132.109 16.4328 134.406 18.2971 134.622 20.803C134.837 23.3089 132.889 25.5075 130.271 25.7138Z" fill="white"/>
<g opacity="0.05" filter="url(#filter4_f)">
<path d="M198.101 51.1272C191.119 51.6772 184.993 46.7058 184.418 40.0233C183.844 33.3409 189.038 27.4779 196.021 26.9279C203.003 26.378 209.129 31.3493 209.704 38.0318C210.278 44.7142 205.084 50.5773 198.101 51.1272Z" fill="url(#paint4_linear)"/>
</g>
<g opacity="0.2" filter="url(#filter5_f)">
<path d="M197.671 46.2042C193.526 46.5307 189.888 43.579 189.547 39.6113C189.206 35.6436 192.29 32.1624 196.436 31.8359C200.582 31.5093 204.219 34.4611 204.56 38.4288C204.901 42.3965 201.817 45.8777 197.671 46.2042Z" fill="url(#paint5_linear)"/>
</g>
<path d="M197.537 43.6283C194.919 43.8346 192.622 41.9703 192.406 39.4644C192.191 36.9585 194.139 34.7598 196.757 34.5536C199.375 34.3474 201.673 36.2116 201.888 38.7175C202.104 41.2235 200.156 43.4221 197.537 43.6283Z" fill="white"/>
<path d="M131.294 100.915C131.294 101.688 130.647 102.315 129.85 102.315H117.488C116.69 102.315 116.043 101.688 116.043 100.915V68.7007C116.043 67.92 116.677 67.287 117.458 67.287L144.267 67.2871C146.347 67.2871 148.426 66.6153 150.308 65.1758C152.189 63.7363 153.18 61.3371 153.18 58.0743C153.18 54.8114 152.189 52.5082 150.308 51.0687C148.426 49.6292 146.347 48.8615 144.267 48.8615H117.815L116.043 48.8622V48.8594H108.338C107.64 48.8594 106.978 48.5554 106.523 48.0269L97.0021 36.9556C96.4766 36.3445 96.9111 35.3989 97.7175 35.3989H120.078C120.201 35.3989 120.322 35.4082 120.44 35.4261H145.158C151.001 35.4261 156.25 37.5374 161.102 41.664C165.955 45.7905 168.43 51.2606 168.43 58.0743C168.43 64.6 166.054 69.9741 161.3 74.2926C156.547 78.6111 151.199 80.7224 145.158 80.7224H132.738C131.941 80.7224 131.294 81.3489 131.294 82.1218V100.915Z" fill="white"/>
<path d="M264.671 68.8568C264.671 72.7414 262.5 76.5117 258.419 80.0083C254.34 83.5034 248.407 86.6751 241.028 89.3493C226.276 94.696 205.86 98.0134 183.283 98.0134C160.706 98.0134 140.29 94.696 125.537 89.3493C118.159 86.6751 112.225 83.5034 108.146 80.0083C104.066 76.5117 101.895 72.7414 101.895 68.8568C101.895 64.9722 104.066 61.2019 108.146 57.7052C112.225 54.2101 118.159 51.0384 125.537 48.3643C140.29 43.0175 160.706 39.7001 183.283 39.7001C205.86 39.7001 226.276 43.0175 241.028 48.3643C248.407 51.0384 254.34 54.2101 258.419 57.7052C262.5 61.2019 264.671 64.9722 264.671 68.8568Z" stroke="white" stroke-width="1.06722"/>
<path d="M264.671 68.8568C264.671 73.9749 261.814 78.92 256.493 83.4851C251.174 88.0486 243.446 92.1825 233.85 95.6647C214.662 102.628 188.119 106.945 158.775 106.945C129.43 106.945 102.887 102.628 83.6994 95.6647C74.1032 92.1825 66.3751 88.0486 61.056 83.4851C55.735 78.92 52.8783 73.9749 52.8783 68.8568C52.8783 63.7388 55.735 58.7937 61.056 54.2286C66.3751 49.6651 74.1032 45.5312 83.6994 42.0489C102.887 35.086 129.43 30.769 158.775 30.769C188.119 30.769 214.662 35.086 233.85 42.0489C243.446 45.5312 251.174 49.6651 256.493 54.2286C261.814 58.7937 264.671 63.7388 264.671 68.8568Z" stroke="white" stroke-width="1.06722"/>
<path d="M264.671 68.8568C264.671 75.2742 261.083 81.4575 254.437 87.149C247.794 92.8389 238.149 97.9871 226.185 102.321C202.261 110.988 169.174 116.359 132.602 116.359C96.0306 116.359 62.9443 110.988 39.0201 102.321C27.0558 97.9871 17.4112 92.8389 10.7677 87.149C4.12228 81.4575 0.533611 75.2742 0.533611 68.8568C0.533611 62.4393 4.12228 56.256 10.7677 50.5645C17.4112 44.8746 27.0558 39.7264 39.0201 35.3923C62.9443 26.7257 96.0306 21.3549 132.602 21.3549C169.174 21.3549 202.261 26.7257 226.185 35.3923C238.149 39.7264 247.794 44.8746 254.437 50.5645C261.083 56.256 264.671 62.4393 264.671 68.8568Z" stroke="white" stroke-width="1.06722"/>
<defs>
<filter id="filter0_f" x="49.9157" y="69.113" width="41.3804" height="40.2908" filterUnits="userSpaceOnUse" color-interpolation-filters="sRGB">
<feFlood flood-opacity="0" result="BackgroundImageFix"/>
<feBlend mode="normal" in="SourceGraphic" in2="BackgroundImageFix" result="shape"/>
<feGaussianBlur stdDeviation="4.00209" result="effect1_foregroundBlur"/>
</filter>
<filter id="filter1_f" x="55.0622" y="74.0378" width="31.073" height="30.426" filterUnits="userSpaceOnUse" color-interpolation-filters="sRGB">
<feFlood flood-opacity="0" result="BackgroundImageFix"/>
<feBlend mode="normal" in="SourceGraphic" in2="BackgroundImageFix" result="shape"/>
<feGaussianBlur stdDeviation="4.00209" result="effect1_foregroundBlur"/>
</filter>
<filter id="filter2_f" x="109.104" y="0.967507" width="41.3804" height="40.2908" filterUnits="userSpaceOnUse" color-interpolation-filters="sRGB">
<feFlood flood-opacity="0" result="BackgroundImageFix"/>
<feBlend mode="normal" in="SourceGraphic" in2="BackgroundImageFix" result="shape"/>
<feGaussianBlur stdDeviation="4.00209" result="effect1_foregroundBlur"/>
</filter>
<filter id="filter3_f" x="114.251" y="5.89231" width="31.073" height="30.426" filterUnits="userSpaceOnUse" color-interpolation-filters="sRGB">
<feFlood flood-opacity="0" result="BackgroundImageFix"/>
<feBlend mode="normal" in="SourceGraphic" in2="BackgroundImageFix" result="shape"/>
<feGaussianBlur stdDeviation="4.00209" result="effect1_foregroundBlur"/>
</filter>
<filter id="filter4_f" x="176.371" y="18.8821" width="41.3804" height="40.2908" filterUnits="userSpaceOnUse" color-interpolation-filters="sRGB">
<feFlood flood-opacity="0" result="BackgroundImageFix"/>
<feBlend mode="normal" in="SourceGraphic" in2="BackgroundImageFix" result="shape"/>
<feGaussianBlur stdDeviation="4.00209" result="effect1_foregroundBlur"/>
</filter>
<filter id="filter5_f" x="181.517" y="23.8069" width="31.073" height="30.426" filterUnits="userSpaceOnUse" color-interpolation-filters="sRGB">
<feFlood flood-opacity="0" result="BackgroundImageFix"/>
<feBlend mode="normal" in="SourceGraphic" in2="BackgroundImageFix" result="shape"/>
<feGaussianBlur stdDeviation="4.00209" result="effect1_foregroundBlur"/>
</filter>
<linearGradient id="paint0_linear" x1="84.2889" y1="100.362" x2="82.3818" y2="76.1494" gradientUnits="userSpaceOnUse">
<stop stop-color="white"/>
<stop offset="1" stop-color="white"/>
</linearGradient>
<linearGradient id="paint1_linear" x1="78.7228" y1="95.8439" x2="77.5905" y2="81.4675" gradientUnits="userSpaceOnUse">
<stop stop-color="white"/>
<stop offset="1" stop-color="white"/>
</linearGradient>
<linearGradient id="paint2_linear" x1="143.477" y1="32.2169" x2="141.57" y2="8.00389" gradientUnits="userSpaceOnUse">
<stop stop-color="white"/>
<stop offset="1" stop-color="white"/>
</linearGradient>
<linearGradient id="paint3_linear" x1="137.911" y1="27.6984" x2="136.779" y2="13.3219" gradientUnits="userSpaceOnUse">
<stop stop-color="white"/>
<stop offset="1" stop-color="white"/>
</linearGradient>
<linearGradient id="paint4_linear" x1="210.744" y1="50.1314" x2="208.837" y2="25.9184" gradientUnits="userSpaceOnUse">
<stop stop-color="white"/>
<stop offset="1" stop-color="white"/>
</linearGradient>
<linearGradient id="paint5_linear" x1="205.178" y1="45.613" x2="204.046" y2="31.2365" gradientUnits="userSpaceOnUse">
<stop stop-color="white"/>
<stop offset="1" stop-color="white"/>
</linearGradient>
</defs>
</svg>
