<svg width="1235" height="141" viewBox="0 0 1235 141" fill="none" xmlns="http://www.w3.org/2000/svg">
<path fill-rule="evenodd" clip-rule="evenodd" d="M500.844 124.867C489.766 114.422 484.227 101.589 484.227 86.5185C484.227 71.4476 489.766 58.7642 500.844 48.3191C512.076 37.8739 525.615 32.6514 541.463 32.6514C557.311 32.6514 570.851 37.8739 581.928 48.3191C593.16 58.7642 598.699 71.4476 598.699 86.5185C598.699 101.589 593.16 114.422 582.082 124.867C571.004 135.163 557.465 140.386 541.463 140.386C525.615 140.386 512.076 135.163 500.844 124.867ZM517.615 63.2407C511.153 69.657 507.922 77.4163 507.922 86.5185C507.922 95.9191 511.153 103.678 517.615 110.095C524.077 116.362 532.078 119.495 541.463 119.495C550.849 119.495 558.696 116.362 565.158 109.945C571.774 103.529 575.005 95.6207 575.005 86.5185C575.005 77.4163 571.774 69.657 565.312 63.2407C558.849 56.8244 550.849 53.5417 541.463 53.5417C532.078 53.5417 524.077 56.8244 517.615 63.2407ZM384.15 138.297C385.389 138.297 386.393 137.322 386.393 136.121V84.2483C386.393 82.3634 388.696 81.3701 390.14 82.6323L454.654 139.049C456.097 140.311 458.4 139.318 458.4 137.433V36.4687C458.4 35.267 457.396 34.2927 456.156 34.2927H437.257C436.018 34.2927 435.013 35.267 435.013 36.4687V88.4825C435.013 90.3686 432.708 91.3615 431.265 90.0967L366.755 33.5496C365.312 32.2849 363.007 33.2778 363.007 35.1639V136.121C363.007 137.322 364.011 138.297 365.25 138.297H384.15ZM53.6351 136.121C53.6351 137.322 52.6305 138.297 51.3913 138.297H32.1844C30.9452 138.297 29.9406 137.322 29.9406 136.121V86.0307C29.9406 84.8167 30.9247 83.8326 32.1387 83.8326L73.7909 83.8326C77.0219 83.8326 80.253 82.7881 83.1763 80.5498C86.0997 78.3116 87.6383 74.5812 87.6383 69.5078C87.6383 64.4345 86.0997 60.8533 83.1763 58.615C80.253 56.3768 77.0219 55.183 73.7909 55.183H32.693L29.9406 55.1842V55.1798H17.9685C16.8851 55.1798 15.8556 54.7071 15.1495 53.8854L0.356814 36.6709C-0.459708 35.7207 0.215401 34.2504 1.46823 34.2504H36.2094C36.4007 34.2504 36.5887 34.2649 36.7722 34.2927H75.1756C84.2534 34.2927 92.408 37.5755 99.9471 43.9918C107.486 50.4081 111.333 58.9135 111.333 69.5078C111.333 79.6545 107.64 88.0107 100.255 94.7254C92.8696 101.44 84.5611 104.723 75.1756 104.723H55.8789C54.6397 104.723 53.6351 105.697 53.6351 106.899V136.121ZM157.705 138.297C158.945 138.297 159.949 137.322 159.949 136.121V96.006C159.949 94.8043 160.954 93.8301 162.193 93.8301H204.171C205.41 93.8301 206.415 94.8043 206.415 96.006V136.121C206.415 137.322 207.42 138.297 208.659 138.297H227.866C229.105 138.297 230.11 137.322 230.11 136.121V36.4687C230.11 35.267 229.105 34.2927 227.866 34.2927H208.659C207.42 34.2927 206.415 35.267 206.415 36.4687V70.7638C206.415 71.9656 205.41 72.9398 204.171 72.9398H162.193C160.954 72.9398 159.949 71.9656 159.949 70.7638V36.4687C159.949 35.267 158.945 34.2927 157.705 34.2927H138.498C137.259 34.2927 136.255 35.267 136.255 36.4687V136.121C136.255 137.322 137.259 138.297 138.498 138.297H157.705ZM333.271 138.297C334.51 138.297 335.515 137.322 335.515 136.121V119.582C335.515 118.38 334.51 117.406 333.271 117.406H287.139C285.899 117.406 284.895 116.432 284.895 115.23V97.349C284.895 96.1473 285.899 95.173 287.139 95.173H328.963C330.202 95.173 331.207 94.1988 331.207 92.9971V76.9063C331.207 75.7046 330.202 74.7304 328.963 74.7304H287.139C285.899 74.7304 284.895 73.7562 284.895 72.5544V57.359C284.895 56.1572 285.899 55.183 287.139 55.183H332.194C333.433 55.183 334.438 54.2088 334.438 53.0071V36.4687C334.438 35.267 333.433 34.2927 332.194 34.2927H263.444C262.205 34.2927 261.2 35.267 261.2 36.4687V136.121C261.2 137.322 262.205 138.297 263.444 138.297H333.271ZM645.145 138.297C646.384 138.297 647.389 137.322 647.389 136.121V91.1888C647.389 89.189 649.937 88.2482 651.308 89.7416L679.563 120.506C680.455 121.478 682.021 121.478 682.914 120.506L711.168 89.7415C712.54 88.2482 715.088 89.189 715.088 91.1888V136.121C715.088 137.322 716.092 138.297 717.331 138.297H735.615C736.854 138.297 737.859 137.322 737.859 136.121V36.1518C737.859 34.1679 735.345 33.2189 733.962 34.6806L682.891 88.651C682.002 89.5907 680.474 89.5907 679.585 88.651L628.515 34.6806C627.131 33.2189 624.618 34.1679 624.618 36.1518V136.121C624.618 137.322 625.622 138.297 626.861 138.297H645.145Z" fill="#0F38E2"/>
<path d="M866 33.24H872.8L855.04 75H848.88L840.8 55.32L832.8 75H826.64L808.88 33.24H815.6L830 68.04L836.72 50.92L829.68 33.32H835.84L840.8 46.6L845.76 33.32H851.92L844.96 50.92L851.68 68.04L866 33.24ZM915.623 75H908.583V51.64C908.583 47.3733 907.81 44.1733 906.263 42.04C904.77 39.9067 902.61 38.84 899.783 38.84C897.97 38.84 896.13 39.32 894.263 40.28C892.45 41.24 890.85 42.5467 889.463 44.2C888.076 45.8 887.063 47.6667 886.423 49.8V75H879.383V16.6H886.423V42.2C888.076 39.2133 890.316 36.8667 893.143 35.16C896.023 33.4 899.116 32.52 902.423 32.52C905.73 32.52 908.343 33.2933 910.263 34.84C912.183 36.3867 913.543 38.4933 914.343 41.16C915.196 43.7733 915.623 46.7333 915.623 50.04V75ZM926.571 25.4V16.6H933.611V25.4H926.571ZM926.571 75V33.24H933.611V75H926.571ZM966.608 72.92C965.755 73.2933 964.395 73.8267 962.528 74.52C960.715 75.2133 958.688 75.56 956.448 75.56C953.888 75.56 951.675 74.8667 949.808 73.48C947.941 72.04 947.008 69.8267 947.008 66.84V38.76H941.328V33.24H947.008V19.32H954.048V33.24H963.408V38.76H954.048V64.68C954.155 66.1733 954.661 67.2933 955.568 68.04C956.475 68.7333 957.541 69.08 958.768 69.08C960.155 69.08 961.435 68.84 962.608 68.36C963.781 67.88 964.555 67.5333 964.928 67.32L966.608 72.92ZM991.066 75.8C986.906 75.8 983.226 74.8133 980.026 72.84C976.826 70.8667 974.32 68.2267 972.506 64.92C970.693 61.6133 969.786 58.0133 969.786 54.12C969.786 50.1733 970.693 46.5733 972.506 43.32C974.32 40.0667 976.826 37.4533 980.026 35.48C983.28 33.5067 986.986 32.52 991.146 32.52C995.36 32.52 999.013 33.5333 1002.11 35.56C1005.25 37.5333 1007.68 40.1467 1009.39 43.4C1011.15 46.6 1012.03 50.0667 1012.03 53.8C1012.03 54.9733 1011.97 55.88 1011.87 56.52H977.226C977.44 59.24 978.186 61.6667 979.466 63.8C980.8 65.88 982.506 67.5333 984.586 68.76C986.666 69.9333 988.906 70.52 991.306 70.52C993.866 70.52 996.266 69.88 998.506 68.6C1000.8 67.32 1002.37 65.64 1003.23 63.56L1009.31 65.24C1007.97 68.3333 1005.65 70.8667 1002.35 72.84C999.04 74.8133 995.28 75.8 991.066 75.8ZM976.986 51.64H1005.47C1005.25 48.92 1004.48 46.52 1003.15 44.44C1001.81 42.36 1000.11 40.7333 998.026 39.56C995.946 38.3867 993.653 37.8 991.146 37.8C988.693 37.8 986.426 38.3867 984.346 39.56C982.266 40.7333 980.56 42.36 979.226 44.44C977.946 46.52 977.2 48.92 976.986 51.64ZM1042.33 75.8C1038.92 75.8 1035.88 74.9467 1033.21 73.24C1030.55 71.5333 1028.44 69.3733 1026.89 66.76V92.04H1019.85V33.24H1026.09V41.08C1027.75 38.52 1029.91 36.4667 1032.57 34.92C1035.24 33.32 1038.15 32.52 1041.29 32.52C1044.17 32.52 1046.81 33.1067 1049.21 34.28C1051.61 35.4533 1053.69 37.0533 1055.45 39.08C1057.21 41.1067 1058.57 43.4267 1059.53 46.04C1060.55 48.6 1061.05 51.2933 1061.05 54.12C1061.05 58.0667 1060.25 61.6933 1058.65 65C1057.11 68.3067 1054.92 70.9467 1052.09 72.92C1049.27 74.84 1046.01 75.8 1042.33 75.8ZM1040.17 69.72C1042.95 69.72 1045.35 68.9733 1047.37 67.48C1049.4 65.9867 1050.97 64.04 1052.09 61.64C1053.27 59.24 1053.85 56.7333 1053.85 54.12C1053.85 51.2933 1053.21 48.7067 1051.93 46.36C1050.71 44.0133 1049 42.1467 1046.81 40.76C1044.68 39.32 1042.25 38.6 1039.53 38.6C1037.88 38.6 1036.12 39.0267 1034.25 39.88C1032.44 40.7333 1030.84 41.88 1029.45 43.32C1028.12 44.7067 1027.27 46.2533 1026.89 47.96V59.88C1028.07 62.6533 1029.85 65 1032.25 66.92C1034.71 68.7867 1037.35 69.72 1040.17 69.72ZM1066.42 62.92C1066.42 60.2533 1067.16 57.96 1068.66 56.04C1070.2 54.0667 1072.31 52.5467 1074.98 51.48C1077.64 50.4133 1080.74 49.88 1084.26 49.88C1086.12 49.88 1088.1 50.04 1090.18 50.36C1092.26 50.6267 1094.1 51.0533 1095.7 51.64V48.6C1095.7 45.4 1094.74 42.8933 1092.82 41.08C1090.9 39.2133 1088.18 38.28 1084.66 38.28C1082.36 38.28 1080.15 38.7067 1078.02 39.56C1075.94 40.36 1073.72 41.5333 1071.38 43.08L1068.82 38.12C1071.54 36.2533 1074.26 34.8667 1076.98 33.96C1079.7 33 1082.52 32.52 1085.46 32.52C1090.79 32.52 1095 34.0133 1098.1 37C1101.19 39.9333 1102.74 44.04 1102.74 49.32V67C1102.74 68.6533 1103.48 69.5067 1104.98 69.56V75C1104.28 75.1067 1103.67 75.1867 1103.14 75.24C1102.66 75.2933 1102.26 75.32 1101.94 75.32C1100.28 75.32 1099.03 74.8667 1098.18 73.96C1097.38 73.0533 1096.92 72.0933 1096.82 71.08L1096.66 68.44C1094.84 70.7867 1092.47 72.6 1089.54 73.88C1086.6 75.16 1083.7 75.8 1080.82 75.8C1078.04 75.8 1075.56 75.24 1073.38 74.12C1071.19 72.9467 1069.48 71.4 1068.26 69.48C1067.03 67.5067 1066.42 65.32 1066.42 62.92ZM1093.62 65.88C1094.26 65.1333 1094.76 64.3867 1095.14 63.64C1095.51 62.84 1095.7 62.1733 1095.7 61.64V56.44C1092.28 55.1067 1088.76 54.44 1085.14 54.44C1081.56 54.44 1078.66 55.16 1076.42 56.6C1074.23 57.9867 1073.14 59.9067 1073.14 62.36C1073.14 63.6933 1073.48 65 1074.18 66.28C1074.92 67.5067 1075.99 68.52 1077.38 69.32C1078.82 70.12 1080.58 70.52 1082.66 70.52C1084.84 70.52 1086.92 70.0933 1088.9 69.24C1090.87 68.3333 1092.44 67.2133 1093.62 65.88ZM1136.47 75.8C1133.06 75.8 1130.02 74.9467 1127.35 73.24C1124.69 71.5333 1122.58 69.3733 1121.03 66.76V92.04H1113.99V33.24H1120.23V41.08C1121.89 38.52 1124.05 36.4667 1126.71 34.92C1129.38 33.32 1132.29 32.52 1135.43 32.52C1138.31 32.52 1140.95 33.1067 1143.35 34.28C1145.75 35.4533 1147.83 37.0533 1149.59 39.08C1151.35 41.1067 1152.71 43.4267 1153.67 46.04C1154.69 48.6 1155.19 51.2933 1155.19 54.12C1155.19 58.0667 1154.39 61.6933 1152.79 65C1151.25 68.3067 1149.06 70.9467 1146.23 72.92C1143.41 74.84 1140.15 75.8 1136.47 75.8ZM1134.31 69.72C1137.09 69.72 1139.49 68.9733 1141.51 67.48C1143.54 65.9867 1145.11 64.04 1146.23 61.64C1147.41 59.24 1147.99 56.7333 1147.99 54.12C1147.99 51.2933 1147.35 48.7067 1146.07 46.36C1144.85 44.0133 1143.14 42.1467 1140.95 40.76C1138.82 39.32 1136.39 38.6 1133.67 38.6C1132.02 38.6 1130.26 39.0267 1128.39 39.88C1126.58 40.7333 1124.98 41.88 1123.59 43.32C1122.26 44.7067 1121.41 46.2533 1121.03 47.96V59.88C1122.21 62.6533 1123.99 65 1126.39 66.92C1128.85 68.7867 1131.49 69.72 1134.31 69.72ZM1182.32 75.8C1178.16 75.8 1174.48 74.8133 1171.28 72.84C1168.08 70.8667 1165.57 68.2267 1163.76 64.92C1161.94 61.6133 1161.04 58.0133 1161.04 54.12C1161.04 50.1733 1161.94 46.5733 1163.76 43.32C1165.57 40.0667 1168.08 37.4533 1171.28 35.48C1174.53 33.5067 1178.24 32.52 1182.4 32.52C1186.61 32.52 1190.26 33.5333 1193.36 35.56C1196.5 37.5333 1198.93 40.1467 1200.64 43.4C1202.4 46.6 1203.28 50.0667 1203.28 53.8C1203.28 54.9733 1203.22 55.88 1203.12 56.52H1168.48C1168.69 59.24 1169.44 61.6667 1170.72 63.8C1172.05 65.88 1173.76 67.5333 1175.84 68.76C1177.92 69.9333 1180.16 70.52 1182.56 70.52C1185.12 70.52 1187.52 69.88 1189.76 68.6C1192.05 67.32 1193.62 65.64 1194.48 63.56L1200.56 65.24C1199.22 68.3333 1196.9 70.8667 1193.6 72.84C1190.29 74.8133 1186.53 75.8 1182.32 75.8ZM1168.24 51.64H1196.72C1196.5 48.92 1195.73 46.52 1194.4 44.44C1193.06 42.36 1191.36 40.7333 1189.28 39.56C1187.2 38.3867 1184.9 37.8 1182.4 37.8C1179.94 37.8 1177.68 38.3867 1175.6 39.56C1173.52 40.7333 1171.81 42.36 1170.48 44.44C1169.2 46.52 1168.45 48.92 1168.24 51.64ZM1233.18 39.4C1229.66 39.4533 1226.54 40.36 1223.82 42.12C1221.16 43.8267 1219.26 46.2 1218.14 49.24V75H1211.1V33.24H1217.66V42.92C1219.1 40.04 1221 37.72 1223.34 35.96C1225.74 34.1467 1228.25 33.1333 1230.86 32.92C1231.4 32.92 1231.85 32.92 1232.22 32.92C1232.6 32.92 1232.92 32.9467 1233.18 33V39.4Z" fill="#0F38E2"/>
</svg>
