<svg width="537" height="316" viewBox="0 0 537 316" fill="none" xmlns="http://www.w3.org/2000/svg">
<g opacity="0.8" filter="url(#filter0_f)">
<ellipse cx="267.266" cy="153.291" rx="69.7473" ry="69.5" fill="url(#paint0_linear)"/>
</g>
<path opacity="0.3" d="M334.42 153.082C334.42 189.305 306.944 208.175 271.148 208.175C235.351 208.175 199.233 191.002 199.233 154.78C199.233 118.557 226.246 95.0566 262.043 95.0566C297.839 95.0566 334.42 96.7542 334.42 153.082Z" fill="url(#paint1_linear)"/>
<path opacity="0.3" d="M331.645 148.916C331.645 185.139 302.626 214.503 266.829 214.503C231.033 214.503 202.014 185.139 202.014 148.916C202.014 112.693 225.014 89.1934 260.811 89.1934C296.607 89.1934 331.645 112.693 331.645 148.916Z" fill="url(#paint2_linear)"/>
<circle cx="266.772" cy="151.559" r="59.8541" fill="url(#paint3_radial)"/>
<g opacity="0.5">
<path d="M21.8097 187.436C17.4052 146.413 42.0202 106.156 85.4799 74.2355C128.934 42.3194 191.187 18.7726 261.941 11.176C332.694 3.57942 398.527 13.374 447.766 35.3381C497.011 57.305 529.611 91.4192 534.016 132.442C538.42 173.465 513.805 213.722 470.346 245.642C426.892 277.558 364.638 301.105 293.885 308.702C223.131 316.298 157.298 306.504 108.06 284.54C58.8141 262.573 26.2142 228.459 21.8097 187.436Z" stroke="url(#paint4_linear)" stroke-width="0.5"/>
<path d="M96.7847 190.576C88.482 159.59 101.332 126.039 128.904 96.8329C156.473 67.6301 198.733 42.8048 249.153 29.2947C299.574 15.7846 348.585 16.1539 387.061 27.66C425.542 39.1674 453.446 61.7981 461.749 92.7843C470.052 123.77 457.201 157.321 429.63 186.528C402.061 215.73 359.801 240.556 309.381 254.066C258.96 267.576 209.949 267.207 171.473 255.701C132.992 244.193 105.087 221.562 96.7847 190.576Z" stroke="url(#paint5_linear)" stroke-width="0.5"/>
<path d="M2.98331 145.267C3.76795 107.136 30.3933 73.1053 72.8992 48.9243C115.4 24.7462 173.737 10.4431 237.836 11.7621C301.935 13.0811 359.635 29.7719 401.105 55.6779C442.58 81.5871 467.783 116.685 466.998 154.815C466.213 192.946 439.588 226.977 397.082 251.158C354.581 275.336 296.244 289.639 232.145 288.32C168.046 287.001 110.347 270.311 68.8768 244.405C27.4015 218.495 2.19868 183.398 2.98331 145.267Z" stroke="url(#paint6_linear)" stroke-width="0.5"/>
</g>
<g filter="url(#filter1_d)">
<ellipse cx="99" cy="144.5" rx="7" ry="6.5" fill="url(#paint7_linear)"/>
</g>
<g filter="url(#filter2_d)">
<ellipse cx="355" cy="268" rx="13" ry="12" fill="url(#paint8_linear)"/>
</g>
<g filter="url(#filter3_d)">
<ellipse cx="439.5" cy="84" rx="8.5" ry="8" fill="url(#paint9_linear)"/>
</g>
<g opacity="0.8" filter="url(#filter4_f)">
<ellipse cx="99.0391" cy="257" rx="11.0391" ry="11" fill="url(#paint10_linear)"/>
</g>
<path opacity="0.3" d="M109.668 256.967C109.668 262.7 105.319 265.687 99.6536 265.687C93.988 265.687 88.2715 262.969 88.2715 257.236C88.2715 251.503 92.5469 247.783 98.2125 247.783C103.878 247.783 109.668 248.052 109.668 256.967Z" fill="url(#paint11_linear)"/>
<path opacity="0.3" d="M109.229 256.307C109.229 262.04 104.636 266.688 98.97 266.688C93.3043 266.688 88.7114 262.04 88.7114 256.307C88.7114 250.574 92.3518 246.854 98.0174 246.854C103.683 246.854 109.229 250.574 109.229 256.307Z" fill="url(#paint12_linear)"/>
<circle cx="98.9611" cy="256.726" r="9.47331" fill="url(#paint13_radial)"/>
<g opacity="0.8" filter="url(#filter5_f)">
<ellipse cx="122.05" cy="52" rx="14.0498" ry="14" fill="url(#paint14_linear)"/>
</g>
<path opacity="0.3" d="M135.577 51.9581C135.577 59.2548 130.042 63.056 122.832 63.056C115.621 63.056 108.345 59.5967 108.345 52.3C108.345 45.0034 113.787 40.2695 120.997 40.2695C128.208 40.2695 135.577 40.6115 135.577 51.9581Z" fill="url(#paint15_linear)"/>
<path opacity="0.3" d="M135.018 51.1184C135.018 58.4151 129.173 64.3302 121.962 64.3302C114.751 64.3302 108.906 58.4151 108.906 51.1184C108.906 43.8217 113.539 39.0879 120.75 39.0879C127.961 39.0879 135.018 43.8217 135.018 51.1184Z" fill="url(#paint16_linear)"/>
<circle cx="121.95" cy="51.6517" r="12.0569" fill="url(#paint17_radial)"/>
<g opacity="0.9">
<path d="M287.623 178.791C287.455 178.791 287.288 178.712 287.176 178.567C286.997 178.321 287.053 177.974 287.299 177.795C296.193 171.272 301.497 160.8 301.497 149.791C301.508 130.659 285.934 115.096 266.802 115.096C247.67 115.096 232.096 130.659 232.096 149.802C232.096 156.381 233.942 162.792 237.456 168.341C237.623 168.598 237.545 168.934 237.288 169.102C237.03 169.258 236.695 169.191 236.527 168.934C232.913 163.194 231 156.582 231 149.802C231 130.066 247.055 114 266.802 114C286.549 114 302.604 130.066 302.604 149.802C302.604 161.169 297.122 171.966 287.948 178.69C287.858 178.757 287.735 178.791 287.623 178.791Z" fill="white" stroke="white"/>
<path d="M293.262 179.395C293.239 179.395 293.217 179.395 293.206 179.395L287.478 178.791C287.321 178.78 287.187 178.702 287.097 178.578C287.008 178.455 286.974 178.299 286.996 178.153L288.026 172.492C288.082 172.19 288.373 172 288.663 172.045C288.966 172.101 289.167 172.38 289.111 172.682L288.194 177.762L293.329 178.31C293.631 178.344 293.855 178.612 293.821 178.914C293.776 179.183 293.542 179.395 293.262 179.395Z" fill="white" stroke="white"/>
<path d="M279.501 185H252.683C252.526 185 252.37 184.933 252.269 184.81C252.168 184.687 252.112 184.53 252.135 184.374C252.314 183.12 252.593 181.867 252.895 180.525C253.992 175.647 255.111 170.601 251.117 166.271C247.581 162.456 245.164 158.462 243.274 153.304C243.173 153.013 243.318 152.7 243.598 152.599C243.889 152.499 244.202 152.644 244.303 152.924C246.138 157.936 248.487 161.818 251.911 165.522C256.297 170.276 255.055 175.848 253.958 180.76C253.712 181.845 253.477 182.886 253.309 183.892H278.606C277.23 180.693 276.749 175.826 278.494 172.257C279.557 170.075 281.325 168.721 283.596 168.319C285.386 168.016 287.142 167.356 288.317 166.886C288.854 166.685 289.201 166.383 289.369 166.003C289.548 165.6 289.525 165.096 289.302 164.526C288.586 162.736 288.541 161.505 289.134 159.793C289.268 159.402 289.257 159.323 288.339 158.853L288.082 158.719C287.892 158.618 287.78 158.417 287.791 158.204C287.802 157.992 287.937 157.802 288.138 157.723C288.63 157.533 288.955 157.276 289.089 156.963C289.223 156.649 289.201 156.247 289 155.754L288.888 155.475C288.619 154.814 288.306 154.054 288.619 153.326C288.843 152.812 289.324 152.409 290.107 152.107C290.611 151.917 290.924 151.693 290.98 151.469C291.036 151.245 290.879 150.899 290.532 150.485C289.671 149.422 288.63 148.225 287.333 146.815C287.131 146.591 287.142 146.244 287.366 146.032C287.59 145.83 287.937 145.842 288.149 146.065C289.458 147.486 290.521 148.706 291.394 149.78C291.987 150.485 292.211 151.145 292.054 151.749C291.897 152.342 291.383 152.812 290.51 153.136C290.186 153.259 289.76 153.483 289.637 153.763C289.503 154.065 289.704 154.546 289.906 155.061L290.018 155.351C290.32 156.123 290.342 156.817 290.085 157.41C289.951 157.723 289.738 158.003 289.447 158.227C290.029 158.607 290.488 159.144 290.152 160.151C289.66 161.594 289.693 162.59 290.309 164.123C290.644 164.973 290.655 165.779 290.353 166.45C290.062 167.099 289.492 167.614 288.698 167.916C287.489 168.397 285.643 169.079 283.764 169.404C281.828 169.739 280.385 170.858 279.456 172.738C277.711 176.296 278.404 181.286 279.937 184.183C280.027 184.351 280.027 184.564 279.926 184.72C279.87 184.899 279.691 185 279.501 185Z" fill="white" stroke="white"/>
<path d="M242.58 146.155C242.569 146.155 242.546 146.155 242.535 146.155C242.233 146.133 242.009 145.864 242.032 145.562C242.591 137.988 248.129 128.97 259.217 125.871C267.127 123.667 275.585 124.618 280.273 128.232C282.018 129.574 283.249 131.074 284.122 132.942C284.256 133.222 284.133 133.546 283.853 133.669C283.573 133.792 283.249 133.68 283.126 133.401C282.332 131.7 281.202 130.335 279.602 129.093C275.182 125.681 267.116 124.808 259.519 126.923C248.946 129.876 243.665 138.446 243.139 145.629C243.106 145.943 242.86 146.155 242.58 146.155Z" fill="white" stroke="white"/>
<path d="M273.157 149.87C272.945 149.87 272.755 149.746 272.665 149.556C272.553 149.321 269.846 143.671 269.711 136.835C269.711 136.578 269.879 136.354 270.114 136.298L285.42 132.103C285.655 132.036 285.901 132.136 286.024 132.338C286.18 132.584 289.839 138.335 288.317 146.547C288.273 146.77 288.105 146.938 287.881 146.983L273.258 149.847C273.225 149.87 273.191 149.87 273.157 149.87ZM270.819 137.249C271.02 142.664 272.889 147.352 273.471 148.695L287.299 145.987C288.384 139.498 286.024 134.587 285.297 133.289L270.819 137.249Z" fill="white" stroke="white"/>
<path d="M242.871 153.886C242.614 153.886 242.39 153.718 242.334 153.461L240.622 146.054C240.588 145.909 240.611 145.764 240.689 145.641C240.767 145.517 240.891 145.428 241.036 145.394L270.293 138.67C270.595 138.603 270.886 138.782 270.953 139.084C271.02 139.375 270.841 139.677 270.539 139.744L241.819 146.345L243.274 152.667L271.949 146.066C272.251 145.999 272.542 146.178 272.609 146.48C272.676 146.771 272.497 147.073 272.195 147.14L242.983 153.864C242.949 153.886 242.904 153.886 242.871 153.886Z" fill="white" stroke="white"/>
<path d="M247.827 148.706C247.581 148.706 247.346 148.538 247.29 148.28C247.223 147.99 247.402 147.688 247.704 147.62L265.684 143.458C265.975 143.391 266.277 143.57 266.344 143.872C266.411 144.163 266.232 144.465 265.93 144.532L247.951 148.694C247.906 148.706 247.872 148.706 247.827 148.706Z" fill="white" stroke="white"/>
</g>
<defs>
<filter id="filter0_f" x="167.519" y="53.791" width="199.495" height="199" filterUnits="userSpaceOnUse" color-interpolation-filters="sRGB">
<feFlood flood-opacity="0" result="BackgroundImageFix"/>
<feBlend mode="normal" in="SourceGraphic" in2="BackgroundImageFix" result="shape"/>
<feGaussianBlur stdDeviation="15" result="effect1_foregroundBlur"/>
</filter>
<filter id="filter1_d" x="85" y="132" width="28" height="27" filterUnits="userSpaceOnUse" color-interpolation-filters="sRGB">
<feFlood flood-opacity="0" result="BackgroundImageFix"/>
<feColorMatrix in="SourceAlpha" type="matrix" values="0 0 0 0 0 0 0 0 0 0 0 0 0 0 0 0 0 0 127 0" result="hardAlpha"/>
<feOffset dy="1"/>
<feGaussianBlur stdDeviation="3.5"/>
<feColorMatrix type="matrix" values="0 0 0 0 0.203922 0 0 0 0 0.333333 0 0 0 0 1 0 0 0 0.44 0"/>
<feBlend mode="normal" in2="BackgroundImageFix" result="effect1_dropShadow"/>
<feBlend mode="normal" in="SourceGraphic" in2="effect1_dropShadow" result="shape"/>
</filter>
<filter id="filter2_d" x="335" y="250" width="40" height="38" filterUnits="userSpaceOnUse" color-interpolation-filters="sRGB">
<feFlood flood-opacity="0" result="BackgroundImageFix"/>
<feColorMatrix in="SourceAlpha" type="matrix" values="0 0 0 0 0 0 0 0 0 0 0 0 0 0 0 0 0 0 127 0" result="hardAlpha"/>
<feOffset dy="1"/>
<feGaussianBlur stdDeviation="3.5"/>
<feColorMatrix type="matrix" values="0 0 0 0 0.203922 0 0 0 0 0.333333 0 0 0 0 1 0 0 0 0.44 0"/>
<feBlend mode="normal" in2="BackgroundImageFix" result="effect1_dropShadow"/>
<feBlend mode="normal" in="SourceGraphic" in2="effect1_dropShadow" result="shape"/>
</filter>
<filter id="filter3_d" x="424" y="70" width="31" height="30" filterUnits="userSpaceOnUse" color-interpolation-filters="sRGB">
<feFlood flood-opacity="0" result="BackgroundImageFix"/>
<feColorMatrix in="SourceAlpha" type="matrix" values="0 0 0 0 0 0 0 0 0 0 0 0 0 0 0 0 0 0 127 0" result="hardAlpha"/>
<feOffset dy="1"/>
<feGaussianBlur stdDeviation="3.5"/>
<feColorMatrix type="matrix" values="0 0 0 0 0.203922 0 0 0 0 0.333333 0 0 0 0 1 0 0 0 0.44 0"/>
<feBlend mode="normal" in2="BackgroundImageFix" result="effect1_dropShadow"/>
<feBlend mode="normal" in="SourceGraphic" in2="effect1_dropShadow" result="shape"/>
</filter>
<filter id="filter4_f" x="58" y="216" width="82.0783" height="82" filterUnits="userSpaceOnUse" color-interpolation-filters="sRGB">
<feFlood flood-opacity="0" result="BackgroundImageFix"/>
<feBlend mode="normal" in="SourceGraphic" in2="BackgroundImageFix" result="shape"/>
<feGaussianBlur stdDeviation="15" result="effect1_foregroundBlur"/>
</filter>
<filter id="filter5_f" x="78" y="8" width="88.0996" height="88" filterUnits="userSpaceOnUse" color-interpolation-filters="sRGB">
<feFlood flood-opacity="0" result="BackgroundImageFix"/>
<feBlend mode="normal" in="SourceGraphic" in2="BackgroundImageFix" result="shape"/>
<feGaussianBlur stdDeviation="15" result="effect1_foregroundBlur"/>
</filter>
<linearGradient id="paint0_linear" x1="267.266" y1="83.791" x2="267.266" y2="222.791" gradientUnits="userSpaceOnUse">
<stop stop-color="#6447D9"/>
<stop offset="0.520833" stop-color="#3943AE"/>
<stop offset="1" stop-color="#203FC6"/>
</linearGradient>
<linearGradient id="paint1_linear" x1="266.827" y1="95.0566" x2="266.827" y2="208.175" gradientUnits="userSpaceOnUse">
<stop stop-color="#6447D9"/>
<stop offset="0.520833" stop-color="#3943AE"/>
<stop offset="1" stop-color="#203FC6"/>
</linearGradient>
<linearGradient id="paint2_linear" x1="266.829" y1="89.1934" x2="266.829" y2="214.503" gradientUnits="userSpaceOnUse">
<stop stop-color="#6447D9"/>
<stop offset="0.520833" stop-color="#3943AE"/>
<stop offset="1" stop-color="#203FC6"/>
</linearGradient>
<radialGradient id="paint3_radial" cx="0" cy="0" r="1" gradientUnits="userSpaceOnUse" gradientTransform="translate(274.915 140.158) rotate(96.5198) scale(71.7187)">
<stop stop-color="#6447D9"/>
<stop offset="0.520833" stop-color="#3943AE"/>
<stop offset="1" stop-color="#203FC6"/>
</radialGradient>
<linearGradient id="paint4_linear" x1="293.912" y1="308.95" x2="261.914" y2="10.9274" gradientUnits="userSpaceOnUse">
<stop stop-color="#2C4DFF"/>
<stop offset="1" stop-color="#2C4DFF" stop-opacity="0.3"/>
</linearGradient>
<linearGradient id="paint5_linear" x1="309.445" y1="254.307" x2="249.089" y2="29.0532" gradientUnits="userSpaceOnUse">
<stop stop-color="#2C4DFF"/>
<stop offset="1" stop-color="#2C4DFF" stop-opacity="0.3"/>
</linearGradient>
<linearGradient id="paint6_linear" x1="232.14" y1="288.57" x2="237.841" y2="11.5122" gradientUnits="userSpaceOnUse">
<stop stop-color="#2C4DFF"/>
<stop offset="1" stop-color="#2C4DFF" stop-opacity="0.3"/>
</linearGradient>
<linearGradient id="paint7_linear" x1="99" y1="138" x2="99" y2="151" gradientUnits="userSpaceOnUse">
<stop stop-color="white"/>
<stop offset="1" stop-color="#F1F1F1"/>
</linearGradient>
<linearGradient id="paint8_linear" x1="355" y1="256" x2="355" y2="280" gradientUnits="userSpaceOnUse">
<stop stop-color="white"/>
<stop offset="1" stop-color="#F1F1F1"/>
</linearGradient>
<linearGradient id="paint9_linear" x1="439.5" y1="76" x2="439.5" y2="92" gradientUnits="userSpaceOnUse">
<stop stop-color="white"/>
<stop offset="1" stop-color="#F1F1F1"/>
</linearGradient>
<linearGradient id="paint10_linear" x1="99.0391" y1="246" x2="99.0391" y2="268" gradientUnits="userSpaceOnUse">
<stop stop-color="#6447D9"/>
<stop offset="0.479167" stop-color="#3943AE"/>
<stop offset="1" stop-color="#203FC6"/>
</linearGradient>
<linearGradient id="paint11_linear" x1="98.9697" y1="247.783" x2="98.9697" y2="265.687" gradientUnits="userSpaceOnUse">
<stop stop-color="#6447D9"/>
<stop offset="0.479167" stop-color="#3943AE"/>
<stop offset="1" stop-color="#203FC6"/>
</linearGradient>
<linearGradient id="paint12_linear" x1="98.97" y1="246.854" x2="98.97" y2="266.688" gradientUnits="userSpaceOnUse">
<stop stop-color="#6447D9"/>
<stop offset="0.479167" stop-color="#3943AE"/>
<stop offset="1" stop-color="#203FC6"/>
</linearGradient>
<radialGradient id="paint13_radial" cx="0" cy="0" r="1" gradientUnits="userSpaceOnUse" gradientTransform="translate(100.25 254.922) rotate(96.5198) scale(11.3512)">
<stop stop-color="#6447D9"/>
<stop offset="0.546875" stop-color="#3943AE"/>
<stop offset="1" stop-color="#203FC6"/>
</radialGradient>
<linearGradient id="paint14_linear" x1="122.05" y1="38" x2="122.05" y2="66" gradientUnits="userSpaceOnUse">
<stop stop-color="#6447D9"/>
<stop offset="0.479167" stop-color="#3943AE"/>
<stop offset="1" stop-color="#203FC6"/>
</linearGradient>
<linearGradient id="paint15_linear" x1="121.961" y1="40.2695" x2="121.961" y2="63.056" gradientUnits="userSpaceOnUse">
<stop stop-color="#6447D9"/>
<stop offset="0.479167" stop-color="#3943AE"/>
<stop offset="1" stop-color="#203FC6"/>
</linearGradient>
<linearGradient id="paint16_linear" x1="121.962" y1="39.0879" x2="121.962" y2="64.3302" gradientUnits="userSpaceOnUse">
<stop stop-color="#6447D9"/>
<stop offset="0.479167" stop-color="#3943AE"/>
<stop offset="1" stop-color="#203FC6"/>
</linearGradient>
<radialGradient id="paint17_radial" cx="0" cy="0" r="1" gradientUnits="userSpaceOnUse" gradientTransform="translate(123.591 49.3551) rotate(96.5198) scale(14.4469)">
<stop stop-color="#6447D9"/>
<stop offset="0.546875" stop-color="#3943AE"/>
<stop offset="1" stop-color="#203FC6"/>
</radialGradient>
</defs>
</svg>
