<svg width="864" height="585" viewBox="0 0 864 585" fill="none" xmlns="http://www.w3.org/2000/svg">
<g clip-path="url(#clip0)">
<g opacity="0.8" filter="url(#filter0_f)">
<ellipse cx="85.879" cy="288.66" rx="61.879" ry="61.6596" fill="url(#paint0_linear)"/>
</g>
<path opacity="0.3" d="M145.46 288.474C145.46 320.611 121.083 337.352 89.3251 337.352C57.5667 337.352 25.5234 322.117 25.5234 289.98C25.5234 257.844 49.4888 236.995 81.2472 236.995C113.006 236.995 145.46 238.501 145.46 288.474Z" fill="url(#paint1_linear)"/>
<path opacity="0.3" d="M142.995 284.778C142.995 316.915 117.249 342.967 85.4909 342.967C53.7325 342.967 27.9873 316.915 27.9873 284.778C27.9873 252.642 48.3929 231.793 80.1513 231.793C111.91 231.793 142.995 252.642 142.995 284.778Z" fill="url(#paint2_linear)"/>
<circle cx="85.4408" cy="287.122" r="53.1019" fill="url(#paint3_radial)"/>
<path d="M89.6221 313.99H61.4097C57.5626 313.99 54.4482 310.839 54.4482 306.946C54.4482 304.536 57.2878 303.053 58.2038 302.59L69.6536 297.492C70.5696 297.307 70.936 297.029 70.936 295.731C69.9284 294.526 65.8981 289.428 65.8981 285.072C65.8981 278.399 70.2948 273.023 75.7907 273.023C81.2867 273.023 85.6834 278.399 85.6834 284.979C85.6834 289.336 81.4699 294.526 80.4623 295.731C80.3707 297.121 80.6455 297.307 81.4698 297.585L92.7365 301.57C94.6601 302.312 96.492 304.907 96.492 306.854C96.5836 310.839 93.4693 313.99 89.6221 313.99ZM70.2032 299.346L58.9366 304.351C57.6542 305 56.2802 306.019 56.2802 307.039C56.2802 309.912 58.5702 312.229 61.4097 312.229H89.6221C92.4617 312.229 94.7517 309.912 94.7517 307.039C94.7517 305.834 93.3777 303.98 92.1869 303.517L81.0119 299.439C78.9051 298.697 78.5387 297.307 78.7219 295.36V295.082L78.9051 294.897C78.9967 294.804 83.8514 289.243 83.8514 285.165C83.8514 279.696 80.1875 275.062 75.7907 275.062C71.394 275.062 67.73 279.696 67.73 285.258C67.73 289.336 72.4932 294.897 72.4932 294.897L72.6764 295.175V295.453C72.8596 297.678 72.1268 298.79 70.2032 299.346Z" fill="white" stroke="white" stroke-width="0.1"/>
<path d="M94.494 257.989C92.9102 257.989 91.624 259.253 91.624 260.809V285.483C91.624 287.039 92.9102 288.303 94.494 288.303H107.409C108.993 288.303 110.279 287.039 110.279 285.483V260.809C110.279 259.253 108.993 257.989 107.409 257.989H94.494ZM94.494 258.694H107.409C108.608 258.694 109.561 259.631 109.561 260.809V261.514H92.3415V260.809C92.3415 259.631 93.2953 258.694 94.494 258.694ZM92.3415 262.219H109.561V281.958H92.3415V262.219ZM92.3415 282.663H109.561V285.483C109.561 286.661 108.608 287.598 107.409 287.598H94.494C93.2953 287.598 92.3415 286.661 92.3415 285.483V282.663ZM100.951 284.073C100.357 284.073 99.8753 284.547 99.8753 285.131C99.8753 285.715 100.357 286.188 100.951 286.188C101.546 286.188 102.028 285.715 102.028 285.131C102.028 284.547 101.546 284.073 100.951 284.073Z" fill="white" stroke="white" stroke-width="0.5"/>
<g opacity="0.8" filter="url(#filter1_f)">
<ellipse cx="438.879" cy="316.66" rx="61.879" ry="61.6596" fill="url(#paint4_linear)"/>
</g>
<path opacity="0.3" d="M498.46 316.474C498.46 348.611 474.083 365.352 442.325 365.352C410.567 365.352 378.523 350.117 378.523 317.98C378.523 285.844 402.489 264.995 434.247 264.995C466.006 264.995 498.46 266.501 498.46 316.474Z" fill="url(#paint5_linear)"/>
<path opacity="0.3" d="M495.995 312.778C495.995 344.915 470.249 370.967 438.491 370.967C406.733 370.967 380.987 344.915 380.987 312.778C380.987 280.642 401.393 259.793 433.151 259.793C464.91 259.793 495.995 280.642 495.995 312.778Z" fill="url(#paint6_linear)"/>
<circle cx="438.441" cy="315.122" r="53.1019" fill="url(#paint7_radial)"/>
<path d="M442.622 341.99H414.41C410.563 341.99 407.448 338.839 407.448 334.946C407.448 332.536 410.288 331.053 411.204 330.59L422.654 325.492C423.57 325.307 423.936 325.029 423.936 323.731C422.928 322.526 418.898 317.428 418.898 313.072C418.898 306.398 423.295 301.023 428.791 301.023C434.287 301.023 438.683 306.398 438.683 312.979C438.683 317.336 434.47 322.526 433.462 323.731C433.371 325.121 433.645 325.307 434.47 325.585L445.736 329.57C447.66 330.312 449.492 332.907 449.492 334.853C449.584 338.839 446.469 341.99 442.622 341.99ZM423.203 327.346L411.937 332.351C410.654 333 409.28 334.019 409.28 335.039C409.28 337.912 411.57 340.229 414.41 340.229H442.622C445.462 340.229 447.752 337.912 447.752 335.039C447.752 333.834 446.378 331.98 445.187 331.517L434.012 327.438C431.905 326.697 431.539 325.307 431.722 323.36V323.082L431.905 322.897C431.997 322.804 436.851 317.243 436.851 313.165C436.851 307.696 433.187 303.062 428.791 303.062C424.394 303.062 420.73 307.696 420.73 313.257C420.73 317.335 425.493 322.897 425.493 322.897L425.676 323.175V323.453C425.86 325.677 425.127 326.79 423.203 327.346Z" fill="white" stroke="white" stroke-width="0.1"/>
<path d="M447.571 287.646C445.987 287.646 444.701 288.813 444.701 290.249V313.026C444.701 314.462 445.987 315.629 447.571 315.629H460.486C462.07 315.629 463.356 314.462 463.356 313.026V290.249C463.356 288.813 462.07 287.646 460.486 287.646H447.571ZM447.571 288.297H460.486C461.685 288.297 462.639 289.162 462.639 290.249V290.9H445.419V290.249C445.419 289.162 446.372 288.297 447.571 288.297ZM445.419 291.551H462.639V309.772H445.419V291.551ZM445.419 310.423H462.639V313.026C462.639 314.113 461.685 314.978 460.486 314.978H447.571C446.372 314.978 445.419 314.113 445.419 313.026V310.423ZM454.029 311.724C453.434 311.724 452.952 312.161 452.952 312.7C452.952 313.239 453.434 313.676 454.029 313.676C454.623 313.676 455.105 313.239 455.105 312.7C455.105 312.161 454.623 311.724 454.029 311.724Z" fill="white" stroke="white" stroke-width="0.5"/>
<g opacity="0.8" filter="url(#filter2_f)">
<ellipse cx="251.879" cy="139.66" rx="61.879" ry="61.6596" fill="url(#paint8_linear)"/>
</g>
<path opacity="0.3" d="M311.46 139.474C311.46 171.611 287.083 188.352 255.325 188.352C223.567 188.352 191.523 173.117 191.523 140.98C191.523 108.844 215.489 87.9949 247.247 87.9949C279.006 87.9949 311.46 89.5009 311.46 139.474Z" fill="url(#paint9_linear)"/>
<path opacity="0.3" d="M308.995 135.778C308.995 167.915 283.249 193.967 251.491 193.967C219.733 193.967 193.987 167.915 193.987 135.778C193.987 103.642 214.393 82.793 246.151 82.793C277.91 82.793 308.995 103.642 308.995 135.778Z" fill="url(#paint10_linear)"/>
<circle cx="251.441" cy="138.122" r="53.1019" fill="url(#paint11_radial)"/>
<path d="M255.622 164.99H227.41C223.563 164.99 220.448 161.839 220.448 157.946C220.448 155.536 223.288 154.053 224.204 153.59L235.654 148.492C236.57 148.307 236.936 148.029 236.936 146.731C235.928 145.526 231.898 140.428 231.898 136.072C231.898 129.398 236.295 124.023 241.791 124.023C247.287 124.023 251.683 129.398 251.683 135.979C251.683 140.336 247.47 145.526 246.462 146.731C246.371 148.121 246.645 148.307 247.47 148.585L258.736 152.57C260.66 153.312 262.492 155.907 262.492 157.853C262.584 161.839 259.469 164.99 255.622 164.99ZM236.203 150.346L224.937 155.351C223.654 156 222.28 157.019 222.28 158.039C222.28 160.912 224.57 163.229 227.41 163.229H255.622C258.462 163.229 260.752 160.912 260.752 158.039C260.752 156.834 259.378 154.98 258.187 154.517L247.012 150.438C244.905 149.697 244.539 148.307 244.722 146.36V146.082L244.905 145.897C244.997 145.804 249.851 140.243 249.851 136.165C249.851 130.696 246.187 126.062 241.791 126.062C237.394 126.062 233.73 130.696 233.73 136.257C233.73 140.335 238.493 145.897 238.493 145.897L238.676 146.175V146.453C238.86 148.677 238.127 149.79 236.203 150.346Z" fill="white" stroke="white" stroke-width="0.1"/>
<path d="M260.571 110.646C258.987 110.646 257.701 111.813 257.701 113.249V136.026C257.701 137.462 258.987 138.629 260.571 138.629H273.486C275.07 138.629 276.356 137.462 276.356 136.026V113.249C276.356 111.813 275.07 110.646 273.486 110.646H260.571ZM260.571 111.297H273.486C274.685 111.297 275.639 112.162 275.639 113.249V113.9H258.419V113.249C258.419 112.162 259.372 111.297 260.571 111.297ZM258.419 114.551H275.639V132.772H258.419V114.551ZM258.419 133.423H275.639V136.026C275.639 137.113 274.685 137.978 273.486 137.978H260.571C259.372 137.978 258.419 137.113 258.419 136.026V133.423ZM267.029 134.724C266.434 134.724 265.952 135.161 265.952 135.7C265.952 136.239 266.434 136.676 267.029 136.676C267.623 136.676 268.105 136.239 268.105 135.7C268.105 135.161 267.623 134.724 267.029 134.724Z" fill="white" stroke="white" stroke-width="0.5"/>
<g opacity="0.8" filter="url(#filter3_f)">
<ellipse cx="652.879" cy="175.66" rx="61.879" ry="61.6596" fill="url(#paint12_linear)"/>
</g>
<path opacity="0.3" d="M712.46 175.474C712.46 207.611 688.083 224.352 656.325 224.352C624.567 224.352 592.523 209.117 592.523 176.98C592.523 144.844 616.489 123.995 648.247 123.995C680.006 123.995 712.46 125.501 712.46 175.474Z" fill="url(#paint13_linear)"/>
<path opacity="0.3" d="M709.995 171.778C709.995 203.915 684.249 229.967 652.491 229.967C620.733 229.967 594.987 203.915 594.987 171.778C594.987 139.642 615.393 118.793 647.151 118.793C678.91 118.793 709.995 139.642 709.995 171.778Z" fill="url(#paint14_linear)"/>
<circle cx="652.442" cy="174.123" r="53.1019" fill="url(#paint15_radial)"/>
<path d="M656.622 200.99H628.41C624.563 200.99 621.448 197.839 621.448 193.946C621.448 191.536 624.288 190.053 625.204 189.59L636.654 184.492C637.57 184.306 637.936 184.028 637.936 182.731C636.928 181.526 632.898 176.428 632.898 172.072C632.898 165.398 637.295 160.022 642.791 160.022C648.287 160.022 652.683 165.398 652.683 171.979C652.683 176.335 648.47 181.526 647.462 182.731C647.371 184.121 647.645 184.306 648.47 184.585L659.736 188.57C661.66 189.312 663.492 191.907 663.492 193.853C663.584 197.839 660.469 200.99 656.622 200.99ZM637.203 186.346L625.937 191.351C624.654 191.999 623.28 193.019 623.28 194.039C623.28 196.912 625.57 199.229 628.41 199.229H656.622C659.462 199.229 661.752 196.912 661.752 194.039C661.752 192.834 660.378 190.98 659.187 190.516L648.012 186.438C645.905 185.697 645.539 184.306 645.722 182.36V182.082L645.905 181.897C645.997 181.804 650.851 176.243 650.851 172.164C650.851 166.696 647.187 162.062 642.791 162.062C638.394 162.062 634.73 166.696 634.73 172.257C634.73 176.335 639.493 181.897 639.493 181.897L639.676 182.175V182.453C639.86 184.677 639.127 185.789 637.203 186.346Z" fill="white" stroke="white" stroke-width="0.1"/>
<path d="M661.571 146.646C659.987 146.646 658.701 147.813 658.701 149.249V172.026C658.701 173.462 659.987 174.629 661.571 174.629H674.486C676.07 174.629 677.356 173.462 677.356 172.026V149.249C677.356 147.813 676.07 146.646 674.486 146.646H661.571ZM661.571 147.297H674.486C675.685 147.297 676.639 148.162 676.639 149.249V149.9H659.419V149.249C659.419 148.162 660.372 147.297 661.571 147.297ZM659.419 150.551H676.639V168.772H659.419V150.551ZM659.419 169.423H676.639V172.026C676.639 173.113 675.685 173.978 674.486 173.978H661.571C660.372 173.978 659.419 173.113 659.419 172.026V169.423ZM668.029 170.724C667.434 170.724 666.952 171.161 666.952 171.7C666.952 172.239 667.434 172.676 668.029 172.676C668.623 172.676 669.105 172.239 669.105 171.7C669.105 171.161 668.623 170.724 668.029 170.724Z" fill="white" stroke="white" stroke-width="0.5"/>
<g opacity="0.8" filter="url(#filter4_f)">
<ellipse cx="200.879" cy="478.66" rx="61.879" ry="61.6596" fill="url(#paint16_linear)"/>
</g>
<path opacity="0.3" d="M260.46 478.474C260.46 510.611 236.083 527.352 204.325 527.352C172.567 527.352 140.523 512.117 140.523 479.98C140.523 447.844 164.489 426.995 196.247 426.995C228.006 426.995 260.46 428.501 260.46 478.474Z" fill="url(#paint17_linear)"/>
<path opacity="0.3" d="M257.995 474.778C257.995 506.915 232.249 532.967 200.491 532.967C168.733 532.967 142.987 506.915 142.987 474.778C142.987 442.642 163.393 421.793 195.151 421.793C226.91 421.793 257.995 442.642 257.995 474.778Z" fill="url(#paint18_linear)"/>
<circle cx="200.442" cy="477.122" r="53.1019" fill="url(#paint19_radial)"/>
<path d="M204.622 503.99H176.41C172.563 503.99 169.448 500.839 169.448 496.946C169.448 494.536 172.288 493.053 173.204 492.59L184.654 487.492C185.57 487.307 185.936 487.029 185.936 485.731C184.928 484.526 180.898 479.428 180.898 475.072C180.898 468.398 185.295 463.023 190.791 463.023C196.287 463.023 200.683 468.398 200.683 474.979C200.683 479.336 196.47 484.526 195.462 485.731C195.371 487.121 195.645 487.307 196.47 487.585L207.736 491.57C209.66 492.312 211.492 494.907 211.492 496.853C211.584 500.839 208.469 503.99 204.622 503.99ZM185.203 489.346L173.937 494.351C172.654 495 171.28 496.019 171.28 497.039C171.28 499.912 173.57 502.229 176.41 502.229H204.622C207.462 502.229 209.752 499.912 209.752 497.039C209.752 495.834 208.378 493.98 207.187 493.517L196.012 489.438C193.905 488.697 193.539 487.307 193.722 485.36V485.082L193.905 484.897C193.997 484.804 198.851 479.243 198.851 475.165C198.851 469.696 195.187 465.062 190.791 465.062C186.394 465.062 182.73 469.696 182.73 475.257C182.73 479.335 187.493 484.897 187.493 484.897L187.676 485.175V485.453C187.86 487.677 187.127 488.79 185.203 489.346Z" fill="white" stroke="white" stroke-width="0.1"/>
<path d="M209.571 449.646C207.987 449.646 206.701 450.813 206.701 452.249V475.026C206.701 476.462 207.987 477.629 209.571 477.629H222.486C224.07 477.629 225.356 476.462 225.356 475.026V452.249C225.356 450.813 224.07 449.646 222.486 449.646H209.571ZM209.571 450.297H222.486C223.685 450.297 224.639 451.162 224.639 452.249V452.9H207.419V452.249C207.419 451.162 208.372 450.297 209.571 450.297ZM207.419 453.551H224.639V471.772H207.419V453.551ZM207.419 472.423H224.639V475.026C224.639 476.113 223.685 476.978 222.486 476.978H209.571C208.372 476.978 207.419 476.113 207.419 475.026V472.423ZM216.029 473.724C215.434 473.724 214.952 474.161 214.952 474.7C214.952 475.239 215.434 475.676 216.029 475.676C216.623 475.676 217.105 475.239 217.105 474.7C217.105 474.161 216.623 473.724 216.029 473.724Z" fill="white" stroke="white" stroke-width="0.5"/>
<path d="M149.266 244.02C149.266 244.02 189.48 207.79 267.646 209.325C345.812 210.859 386.495 277.016 386.495 277.016" stroke="url(#paint20_linear)" stroke-width="2"/>
<path d="M427.606 380C427.606 380 419.534 415.791 373.326 454.145C327.118 492.5 266.986 488.947 266.986 488.947" stroke="url(#paint21_linear)" stroke-width="2"/>
<path d="M556.108 481.253C556.108 481.253 516.923 471.856 490.093 441.741C463.264 411.626 459.203 382.197 459.203 382.197" stroke="url(#paint22_linear)" stroke-width="2"/>
<path d="M696.239 474.748C696.239 474.748 717.421 465.957 741.485 440.019C765.548 414.081 767.017 389 767.017 389" stroke="url(#paint23_linear)" stroke-width="2"/>
<path d="M375.039 334.927C375.039 334.927 315.878 325.562 273.818 283.13C231.757 240.697 232 201 232 201" stroke="url(#paint24_linear)" stroke-width="2"/>
<g opacity="0.8" filter="url(#filter5_f)">
<ellipse cx="762.879" cy="339.66" rx="61.879" ry="61.6596" fill="url(#paint25_linear)"/>
</g>
<path opacity="0.3" d="M822.46 339.474C822.46 371.611 798.083 388.352 766.325 388.352C734.567 388.352 702.523 373.117 702.523 340.98C702.523 308.844 726.489 287.995 758.247 287.995C790.006 287.995 822.46 289.501 822.46 339.474Z" fill="url(#paint26_linear)"/>
<path opacity="0.3" d="M819.995 335.778C819.995 367.915 794.249 393.967 762.491 393.967C730.733 393.967 704.987 367.915 704.987 335.778C704.987 303.642 725.393 282.793 757.151 282.793C788.91 282.793 819.995 303.642 819.995 335.778Z" fill="url(#paint27_linear)"/>
<circle cx="762.441" cy="338.122" r="53.1019" fill="url(#paint28_radial)"/>
<path d="M766.622 364.99H738.41C734.563 364.99 731.448 361.839 731.448 357.946C731.448 355.536 734.288 354.053 735.204 353.59L746.654 348.492C747.57 348.307 747.936 348.029 747.936 346.731C746.928 345.526 742.898 340.428 742.898 336.072C742.898 329.398 747.295 324.023 752.791 324.023C758.287 324.023 762.683 329.398 762.683 335.979C762.683 340.336 758.47 345.526 757.462 346.731C757.371 348.121 757.645 348.307 758.47 348.585L769.736 352.57C771.66 353.312 773.492 355.907 773.492 357.853C773.584 361.839 770.469 364.99 766.622 364.99ZM747.203 350.346L735.937 355.351C734.654 356 733.28 357.019 733.28 358.039C733.28 360.912 735.57 363.229 738.41 363.229H766.622C769.462 363.229 771.752 360.912 771.752 358.039C771.752 356.834 770.378 354.98 769.187 354.517L758.012 350.438C755.905 349.697 755.539 348.307 755.722 346.36V346.082L755.905 345.897C755.997 345.804 760.851 340.243 760.851 336.165C760.851 330.696 757.187 326.062 752.791 326.062C748.394 326.062 744.73 330.696 744.73 336.257C744.73 340.335 749.493 345.897 749.493 345.897L749.676 346.175V346.453C749.86 348.677 749.127 349.79 747.203 350.346Z" fill="white" stroke="white" stroke-width="0.1"/>
<path d="M771.571 310.646C769.987 310.646 768.701 311.813 768.701 313.249V336.026C768.701 337.462 769.987 338.629 771.571 338.629H784.486C786.07 338.629 787.356 337.462 787.356 336.026V313.249C787.356 311.813 786.07 310.646 784.486 310.646H771.571ZM771.571 311.297H784.486C785.685 311.297 786.639 312.162 786.639 313.249V313.9H769.419V313.249C769.419 312.162 770.372 311.297 771.571 311.297ZM769.419 314.551H786.639V332.772H769.419V314.551ZM769.419 333.423H786.639V336.026C786.639 337.113 785.685 337.978 784.486 337.978H771.571C770.372 337.978 769.419 337.113 769.419 336.026V333.423ZM778.029 334.724C777.434 334.724 776.952 335.161 776.952 335.7C776.952 336.239 777.434 336.676 778.029 336.676C778.623 336.676 779.105 336.239 779.105 335.7C779.105 335.161 778.623 334.724 778.029 334.724Z" fill="white" stroke="white" stroke-width="0.5"/>
<g opacity="0.8" filter="url(#filter6_f)">
<ellipse cx="630.879" cy="465.66" rx="61.879" ry="61.6596" fill="url(#paint29_linear)"/>
</g>
<path opacity="0.3" d="M690.46 465.474C690.46 497.611 666.083 514.352 634.325 514.352C602.567 514.352 570.523 499.117 570.523 466.98C570.523 434.844 594.489 413.995 626.247 413.995C658.006 413.995 690.46 415.501 690.46 465.474Z" fill="url(#paint30_linear)"/>
<path opacity="0.3" d="M687.995 461.778C687.995 493.915 662.249 519.967 630.491 519.967C598.733 519.967 572.987 493.915 572.987 461.778C572.987 429.642 593.393 408.793 625.151 408.793C656.91 408.793 687.995 429.642 687.995 461.778Z" fill="url(#paint31_linear)"/>
<circle cx="630.441" cy="464.122" r="53.1019" fill="url(#paint32_radial)"/>
<path d="M634.622 490.99H606.41C602.563 490.99 599.448 487.839 599.448 483.946C599.448 481.536 602.288 480.053 603.204 479.59L614.654 474.492C615.57 474.307 615.936 474.029 615.936 472.731C614.928 471.526 610.898 466.428 610.898 462.072C610.898 455.398 615.295 450.023 620.791 450.023C626.287 450.023 630.683 455.398 630.683 461.979C630.683 466.336 626.47 471.526 625.462 472.731C625.371 474.121 625.645 474.307 626.47 474.585L637.736 478.57C639.66 479.312 641.492 481.907 641.492 483.853C641.584 487.839 638.469 490.99 634.622 490.99ZM615.203 476.346L603.937 481.351C602.654 482 601.28 483.019 601.28 484.039C601.28 486.912 603.57 489.229 606.41 489.229H634.622C637.462 489.229 639.752 486.912 639.752 484.039C639.752 482.834 638.378 480.98 637.187 480.517L626.012 476.438C623.905 475.697 623.539 474.307 623.722 472.36V472.082L623.905 471.897C623.997 471.804 628.851 466.243 628.851 462.165C628.851 456.696 625.187 452.062 620.791 452.062C616.394 452.062 612.73 456.696 612.73 462.257C612.73 466.335 617.493 471.897 617.493 471.897L617.676 472.175V472.453C617.86 474.677 617.127 475.79 615.203 476.346Z" fill="white" stroke="white" stroke-width="0.1"/>
<path d="M639.571 436.646C637.987 436.646 636.701 437.813 636.701 439.249V462.026C636.701 463.462 637.987 464.629 639.571 464.629H652.486C654.07 464.629 655.356 463.462 655.356 462.026V439.249C655.356 437.813 654.07 436.646 652.486 436.646H639.571ZM639.571 437.297H652.486C653.685 437.297 654.639 438.162 654.639 439.249V439.9H637.419V439.249C637.419 438.162 638.372 437.297 639.571 437.297ZM637.419 440.551H654.639V458.772H637.419V440.551ZM637.419 459.423H654.639V462.026C654.639 463.113 653.685 463.978 652.486 463.978H639.571C638.372 463.978 637.419 463.113 637.419 462.026V459.423ZM646.029 460.724C645.434 460.724 644.952 461.161 644.952 461.7C644.952 462.239 645.434 462.676 646.029 462.676C646.623 462.676 647.105 462.239 647.105 461.7C647.105 461.161 646.623 460.724 646.029 460.724Z" fill="white" stroke="white" stroke-width="0.5"/>
<path d="M641.131 236.513C641.131 236.513 627.256 271.011 590.144 300.364C553.033 329.717 498 331.797 498 331.797" stroke="url(#paint33_linear)" stroke-width="2"/>
<path d="M90.0004 349C90.0004 349 91.4993 372.5 107 398.5C122.501 424.5 143 437.5 143 437.5" stroke="url(#paint34_linear)" stroke-width="2"/>
<path d="M759.729 272.57C759.729 272.57 754.133 257.473 741.621 237.877C729.11 218.281 703 204.497 703 204.497" stroke="url(#paint35_linear)" stroke-width="2"/>
<path d="M299.001 84.9999C299.001 84.9999 371.553 34.1157 468.072 47.4213C564.592 60.7268 615.775 118.593 615.775 118.593" stroke="url(#paint36_linear)" stroke-width="2"/>
</g>
<defs>
<filter id="filter0_f" x="-6" y="197" width="183.758" height="183.319" filterUnits="userSpaceOnUse" color-interpolation-filters="sRGB">
<feFlood flood-opacity="0" result="BackgroundImageFix"/>
<feBlend mode="normal" in="SourceGraphic" in2="BackgroundImageFix" result="shape"/>
<feGaussianBlur stdDeviation="15" result="effect1_foregroundBlur"/>
</filter>
<filter id="filter1_f" x="347" y="225" width="183.758" height="183.319" filterUnits="userSpaceOnUse" color-interpolation-filters="sRGB">
<feFlood flood-opacity="0" result="BackgroundImageFix"/>
<feBlend mode="normal" in="SourceGraphic" in2="BackgroundImageFix" result="shape"/>
<feGaussianBlur stdDeviation="15" result="effect1_foregroundBlur"/>
</filter>
<filter id="filter2_f" x="160" y="48" width="183.758" height="183.319" filterUnits="userSpaceOnUse" color-interpolation-filters="sRGB">
<feFlood flood-opacity="0" result="BackgroundImageFix"/>
<feBlend mode="normal" in="SourceGraphic" in2="BackgroundImageFix" result="shape"/>
<feGaussianBlur stdDeviation="15" result="effect1_foregroundBlur"/>
</filter>
<filter id="filter3_f" x="561" y="84" width="183.758" height="183.319" filterUnits="userSpaceOnUse" color-interpolation-filters="sRGB">
<feFlood flood-opacity="0" result="BackgroundImageFix"/>
<feBlend mode="normal" in="SourceGraphic" in2="BackgroundImageFix" result="shape"/>
<feGaussianBlur stdDeviation="15" result="effect1_foregroundBlur"/>
</filter>
<filter id="filter4_f" x="109" y="387" width="183.758" height="183.319" filterUnits="userSpaceOnUse" color-interpolation-filters="sRGB">
<feFlood flood-opacity="0" result="BackgroundImageFix"/>
<feBlend mode="normal" in="SourceGraphic" in2="BackgroundImageFix" result="shape"/>
<feGaussianBlur stdDeviation="15" result="effect1_foregroundBlur"/>
</filter>
<filter id="filter5_f" x="671" y="248" width="183.758" height="183.319" filterUnits="userSpaceOnUse" color-interpolation-filters="sRGB">
<feFlood flood-opacity="0" result="BackgroundImageFix"/>
<feBlend mode="normal" in="SourceGraphic" in2="BackgroundImageFix" result="shape"/>
<feGaussianBlur stdDeviation="15" result="effect1_foregroundBlur"/>
</filter>
<filter id="filter6_f" x="539" y="374" width="183.758" height="183.319" filterUnits="userSpaceOnUse" color-interpolation-filters="sRGB">
<feFlood flood-opacity="0" result="BackgroundImageFix"/>
<feBlend mode="normal" in="SourceGraphic" in2="BackgroundImageFix" result="shape"/>
<feGaussianBlur stdDeviation="15" result="effect1_foregroundBlur"/>
</filter>
<linearGradient id="paint0_linear" x1="85.879" y1="227" x2="85.879" y2="350.319" gradientUnits="userSpaceOnUse">
<stop stop-color="#8C5DDD"/>
<stop offset="1" stop-color="#4099EB"/>
</linearGradient>
<linearGradient id="paint1_linear" x1="85.4915" y1="236.995" x2="85.4915" y2="337.352" gradientUnits="userSpaceOnUse">
<stop stop-color="#2A52C5"/>
<stop offset="1" stop-color="#3355E2"/>
</linearGradient>
<linearGradient id="paint2_linear" x1="85.4909" y1="231.793" x2="85.4909" y2="342.967" gradientUnits="userSpaceOnUse">
<stop stop-color="#2A52C5"/>
<stop offset="1" stop-color="#3355E2"/>
</linearGradient>
<radialGradient id="paint3_radial" cx="0" cy="0" r="1" gradientUnits="userSpaceOnUse" gradientTransform="translate(92.6655 277.008) rotate(96.5198) scale(63.628)">
<stop stop-color="#6447D9"/>
<stop offset="0.520833" stop-color="#3943AE"/>
<stop offset="1" stop-color="#203FC6"/>
</radialGradient>
<linearGradient id="paint4_linear" x1="438.879" y1="255" x2="438.879" y2="378.319" gradientUnits="userSpaceOnUse">
<stop stop-color="#8C5DDD"/>
<stop offset="1" stop-color="#4099EB"/>
</linearGradient>
<linearGradient id="paint5_linear" x1="438.491" y1="264.995" x2="438.491" y2="365.352" gradientUnits="userSpaceOnUse">
<stop stop-color="#2A52C5"/>
<stop offset="1" stop-color="#3355E2"/>
</linearGradient>
<linearGradient id="paint6_linear" x1="438.491" y1="259.793" x2="438.491" y2="370.967" gradientUnits="userSpaceOnUse">
<stop stop-color="#2A52C5"/>
<stop offset="1" stop-color="#3355E2"/>
</linearGradient>
<radialGradient id="paint7_radial" cx="0" cy="0" r="1" gradientUnits="userSpaceOnUse" gradientTransform="translate(445.665 305.008) rotate(96.5198) scale(63.628)">
<stop stop-color="#6447D9"/>
<stop offset="0.520833" stop-color="#3943AE"/>
<stop offset="1" stop-color="#203FC6"/>
</radialGradient>
<linearGradient id="paint8_linear" x1="251.879" y1="78" x2="251.879" y2="201.319" gradientUnits="userSpaceOnUse">
<stop stop-color="#8C5DDD"/>
<stop offset="1" stop-color="#4099EB"/>
</linearGradient>
<linearGradient id="paint9_linear" x1="251.491" y1="87.9949" x2="251.491" y2="188.352" gradientUnits="userSpaceOnUse">
<stop stop-color="#2A52C5"/>
<stop offset="1" stop-color="#3355E2"/>
</linearGradient>
<linearGradient id="paint10_linear" x1="251.491" y1="82.793" x2="251.491" y2="193.967" gradientUnits="userSpaceOnUse">
<stop stop-color="#2A52C5"/>
<stop offset="1" stop-color="#3355E2"/>
</linearGradient>
<radialGradient id="paint11_radial" cx="0" cy="0" r="1" gradientUnits="userSpaceOnUse" gradientTransform="translate(258.665 128.008) rotate(96.5198) scale(63.628)">
<stop stop-color="#6447D9"/>
<stop offset="0.520833" stop-color="#3943AE"/>
<stop offset="1" stop-color="#203FC6"/>
</radialGradient>
<linearGradient id="paint12_linear" x1="652.879" y1="114" x2="652.879" y2="237.319" gradientUnits="userSpaceOnUse">
<stop stop-color="#8C5DDD"/>
<stop offset="1" stop-color="#4099EB"/>
</linearGradient>
<linearGradient id="paint13_linear" x1="652.491" y1="123.995" x2="652.491" y2="224.352" gradientUnits="userSpaceOnUse">
<stop stop-color="#2A52C5"/>
<stop offset="1" stop-color="#3355E2"/>
</linearGradient>
<linearGradient id="paint14_linear" x1="652.491" y1="118.793" x2="652.491" y2="229.967" gradientUnits="userSpaceOnUse">
<stop stop-color="#2A52C5"/>
<stop offset="1" stop-color="#3355E2"/>
</linearGradient>
<radialGradient id="paint15_radial" cx="0" cy="0" r="1" gradientUnits="userSpaceOnUse" gradientTransform="translate(659.666 164.008) rotate(96.5198) scale(63.628)">
<stop stop-color="#6447D9"/>
<stop offset="0.520833" stop-color="#3943AE"/>
<stop offset="1" stop-color="#203FC6"/>
</radialGradient>
<linearGradient id="paint16_linear" x1="200.879" y1="417" x2="200.879" y2="540.319" gradientUnits="userSpaceOnUse">
<stop stop-color="#8C5DDD"/>
<stop offset="1" stop-color="#4099EB"/>
</linearGradient>
<linearGradient id="paint17_linear" x1="200.491" y1="426.995" x2="200.491" y2="527.352" gradientUnits="userSpaceOnUse">
<stop stop-color="#2A52C5"/>
<stop offset="1" stop-color="#3355E2"/>
</linearGradient>
<linearGradient id="paint18_linear" x1="200.491" y1="421.793" x2="200.491" y2="532.967" gradientUnits="userSpaceOnUse">
<stop stop-color="#2A52C5"/>
<stop offset="1" stop-color="#3355E2"/>
</linearGradient>
<radialGradient id="paint19_radial" cx="0" cy="0" r="1" gradientUnits="userSpaceOnUse" gradientTransform="translate(207.666 467.008) rotate(96.5198) scale(63.628)">
<stop stop-color="#6447D9"/>
<stop offset="0.520833" stop-color="#3943AE"/>
<stop offset="1" stop-color="#203FC6"/>
</radialGradient>
<linearGradient id="paint20_linear" x1="148.44" y1="303.042" x2="388.609" y2="292.953" gradientUnits="userSpaceOnUse">
<stop offset="0.436791" stop-color="#2C4DFF"/>
<stop offset="1" stop-color="#2C4DFF" stop-opacity="0"/>
</linearGradient>
<linearGradient id="paint21_linear" x1="618.644" y1="360.953" x2="230.276" y2="507.144" gradientUnits="userSpaceOnUse">
<stop offset="0.436791" stop-color="#2C4DFF"/>
<stop offset="1" stop-color="#2C4DFF" stop-opacity="0"/>
</linearGradient>
<linearGradient id="paint22_linear" x1="556.678" y1="552.607" x2="459.989" y2="378.943" gradientUnits="userSpaceOnUse">
<stop offset="0.436791" stop-color="#2C4DFF"/>
<stop offset="1" stop-color="#2C4DFF" stop-opacity="0"/>
</linearGradient>
<linearGradient id="paint23_linear" x1="664.444" y1="493.273" x2="761.837" y2="392.462" gradientUnits="userSpaceOnUse">
<stop offset="0.436791" stop-color="#2C4DFF"/>
<stop offset="1" stop-color="#2C4DFF" stop-opacity="0"/>
</linearGradient>
<linearGradient id="paint24_linear" x1="382" y1="355" x2="230.499" y2="191.501" gradientUnits="userSpaceOnUse">
<stop offset="0.436791" stop-color="#2C4DFF"/>
<stop offset="1" stop-color="#2C4DFF" stop-opacity="0"/>
</linearGradient>
<linearGradient id="paint25_linear" x1="762.879" y1="278" x2="762.879" y2="401.319" gradientUnits="userSpaceOnUse">
<stop stop-color="#8C5DDD"/>
<stop offset="1" stop-color="#4099EB"/>
</linearGradient>
<linearGradient id="paint26_linear" x1="762.491" y1="287.995" x2="762.491" y2="388.352" gradientUnits="userSpaceOnUse">
<stop stop-color="#2A52C5"/>
<stop offset="1" stop-color="#3355E2"/>
</linearGradient>
<linearGradient id="paint27_linear" x1="762.491" y1="282.793" x2="762.491" y2="393.967" gradientUnits="userSpaceOnUse">
<stop stop-color="#2A52C5"/>
<stop offset="1" stop-color="#3355E2"/>
</linearGradient>
<radialGradient id="paint28_radial" cx="0" cy="0" r="1" gradientUnits="userSpaceOnUse" gradientTransform="translate(769.665 328.008) rotate(96.5198) scale(63.628)">
<stop stop-color="#6447D9"/>
<stop offset="0.520833" stop-color="#3943AE"/>
<stop offset="1" stop-color="#203FC6"/>
</radialGradient>
<linearGradient id="paint29_linear" x1="630.879" y1="404" x2="630.879" y2="527.319" gradientUnits="userSpaceOnUse">
<stop stop-color="#8C5DDD"/>
<stop offset="1" stop-color="#4099EB"/>
</linearGradient>
<linearGradient id="paint30_linear" x1="630.491" y1="413.995" x2="630.491" y2="514.352" gradientUnits="userSpaceOnUse">
<stop stop-color="#2A52C5"/>
<stop offset="1" stop-color="#3355E2"/>
</linearGradient>
<linearGradient id="paint31_linear" x1="630.491" y1="408.793" x2="630.491" y2="519.967" gradientUnits="userSpaceOnUse">
<stop stop-color="#2A52C5"/>
<stop offset="1" stop-color="#3355E2"/>
</linearGradient>
<radialGradient id="paint32_radial" cx="0" cy="0" r="1" gradientUnits="userSpaceOnUse" gradientTransform="translate(637.665 454.008) rotate(96.5198) scale(63.628)">
<stop stop-color="#6447D9"/>
<stop offset="0.520833" stop-color="#3943AE"/>
<stop offset="1" stop-color="#203FC6"/>
</radialGradient>
<linearGradient id="paint33_linear" x1="664.597" y1="234.049" x2="497.53" y2="337.92" gradientUnits="userSpaceOnUse">
<stop offset="0.436791" stop-color="#2C4DFF"/>
<stop offset="0.880208" stop-color="#2C4DFF" stop-opacity="0"/>
</linearGradient>
<linearGradient id="paint34_linear" x1="62.6196" y1="360.486" x2="147.478" y2="443.035" gradientUnits="userSpaceOnUse">
<stop offset="0.436791" stop-color="#2C4DFF"/>
<stop offset="1" stop-color="#2C4DFF" stop-opacity="0"/>
</linearGradient>
<linearGradient id="paint35_linear" x1="758.616" y1="305.426" x2="703.407" y2="209.801" gradientUnits="userSpaceOnUse">
<stop offset="0.436791" stop-color="#2C4DFF"/>
<stop offset="1" stop-color="#2C4DFF" stop-opacity="0"/>
</linearGradient>
<linearGradient id="paint36_linear" x1="332.126" y1="74.1387" x2="610.686" y2="129.091" gradientUnits="userSpaceOnUse">
<stop offset="0.436791" stop-color="#2C4DFF"/>
<stop offset="1" stop-color="#2C4DFF" stop-opacity="0"/>
</linearGradient>
<clipPath id="clip0">
<rect width="864" height="585" fill="white"/>
</clipPath>
</defs>
</svg>
