<svg width="800" height="455" viewBox="0 0 800 455" fill="none" xmlns="http://www.w3.org/2000/svg">
<g opacity="0.9">
<g filter="url(#filter0_di)">
<rect x="358" y="190" width="84" height="85" rx="4" fill="#181732"/>
<rect x="358" y="190" width="84" height="85" rx="4" fill="#0F38E2"/>
<rect x="358" y="190" width="84" height="85" rx="4" fill="url(#paint0_linear)"/>
</g>
</g>
<g opacity="0.9">
<g filter="url(#filter1_di)">
<rect x="39" y="100" width="84.8393" height="84.8393" rx="4" fill="#181732"/>
<rect x="39" y="100" width="84.8393" height="84.8393" rx="4" fill="#0F38E2"/>
<rect x="39" y="100" width="84.8393" height="84.8393" rx="4" fill="url(#paint1_linear)"/>
</g>
</g>
<path d="M71.4189 149H69.7227L63.2803 139.139V149H61.584V136.203H63.2803L69.7402 146.108V136.203H71.4189V149ZM73.7305 144.157C73.7305 143.226 73.9121 142.388 74.2754 141.644C74.6445 140.899 75.1543 140.325 75.8047 139.921C76.4609 139.517 77.208 139.314 78.0459 139.314C79.3408 139.314 80.3867 139.763 81.1836 140.659C81.9863 141.556 82.3877 142.748 82.3877 144.236V144.351C82.3877 145.276 82.209 146.108 81.8516 146.847C81.5 147.579 80.9932 148.15 80.3311 148.561C79.6748 148.971 78.9189 149.176 78.0635 149.176C76.7744 149.176 75.7285 148.728 74.9258 147.831C74.1289 146.935 73.7305 145.748 73.7305 144.271V144.157ZM75.3652 144.351C75.3652 145.405 75.6084 146.252 76.0947 146.891C76.5869 147.529 77.2432 147.849 78.0635 147.849C78.8896 147.849 79.5459 147.526 80.0322 146.882C80.5186 146.231 80.7617 145.323 80.7617 144.157C80.7617 143.114 80.5127 142.271 80.0146 141.626C79.5225 140.976 78.8662 140.65 78.0459 140.65C77.2432 140.65 76.5957 140.97 76.1035 141.608C75.6113 142.247 75.3652 143.161 75.3652 144.351ZM84.0312 144.166C84.0312 142.707 84.377 141.535 85.0684 140.65C85.7598 139.76 86.665 139.314 87.7842 139.314C88.8975 139.314 89.7793 139.695 90.4297 140.457V135.5H92.0557V149H90.5615L90.4824 147.98C89.832 148.777 88.9268 149.176 87.7666 149.176C86.665 149.176 85.7656 148.725 85.0684 147.822C84.377 146.92 84.0312 145.742 84.0312 144.289V144.166ZM85.6572 144.351C85.6572 145.429 85.8799 146.272 86.3252 146.882C86.7705 147.491 87.3857 147.796 88.1709 147.796C89.2021 147.796 89.9551 147.333 90.4297 146.407V142.039C89.9434 141.143 89.1963 140.694 88.1885 140.694C87.3916 140.694 86.7705 141.002 86.3252 141.617C85.8799 142.232 85.6572 143.144 85.6572 144.351ZM98.5332 149.176C97.2441 149.176 96.1953 148.754 95.3867 147.91C94.5781 147.061 94.1738 145.927 94.1738 144.509V144.21C94.1738 143.267 94.3525 142.426 94.71 141.688C95.0732 140.943 95.5771 140.363 96.2217 139.947C96.8721 139.525 97.5752 139.314 98.3311 139.314C99.5674 139.314 100.528 139.722 101.214 140.536C101.899 141.351 102.242 142.517 102.242 144.034V144.711H95.7998C95.8232 145.648 96.0957 146.407 96.6172 146.987C97.1445 147.562 97.8125 147.849 98.6211 147.849C99.1953 147.849 99.6816 147.731 100.08 147.497C100.479 147.263 100.827 146.952 101.126 146.565L102.119 147.339C101.322 148.563 100.127 149.176 98.5332 149.176ZM98.3311 140.65C97.6748 140.65 97.124 140.891 96.6787 141.371C96.2334 141.846 95.958 142.514 95.8525 143.375H100.616V143.252C100.569 142.426 100.347 141.787 99.9482 141.336C99.5498 140.879 99.0107 140.65 98.3311 140.65Z" fill="#ECEFFB"/>
<g opacity="0.9" filter="url(#filter2_di)">
<rect x="39" y="282" width="85" height="85" rx="4" fill="#181732"/>
<rect x="39" y="282" width="85" height="85" rx="4" fill="#0F38E2"/>
<rect x="39" y="282" width="85" height="85" rx="4" fill="url(#paint2_linear)"/>
</g>
<path d="M71.4189 330H69.7227L63.2803 320.139V330H61.584V317.203H63.2803L69.7402 327.108V317.203H71.4189V330ZM73.7305 325.157C73.7305 324.226 73.9121 323.388 74.2754 322.644C74.6445 321.899 75.1543 321.325 75.8047 320.921C76.4609 320.517 77.208 320.314 78.0459 320.314C79.3408 320.314 80.3867 320.763 81.1836 321.659C81.9863 322.556 82.3877 323.748 82.3877 325.236V325.351C82.3877 326.276 82.209 327.108 81.8516 327.847C81.5 328.579 80.9932 329.15 80.3311 329.561C79.6748 329.971 78.9189 330.176 78.0635 330.176C76.7744 330.176 75.7285 329.728 74.9258 328.831C74.1289 327.935 73.7305 326.748 73.7305 325.271V325.157ZM75.3652 325.351C75.3652 326.405 75.6084 327.252 76.0947 327.891C76.5869 328.529 77.2432 328.849 78.0635 328.849C78.8896 328.849 79.5459 328.526 80.0322 327.882C80.5186 327.231 80.7617 326.323 80.7617 325.157C80.7617 324.114 80.5127 323.271 80.0146 322.626C79.5225 321.976 78.8662 321.65 78.0459 321.65C77.2432 321.65 76.5957 321.97 76.1035 322.608C75.6113 323.247 75.3652 324.161 75.3652 325.351ZM84.0312 325.166C84.0312 323.707 84.377 322.535 85.0684 321.65C85.7598 320.76 86.665 320.314 87.7842 320.314C88.8975 320.314 89.7793 320.695 90.4297 321.457V316.5H92.0557V330H90.5615L90.4824 328.98C89.832 329.777 88.9268 330.176 87.7666 330.176C86.665 330.176 85.7656 329.725 85.0684 328.822C84.377 327.92 84.0312 326.742 84.0312 325.289V325.166ZM85.6572 325.351C85.6572 326.429 85.8799 327.272 86.3252 327.882C86.7705 328.491 87.3857 328.796 88.1709 328.796C89.2021 328.796 89.9551 328.333 90.4297 327.407V323.039C89.9434 322.143 89.1963 321.694 88.1885 321.694C87.3916 321.694 86.7705 322.002 86.3252 322.617C85.8799 323.232 85.6572 324.144 85.6572 325.351ZM98.5332 330.176C97.2441 330.176 96.1953 329.754 95.3867 328.91C94.5781 328.061 94.1738 326.927 94.1738 325.509V325.21C94.1738 324.267 94.3525 323.426 94.71 322.688C95.0732 321.943 95.5771 321.363 96.2217 320.947C96.8721 320.525 97.5752 320.314 98.3311 320.314C99.5674 320.314 100.528 320.722 101.214 321.536C101.899 322.351 102.242 323.517 102.242 325.034V325.711H95.7998C95.8232 326.648 96.0957 327.407 96.6172 327.987C97.1445 328.562 97.8125 328.849 98.6211 328.849C99.1953 328.849 99.6816 328.731 100.08 328.497C100.479 328.263 100.827 327.952 101.126 327.565L102.119 328.339C101.322 329.563 100.127 330.176 98.5332 330.176ZM98.3311 321.65C97.6748 321.65 97.124 321.891 96.6787 322.371C96.2334 322.846 95.958 323.514 95.8525 324.375H100.616V324.252C100.569 323.426 100.347 322.787 99.9482 322.336C99.5498 321.879 99.0107 321.65 98.3311 321.65Z" fill="#ECEFFB"/>
<g opacity="0.9" filter="url(#filter3_di)">
<rect x="676" y="282" width="85" height="85" rx="4" fill="#181732"/>
<rect x="676" y="282" width="85" height="85" rx="4" fill="#0F38E2"/>
<rect x="676" y="282" width="85" height="85" rx="4" fill="url(#paint3_linear)"/>
</g>
<g opacity="0.9">
<g filter="url(#filter4_di)">
<rect x="676" y="100" width="84.8393" height="84.8393" rx="4" fill="#181732"/>
<rect x="676" y="100" width="84.8393" height="84.8393" rx="4" fill="#0F38E2"/>
<rect x="676" y="100" width="84.8393" height="84.8393" rx="4" fill="url(#paint4_linear)"/>
</g>
</g>
<path d="M708.419 149H706.723L700.28 139.139V149H698.584V136.203H700.28L706.74 146.108V136.203H708.419V149ZM710.73 144.157C710.73 143.226 710.912 142.388 711.275 141.644C711.645 140.899 712.154 140.325 712.805 139.921C713.461 139.517 714.208 139.314 715.046 139.314C716.341 139.314 717.387 139.763 718.184 140.659C718.986 141.556 719.388 142.748 719.388 144.236V144.351C719.388 145.276 719.209 146.108 718.852 146.847C718.5 147.579 717.993 148.15 717.331 148.561C716.675 148.971 715.919 149.176 715.063 149.176C713.774 149.176 712.729 148.728 711.926 147.831C711.129 146.935 710.73 145.748 710.73 144.271V144.157ZM712.365 144.351C712.365 145.405 712.608 146.252 713.095 146.891C713.587 147.529 714.243 147.849 715.063 147.849C715.89 147.849 716.546 147.526 717.032 146.882C717.519 146.231 717.762 145.323 717.762 144.157C717.762 143.114 717.513 142.271 717.015 141.626C716.522 140.976 715.866 140.65 715.046 140.65C714.243 140.65 713.596 140.97 713.104 141.608C712.611 142.247 712.365 143.161 712.365 144.351ZM721.031 144.166C721.031 142.707 721.377 141.535 722.068 140.65C722.76 139.76 723.665 139.314 724.784 139.314C725.897 139.314 726.779 139.695 727.43 140.457V135.5H729.056V149H727.562L727.482 147.98C726.832 148.777 725.927 149.176 724.767 149.176C723.665 149.176 722.766 148.725 722.068 147.822C721.377 146.92 721.031 145.742 721.031 144.289V144.166ZM722.657 144.351C722.657 145.429 722.88 146.272 723.325 146.882C723.771 147.491 724.386 147.796 725.171 147.796C726.202 147.796 726.955 147.333 727.43 146.407V142.039C726.943 141.143 726.196 140.694 725.188 140.694C724.392 140.694 723.771 141.002 723.325 141.617C722.88 142.232 722.657 143.144 722.657 144.351ZM735.533 149.176C734.244 149.176 733.195 148.754 732.387 147.91C731.578 147.061 731.174 145.927 731.174 144.509V144.21C731.174 143.267 731.353 142.426 731.71 141.688C732.073 140.943 732.577 140.363 733.222 139.947C733.872 139.525 734.575 139.314 735.331 139.314C736.567 139.314 737.528 139.722 738.214 140.536C738.899 141.351 739.242 142.517 739.242 144.034V144.711H732.8C732.823 145.648 733.096 146.407 733.617 146.987C734.145 147.562 734.812 147.849 735.621 147.849C736.195 147.849 736.682 147.731 737.08 147.497C737.479 147.263 737.827 146.952 738.126 146.565L739.119 147.339C738.322 148.563 737.127 149.176 735.533 149.176ZM735.331 140.65C734.675 140.65 734.124 140.891 733.679 141.371C733.233 141.846 732.958 142.514 732.853 143.375H737.616V143.252C737.569 142.426 737.347 141.787 736.948 141.336C736.55 140.879 736.011 140.65 735.331 140.65Z" fill="#ECEFFB"/>
<path d="M708.419 330H706.723L700.28 320.139V330H698.584V317.203H700.28L706.74 327.108V317.203H708.419V330ZM710.73 325.157C710.73 324.226 710.912 323.388 711.275 322.644C711.645 321.899 712.154 321.325 712.805 320.921C713.461 320.517 714.208 320.314 715.046 320.314C716.341 320.314 717.387 320.763 718.184 321.659C718.986 322.556 719.388 323.748 719.388 325.236V325.351C719.388 326.276 719.209 327.108 718.852 327.847C718.5 328.579 717.993 329.15 717.331 329.561C716.675 329.971 715.919 330.176 715.063 330.176C713.774 330.176 712.729 329.728 711.926 328.831C711.129 327.935 710.73 326.748 710.73 325.271V325.157ZM712.365 325.351C712.365 326.405 712.608 327.252 713.095 327.891C713.587 328.529 714.243 328.849 715.063 328.849C715.89 328.849 716.546 328.526 717.032 327.882C717.519 327.231 717.762 326.323 717.762 325.157C717.762 324.114 717.513 323.271 717.015 322.626C716.522 321.976 715.866 321.65 715.046 321.65C714.243 321.65 713.596 321.97 713.104 322.608C712.611 323.247 712.365 324.161 712.365 325.351ZM721.031 325.166C721.031 323.707 721.377 322.535 722.068 321.65C722.76 320.76 723.665 320.314 724.784 320.314C725.897 320.314 726.779 320.695 727.43 321.457V316.5H729.056V330H727.562L727.482 328.98C726.832 329.777 725.927 330.176 724.767 330.176C723.665 330.176 722.766 329.725 722.068 328.822C721.377 327.92 721.031 326.742 721.031 325.289V325.166ZM722.657 325.351C722.657 326.429 722.88 327.272 723.325 327.882C723.771 328.491 724.386 328.796 725.171 328.796C726.202 328.796 726.955 328.333 727.43 327.407V323.039C726.943 322.143 726.196 321.694 725.188 321.694C724.392 321.694 723.771 322.002 723.325 322.617C722.88 323.232 722.657 324.144 722.657 325.351ZM735.533 330.176C734.244 330.176 733.195 329.754 732.387 328.91C731.578 328.061 731.174 326.927 731.174 325.509V325.21C731.174 324.267 731.353 323.426 731.71 322.688C732.073 321.943 732.577 321.363 733.222 320.947C733.872 320.525 734.575 320.314 735.331 320.314C736.567 320.314 737.528 320.722 738.214 321.536C738.899 322.351 739.242 323.517 739.242 325.034V325.711H732.8C732.823 326.648 733.096 327.407 733.617 327.987C734.145 328.562 734.812 328.849 735.621 328.849C736.195 328.849 736.682 328.731 737.08 328.497C737.479 328.263 737.827 327.952 738.126 327.565L739.119 328.339C738.322 329.563 737.127 330.176 735.533 330.176ZM735.331 321.65C734.675 321.65 734.124 321.891 733.679 322.371C733.233 322.846 732.958 323.514 732.853 324.375H737.616V324.252C737.569 323.426 737.347 322.787 736.948 322.336C736.55 321.879 736.011 321.65 735.331 321.65Z" fill="#ECEFFB"/>
<path d="M389.419 238H387.723L381.28 228.139V238H379.584V225.203H381.28L387.74 235.108V225.203H389.419V238ZM391.73 233.157C391.73 232.226 391.912 231.388 392.275 230.644C392.645 229.899 393.154 229.325 393.805 228.921C394.461 228.517 395.208 228.314 396.046 228.314C397.341 228.314 398.387 228.763 399.184 229.659C399.986 230.556 400.388 231.748 400.388 233.236V233.351C400.388 234.276 400.209 235.108 399.852 235.847C399.5 236.579 398.993 237.15 398.331 237.561C397.675 237.971 396.919 238.176 396.063 238.176C394.774 238.176 393.729 237.728 392.926 236.831C392.129 235.935 391.73 234.748 391.73 233.271V233.157ZM393.365 233.351C393.365 234.405 393.608 235.252 394.095 235.891C394.587 236.529 395.243 236.849 396.063 236.849C396.89 236.849 397.546 236.526 398.032 235.882C398.519 235.231 398.762 234.323 398.762 233.157C398.762 232.114 398.513 231.271 398.015 230.626C397.522 229.976 396.866 229.65 396.046 229.65C395.243 229.65 394.596 229.97 394.104 230.608C393.611 231.247 393.365 232.161 393.365 233.351ZM402.031 233.166C402.031 231.707 402.377 230.535 403.068 229.65C403.76 228.76 404.665 228.314 405.784 228.314C406.897 228.314 407.779 228.695 408.43 229.457V224.5H410.056V238H408.562L408.482 236.98C407.832 237.777 406.927 238.176 405.767 238.176C404.665 238.176 403.766 237.725 403.068 236.822C402.377 235.92 402.031 234.742 402.031 233.289V233.166ZM403.657 233.351C403.657 234.429 403.88 235.272 404.325 235.882C404.771 236.491 405.386 236.796 406.171 236.796C407.202 236.796 407.955 236.333 408.43 235.407V231.039C407.943 230.143 407.196 229.694 406.188 229.694C405.392 229.694 404.771 230.002 404.325 230.617C403.88 231.232 403.657 232.144 403.657 233.351ZM416.533 238.176C415.244 238.176 414.195 237.754 413.387 236.91C412.578 236.061 412.174 234.927 412.174 233.509V233.21C412.174 232.267 412.353 231.426 412.71 230.688C413.073 229.943 413.577 229.363 414.222 228.947C414.872 228.525 415.575 228.314 416.331 228.314C417.567 228.314 418.528 228.722 419.214 229.536C419.899 230.351 420.242 231.517 420.242 233.034V233.711H413.8C413.823 234.648 414.096 235.407 414.617 235.987C415.145 236.562 415.812 236.849 416.621 236.849C417.195 236.849 417.682 236.731 418.08 236.497C418.479 236.263 418.827 235.952 419.126 235.565L420.119 236.339C419.322 237.563 418.127 238.176 416.533 238.176ZM416.331 229.65C415.675 229.65 415.124 229.891 414.679 230.371C414.233 230.846 413.958 231.514 413.853 232.375H418.616V232.252C418.569 231.426 418.347 230.787 417.948 230.336C417.55 229.879 417.011 229.65 416.331 229.65Z" fill="#ECEFFB"/>
<path d="M719.707 191.293C719.317 190.902 718.683 190.902 718.293 191.293L711.929 197.657C711.538 198.047 711.538 198.681 711.929 199.071C712.319 199.462 712.953 199.462 713.343 199.071L719 193.414L724.657 199.071C725.047 199.462 725.681 199.462 726.071 199.071C726.462 198.681 726.462 198.047 726.071 197.657L719.707 191.293ZM718.293 272.707C718.683 273.098 719.317 273.098 719.707 272.707L726.071 266.343C726.462 265.953 726.462 265.319 726.071 264.929C725.681 264.538 725.047 264.538 724.657 264.929L719 270.586L713.343 264.929C712.953 264.538 712.319 264.538 711.929 264.929C711.538 265.319 711.538 265.953 711.929 266.343L718.293 272.707ZM718 192L718 272L720 272L720 192L718 192Z" fill="#0F38E2"/>
<path d="M84.7071 191.293C84.3166 190.902 83.6834 190.902 83.2929 191.293L76.9289 197.657C76.5384 198.047 76.5384 198.681 76.9289 199.071C77.3195 199.462 77.9526 199.462 78.3431 199.071L84 193.414L89.6569 199.071C90.0474 199.462 90.6805 199.462 91.0711 199.071C91.4616 198.681 91.4616 198.047 91.0711 197.657L84.7071 191.293ZM83.2929 272.707C83.6834 273.098 84.3166 273.098 84.7071 272.707L91.0711 266.343C91.4616 265.953 91.4616 265.319 91.0711 264.929C90.6805 264.538 90.0474 264.538 89.6569 264.929L84 270.586L78.3431 264.929C77.9526 264.538 77.3195 264.538 76.9289 264.929C76.5384 265.319 76.5384 265.953 76.9289 266.343L83.2929 272.707ZM83 192L83 272L85 272L85 192L83 192Z" fill="#0F38E2"/>
<path d="M84 229C83.4477 229 83 229.448 83 230C83 230.552 83.4477 231 84 231L84 229ZM349.707 230.707C350.098 230.317 350.098 229.683 349.707 229.293L343.343 222.929C342.953 222.538 342.319 222.538 341.929 222.929C341.538 223.319 341.538 223.953 341.929 224.343L347.586 230L341.929 235.657C341.538 236.047 341.538 236.681 341.929 237.071C342.319 237.462 342.953 237.462 343.343 237.071L349.707 230.707ZM84 231L349 231L349 229L84 229L84 231Z" fill="#0F38E2"/>
<path d="M719.446 231.084C719.998 231.084 720.446 230.636 720.446 230.084C720.446 229.532 719.998 229.084 719.446 229.084L719.446 231.084ZM452.101 229.377C451.71 229.767 451.71 230.401 452.101 230.791L458.464 237.155C458.855 237.546 459.488 237.546 459.879 237.155C460.269 236.764 460.269 236.131 459.879 235.741L454.222 230.084L459.879 224.427C460.269 224.037 460.269 223.403 459.879 223.013C459.488 222.622 458.855 222.622 458.465 223.013L452.101 229.377ZM719.446 229.084L452.808 229.084L452.808 231.084L719.446 231.084L719.446 229.084Z" fill="#0F38E2"/>
<path d="M667.707 144.707C668.098 144.317 668.098 143.683 667.707 143.293L661.343 136.929C660.953 136.538 660.319 136.538 659.929 136.929C659.538 137.319 659.538 137.953 659.929 138.343L665.586 144L659.929 149.657C659.538 150.047 659.538 150.681 659.929 151.071C660.319 151.462 660.953 151.462 661.343 151.071L667.707 144.707ZM667 143L124 143L124 145L667 145L667 143Z" fill="#0F38E2"/>
<path d="M668.707 325.707C669.098 325.317 669.098 324.683 668.707 324.293L662.343 317.929C661.953 317.538 661.319 317.538 660.929 317.929C660.538 318.319 660.538 318.953 660.929 319.343L666.586 325L660.929 330.657C660.538 331.047 660.538 331.681 660.929 332.071C661.319 332.462 661.953 332.462 662.343 332.071L668.707 325.707ZM668 324L124 324L124 326L668 326L668 324Z" fill="#0F38E2"/>
<path d="M83.2929 86.1419C83.6834 86.5324 84.3166 86.5324 84.7071 86.1419L91.0711 79.7779C91.4616 79.3874 91.4616 78.7542 91.0711 78.3637C90.6805 77.9732 90.0474 77.9732 89.6569 78.3637L84 84.0206L78.3431 78.3637C77.9526 77.9732 77.3195 77.9732 76.9289 78.3637C76.5384 78.7542 76.5384 79.3874 76.9289 79.7779L83.2929 86.1419ZM720 90V56H718V90H720ZM718 54H85V56H718V54ZM83 56V85.4348H85V56H83ZM85 54C83.8954 54 83 54.8954 83 56H85H85V54ZM720 56C720 54.8954 719.105 54 718 54V56V56H720Z" fill="#0F38E2"/>
<path d="M83.2929 377.728C83.6834 377.337 84.3166 377.337 84.7071 377.728L91.0711 384.092C91.4616 384.482 91.4616 385.115 91.0711 385.506C90.6805 385.896 90.0474 385.896 89.6569 385.506L84 379.849L78.3431 385.506C77.9526 385.896 77.3195 385.896 76.9289 385.506C76.5384 385.115 76.5384 384.482 76.9289 384.092L83.2929 377.728ZM720 374V407H718V374H720ZM718 409H85V407H718V409ZM83 407V378.435H85V407H83ZM85 409C83.8954 409 83 408.105 83 407H85L85 407V409ZM720 407C720 408.105 719.105 409 718 409V407V407H720Z" fill="#0F38E2"/>
<path d="M77.4849 34V26.1797H80.165C81.0495 26.1797 81.7227 26.3569 82.1846 26.7114C82.6465 27.0659 82.8774 27.5941 82.8774 28.2959C82.8774 28.654 82.7808 28.9762 82.5874 29.2627C82.394 29.5492 82.1112 29.7712 81.7388 29.9287C82.1613 30.0433 82.4871 30.2599 82.7163 30.5786C82.9491 30.8937 83.0654 31.2733 83.0654 31.7173C83.0654 32.4513 82.8291 33.0153 82.3564 33.4092C81.8874 33.8031 81.2142 34 80.3369 34H77.4849ZM78.8438 30.4712V32.915H80.353C80.7791 32.915 81.1121 32.8094 81.3521 32.5981C81.592 32.3869 81.7119 32.0933 81.7119 31.7173C81.7119 30.9045 81.2965 30.4891 80.4658 30.4712H78.8438ZM78.8438 29.4722H80.1758C80.5983 29.4722 80.9277 29.3773 81.1641 29.1875C81.404 28.9941 81.5239 28.722 81.5239 28.3711C81.5239 27.9844 81.4129 27.7051 81.1909 27.5332C80.9725 27.3613 80.6305 27.2754 80.165 27.2754H78.8438V29.4722ZM85.6865 34H84.3813V25.75H85.6865V34ZM86.8682 31.0405C86.8682 30.4712 86.981 29.9591 87.2065 29.5044C87.4321 29.0461 87.749 28.6951 88.1572 28.4517C88.5654 28.2046 89.0345 28.0811 89.5645 28.0811C90.3486 28.0811 90.9842 28.3335 91.4712 28.8384C91.9618 29.3433 92.2267 30.0129 92.2661 30.8472L92.2715 31.1533C92.2715 31.7262 92.1605 32.2383 91.9385 32.6895C91.7201 33.1406 91.4049 33.4897 90.9932 33.7368C90.585 33.9839 90.1123 34.1074 89.5752 34.1074C88.7552 34.1074 88.0981 33.8353 87.604 33.291C87.1134 32.7432 86.8682 32.0145 86.8682 31.105V31.0405ZM88.1733 31.1533C88.1733 31.7513 88.2969 32.2204 88.5439 32.5605C88.791 32.8971 89.1348 33.0654 89.5752 33.0654C90.0156 33.0654 90.3576 32.8936 90.6011 32.5498C90.8481 32.2061 90.9717 31.703 90.9717 31.0405C90.9717 30.4533 90.8446 29.9878 90.5903 29.644C90.3397 29.3003 89.9977 29.1284 89.5645 29.1284C89.1383 29.1284 88.8 29.2985 88.5493 29.6387C88.2987 29.9753 88.1733 30.4801 88.1733 31.1533ZM95.7627 33.0654C96.0885 33.0654 96.3589 32.9705 96.5737 32.7808C96.7886 32.591 96.9032 32.3564 96.9175 32.0771H98.1475C98.1331 32.4388 98.0203 32.7772 97.8091 33.0923C97.5978 33.4038 97.3114 33.6509 96.9497 33.8335C96.5881 34.0161 96.1978 34.1074 95.7788 34.1074C94.966 34.1074 94.3215 33.8442 93.8452 33.3179C93.369 32.7915 93.1309 32.0646 93.1309 31.1372V31.0029C93.1309 30.1185 93.3672 29.4113 93.8398 28.8813C94.3125 28.3478 94.957 28.0811 95.7734 28.0811C96.4645 28.0811 97.0267 28.2834 97.46 28.688C97.8968 29.089 98.126 29.6172 98.1475 30.2725H96.9175C96.9032 29.9395 96.7886 29.6655 96.5737 29.4507C96.3625 29.2358 96.0921 29.1284 95.7627 29.1284C95.3402 29.1284 95.0143 29.2824 94.7852 29.5903C94.556 29.8947 94.4396 30.3584 94.436 30.9814V31.1909C94.436 31.8211 94.5488 32.292 94.7744 32.6035C95.0036 32.9115 95.333 33.0654 95.7627 33.0654ZM101.021 31.5078L100.441 32.104V34H99.1357V25.75H100.441V30.5088L100.849 29.9985L102.455 28.1885H104.023L101.864 30.6108L104.254 34H102.745L101.021 31.5078ZM113.713 31.4541C113.634 32.2884 113.326 32.9401 112.789 33.4092C112.252 33.8747 111.538 34.1074 110.646 34.1074C110.023 34.1074 109.473 33.9606 108.997 33.667C108.524 33.3698 108.159 32.9491 107.901 32.4048C107.644 31.8605 107.509 31.2285 107.499 30.5088V29.7783C107.499 29.0407 107.629 28.3908 107.891 27.8286C108.152 27.2664 108.526 26.8332 109.013 26.5288C109.504 26.2244 110.069 26.0723 110.71 26.0723C111.573 26.0723 112.268 26.3068 112.794 26.7759C113.321 27.245 113.627 27.9074 113.713 28.7632H112.359C112.295 28.201 112.13 27.7964 111.865 27.5493C111.604 27.2987 111.219 27.1733 110.71 27.1733C110.12 27.1733 109.665 27.39 109.346 27.8232C109.031 28.2529 108.87 28.8849 108.863 29.7192V30.4121C108.863 31.2572 109.013 31.9017 109.314 32.3457C109.618 32.7897 110.062 33.0117 110.646 33.0117C111.18 33.0117 111.581 32.8918 111.849 32.6519C112.118 32.4119 112.288 32.0127 112.359 31.4541H113.713ZM116.092 28.8223C116.518 28.3281 117.057 28.0811 117.709 28.0811C118.948 28.0811 119.576 28.7882 119.594 30.2026V34H118.289V30.251C118.289 29.8499 118.201 29.5671 118.026 29.4023C117.854 29.234 117.6 29.1499 117.263 29.1499C116.74 29.1499 116.35 29.3826 116.092 29.8481V34H114.787V25.75H116.092V28.8223ZM124.391 34C124.333 33.889 124.283 33.7082 124.24 33.4575C123.825 33.8908 123.316 34.1074 122.715 34.1074C122.131 34.1074 121.655 33.9409 121.286 33.6079C120.917 33.2749 120.733 32.8631 120.733 32.3726C120.733 31.7531 120.962 31.2786 121.42 30.9492C121.882 30.6162 122.541 30.4497 123.397 30.4497H124.197V30.0684C124.197 29.7676 124.113 29.5277 123.945 29.3486C123.777 29.166 123.521 29.0747 123.177 29.0747C122.88 29.0747 122.636 29.1499 122.446 29.3003C122.257 29.4471 122.162 29.6351 122.162 29.8643H120.856C120.856 29.5456 120.962 29.2484 121.173 28.9727C121.385 28.6934 121.671 28.4749 122.033 28.3174C122.398 28.1598 122.804 28.0811 123.252 28.0811C123.932 28.0811 124.475 28.2529 124.879 28.5967C125.284 28.9368 125.492 29.4167 125.502 30.0361V32.6572C125.502 33.18 125.576 33.5972 125.723 33.9087V34H124.391ZM122.957 33.0601C123.214 33.0601 123.456 32.9974 123.682 32.8721C123.911 32.7467 124.083 32.5785 124.197 32.3672V31.2715H123.494C123.01 31.2715 122.647 31.3556 122.403 31.5239C122.16 31.6922 122.038 31.9303 122.038 32.2383C122.038 32.4889 122.12 32.6895 122.285 32.8398C122.453 32.9867 122.677 33.0601 122.957 33.0601ZM128.258 34H126.953V28.1885H128.258V34ZM126.872 26.6792C126.872 26.4787 126.935 26.3122 127.06 26.1797C127.189 26.0472 127.372 25.981 127.608 25.981C127.844 25.981 128.027 26.0472 128.156 26.1797C128.285 26.3122 128.349 26.4787 128.349 26.6792C128.349 26.8761 128.285 27.0409 128.156 27.1733C128.027 27.3022 127.844 27.3667 127.608 27.3667C127.372 27.3667 127.189 27.3022 127.06 27.1733C126.935 27.0409 126.872 26.8761 126.872 26.6792ZM130.895 28.1885L130.933 28.8599C131.362 28.3407 131.926 28.0811 132.625 28.0811C133.835 28.0811 134.451 28.7739 134.472 30.1597V34H133.167V30.2349C133.167 29.866 133.086 29.5939 132.925 29.4185C132.768 29.2394 132.508 29.1499 132.146 29.1499C131.62 29.1499 131.228 29.388 130.97 29.8643V34H129.665V28.1885H130.895ZM144.876 34H143.517L140.031 28.4517V34H138.672V26.1797H140.031L143.528 31.7495V26.1797H144.876V34ZM148.915 34.1074C148.088 34.1074 147.417 33.8478 146.901 33.3286C146.389 32.8058 146.133 32.1112 146.133 31.2446V31.0835C146.133 30.5034 146.244 29.986 146.466 29.5312C146.691 29.0729 147.007 28.7166 147.411 28.4624C147.816 28.2082 148.267 28.0811 148.765 28.0811C149.556 28.0811 150.167 28.3335 150.596 28.8384C151.029 29.3433 151.246 30.0576 151.246 30.9814V31.5078H147.449C147.488 31.9876 147.647 32.3672 147.927 32.6465C148.21 32.9258 148.564 33.0654 148.99 33.0654C149.588 33.0654 150.075 32.8237 150.451 32.3403L151.155 33.0117C150.922 33.359 150.611 33.6294 150.22 33.8228C149.833 34.0125 149.398 34.1074 148.915 34.1074ZM148.759 29.1284C148.401 29.1284 148.111 29.2537 147.889 29.5044C147.671 29.755 147.531 30.1042 147.47 30.5518H149.957V30.4551C149.928 30.0182 149.812 29.6888 149.608 29.4668C149.404 29.2412 149.121 29.1284 148.759 29.1284ZM153.899 26.7759V28.1885H154.925V29.1553H153.899V32.3994C153.899 32.6214 153.942 32.7826 154.028 32.8828C154.118 32.9795 154.275 33.0278 154.501 33.0278C154.651 33.0278 154.804 33.0099 154.958 32.9741V33.9839C154.66 34.0662 154.374 34.1074 154.098 34.1074C153.096 34.1074 152.594 33.5542 152.594 32.4478V29.1553H151.638V28.1885H152.594V26.7759H153.899ZM161.032 32.2007L161.956 28.1885H163.229L161.645 34H160.57L159.324 30.0093L158.1 34H157.025L155.436 28.1885H156.708L157.648 32.1577L158.841 28.1885H159.824L161.032 32.2007ZM163.857 31.0405C163.857 30.4712 163.97 29.9591 164.196 29.5044C164.421 29.0461 164.738 28.6951 165.146 28.4517C165.555 28.2046 166.024 28.0811 166.554 28.0811C167.338 28.0811 167.973 28.3335 168.46 28.8384C168.951 29.3433 169.216 30.0129 169.255 30.8472L169.261 31.1533C169.261 31.7262 169.15 32.2383 168.928 32.6895C168.709 33.1406 168.394 33.4897 167.982 33.7368C167.574 33.9839 167.102 34.1074 166.564 34.1074C165.744 34.1074 165.087 33.8353 164.593 33.291C164.103 32.7432 163.857 32.0145 163.857 31.105V31.0405ZM165.163 31.1533C165.163 31.7513 165.286 32.2204 165.533 32.5605C165.78 32.8971 166.124 33.0654 166.564 33.0654C167.005 33.0654 167.347 32.8936 167.59 32.5498C167.837 32.2061 167.961 31.703 167.961 31.0405C167.961 30.4533 167.834 29.9878 167.58 29.644C167.329 29.3003 166.987 29.1284 166.554 29.1284C166.128 29.1284 165.789 29.2985 165.539 29.6387C165.288 29.9753 165.163 30.4801 165.163 31.1533ZM173.407 29.3809C173.235 29.3522 173.058 29.3379 172.875 29.3379C172.278 29.3379 171.875 29.5671 171.667 30.0254V34H170.362V28.1885H171.608L171.64 28.8384C171.955 28.3335 172.392 28.0811 172.951 28.0811C173.137 28.0811 173.291 28.1061 173.413 28.1562L173.407 29.3809ZM176.12 31.5078L175.54 32.104V34H174.234V25.75H175.54V30.5088L175.948 29.9985L177.554 28.1885H179.122L176.963 30.6108L179.353 34H177.844L176.12 31.5078Z" fill="#181732"/>
<defs>
<filter id="filter0_di" x="355" y="186" width="94" height="95" filterUnits="userSpaceOnUse" color-interpolation-filters="sRGB">
<feFlood flood-opacity="0" result="BackgroundImageFix"/>
<feColorMatrix in="SourceAlpha" type="matrix" values="0 0 0 0 0 0 0 0 0 0 0 0 0 0 0 0 0 0 127 0" result="hardAlpha"/>
<feOffset dx="2" dy="1"/>
<feGaussianBlur stdDeviation="2.5"/>
<feColorMatrix type="matrix" values="0 0 0 0 0.0941176 0 0 0 0 0.0901961 0 0 0 0 0.196078 0 0 0 0.23 0"/>
<feBlend mode="normal" in2="BackgroundImageFix" result="effect1_dropShadow"/>
<feBlend mode="normal" in="SourceGraphic" in2="effect1_dropShadow" result="shape"/>
<feColorMatrix in="SourceAlpha" type="matrix" values="0 0 0 0 0 0 0 0 0 0 0 0 0 0 0 0 0 0 127 0" result="hardAlpha"/>
<feOffset dy="1"/>
<feGaussianBlur stdDeviation="3"/>
<feComposite in2="hardAlpha" operator="arithmetic" k2="-1" k3="1"/>
<feColorMatrix type="matrix" values="0 0 0 0 0.917647 0 0 0 0 0.929412 0 0 0 0 0.984314 0 0 0 0.8 0"/>
<feBlend mode="normal" in2="shape" result="effect2_innerShadow"/>
</filter>
<filter id="filter1_di" x="36" y="96" width="94.8393" height="94.8393" filterUnits="userSpaceOnUse" color-interpolation-filters="sRGB">
<feFlood flood-opacity="0" result="BackgroundImageFix"/>
<feColorMatrix in="SourceAlpha" type="matrix" values="0 0 0 0 0 0 0 0 0 0 0 0 0 0 0 0 0 0 127 0" result="hardAlpha"/>
<feOffset dx="2" dy="1"/>
<feGaussianBlur stdDeviation="2.5"/>
<feColorMatrix type="matrix" values="0 0 0 0 0.0941176 0 0 0 0 0.0901961 0 0 0 0 0.196078 0 0 0 0.23 0"/>
<feBlend mode="normal" in2="BackgroundImageFix" result="effect1_dropShadow"/>
<feBlend mode="normal" in="SourceGraphic" in2="effect1_dropShadow" result="shape"/>
<feColorMatrix in="SourceAlpha" type="matrix" values="0 0 0 0 0 0 0 0 0 0 0 0 0 0 0 0 0 0 127 0" result="hardAlpha"/>
<feOffset dy="1"/>
<feGaussianBlur stdDeviation="3"/>
<feComposite in2="hardAlpha" operator="arithmetic" k2="-1" k3="1"/>
<feColorMatrix type="matrix" values="0 0 0 0 0.917647 0 0 0 0 0.929412 0 0 0 0 0.984314 0 0 0 0.8 0"/>
<feBlend mode="normal" in2="shape" result="effect2_innerShadow"/>
</filter>
<filter id="filter2_di" x="36" y="278" width="95" height="95" filterUnits="userSpaceOnUse" color-interpolation-filters="sRGB">
<feFlood flood-opacity="0" result="BackgroundImageFix"/>
<feColorMatrix in="SourceAlpha" type="matrix" values="0 0 0 0 0 0 0 0 0 0 0 0 0 0 0 0 0 0 127 0" result="hardAlpha"/>
<feOffset dx="2" dy="1"/>
<feGaussianBlur stdDeviation="2.5"/>
<feColorMatrix type="matrix" values="0 0 0 0 0.0941176 0 0 0 0 0.0901961 0 0 0 0 0.196078 0 0 0 0.23 0"/>
<feBlend mode="normal" in2="BackgroundImageFix" result="effect1_dropShadow"/>
<feBlend mode="normal" in="SourceGraphic" in2="effect1_dropShadow" result="shape"/>
<feColorMatrix in="SourceAlpha" type="matrix" values="0 0 0 0 0 0 0 0 0 0 0 0 0 0 0 0 0 0 127 0" result="hardAlpha"/>
<feOffset dy="1"/>
<feGaussianBlur stdDeviation="3"/>
<feComposite in2="hardAlpha" operator="arithmetic" k2="-1" k3="1"/>
<feColorMatrix type="matrix" values="0 0 0 0 0.917647 0 0 0 0 0.929412 0 0 0 0 0.984314 0 0 0 0.8 0"/>
<feBlend mode="normal" in2="shape" result="effect2_innerShadow"/>
</filter>
<filter id="filter3_di" x="673" y="278" width="95" height="95" filterUnits="userSpaceOnUse" color-interpolation-filters="sRGB">
<feFlood flood-opacity="0" result="BackgroundImageFix"/>
<feColorMatrix in="SourceAlpha" type="matrix" values="0 0 0 0 0 0 0 0 0 0 0 0 0 0 0 0 0 0 127 0" result="hardAlpha"/>
<feOffset dx="2" dy="1"/>
<feGaussianBlur stdDeviation="2.5"/>
<feColorMatrix type="matrix" values="0 0 0 0 0.0941176 0 0 0 0 0.0901961 0 0 0 0 0.196078 0 0 0 0.23 0"/>
<feBlend mode="normal" in2="BackgroundImageFix" result="effect1_dropShadow"/>
<feBlend mode="normal" in="SourceGraphic" in2="effect1_dropShadow" result="shape"/>
<feColorMatrix in="SourceAlpha" type="matrix" values="0 0 0 0 0 0 0 0 0 0 0 0 0 0 0 0 0 0 127 0" result="hardAlpha"/>
<feOffset dy="1"/>
<feGaussianBlur stdDeviation="3"/>
<feComposite in2="hardAlpha" operator="arithmetic" k2="-1" k3="1"/>
<feColorMatrix type="matrix" values="0 0 0 0 0.917647 0 0 0 0 0.929412 0 0 0 0 0.984314 0 0 0 0.8 0"/>
<feBlend mode="normal" in2="shape" result="effect2_innerShadow"/>
</filter>
<filter id="filter4_di" x="673" y="96" width="94.8393" height="94.8393" filterUnits="userSpaceOnUse" color-interpolation-filters="sRGB">
<feFlood flood-opacity="0" result="BackgroundImageFix"/>
<feColorMatrix in="SourceAlpha" type="matrix" values="0 0 0 0 0 0 0 0 0 0 0 0 0 0 0 0 0 0 127 0" result="hardAlpha"/>
<feOffset dx="2" dy="1"/>
<feGaussianBlur stdDeviation="2.5"/>
<feColorMatrix type="matrix" values="0 0 0 0 0.0941176 0 0 0 0 0.0901961 0 0 0 0 0.196078 0 0 0 0.23 0"/>
<feBlend mode="normal" in2="BackgroundImageFix" result="effect1_dropShadow"/>
<feBlend mode="normal" in="SourceGraphic" in2="effect1_dropShadow" result="shape"/>
<feColorMatrix in="SourceAlpha" type="matrix" values="0 0 0 0 0 0 0 0 0 0 0 0 0 0 0 0 0 0 127 0" result="hardAlpha"/>
<feOffset dy="1"/>
<feGaussianBlur stdDeviation="3"/>
<feComposite in2="hardAlpha" operator="arithmetic" k2="-1" k3="1"/>
<feColorMatrix type="matrix" values="0 0 0 0 0.917647 0 0 0 0 0.929412 0 0 0 0 0.984314 0 0 0 0.8 0"/>
<feBlend mode="normal" in2="shape" result="effect2_innerShadow"/>
</filter>
<linearGradient id="paint0_linear" x1="363.143" y1="275" x2="436.882" y2="200.413" gradientUnits="userSpaceOnUse">
<stop stop-color="#3455FF"/>
<stop offset="0.458333" stop-color="#5A51CF" stop-opacity="0.99"/>
<stop offset="1" stop-color="#120F67"/>
</linearGradient>
<linearGradient id="paint1_linear" x1="44.1942" y1="184.839" x2="117.779" y2="109.523" gradientUnits="userSpaceOnUse">
<stop stop-color="#3455FF"/>
<stop offset="0.458333" stop-color="#5A51CF" stop-opacity="0.99"/>
<stop offset="1" stop-color="#120F67"/>
</linearGradient>
<linearGradient id="paint2_linear" x1="44.2041" y1="367" x2="117.929" y2="291.541" gradientUnits="userSpaceOnUse">
<stop stop-color="#3455FF"/>
<stop offset="0.458333" stop-color="#5A51CF" stop-opacity="0.99"/>
<stop offset="1" stop-color="#120F67"/>
</linearGradient>
<linearGradient id="paint3_linear" x1="681.204" y1="367" x2="754.929" y2="291.541" gradientUnits="userSpaceOnUse">
<stop stop-color="#3455FF"/>
<stop offset="0.458333" stop-color="#5A51CF" stop-opacity="0.99"/>
<stop offset="1" stop-color="#120F67"/>
</linearGradient>
<linearGradient id="paint4_linear" x1="681.194" y1="184.839" x2="754.779" y2="109.523" gradientUnits="userSpaceOnUse">
<stop stop-color="#3455FF"/>
<stop offset="0.458333" stop-color="#5A51CF" stop-opacity="0.99"/>
<stop offset="1" stop-color="#120F67"/>
</linearGradient>
</defs>
</svg>
