<svg width="800" height="186" viewBox="0 0 800 186" fill="none" xmlns="http://www.w3.org/2000/svg">
<path d="M25.3657 58.667H24.1406L19.4878 51.5449V58.667H18.2627V49.4248H19.4878L24.1533 56.5786V49.4248H25.3657V58.667ZM27.0352 55.1694C27.0352 54.4966 27.1663 53.8914 27.4287 53.354C27.6953 52.8166 28.0635 52.4019 28.5332 52.1099C29.0072 51.8179 29.5467 51.6719 30.1519 51.6719C31.0871 51.6719 31.8424 51.9956 32.418 52.6431C32.9977 53.2905 33.2876 54.1517 33.2876 55.2266V55.3091C33.2876 55.9777 33.1585 56.5786 32.9004 57.1118C32.6465 57.6408 32.2804 58.0534 31.8022 58.3496C31.3283 58.6458 30.7824 58.7939 30.1646 58.7939C29.2336 58.7939 28.4782 58.4702 27.8984 57.8228C27.3229 57.1753 27.0352 56.3184 27.0352 55.252V55.1694ZM28.2158 55.3091C28.2158 56.0708 28.3914 56.6823 28.7427 57.1436C29.0981 57.6048 29.5721 57.8354 30.1646 57.8354C30.7612 57.8354 31.2352 57.6027 31.5864 57.1372C31.9377 56.6675 32.1133 56.0116 32.1133 55.1694C32.1133 54.4162 31.9334 53.8068 31.5737 53.3413C31.2183 52.8716 30.7443 52.6367 30.1519 52.6367C29.5721 52.6367 29.1045 52.8674 28.749 53.3286C28.3936 53.7899 28.2158 54.45 28.2158 55.3091ZM34.4746 55.1758C34.4746 54.1221 34.7243 53.2757 35.2236 52.6367C35.723 51.9935 36.3768 51.6719 37.1851 51.6719C37.9891 51.6719 38.626 51.9469 39.0957 52.4971V48.917H40.27V58.667H39.1909L39.1338 57.9307C38.6641 58.5062 38.0103 58.7939 37.1724 58.7939C36.3768 58.7939 35.7272 58.4681 35.2236 57.8164C34.7243 57.1647 34.4746 56.3141 34.4746 55.2646V55.1758ZM35.6489 55.3091C35.6489 56.0877 35.8097 56.6971 36.1313 57.1372C36.453 57.5773 36.8973 57.7974 37.4644 57.7974C38.2091 57.7974 38.7529 57.4631 39.0957 56.7944V53.6396C38.7445 52.9922 38.2049 52.6685 37.4771 52.6685C36.9015 52.6685 36.453 52.8906 36.1313 53.335C35.8097 53.7793 35.6489 54.4373 35.6489 55.3091ZM44.9482 58.7939C44.0173 58.7939 43.2598 58.4893 42.6758 57.8799C42.0918 57.2663 41.7998 56.4474 41.7998 55.4233V55.2075C41.7998 54.5262 41.9289 53.9189 42.187 53.3857C42.4494 52.8483 42.8133 52.4294 43.2788 52.1289C43.7485 51.8242 44.2563 51.6719 44.8022 51.6719C45.6951 51.6719 46.3892 51.966 46.8843 52.5542C47.3794 53.1424 47.627 53.9845 47.627 55.0806V55.5693H42.9741C42.991 56.2464 43.1878 56.7944 43.5645 57.2134C43.9453 57.6281 44.4277 57.8354 45.0117 57.8354C45.4264 57.8354 45.7777 57.7508 46.0654 57.5815C46.3532 57.4123 46.605 57.188 46.8208 56.9087L47.5381 57.4673C46.9626 58.3517 46.0993 58.7939 44.9482 58.7939ZM44.8022 52.6367C44.3283 52.6367 43.9305 52.8102 43.6089 53.1572C43.2873 53.5 43.0884 53.9824 43.0122 54.6045H46.4526V54.5156C46.4188 53.9189 46.258 53.4577 45.9702 53.1318C45.6825 52.8018 45.2931 52.6367 44.8022 52.6367ZM59.1987 55.7344C59.0845 56.7119 58.7227 57.4673 58.1133 58.0005C57.5081 58.5295 56.702 58.7939 55.6948 58.7939C54.603 58.7939 53.7271 58.4025 53.0669 57.6196C52.411 56.8368 52.083 55.7894 52.083 54.4775V53.5889C52.083 52.7298 52.2354 51.9744 52.54 51.3228C52.849 50.6711 53.2848 50.1717 53.8477 49.8247C54.4105 49.4735 55.0622 49.2979 55.8027 49.2979C56.7845 49.2979 57.5716 49.5729 58.1641 50.123C58.7565 50.6689 59.1014 51.4264 59.1987 52.3955H57.9736C57.8678 51.6592 57.6372 51.126 57.2817 50.7959C56.9305 50.4658 56.4375 50.3008 55.8027 50.3008C55.0241 50.3008 54.4126 50.5885 53.9683 51.1641C53.5282 51.7396 53.3081 52.5584 53.3081 53.6206V54.5156C53.3081 55.5186 53.5176 56.3162 53.9365 56.9087C54.3555 57.5011 54.9416 57.7974 55.6948 57.7974C56.3719 57.7974 56.8903 57.645 57.25 57.3403C57.6139 57.0314 57.8551 56.4961 57.9736 55.7344H59.1987ZM63.8643 54.9155C63.8643 53.9591 63.9912 53.0409 64.2451 52.1606C64.5033 51.2804 64.8862 50.4806 65.394 49.7612C65.9019 49.0418 66.4287 48.534 66.9746 48.2378L67.2158 49.0122C66.598 49.4862 66.0902 50.2098 65.6924 51.1831C65.2988 52.1564 65.083 53.2461 65.0449 54.4521L65.0386 54.9917C65.0386 56.6252 65.3369 58.0428 65.9336 59.2446C66.2933 59.964 66.7207 60.5269 67.2158 60.9331L66.9746 61.6504C66.4118 61.3372 65.8743 60.8125 65.3623 60.0762C64.3636 58.6374 63.8643 56.9172 63.8643 54.9155ZM74.2871 58.667H68.2314V57.8228L71.4307 54.2681C71.9046 53.7306 72.2305 53.2948 72.4082 52.9604C72.5902 52.6219 72.6812 52.2728 72.6812 51.9131C72.6812 51.4307 72.5352 51.035 72.2432 50.7261C71.9512 50.4172 71.5618 50.2627 71.0752 50.2627C70.4912 50.2627 70.0363 50.4299 69.7104 50.7642C69.3888 51.0942 69.228 51.5555 69.228 52.1479H68.0537C68.0537 51.2974 68.3267 50.6097 68.8726 50.085C69.4227 49.5602 70.1569 49.2979 71.0752 49.2979C71.9342 49.2979 72.6134 49.5243 73.1128 49.9771C73.6121 50.4256 73.8618 51.0244 73.8618 51.7734C73.8618 52.6833 73.2821 53.7666 72.1226 55.0234L69.647 57.7085H74.2871V58.667ZM81.3267 54.7251C81.3267 56.1004 81.0918 57.1224 80.6221 57.791C80.1523 58.4596 79.4181 58.7939 78.4194 58.7939C77.4334 58.7939 76.7035 58.4681 76.2295 57.8164C75.7555 57.1605 75.5101 56.1829 75.4932 54.8838V53.3159C75.4932 51.9575 75.728 50.9482 76.1978 50.2881C76.6675 49.6279 77.4038 49.2979 78.4067 49.2979C79.4012 49.2979 80.1333 49.6174 80.603 50.2563C81.0728 50.8911 81.314 51.8729 81.3267 53.2017V54.7251ZM80.1523 53.1191C80.1523 52.1247 80.0127 51.401 79.7334 50.9482C79.4541 50.4912 79.0119 50.2627 78.4067 50.2627C77.8058 50.2627 77.3678 50.4891 77.0928 50.9419C76.8177 51.3947 76.6759 52.0908 76.6675 53.0303V54.9092C76.6675 55.9079 76.8114 56.6463 77.0991 57.1245C77.3911 57.5985 77.8312 57.8354 78.4194 57.8354C78.9992 57.8354 79.4287 57.6112 79.708 57.1626C79.9915 56.714 80.1396 56.0073 80.1523 55.0425V53.1191ZM87.7695 50.1357V51.7988H89.0518V52.7065H87.7695V56.9658C87.7695 57.2409 87.8267 57.4482 87.9409 57.5879C88.0552 57.7233 88.2498 57.791 88.5249 57.791C88.6603 57.791 88.8465 57.7656 89.0835 57.7148V58.667C88.7746 58.7516 88.4741 58.7939 88.1821 58.7939C87.6574 58.7939 87.2617 58.6353 86.9951 58.3179C86.7285 58.0005 86.5952 57.5498 86.5952 56.9658V52.7065H85.3447V51.7988H86.5952V50.1357H87.7695ZM89.9912 55.1694C89.9912 54.4966 90.1224 53.8914 90.3848 53.354C90.6514 52.8166 91.0195 52.4019 91.4893 52.1099C91.9632 51.8179 92.5028 51.6719 93.1079 51.6719C94.0431 51.6719 94.7985 51.9956 95.374 52.6431C95.9538 53.2905 96.2437 54.1517 96.2437 55.2266V55.3091C96.2437 55.9777 96.1146 56.5786 95.8564 57.1118C95.6025 57.6408 95.2365 58.0534 94.7583 58.3496C94.2843 58.6458 93.7384 58.7939 93.1206 58.7939C92.1896 58.7939 91.4342 58.4702 90.8545 57.8228C90.279 57.1753 89.9912 56.3184 89.9912 55.252V55.1694ZM91.1719 55.3091C91.1719 56.0708 91.3475 56.6823 91.6987 57.1436C92.0542 57.6048 92.5282 57.8354 93.1206 57.8354C93.7173 57.8354 94.1912 57.6027 94.5425 57.1372C94.8937 56.6675 95.0693 56.0116 95.0693 55.1694C95.0693 54.4162 94.8895 53.8068 94.5298 53.3413C94.1743 52.8716 93.7004 52.6367 93.1079 52.6367C92.5282 52.6367 92.0605 52.8674 91.7051 53.3286C91.3496 53.7899 91.1719 54.45 91.1719 55.3091ZM99.6333 55.4868L98.897 56.2549V58.667H97.7227V48.917H98.897V54.814L99.5254 54.0586L101.665 51.7988H103.093L100.42 54.668L103.404 58.667H102.026L99.6333 55.4868ZM107.028 58.7939C106.097 58.7939 105.34 58.4893 104.756 57.8799C104.172 57.2663 103.88 56.4474 103.88 55.4233V55.2075C103.88 54.5262 104.009 53.9189 104.267 53.3857C104.529 52.8483 104.893 52.4294 105.359 52.1289C105.829 51.8242 106.336 51.6719 106.882 51.6719C107.775 51.6719 108.469 51.966 108.964 52.5542C109.459 53.1424 109.707 53.9845 109.707 55.0806V55.5693H105.054C105.071 56.2464 105.268 56.7944 105.645 57.2134C106.025 57.6281 106.508 57.8354 107.092 57.8354C107.507 57.8354 107.858 57.7508 108.146 57.5815C108.433 57.4123 108.685 57.188 108.901 56.9087L109.618 57.4673C109.043 58.3517 108.179 58.7939 107.028 58.7939ZM106.882 52.6367C106.408 52.6367 106.011 52.8102 105.689 53.1572C105.367 53.5 105.168 53.9824 105.092 54.6045H108.533V54.5156C108.499 53.9189 108.338 53.4577 108.05 53.1318C107.763 52.8018 107.373 52.6367 106.882 52.6367ZM112.183 51.7988L112.221 52.6621C112.745 52.002 113.431 51.6719 114.277 51.6719C115.729 51.6719 116.461 52.4907 116.474 54.1284V58.667H115.299V54.1221C115.295 53.627 115.181 53.2609 114.957 53.0239C114.736 52.7869 114.392 52.6685 113.922 52.6685C113.541 52.6685 113.207 52.77 112.919 52.9731C112.631 53.1763 112.407 53.4429 112.246 53.7729V58.667H111.072V51.7988H112.183ZM122.244 56.8452C122.244 56.5278 122.123 56.2824 121.882 56.1089C121.645 55.9312 121.228 55.7788 120.631 55.6519C120.039 55.5249 119.567 55.3726 119.216 55.1948C118.869 55.0171 118.611 54.8055 118.441 54.5601C118.276 54.3146 118.194 54.0226 118.194 53.6841C118.194 53.1213 118.431 52.6452 118.905 52.2559C119.383 51.8665 119.992 51.6719 120.733 51.6719C121.512 51.6719 122.142 51.8729 122.625 52.2749C123.111 52.6769 123.354 53.1911 123.354 53.8174H122.174C122.174 53.4958 122.036 53.2186 121.761 52.9858C121.49 52.7531 121.148 52.6367 120.733 52.6367C120.306 52.6367 119.971 52.7298 119.73 52.916C119.489 53.1022 119.368 53.3455 119.368 53.646C119.368 53.9295 119.48 54.1432 119.705 54.2871C119.929 54.431 120.333 54.5685 120.917 54.6997C121.505 54.8309 121.981 54.9875 122.345 55.1694C122.709 55.3514 122.978 55.5715 123.151 55.8296C123.329 56.0835 123.418 56.3945 123.418 56.7627C123.418 57.3763 123.173 57.8693 122.682 58.2417C122.191 58.6099 121.554 58.7939 120.771 58.7939C120.221 58.7939 119.734 58.6966 119.311 58.502C118.888 58.3073 118.556 58.0365 118.314 57.6895C118.077 57.3382 117.959 56.9595 117.959 56.5532H119.133C119.154 56.9468 119.311 57.2599 119.603 57.4927C119.899 57.7212 120.289 57.8354 120.771 57.8354C121.215 57.8354 121.571 57.7466 121.837 57.5688C122.108 57.3869 122.244 57.1457 122.244 56.8452ZM127.658 54.979C127.658 55.9227 127.533 56.8283 127.284 57.6958C127.038 58.5591 126.66 59.3568 126.147 60.0889C125.64 60.821 125.106 61.3415 124.548 61.6504L124.3 60.9331C124.952 60.4338 125.475 59.6593 125.868 58.6099C126.266 57.5562 126.469 56.3882 126.478 55.106V54.9028C126.478 54.0142 126.384 53.189 126.198 52.4272C126.012 51.6613 125.752 50.9757 125.417 50.3706C125.087 49.7655 124.715 49.2936 124.3 48.9551L124.548 48.2378C125.106 48.5467 125.638 49.063 126.141 49.7866C126.649 50.5103 127.028 51.3079 127.277 52.1797C127.531 53.0514 127.658 53.9845 127.658 54.979Z" fill="#181732"/>
<path d="M288.506 26.667H287.281L282.628 19.5449V26.667H281.403V17.4248H282.628L287.294 24.5786V17.4248H288.506V26.667ZM290.176 23.1694C290.176 22.4966 290.307 21.8914 290.569 21.354C290.836 20.8166 291.204 20.4019 291.674 20.1099C292.148 19.8179 292.687 19.6719 293.292 19.6719C294.228 19.6719 294.983 19.9956 295.559 20.6431C296.138 21.2905 296.428 22.1517 296.428 23.2266V23.3091C296.428 23.9777 296.299 24.5786 296.041 25.1118C295.787 25.6408 295.421 26.0534 294.943 26.3496C294.469 26.6458 293.923 26.7939 293.305 26.7939C292.374 26.7939 291.619 26.4702 291.039 25.8228C290.464 25.1753 290.176 24.3184 290.176 23.252V23.1694ZM291.356 23.3091C291.356 24.0708 291.532 24.6823 291.883 25.1436C292.239 25.6048 292.713 25.8354 293.305 25.8354C293.902 25.8354 294.376 25.6027 294.727 25.1372C295.078 24.6675 295.254 24.0116 295.254 23.1694C295.254 22.4162 295.074 21.8068 294.714 21.3413C294.359 20.8716 293.885 20.6367 293.292 20.6367C292.713 20.6367 292.245 20.8674 291.89 21.3286C291.534 21.7899 291.356 22.45 291.356 23.3091ZM297.615 23.1758C297.615 22.1221 297.865 21.2757 298.364 20.6367C298.864 19.9935 299.517 19.6719 300.326 19.6719C301.13 19.6719 301.767 19.9469 302.236 20.4971V16.917H303.411V26.667H302.332L302.274 25.9307C301.805 26.5062 301.151 26.7939 300.313 26.7939C299.517 26.7939 298.868 26.4681 298.364 25.8164C297.865 25.1647 297.615 24.3141 297.615 23.2646V23.1758ZM298.79 23.3091C298.79 24.0877 298.95 24.6971 299.272 25.1372C299.594 25.5773 300.038 25.7974 300.605 25.7974C301.35 25.7974 301.894 25.4631 302.236 24.7944V21.6396C301.885 20.9922 301.346 20.6685 300.618 20.6685C300.042 20.6685 299.594 20.8906 299.272 21.335C298.95 21.7793 298.79 22.4373 298.79 23.3091ZM308.089 26.7939C307.158 26.7939 306.4 26.4893 305.816 25.8799C305.232 25.2663 304.94 24.4474 304.94 23.4233V23.2075C304.94 22.5262 305.069 21.9189 305.328 21.3857C305.59 20.8483 305.954 20.4294 306.419 20.1289C306.889 19.8242 307.397 19.6719 307.943 19.6719C308.836 19.6719 309.53 19.966 310.025 20.5542C310.52 21.1424 310.768 21.9845 310.768 23.0806V23.5693H306.115C306.132 24.2464 306.328 24.7944 306.705 25.2134C307.086 25.6281 307.568 25.8354 308.152 25.8354C308.567 25.8354 308.918 25.7508 309.206 25.5815C309.494 25.4123 309.746 25.188 309.961 24.9087L310.679 25.4673C310.103 26.3517 309.24 26.7939 308.089 26.7939ZM307.943 20.6367C307.469 20.6367 307.071 20.8102 306.75 21.1572C306.428 21.5 306.229 21.9824 306.153 22.6045H309.593V22.5156C309.559 21.9189 309.399 21.4577 309.111 21.1318C308.823 20.8018 308.434 20.6367 307.943 20.6367ZM315.541 26.667V17.4248H318.562C319.565 17.4248 320.319 17.6322 320.822 18.0469C321.33 18.4616 321.584 19.0752 321.584 19.8877C321.584 20.3193 321.461 20.7023 321.216 21.0366C320.97 21.3667 320.636 21.6227 320.213 21.8047C320.712 21.9443 321.106 22.2109 321.394 22.6045C321.686 22.9938 321.832 23.4593 321.832 24.001C321.832 24.8304 321.563 25.4821 321.025 25.9561C320.488 26.43 319.728 26.667 318.747 26.667H315.541ZM316.76 22.3442V25.6704H318.772C319.339 25.6704 319.785 25.5244 320.111 25.2324C320.441 24.9362 320.606 24.5299 320.606 24.0137C320.606 22.9007 320.001 22.3442 318.791 22.3442H316.76ZM316.76 21.3667H318.601C319.134 21.3667 319.559 21.2334 319.876 20.9668C320.198 20.7002 320.359 20.3384 320.359 19.8813C320.359 19.3735 320.211 19.0054 319.915 18.7769C319.618 18.5441 319.168 18.4277 318.562 18.4277H316.76V21.3667Z" fill="#181732"/>
<path d="M288.506 50.667H287.281L282.628 43.5449V50.667H281.403V41.4248H282.628L287.294 48.5786V41.4248H288.506V50.667ZM290.176 47.1694C290.176 46.4966 290.307 45.8914 290.569 45.354C290.836 44.8166 291.204 44.4019 291.674 44.1099C292.148 43.8179 292.687 43.6719 293.292 43.6719C294.228 43.6719 294.983 43.9956 295.559 44.6431C296.138 45.2905 296.428 46.1517 296.428 47.2266V47.3091C296.428 47.9777 296.299 48.5786 296.041 49.1118C295.787 49.6408 295.421 50.0534 294.943 50.3496C294.469 50.6458 293.923 50.7939 293.305 50.7939C292.374 50.7939 291.619 50.4702 291.039 49.8228C290.464 49.1753 290.176 48.3184 290.176 47.252V47.1694ZM291.356 47.3091C291.356 48.0708 291.532 48.6823 291.883 49.1436C292.239 49.6048 292.713 49.8354 293.305 49.8354C293.902 49.8354 294.376 49.6027 294.727 49.1372C295.078 48.6675 295.254 48.0116 295.254 47.1694C295.254 46.4162 295.074 45.8068 294.714 45.3413C294.359 44.8716 293.885 44.6367 293.292 44.6367C292.713 44.6367 292.245 44.8674 291.89 45.3286C291.534 45.7899 291.356 46.45 291.356 47.3091ZM297.615 47.1758C297.615 46.1221 297.865 45.2757 298.364 44.6367C298.864 43.9935 299.517 43.6719 300.326 43.6719C301.13 43.6719 301.767 43.9469 302.236 44.4971V40.917H303.411V50.667H302.332L302.274 49.9307C301.805 50.5062 301.151 50.7939 300.313 50.7939C299.517 50.7939 298.868 50.4681 298.364 49.8164C297.865 49.1647 297.615 48.3141 297.615 47.2646V47.1758ZM298.79 47.3091C298.79 48.0877 298.95 48.6971 299.272 49.1372C299.594 49.5773 300.038 49.7974 300.605 49.7974C301.35 49.7974 301.894 49.4631 302.236 48.7944V45.6396C301.885 44.9922 301.346 44.6685 300.618 44.6685C300.042 44.6685 299.594 44.8906 299.272 45.335C298.95 45.7793 298.79 46.4373 298.79 47.3091ZM308.089 50.7939C307.158 50.7939 306.4 50.4893 305.816 49.8799C305.232 49.2663 304.94 48.4474 304.94 47.4233V47.2075C304.94 46.5262 305.069 45.9189 305.328 45.3857C305.59 44.8483 305.954 44.4294 306.419 44.1289C306.889 43.8242 307.397 43.6719 307.943 43.6719C308.836 43.6719 309.53 43.966 310.025 44.5542C310.52 45.1424 310.768 45.9845 310.768 47.0806V47.5693H306.115C306.132 48.2464 306.328 48.7944 306.705 49.2134C307.086 49.6281 307.568 49.8354 308.152 49.8354C308.567 49.8354 308.918 49.7508 309.206 49.5815C309.494 49.4123 309.746 49.188 309.961 48.9087L310.679 49.4673C310.103 50.3517 309.24 50.7939 308.089 50.7939ZM307.943 44.6367C307.469 44.6367 307.071 44.8102 306.75 45.1572C306.428 45.5 306.229 45.9824 306.153 46.6045H309.593V46.5156C309.559 45.9189 309.399 45.4577 309.111 45.1318C308.823 44.8018 308.434 44.6367 307.943 44.6367ZM322.339 47.7344C322.225 48.7119 321.863 49.4673 321.254 50.0005C320.649 50.5295 319.843 50.7939 318.835 50.7939C317.744 50.7939 316.868 50.4025 316.208 49.6196C315.552 48.8368 315.224 47.7894 315.224 46.4775V45.5889C315.224 44.7298 315.376 43.9744 315.681 43.3228C315.99 42.6711 316.425 42.1717 316.988 41.8247C317.551 41.4735 318.203 41.2979 318.943 41.2979C319.925 41.2979 320.712 41.5729 321.305 42.123C321.897 42.6689 322.242 43.4264 322.339 44.3955H321.114C321.008 43.6592 320.778 43.126 320.422 42.7959C320.071 42.4658 319.578 42.3008 318.943 42.3008C318.165 42.3008 317.553 42.5885 317.109 43.1641C316.669 43.7396 316.449 44.5584 316.449 45.6206V46.5156C316.449 47.5186 316.658 48.3162 317.077 48.9087C317.496 49.5011 318.082 49.7974 318.835 49.7974C319.513 49.7974 320.031 49.645 320.391 49.3403C320.755 49.0314 320.996 48.4961 321.114 47.7344H322.339Z" fill="#181732"/>
<path d="M288.506 74.667H287.281L282.628 67.5449V74.667H281.403V65.4248H282.628L287.294 72.5786V65.4248H288.506V74.667ZM290.176 71.1694C290.176 70.4966 290.307 69.8914 290.569 69.354C290.836 68.8166 291.204 68.4019 291.674 68.1099C292.148 67.8179 292.687 67.6719 293.292 67.6719C294.228 67.6719 294.983 67.9956 295.559 68.6431C296.138 69.2905 296.428 70.1517 296.428 71.2266V71.3091C296.428 71.9777 296.299 72.5786 296.041 73.1118C295.787 73.6408 295.421 74.0534 294.943 74.3496C294.469 74.6458 293.923 74.7939 293.305 74.7939C292.374 74.7939 291.619 74.4702 291.039 73.8228C290.464 73.1753 290.176 72.3184 290.176 71.252V71.1694ZM291.356 71.3091C291.356 72.0708 291.532 72.6823 291.883 73.1436C292.239 73.6048 292.713 73.8354 293.305 73.8354C293.902 73.8354 294.376 73.6027 294.727 73.1372C295.078 72.6675 295.254 72.0116 295.254 71.1694C295.254 70.4162 295.074 69.8068 294.714 69.3413C294.359 68.8716 293.885 68.6367 293.292 68.6367C292.713 68.6367 292.245 68.8674 291.89 69.3286C291.534 69.7899 291.356 70.45 291.356 71.3091ZM297.615 71.1758C297.615 70.1221 297.865 69.2757 298.364 68.6367C298.864 67.9935 299.517 67.6719 300.326 67.6719C301.13 67.6719 301.767 67.9469 302.236 68.4971V64.917H303.411V74.667H302.332L302.274 73.9307C301.805 74.5062 301.151 74.7939 300.313 74.7939C299.517 74.7939 298.868 74.4681 298.364 73.8164C297.865 73.1647 297.615 72.3141 297.615 71.2646V71.1758ZM298.79 71.3091C298.79 72.0877 298.95 72.6971 299.272 73.1372C299.594 73.5773 300.038 73.7974 300.605 73.7974C301.35 73.7974 301.894 73.4631 302.236 72.7944V69.6396C301.885 68.9922 301.346 68.6685 300.618 68.6685C300.042 68.6685 299.594 68.8906 299.272 69.335C298.95 69.7793 298.79 70.4373 298.79 71.3091ZM308.089 74.7939C307.158 74.7939 306.4 74.4893 305.816 73.8799C305.232 73.2663 304.94 72.4474 304.94 71.4233V71.2075C304.94 70.5262 305.069 69.9189 305.328 69.3857C305.59 68.8483 305.954 68.4294 306.419 68.1289C306.889 67.8242 307.397 67.6719 307.943 67.6719C308.836 67.6719 309.53 67.966 310.025 68.5542C310.52 69.1424 310.768 69.9845 310.768 71.0806V71.5693H306.115C306.132 72.2464 306.328 72.7944 306.705 73.2134C307.086 73.6281 307.568 73.8354 308.152 73.8354C308.567 73.8354 308.918 73.7508 309.206 73.5815C309.494 73.4123 309.746 73.188 309.961 72.9087L310.679 73.4673C310.103 74.3517 309.24 74.7939 308.089 74.7939ZM307.943 68.6367C307.469 68.6367 307.071 68.8102 306.75 69.1572C306.428 69.5 306.229 69.9824 306.153 70.6045H309.593V70.5156C309.559 69.9189 309.399 69.4577 309.111 69.1318C308.823 68.8018 308.434 68.6367 307.943 68.6367ZM322.339 71.7344C322.225 72.7119 321.863 73.4673 321.254 74.0005C320.649 74.5295 319.843 74.7939 318.835 74.7939C317.744 74.7939 316.868 74.4025 316.208 73.6196C315.552 72.8368 315.224 71.7894 315.224 70.4775V69.5889C315.224 68.7298 315.376 67.9744 315.681 67.3228C315.99 66.6711 316.425 66.1717 316.988 65.8247C317.551 65.4735 318.203 65.2979 318.943 65.2979C319.925 65.2979 320.712 65.5729 321.305 66.123C321.897 66.6689 322.242 67.4264 322.339 68.3955H321.114C321.008 67.6592 320.778 67.126 320.422 66.7959C320.071 66.4658 319.578 66.3008 318.943 66.3008C318.165 66.3008 317.553 66.5885 317.109 67.1641C316.669 67.7396 316.449 68.5584 316.449 69.6206V70.5156C316.449 71.5186 316.658 72.3162 317.077 72.9087C317.496 73.5011 318.082 73.7974 318.835 73.7974C319.513 73.7974 320.031 73.645 320.391 73.3403C320.755 73.0314 320.996 72.4961 321.114 71.7344H322.339Z" fill="#181732"/>
<path opacity="0.1" d="M786.281 51.2746C794.896 69.3134 794.896 90.6872 786.281 108.726C777.709 126.673 761.323 139.934 741.94 144.395C722.459 148.878 701.919 144.121 686.34 131.594C670.841 119.13 661.748 100.25 661.748 80.3612L661.748 79.6395C661.748 59.7503 670.841 40.8703 686.34 28.4068C701.919 15.8797 722.459 11.1223 741.94 15.6058C761.323 20.0666 777.709 33.3272 786.281 51.2746Z" fill="#2A47D5"/>
<path d="M476.97 77.0674C476.856 78.0449 476.494 78.8003 475.885 79.3335C475.28 79.8625 474.473 80.127 473.466 80.127C472.375 80.127 471.499 79.7355 470.838 78.9526C470.182 78.1698 469.854 77.1224 469.854 75.8105V74.9219C469.854 74.0628 470.007 73.3075 470.312 72.6558C470.62 72.0041 471.056 71.5047 471.619 71.1577C472.182 70.8065 472.834 70.6309 473.574 70.6309C474.556 70.6309 475.343 70.9059 475.936 71.4561C476.528 72.002 476.873 72.7594 476.97 73.7285H475.745C475.639 72.9922 475.409 72.459 475.053 72.1289C474.702 71.7988 474.209 71.6338 473.574 71.6338C472.796 71.6338 472.184 71.9215 471.74 72.4971C471.3 73.0726 471.08 73.8914 471.08 74.9536V75.8486C471.08 76.8516 471.289 77.6493 471.708 78.2417C472.127 78.8341 472.713 79.1304 473.466 79.1304C474.143 79.1304 474.662 78.978 475.021 78.6733C475.385 78.3644 475.627 77.8291 475.745 77.0674H476.97ZM479.63 73.9634C480.15 73.3244 480.827 73.0049 481.661 73.0049C483.113 73.0049 483.845 73.8237 483.857 75.4614V80H482.683V75.4551C482.679 74.96 482.565 74.5939 482.34 74.3569C482.12 74.12 481.775 74.0015 481.306 74.0015C480.925 74.0015 480.59 74.103 480.303 74.3062C480.015 74.5093 479.791 74.7759 479.63 75.106V80H478.456V70.25H479.63V73.9634ZM485.305 76.5024C485.305 75.8296 485.436 75.2244 485.698 74.687C485.965 74.1496 486.333 73.7349 486.803 73.4429C487.277 73.1509 487.816 73.0049 488.421 73.0049C489.357 73.0049 490.112 73.3286 490.688 73.9761C491.267 74.6235 491.557 75.4847 491.557 76.5596V76.6421C491.557 77.3107 491.428 77.9116 491.17 78.4448C490.916 78.9738 490.55 79.3864 490.072 79.6826C489.598 79.9788 489.052 80.127 488.434 80.127C487.503 80.127 486.748 79.8032 486.168 79.1558C485.592 78.5083 485.305 77.6514 485.305 76.585V76.5024ZM486.485 76.6421C486.485 77.4038 486.661 78.0153 487.012 78.4766C487.368 78.9378 487.842 79.1685 488.434 79.1685C489.031 79.1685 489.505 78.9357 489.856 78.4702C490.207 78.0005 490.383 77.3446 490.383 76.5024C490.383 75.7492 490.203 75.1398 489.843 74.6743C489.488 74.2046 489.014 73.9697 488.421 73.9697C487.842 73.9697 487.374 74.2004 487.019 74.6616C486.663 75.1229 486.485 75.783 486.485 76.6421ZM497.029 78.1782C497.029 77.8608 496.908 77.6154 496.667 77.4419C496.43 77.2642 496.013 77.1118 495.417 76.9849C494.824 76.8579 494.352 76.7056 494.001 76.5278C493.654 76.3501 493.396 76.1385 493.227 75.8931C493.062 75.6476 492.979 75.3556 492.979 75.0171C492.979 74.4543 493.216 73.9782 493.69 73.5889C494.168 73.1995 494.778 73.0049 495.518 73.0049C496.297 73.0049 496.927 73.2059 497.41 73.6079C497.896 74.0099 498.14 74.5241 498.14 75.1504H496.959C496.959 74.8288 496.821 74.5516 496.546 74.3188C496.276 74.0861 495.933 73.9697 495.518 73.9697C495.091 73.9697 494.756 74.0628 494.515 74.249C494.274 74.4352 494.153 74.6785 494.153 74.979C494.153 75.2625 494.265 75.4762 494.49 75.6201C494.714 75.764 495.118 75.9015 495.702 76.0327C496.29 76.1639 496.766 76.3205 497.13 76.5024C497.494 76.6844 497.763 76.9045 497.937 77.1626C498.114 77.4165 498.203 77.7275 498.203 78.0957C498.203 78.7093 497.958 79.2023 497.467 79.5747C496.976 79.9429 496.339 80.127 495.556 80.127C495.006 80.127 494.519 80.0296 494.096 79.835C493.673 79.6403 493.341 79.3695 493.1 79.0225C492.863 78.6712 492.744 78.2925 492.744 77.8862H493.918C493.94 78.2798 494.096 78.5929 494.388 78.8257C494.684 79.0542 495.074 79.1685 495.556 79.1685C496 79.1685 496.356 79.0796 496.623 78.9019C496.893 78.7199 497.029 78.4787 497.029 78.1782ZM502.583 80.127C501.652 80.127 500.895 79.8223 500.311 79.2129C499.727 78.5993 499.435 77.7804 499.435 76.7563V76.5405C499.435 75.8592 499.564 75.252 499.822 74.7188C500.084 74.1813 500.448 73.7624 500.914 73.4619C501.383 73.1572 501.891 73.0049 502.437 73.0049C503.33 73.0049 504.024 73.299 504.519 73.8872C505.014 74.4754 505.262 75.3175 505.262 76.4136V76.9023H500.609C500.626 77.5794 500.823 78.1274 501.199 78.5464C501.58 78.9611 502.063 79.1685 502.646 79.1685C503.061 79.1685 503.412 79.0838 503.7 78.9146C503.988 78.7453 504.24 78.521 504.456 78.2417L505.173 78.8003C504.597 79.6847 503.734 80.127 502.583 80.127ZM502.437 73.9697C501.963 73.9697 501.565 74.1432 501.244 74.4902C500.922 74.833 500.723 75.3154 500.647 75.9375H504.087V75.8486C504.054 75.252 503.893 74.7907 503.605 74.4648C503.317 74.1348 502.928 73.9697 502.437 73.9697ZM507.737 73.1318L507.775 73.9951C508.3 73.335 508.986 73.0049 509.832 73.0049C511.284 73.0049 512.016 73.8237 512.028 75.4614V80H510.854V75.4551C510.85 74.96 510.736 74.5939 510.511 74.3569C510.291 74.12 509.946 74.0015 509.477 74.0015C509.096 74.0015 508.761 74.103 508.474 74.3062C508.186 74.5093 507.962 74.7759 507.801 75.106V80H506.626V73.1318H507.737ZM518.135 73.1318L518.173 73.9951C518.698 73.335 519.383 73.0049 520.229 73.0049C521.681 73.0049 522.413 73.8237 522.426 75.4614V80H521.251V75.4551C521.247 74.96 521.133 74.5939 520.909 74.3569C520.689 74.12 520.344 74.0015 519.874 74.0015C519.493 74.0015 519.159 74.103 518.871 74.3062C518.583 74.5093 518.359 74.7759 518.198 75.106V80H517.024V73.1318H518.135ZM528.437 79.3208C527.98 79.8582 527.309 80.127 526.425 80.127C525.693 80.127 525.134 79.9154 524.749 79.4922C524.368 79.0648 524.176 78.4342 524.171 77.6006V73.1318H525.346V77.5688C525.346 78.6099 525.769 79.1304 526.615 79.1304C527.512 79.1304 528.109 78.7961 528.405 78.1274V73.1318H529.58V80H528.462L528.437 79.3208ZM532.474 73.1318L532.506 73.8936C533.009 73.3011 533.689 73.0049 534.543 73.0049C535.504 73.0049 536.158 73.373 536.505 74.1094C536.733 73.7793 537.03 73.5127 537.394 73.3096C537.762 73.1064 538.195 73.0049 538.695 73.0049C540.201 73.0049 540.967 73.8026 540.993 75.3979V80H539.818V75.4678C539.818 74.9769 539.706 74.6108 539.482 74.3696C539.258 74.1242 538.881 74.0015 538.352 74.0015C537.916 74.0015 537.554 74.1326 537.267 74.395C536.979 74.6532 536.812 75.0023 536.765 75.4424V80H535.584V75.4995C535.584 74.5008 535.096 74.0015 534.118 74.0015C533.348 74.0015 532.821 74.3294 532.538 74.9854V80H531.363V73.1318H532.474ZM548.584 76.6421C548.584 77.6916 548.343 78.5358 547.861 79.1748C547.378 79.8096 546.731 80.127 545.918 80.127C545.051 80.127 544.38 79.8201 543.906 79.2065L543.849 80H542.77V70.25H543.944V73.8872C544.418 73.299 545.072 73.0049 545.906 73.0049C546.739 73.0049 547.393 73.3201 547.867 73.9507C548.345 74.5812 548.584 75.4445 548.584 76.5405V76.6421ZM547.41 76.5088C547.41 75.709 547.256 75.0911 546.947 74.6553C546.638 74.2194 546.194 74.0015 545.614 74.0015C544.839 74.0015 544.283 74.3612 543.944 75.0806V78.0513C544.304 78.7707 544.865 79.1304 545.626 79.1304C546.189 79.1304 546.627 78.9124 546.94 78.4766C547.254 78.0407 547.41 77.3848 547.41 76.5088ZM552.92 80.127C551.989 80.127 551.231 79.8223 550.647 79.2129C550.063 78.5993 549.771 77.7804 549.771 76.7563V76.5405C549.771 75.8592 549.901 75.252 550.159 74.7188C550.421 74.1813 550.785 73.7624 551.25 73.4619C551.72 73.1572 552.228 73.0049 552.774 73.0049C553.667 73.0049 554.361 73.299 554.856 73.8872C555.351 74.4754 555.599 75.3175 555.599 76.4136V76.9023H550.946C550.963 77.5794 551.16 78.1274 551.536 78.5464C551.917 78.9611 552.399 79.1685 552.983 79.1685C553.398 79.1685 553.749 79.0838 554.037 78.9146C554.325 78.7453 554.577 78.521 554.792 78.2417L555.51 78.8003C554.934 79.6847 554.071 80.127 552.92 80.127ZM552.774 73.9697C552.3 73.9697 551.902 74.1432 551.581 74.4902C551.259 74.833 551.06 75.3154 550.984 75.9375H554.424V75.8486C554.39 75.252 554.23 74.7907 553.942 74.4648C553.654 74.1348 553.265 73.9697 552.774 73.9697ZM560.283 74.1855C560.105 74.1559 559.913 74.1411 559.706 74.1411C558.935 74.1411 558.413 74.4691 558.138 75.125V80H556.963V73.1318H558.106L558.125 73.9253C558.51 73.3117 559.056 73.0049 559.763 73.0049C559.991 73.0049 560.165 73.0345 560.283 73.0938V74.1855ZM561.331 79.3843C561.331 79.1812 561.39 79.0119 561.508 78.8765C561.631 78.741 561.813 78.6733 562.054 78.6733C562.295 78.6733 562.477 78.741 562.6 78.8765C562.727 79.0119 562.791 79.1812 562.791 79.3843C562.791 79.5789 562.727 79.7419 562.6 79.873C562.477 80.0042 562.295 80.0698 562.054 80.0698C561.813 80.0698 561.631 80.0042 561.508 79.873C561.39 79.7419 561.331 79.5789 561.331 79.3843ZM561.337 73.7793C561.337 73.5762 561.396 73.4069 561.515 73.2715C561.637 73.1361 561.819 73.0684 562.061 73.0684C562.302 73.0684 562.484 73.1361 562.606 73.2715C562.733 73.4069 562.797 73.5762 562.797 73.7793C562.797 73.974 562.733 74.1369 562.606 74.2681C562.484 74.3993 562.302 74.4648 562.061 74.4648C561.819 74.4648 561.637 74.3993 561.515 74.2681C561.396 74.1369 561.337 73.974 561.337 73.7793Z" fill="#181732"/>
<path d="M518.579 92.7056H519.728V93.9434H518.579V96H517.037V93.9434H513.044L513 93.0039L516.986 86.7578H518.579V92.7056ZM514.618 92.7056H517.037V88.8462L516.922 89.0493L514.618 92.7056Z" fill="#0F38E2"/>
<path d="M707.93 77.0864L708.108 78.3052L708.368 77.207L710.196 70.7578H711.225L713.008 77.207L713.262 78.3242L713.459 77.0801L714.894 70.7578H716.119L713.878 80H712.767L710.863 73.2651L710.717 72.5605L710.571 73.2651L708.597 80H707.486L705.251 70.7578H706.47L707.93 77.0864ZM718.569 80H717.395V73.1318H718.569V80ZM717.299 71.3101C717.299 71.1196 717.356 70.9588 717.471 70.8276C717.589 70.6965 717.763 70.6309 717.991 70.6309C718.22 70.6309 718.393 70.6965 718.512 70.8276C718.63 70.9588 718.689 71.1196 718.689 71.3101C718.689 71.5005 718.63 71.6592 718.512 71.7861C718.393 71.9131 718.22 71.9766 717.991 71.9766C717.763 71.9766 717.589 71.9131 717.471 71.7861C717.356 71.6592 717.299 71.5005 717.299 71.3101ZM721.565 73.1318L721.603 73.9951C722.128 73.335 722.813 73.0049 723.66 73.0049C725.111 73.0049 725.843 73.8237 725.856 75.4614V80H724.682V75.4551C724.677 74.96 724.563 74.5939 724.339 74.3569C724.119 74.12 723.774 74.0015 723.304 74.0015C722.923 74.0015 722.589 74.103 722.301 74.3062C722.014 74.5093 721.789 74.7759 721.628 75.106V80H720.454V73.1318H721.565ZM728.738 73.1318L728.776 73.9951C729.301 73.335 729.986 73.0049 730.833 73.0049C732.284 73.0049 733.016 73.8237 733.029 75.4614V80H731.854V75.4551C731.85 74.96 731.736 74.5939 731.512 74.3569C731.292 74.12 730.947 74.0015 730.477 74.0015C730.096 74.0015 729.762 74.103 729.474 74.3062C729.186 74.5093 728.962 74.7759 728.801 75.106V80H727.627V73.1318H728.738ZM737.65 80.127C736.719 80.127 735.961 79.8223 735.377 79.2129C734.793 78.5993 734.501 77.7804 734.501 76.7563V76.5405C734.501 75.8592 734.631 75.252 734.889 74.7188C735.151 74.1813 735.515 73.7624 735.98 73.4619C736.45 73.1572 736.958 73.0049 737.504 73.0049C738.397 73.0049 739.091 73.299 739.586 73.8872C740.081 74.4754 740.329 75.3175 740.329 76.4136V76.9023H735.676C735.693 77.5794 735.889 78.1274 736.266 78.5464C736.647 78.9611 737.129 79.1685 737.713 79.1685C738.128 79.1685 738.479 79.0838 738.767 78.9146C739.055 78.7453 739.307 78.521 739.522 78.2417L740.24 78.8003C739.664 79.6847 738.801 80.127 737.65 80.127ZM737.504 73.9697C737.03 73.9697 736.632 74.1432 736.311 74.4902C735.989 74.833 735.79 75.3154 735.714 75.9375H739.154V75.8486C739.12 75.252 738.96 74.7907 738.672 74.4648C738.384 74.1348 737.995 73.9697 737.504 73.9697ZM745.013 74.1855C744.835 74.1559 744.643 74.1411 744.436 74.1411C743.665 74.1411 743.143 74.4691 742.868 75.125V80H741.693V73.1318H742.836L742.855 73.9253C743.24 73.3117 743.786 73.0049 744.493 73.0049C744.721 73.0049 744.895 73.0345 745.013 73.0938V74.1855ZM746.061 79.3843C746.061 79.1812 746.12 79.0119 746.238 78.8765C746.361 78.741 746.543 78.6733 746.784 78.6733C747.025 78.6733 747.207 78.741 747.33 78.8765C747.457 79.0119 747.521 79.1812 747.521 79.3843C747.521 79.5789 747.457 79.7419 747.33 79.873C747.207 80.0042 747.025 80.0698 746.784 80.0698C746.543 80.0698 746.361 80.0042 746.238 79.873C746.12 79.7419 746.061 79.5789 746.061 79.3843ZM746.067 73.7793C746.067 73.5762 746.126 73.4069 746.245 73.2715C746.367 73.1361 746.549 73.0684 746.791 73.0684C747.032 73.0684 747.214 73.1361 747.336 73.2715C747.463 73.4069 747.527 73.5762 747.527 73.7793C747.527 73.974 747.463 74.1369 747.336 74.2681C747.214 74.3993 747.032 74.4648 746.791 74.4648C746.549 74.4648 746.367 74.3993 746.245 74.2681C746.126 74.1369 746.067 73.974 746.067 73.7793Z" fill="#181732"/>
<path d="M713.688 96H712.082L707.962 89.4429V96H706.356V86.7578H707.962L712.094 93.3403V86.7578H713.688V96ZM715.147 92.5024C715.147 91.8296 715.281 91.2244 715.547 90.687C715.814 90.1453 716.188 89.7306 716.671 89.4429C717.153 89.1509 717.708 89.0049 718.334 89.0049C719.261 89.0049 720.012 89.3032 720.587 89.8999C721.167 90.4966 721.48 91.2879 721.527 92.2739L721.533 92.6357C721.533 93.3128 721.402 93.918 721.14 94.4512C720.882 94.9844 720.509 95.397 720.022 95.689C719.54 95.981 718.981 96.127 718.347 96.127C717.378 96.127 716.601 95.8053 716.017 95.1621C715.437 94.5146 715.147 93.6535 715.147 92.5786V92.5024ZM716.69 92.6357C716.69 93.3424 716.836 93.8968 717.128 94.2988C717.42 94.6966 717.826 94.8955 718.347 94.8955C718.867 94.8955 719.271 94.6924 719.559 94.2861C719.851 93.8799 719.997 93.2853 719.997 92.5024C719.997 91.8084 719.847 91.2583 719.546 90.8521C719.25 90.4458 718.846 90.2427 718.334 90.2427C717.83 90.2427 717.431 90.4437 717.134 90.8457C716.838 91.2435 716.69 91.8402 716.69 92.6357ZM722.549 92.5151C722.549 91.4572 722.794 90.6087 723.285 89.9697C723.776 89.3265 724.434 89.0049 725.259 89.0049C725.987 89.0049 726.575 89.2588 727.024 89.7666V86.25H728.566V96H727.17L727.094 95.2891C726.632 95.8477 726.017 96.127 725.247 96.127C724.443 96.127 723.791 95.8032 723.292 95.1558C722.796 94.5083 722.549 93.6281 722.549 92.5151ZM724.091 92.6484C724.091 93.3467 724.225 93.8926 724.491 94.2861C724.762 94.6755 725.145 94.8701 725.64 94.8701C726.271 94.8701 726.732 94.5887 727.024 94.0259V91.0933C726.74 90.5431 726.283 90.2681 725.653 90.2681C725.153 90.2681 724.768 90.467 724.498 90.8647C724.227 91.2583 724.091 91.8529 724.091 92.6484ZM733.2 96.127C732.223 96.127 731.429 95.8201 730.82 95.2065C730.215 94.5887 729.912 93.7677 729.912 92.7437V92.5532C729.912 91.8677 730.043 91.2562 730.306 90.7188C730.572 90.1771 730.945 89.756 731.423 89.4556C731.901 89.1551 732.434 89.0049 733.022 89.0049C733.958 89.0049 734.679 89.3032 735.187 89.8999C735.699 90.4966 735.955 91.3408 735.955 92.4326V93.0547H731.467C731.514 93.6217 731.702 94.0703 732.032 94.4004C732.367 94.7305 732.785 94.8955 733.289 94.8955C733.996 94.8955 734.571 94.6099 735.016 94.0386L735.847 94.832C735.572 95.2425 735.204 95.562 734.743 95.7905C734.286 96.0148 733.771 96.127 733.2 96.127ZM733.016 90.2427C732.593 90.2427 732.25 90.3908 731.988 90.687C731.73 90.9832 731.565 91.3958 731.493 91.9248H734.432V91.8105C734.398 91.2943 734.26 90.9049 734.019 90.6426C733.778 90.376 733.444 90.2427 733.016 90.2427ZM743.198 92.0073L742.15 93.1182V96H740.544V86.7578H742.15V91.0933L743.039 89.9951L745.743 86.7578H747.686L744.251 90.8521L747.882 96H745.978L743.198 92.0073Z" fill="#0F38E2"/>
<path d="M288.506 98.667H287.281L282.628 91.5449V98.667H281.403V89.4248H282.628L287.294 96.5786V89.4248H288.506V98.667ZM290.176 95.1694C290.176 94.4966 290.307 93.8914 290.569 93.354C290.836 92.8166 291.204 92.4019 291.674 92.1099C292.148 91.8179 292.687 91.6719 293.292 91.6719C294.228 91.6719 294.983 91.9956 295.559 92.6431C296.138 93.2905 296.428 94.1517 296.428 95.2266V95.3091C296.428 95.9777 296.299 96.5786 296.041 97.1118C295.787 97.6408 295.421 98.0534 294.943 98.3496C294.469 98.6458 293.923 98.7939 293.305 98.7939C292.374 98.7939 291.619 98.4702 291.039 97.8228C290.464 97.1753 290.176 96.3184 290.176 95.252V95.1694ZM291.356 95.3091C291.356 96.0708 291.532 96.6823 291.883 97.1436C292.239 97.6048 292.713 97.8354 293.305 97.8354C293.902 97.8354 294.376 97.6027 294.727 97.1372C295.078 96.6675 295.254 96.0116 295.254 95.1694C295.254 94.4162 295.074 93.8068 294.714 93.3413C294.359 92.8716 293.885 92.6367 293.292 92.6367C292.713 92.6367 292.245 92.8674 291.89 93.3286C291.534 93.7899 291.356 94.45 291.356 95.3091ZM297.615 95.1758C297.615 94.1221 297.865 93.2757 298.364 92.6367C298.864 91.9935 299.517 91.6719 300.326 91.6719C301.13 91.6719 301.767 91.9469 302.236 92.4971V88.917H303.411V98.667H302.332L302.274 97.9307C301.805 98.5062 301.151 98.7939 300.313 98.7939C299.517 98.7939 298.868 98.4681 298.364 97.8164C297.865 97.1647 297.615 96.3141 297.615 95.2646V95.1758ZM298.79 95.3091C298.79 96.0877 298.95 96.6971 299.272 97.1372C299.594 97.5773 300.038 97.7974 300.605 97.7974C301.35 97.7974 301.894 97.4631 302.236 96.7944V93.6396C301.885 92.9922 301.346 92.6685 300.618 92.6685C300.042 92.6685 299.594 92.8906 299.272 93.335C298.95 93.7793 298.79 94.4373 298.79 95.3091ZM308.089 98.7939C307.158 98.7939 306.4 98.4893 305.816 97.8799C305.232 97.2663 304.94 96.4474 304.94 95.4233V95.2075C304.94 94.5262 305.069 93.9189 305.328 93.3857C305.59 92.8483 305.954 92.4294 306.419 92.1289C306.889 91.8242 307.397 91.6719 307.943 91.6719C308.836 91.6719 309.53 91.966 310.025 92.5542C310.52 93.1424 310.768 93.9845 310.768 95.0806V95.5693H306.115C306.132 96.2464 306.328 96.7944 306.705 97.2134C307.086 97.6281 307.568 97.8354 308.152 97.8354C308.567 97.8354 308.918 97.7508 309.206 97.5815C309.494 97.4123 309.746 97.188 309.961 96.9087L310.679 97.4673C310.103 98.3517 309.24 98.7939 308.089 98.7939ZM307.943 92.6367C307.469 92.6367 307.071 92.8102 306.75 93.1572C306.428 93.5 306.229 93.9824 306.153 94.6045H309.593V94.5156C309.559 93.9189 309.399 93.4577 309.111 93.1318C308.823 92.8018 308.434 92.6367 307.943 92.6367ZM317.89 94.3696L316.76 95.5439V98.667H315.541V89.4248H316.76V93.9951L320.867 89.4248H322.339L318.702 93.5063L322.625 98.667H321.165L317.89 94.3696Z" fill="#181732"/>
<path d="M288.506 122.667H287.281L282.628 115.545V122.667H281.403V113.425H282.628L287.294 120.579V113.425H288.506V122.667ZM290.176 119.169C290.176 118.497 290.307 117.891 290.569 117.354C290.836 116.817 291.204 116.402 291.674 116.11C292.148 115.818 292.687 115.672 293.292 115.672C294.228 115.672 294.983 115.996 295.559 116.643C296.138 117.291 296.428 118.152 296.428 119.227V119.309C296.428 119.978 296.299 120.579 296.041 121.112C295.787 121.641 295.421 122.053 294.943 122.35C294.469 122.646 293.923 122.794 293.305 122.794C292.374 122.794 291.619 122.47 291.039 121.823C290.464 121.175 290.176 120.318 290.176 119.252V119.169ZM291.356 119.309C291.356 120.071 291.532 120.682 291.883 121.144C292.239 121.605 292.713 121.835 293.305 121.835C293.902 121.835 294.376 121.603 294.727 121.137C295.078 120.667 295.254 120.012 295.254 119.169C295.254 118.416 295.074 117.807 294.714 117.341C294.359 116.872 293.885 116.637 293.292 116.637C292.713 116.637 292.245 116.867 291.89 117.329C291.534 117.79 291.356 118.45 291.356 119.309ZM297.615 119.176C297.615 118.122 297.865 117.276 298.364 116.637C298.864 115.993 299.517 115.672 300.326 115.672C301.13 115.672 301.767 115.947 302.236 116.497V112.917H303.411V122.667H302.332L302.274 121.931C301.805 122.506 301.151 122.794 300.313 122.794C299.517 122.794 298.868 122.468 298.364 121.816C297.865 121.165 297.615 120.314 297.615 119.265V119.176ZM298.79 119.309C298.79 120.088 298.95 120.697 299.272 121.137C299.594 121.577 300.038 121.797 300.605 121.797C301.35 121.797 301.894 121.463 302.236 120.794V117.64C301.885 116.992 301.346 116.668 300.618 116.668C300.042 116.668 299.594 116.891 299.272 117.335C298.95 117.779 298.79 118.437 298.79 119.309ZM308.089 122.794C307.158 122.794 306.4 122.489 305.816 121.88C305.232 121.266 304.94 120.447 304.94 119.423V119.208C304.94 118.526 305.069 117.919 305.328 117.386C305.59 116.848 305.954 116.429 306.419 116.129C306.889 115.824 307.397 115.672 307.943 115.672C308.836 115.672 309.53 115.966 310.025 116.554C310.52 117.142 310.768 117.985 310.768 119.081V119.569H306.115C306.132 120.246 306.328 120.794 306.705 121.213C307.086 121.628 307.568 121.835 308.152 121.835C308.567 121.835 308.918 121.751 309.206 121.582C309.494 121.412 309.746 121.188 309.961 120.909L310.679 121.467C310.103 122.352 309.24 122.794 308.089 122.794ZM307.943 116.637C307.469 116.637 307.071 116.81 306.75 117.157C306.428 117.5 306.229 117.982 306.153 118.604H309.593V118.516C309.559 117.919 309.399 117.458 309.111 117.132C308.823 116.802 308.434 116.637 307.943 116.637ZM317.89 118.37L316.76 119.544V122.667H315.541V113.425H316.76V117.995L320.867 113.425H322.339L318.702 117.506L322.625 122.667H321.165L317.89 118.37Z" fill="#181732"/>
<path d="M288.506 146.667H287.281L282.628 139.545V146.667H281.403V137.425H282.628L287.294 144.579V137.425H288.506V146.667ZM290.176 143.169C290.176 142.497 290.307 141.891 290.569 141.354C290.836 140.817 291.204 140.402 291.674 140.11C292.148 139.818 292.687 139.672 293.292 139.672C294.228 139.672 294.983 139.996 295.559 140.643C296.138 141.291 296.428 142.152 296.428 143.227V143.309C296.428 143.978 296.299 144.579 296.041 145.112C295.787 145.641 295.421 146.053 294.943 146.35C294.469 146.646 293.923 146.794 293.305 146.794C292.374 146.794 291.619 146.47 291.039 145.823C290.464 145.175 290.176 144.318 290.176 143.252V143.169ZM291.356 143.309C291.356 144.071 291.532 144.682 291.883 145.144C292.239 145.605 292.713 145.835 293.305 145.835C293.902 145.835 294.376 145.603 294.727 145.137C295.078 144.667 295.254 144.012 295.254 143.169C295.254 142.416 295.074 141.807 294.714 141.341C294.359 140.872 293.885 140.637 293.292 140.637C292.713 140.637 292.245 140.867 291.89 141.329C291.534 141.79 291.356 142.45 291.356 143.309ZM297.615 143.176C297.615 142.122 297.865 141.276 298.364 140.637C298.864 139.993 299.517 139.672 300.326 139.672C301.13 139.672 301.767 139.947 302.236 140.497V136.917H303.411V146.667H302.332L302.274 145.931C301.805 146.506 301.151 146.794 300.313 146.794C299.517 146.794 298.868 146.468 298.364 145.816C297.865 145.165 297.615 144.314 297.615 143.265V143.176ZM298.79 143.309C298.79 144.088 298.95 144.697 299.272 145.137C299.594 145.577 300.038 145.797 300.605 145.797C301.35 145.797 301.894 145.463 302.236 144.794V141.64C301.885 140.992 301.346 140.668 300.618 140.668C300.042 140.668 299.594 140.891 299.272 141.335C298.95 141.779 298.79 142.437 298.79 143.309ZM308.089 146.794C307.158 146.794 306.4 146.489 305.816 145.88C305.232 145.266 304.94 144.447 304.94 143.423V143.208C304.94 142.526 305.069 141.919 305.328 141.386C305.59 140.848 305.954 140.429 306.419 140.129C306.889 139.824 307.397 139.672 307.943 139.672C308.836 139.672 309.53 139.966 310.025 140.554C310.52 141.142 310.768 141.985 310.768 143.081V143.569H306.115C306.132 144.246 306.328 144.794 306.705 145.213C307.086 145.628 307.568 145.835 308.152 145.835C308.567 145.835 308.918 145.751 309.206 145.582C309.494 145.412 309.746 145.188 309.961 144.909L310.679 145.467C310.103 146.352 309.24 146.794 308.089 146.794ZM307.943 140.637C307.469 140.637 307.071 140.81 306.75 141.157C306.428 141.5 306.229 141.982 306.153 142.604H309.593V142.516C309.559 141.919 309.399 141.458 309.111 141.132C308.823 140.802 308.434 140.637 307.943 140.637ZM317.89 142.37L316.76 143.544V146.667H315.541V137.425H316.76V141.995L320.867 137.425H322.339L318.702 141.506L322.625 146.667H321.165L317.89 142.37Z" fill="#181732"/>
<path d="M25.3657 82.667H24.1406L19.4878 75.5449V82.667H18.2627V73.4248H19.4878L24.1533 80.5786V73.4248H25.3657V82.667ZM27.0352 79.1694C27.0352 78.4966 27.1663 77.8914 27.4287 77.354C27.6953 76.8166 28.0635 76.4019 28.5332 76.1099C29.0072 75.8179 29.5467 75.6719 30.1519 75.6719C31.0871 75.6719 31.8424 75.9956 32.418 76.6431C32.9977 77.2905 33.2876 78.1517 33.2876 79.2266V79.3091C33.2876 79.9777 33.1585 80.5786 32.9004 81.1118C32.6465 81.6408 32.2804 82.0534 31.8022 82.3496C31.3283 82.6458 30.7824 82.7939 30.1646 82.7939C29.2336 82.7939 28.4782 82.4702 27.8984 81.8228C27.3229 81.1753 27.0352 80.3184 27.0352 79.252V79.1694ZM28.2158 79.3091C28.2158 80.0708 28.3914 80.6823 28.7427 81.1436C29.0981 81.6048 29.5721 81.8354 30.1646 81.8354C30.7612 81.8354 31.2352 81.6027 31.5864 81.1372C31.9377 80.6675 32.1133 80.0116 32.1133 79.1694C32.1133 78.4162 31.9334 77.8068 31.5737 77.3413C31.2183 76.8716 30.7443 76.6367 30.1519 76.6367C29.5721 76.6367 29.1045 76.8674 28.749 77.3286C28.3936 77.7899 28.2158 78.45 28.2158 79.3091ZM34.4746 79.1758C34.4746 78.1221 34.7243 77.2757 35.2236 76.6367C35.723 75.9935 36.3768 75.6719 37.1851 75.6719C37.9891 75.6719 38.626 75.9469 39.0957 76.4971V72.917H40.27V82.667H39.1909L39.1338 81.9307C38.6641 82.5062 38.0103 82.7939 37.1724 82.7939C36.3768 82.7939 35.7272 82.4681 35.2236 81.8164C34.7243 81.1647 34.4746 80.3141 34.4746 79.2646V79.1758ZM35.6489 79.3091C35.6489 80.0877 35.8097 80.6971 36.1313 81.1372C36.453 81.5773 36.8973 81.7974 37.4644 81.7974C38.2091 81.7974 38.7529 81.4631 39.0957 80.7944V77.6396C38.7445 76.9922 38.2049 76.6685 37.4771 76.6685C36.9015 76.6685 36.453 76.8906 36.1313 77.335C35.8097 77.7793 35.6489 78.4373 35.6489 79.3091ZM44.9482 82.7939C44.0173 82.7939 43.2598 82.4893 42.6758 81.8799C42.0918 81.2663 41.7998 80.4474 41.7998 79.4233V79.2075C41.7998 78.5262 41.9289 77.9189 42.187 77.3857C42.4494 76.8483 42.8133 76.4294 43.2788 76.1289C43.7485 75.8242 44.2563 75.6719 44.8022 75.6719C45.6951 75.6719 46.3892 75.966 46.8843 76.5542C47.3794 77.1424 47.627 77.9845 47.627 79.0806V79.5693H42.9741C42.991 80.2464 43.1878 80.7944 43.5645 81.2134C43.9453 81.6281 44.4277 81.8354 45.0117 81.8354C45.4264 81.8354 45.7777 81.7508 46.0654 81.5815C46.3532 81.4123 46.605 81.188 46.8208 80.9087L47.5381 81.4673C46.9626 82.3517 46.0993 82.7939 44.9482 82.7939ZM44.8022 76.6367C44.3283 76.6367 43.9305 76.8102 43.6089 77.1572C43.2873 77.5 43.0884 77.9824 43.0122 78.6045H46.4526V78.5156C46.4188 77.9189 46.258 77.4577 45.9702 77.1318C45.6825 76.8018 45.2931 76.6367 44.8022 76.6367ZM52.4004 82.667V73.4248H55.4219C56.4248 73.4248 57.1781 73.6322 57.6816 74.0469C58.1895 74.4616 58.4434 75.0752 58.4434 75.8877C58.4434 76.3193 58.3206 76.7023 58.0752 77.0366C57.8298 77.3667 57.4954 77.6227 57.0723 77.8047C57.5716 77.9443 57.9652 78.2109 58.2529 78.6045C58.5449 78.9938 58.6909 79.4593 58.6909 80.001C58.6909 80.8304 58.4222 81.4821 57.8848 81.9561C57.3473 82.43 56.5877 82.667 55.606 82.667H52.4004ZM53.6191 78.3442V81.6704H55.6313C56.1984 81.6704 56.6449 81.5244 56.9707 81.2324C57.3008 80.9362 57.4658 80.5299 57.4658 80.0137C57.4658 78.9007 56.8607 78.3442 55.6504 78.3442H53.6191ZM53.6191 77.3667H55.46C55.9932 77.3667 56.4185 77.2334 56.7358 76.9668C57.0575 76.7002 57.2183 76.3384 57.2183 75.8813C57.2183 75.3735 57.0701 75.0054 56.7739 74.7769C56.4777 74.5441 56.027 74.4277 55.4219 74.4277H53.6191V77.3667ZM63.4961 78.9155C63.4961 77.9591 63.623 77.0409 63.877 76.1606C64.1351 75.2804 64.5181 74.4806 65.0259 73.7612C65.5337 73.0418 66.0605 72.534 66.6064 72.2378L66.8477 73.0122C66.2298 73.4862 65.722 74.2098 65.3242 75.1831C64.9307 76.1564 64.7148 77.2461 64.6768 78.4521L64.6704 78.9917C64.6704 80.6252 64.9688 82.0428 65.5654 83.2446C65.9251 83.964 66.3525 84.5269 66.8477 84.9331L66.6064 85.6504C66.0436 85.3372 65.5062 84.8125 64.9941 84.0762C63.9954 82.6374 63.4961 80.9172 63.4961 78.9155ZM71.7227 82.667H70.542V74.8403L68.1743 75.71V74.6436L71.5386 73.3804H71.7227V82.667ZM80.1016 74.1357V75.7988H81.3838V76.7065H80.1016V80.9658C80.1016 81.2409 80.1587 81.4482 80.2729 81.5879C80.3872 81.7233 80.5819 81.791 80.8569 81.791C80.9924 81.791 81.1785 81.7656 81.4155 81.7148V82.667C81.1066 82.7516 80.8062 82.7939 80.5142 82.7939C79.9894 82.7939 79.5938 82.6353 79.3271 82.3179C79.0605 82.0005 78.9272 81.5498 78.9272 80.9658V76.7065H77.6768V75.7988H78.9272V74.1357H80.1016ZM82.3232 79.1694C82.3232 78.4966 82.4544 77.8914 82.7168 77.354C82.9834 76.8166 83.3516 76.4019 83.8213 76.1099C84.2952 75.8179 84.8348 75.6719 85.4399 75.6719C86.3752 75.6719 87.1305 75.9956 87.7061 76.6431C88.2858 77.2905 88.5757 78.1517 88.5757 79.2266V79.3091C88.5757 79.9777 88.4466 80.5786 88.1885 81.1118C87.9346 81.6408 87.5685 82.0534 87.0903 82.3496C86.6164 82.6458 86.0705 82.7939 85.4526 82.7939C84.5216 82.7939 83.7663 82.4702 83.1865 81.8228C82.611 81.1753 82.3232 80.3184 82.3232 79.252V79.1694ZM83.5039 79.3091C83.5039 80.0708 83.6795 80.6823 84.0308 81.1436C84.3862 81.6048 84.8602 81.8354 85.4526 81.8354C86.0493 81.8354 86.5233 81.6027 86.8745 81.1372C87.2257 80.6675 87.4014 80.0116 87.4014 79.1694C87.4014 78.4162 87.2215 77.8068 86.8618 77.3413C86.5063 76.8716 86.0324 76.6367 85.4399 76.6367C84.8602 76.6367 84.3926 76.8674 84.0371 77.3286C83.6816 77.7899 83.5039 78.45 83.5039 79.3091ZM91.9653 79.4868L91.229 80.2549V82.667H90.0547V72.917H91.229V78.814L91.8574 78.0586L93.9966 75.7988H95.4248L92.7524 78.668L95.7358 82.667H94.3584L91.9653 79.4868ZM99.3604 82.7939C98.4294 82.7939 97.6719 82.4893 97.0879 81.8799C96.5039 81.2663 96.2119 80.4474 96.2119 79.4233V79.2075C96.2119 78.5262 96.341 77.9189 96.5991 77.3857C96.8615 76.8483 97.2254 76.4294 97.6909 76.1289C98.1606 75.8242 98.6685 75.6719 99.2144 75.6719C100.107 75.6719 100.801 75.966 101.296 76.5542C101.792 77.1424 102.039 77.9845 102.039 79.0806V79.5693H97.3862C97.4032 80.2464 97.5999 80.7944 97.9766 81.2134C98.3574 81.6281 98.8398 81.8354 99.4238 81.8354C99.8385 81.8354 100.19 81.7508 100.478 81.5815C100.765 81.4123 101.017 81.188 101.233 80.9087L101.95 81.4673C101.375 82.3517 100.511 82.7939 99.3604 82.7939ZM99.2144 76.6367C98.7404 76.6367 98.3426 76.8102 98.021 77.1572C97.6994 77.5 97.5005 77.9824 97.4243 78.6045H100.865V78.5156C100.831 77.9189 100.67 77.4577 100.382 77.1318C100.095 76.8018 99.7052 76.6367 99.2144 76.6367ZM104.515 75.7988L104.553 76.6621C105.077 76.002 105.763 75.6719 106.609 75.6719C108.061 75.6719 108.793 76.4907 108.806 78.1284V82.667H107.631V78.1221C107.627 77.627 107.513 77.2609 107.289 77.0239C107.069 76.7869 106.724 76.6685 106.254 76.6685C105.873 76.6685 105.539 76.77 105.251 76.9731C104.963 77.1763 104.739 77.4429 104.578 77.7729V82.667H103.404V75.7988H104.515ZM113.287 78.979C113.287 79.9227 113.162 80.8283 112.913 81.6958C112.667 82.5591 112.288 83.3568 111.776 84.0889C111.269 84.821 110.735 85.3415 110.177 85.6504L109.929 84.9331C110.581 84.4338 111.104 83.6593 111.497 82.6099C111.895 81.5562 112.098 80.3882 112.106 79.106V78.9028C112.106 78.0142 112.013 77.189 111.827 76.4272C111.641 75.6613 111.381 74.9757 111.046 74.3706C110.716 73.7655 110.344 73.2936 109.929 72.9551L110.177 72.2378C110.735 72.5467 111.266 73.063 111.77 73.7866C112.278 74.5103 112.657 75.3079 112.906 76.1797C113.16 77.0514 113.287 77.9845 113.287 78.979Z" fill="#181732"/>
<path d="M25.3657 106.667H24.1406L19.4878 99.5449V106.667H18.2627V97.4248H19.4878L24.1533 104.579V97.4248H25.3657V106.667ZM27.0352 103.169C27.0352 102.497 27.1663 101.891 27.4287 101.354C27.6953 100.817 28.0635 100.402 28.5332 100.11C29.0072 99.8179 29.5467 99.6719 30.1519 99.6719C31.0871 99.6719 31.8424 99.9956 32.418 100.643C32.9977 101.291 33.2876 102.152 33.2876 103.227V103.309C33.2876 103.978 33.1585 104.579 32.9004 105.112C32.6465 105.641 32.2804 106.053 31.8022 106.35C31.3283 106.646 30.7824 106.794 30.1646 106.794C29.2336 106.794 28.4782 106.47 27.8984 105.823C27.3229 105.175 27.0352 104.318 27.0352 103.252V103.169ZM28.2158 103.309C28.2158 104.071 28.3914 104.682 28.7427 105.144C29.0981 105.605 29.5721 105.835 30.1646 105.835C30.7612 105.835 31.2352 105.603 31.5864 105.137C31.9377 104.667 32.1133 104.012 32.1133 103.169C32.1133 102.416 31.9334 101.807 31.5737 101.341C31.2183 100.872 30.7443 100.637 30.1519 100.637C29.5721 100.637 29.1045 100.867 28.749 101.329C28.3936 101.79 28.2158 102.45 28.2158 103.309ZM34.4746 103.176C34.4746 102.122 34.7243 101.276 35.2236 100.637C35.723 99.9935 36.3768 99.6719 37.1851 99.6719C37.9891 99.6719 38.626 99.9469 39.0957 100.497V96.917H40.27V106.667H39.1909L39.1338 105.931C38.6641 106.506 38.0103 106.794 37.1724 106.794C36.3768 106.794 35.7272 106.468 35.2236 105.816C34.7243 105.165 34.4746 104.314 34.4746 103.265V103.176ZM35.6489 103.309C35.6489 104.088 35.8097 104.697 36.1313 105.137C36.453 105.577 36.8973 105.797 37.4644 105.797C38.2091 105.797 38.7529 105.463 39.0957 104.794V101.64C38.7445 100.992 38.2049 100.668 37.4771 100.668C36.9015 100.668 36.453 100.891 36.1313 101.335C35.8097 101.779 35.6489 102.437 35.6489 103.309ZM44.9482 106.794C44.0173 106.794 43.2598 106.489 42.6758 105.88C42.0918 105.266 41.7998 104.447 41.7998 103.423V103.208C41.7998 102.526 41.9289 101.919 42.187 101.386C42.4494 100.848 42.8133 100.429 43.2788 100.129C43.7485 99.8242 44.2563 99.6719 44.8022 99.6719C45.6951 99.6719 46.3892 99.966 46.8843 100.554C47.3794 101.142 47.627 101.985 47.627 103.081V103.569H42.9741C42.991 104.246 43.1878 104.794 43.5645 105.213C43.9453 105.628 44.4277 105.835 45.0117 105.835C45.4264 105.835 45.7777 105.751 46.0654 105.582C46.3532 105.412 46.605 105.188 46.8208 104.909L47.5381 105.467C46.9626 106.352 46.0993 106.794 44.9482 106.794ZM44.8022 100.637C44.3283 100.637 43.9305 100.81 43.6089 101.157C43.2873 101.5 43.0884 101.982 43.0122 102.604H46.4526V102.516C46.4188 101.919 46.258 101.458 45.9702 101.132C45.6825 100.802 45.2931 100.637 44.8022 100.637ZM54.749 102.37L53.6191 103.544V106.667H52.4004V97.4248H53.6191V101.995L57.7261 97.4248H59.1987L55.5615 101.506L59.4844 106.667H58.0244L54.749 102.37ZM63.5469 102.916C63.5469 101.959 63.6738 101.041 63.9277 100.161C64.1859 99.2804 64.5688 98.4806 65.0767 97.7612C65.5845 97.0418 66.1113 96.534 66.6572 96.2378L66.8984 97.0122C66.2806 97.4862 65.7728 98.2098 65.375 99.1831C64.9814 100.156 64.7656 101.246 64.7275 102.452L64.7212 102.992C64.7212 104.625 65.0195 106.043 65.6162 107.245C65.9759 107.964 66.4033 108.527 66.8984 108.933L66.6572 109.65C66.0944 109.337 65.557 108.812 65.0449 108.076C64.0462 106.637 63.5469 104.917 63.5469 102.916ZM68.4536 102.033L68.9233 97.4248H73.6587V98.5103H69.9199L69.6406 101.03C70.0934 100.764 70.6076 100.63 71.1831 100.63C72.0252 100.63 72.6938 100.91 73.189 101.468C73.6841 102.023 73.9316 102.774 73.9316 103.722C73.9316 104.674 73.6735 105.425 73.1572 105.975C72.6452 106.521 71.9279 106.794 71.0054 106.794C70.1886 106.794 69.5221 106.568 69.0059 106.115C68.4896 105.662 68.1955 105.036 68.1235 104.236H69.2344C69.3063 104.765 69.4946 105.165 69.7993 105.436C70.104 105.702 70.506 105.835 71.0054 105.835C71.5513 105.835 71.9787 105.649 72.2876 105.277C72.6007 104.904 72.7573 104.39 72.7573 103.734C72.7573 103.117 72.5881 102.621 72.2495 102.249C71.9152 101.872 71.4688 101.684 70.9102 101.684C70.3981 101.684 69.9961 101.796 69.7041 102.021L69.3931 102.274L68.4536 102.033ZM81.0093 102.725C81.0093 104.1 80.7744 105.122 80.3047 105.791C79.835 106.46 79.1007 106.794 78.1021 106.794C77.116 106.794 76.3861 106.468 75.9121 105.816C75.4382 105.16 75.1927 104.183 75.1758 102.884V101.316C75.1758 99.9575 75.4106 98.9482 75.8804 98.2881C76.3501 97.6279 77.0864 97.2979 78.0894 97.2979C79.0838 97.2979 79.8159 97.6174 80.2856 98.2563C80.7554 98.8911 80.9966 99.8729 81.0093 101.202V102.725ZM79.835 101.119C79.835 100.125 79.6953 99.401 79.416 98.9482C79.1367 98.4912 78.6945 98.2627 78.0894 98.2627C77.4884 98.2627 77.0505 98.4891 76.7754 98.9419C76.5003 99.3947 76.3586 100.091 76.3501 101.03V102.909C76.3501 103.908 76.494 104.646 76.7817 105.125C77.0737 105.598 77.5138 105.835 78.1021 105.835C78.6818 105.835 79.1113 105.611 79.3906 105.163C79.6742 104.714 79.8223 104.007 79.835 103.042V101.119ZM87.4521 98.1357V99.7988H88.7344V100.707H87.4521V104.966C87.4521 105.241 87.5093 105.448 87.6235 105.588C87.7378 105.723 87.9325 105.791 88.2075 105.791C88.3429 105.791 88.5291 105.766 88.7661 105.715V106.667C88.4572 106.752 88.1567 106.794 87.8647 106.794C87.34 106.794 86.9443 106.635 86.6777 106.318C86.4111 106 86.2778 105.55 86.2778 104.966V100.707H85.0273V99.7988H86.2778V98.1357H87.4521ZM89.6738 103.169C89.6738 102.497 89.805 101.891 90.0674 101.354C90.334 100.817 90.7021 100.402 91.1719 100.11C91.6458 99.8179 92.1854 99.6719 92.7905 99.6719C93.7257 99.6719 94.4811 99.9956 95.0566 100.643C95.6364 101.291 95.9263 102.152 95.9263 103.227V103.309C95.9263 103.978 95.7972 104.579 95.5391 105.112C95.2852 105.641 94.9191 106.053 94.4409 106.35C93.967 106.646 93.4211 106.794 92.8032 106.794C91.8722 106.794 91.1169 106.47 90.5371 105.823C89.9616 105.175 89.6738 104.318 89.6738 103.252V103.169ZM90.8545 103.309C90.8545 104.071 91.0301 104.682 91.3813 105.144C91.7368 105.605 92.2108 105.835 92.8032 105.835C93.3999 105.835 93.8739 105.603 94.2251 105.137C94.5763 104.667 94.752 104.012 94.752 103.169C94.752 102.416 94.5721 101.807 94.2124 101.341C93.8569 100.872 93.383 100.637 92.7905 100.637C92.2108 100.637 91.7432 100.867 91.3877 101.329C91.0322 101.79 90.8545 102.45 90.8545 103.309ZM99.3159 103.487L98.5796 104.255V106.667H97.4053V96.917H98.5796V102.814L99.208 102.059L101.347 99.7988H102.775L100.103 102.668L103.086 106.667H101.709L99.3159 103.487ZM106.711 106.794C105.78 106.794 105.022 106.489 104.438 105.88C103.854 105.266 103.562 104.447 103.562 103.423V103.208C103.562 102.526 103.692 101.919 103.95 101.386C104.212 100.848 104.576 100.429 105.042 100.129C105.511 99.8242 106.019 99.6719 106.565 99.6719C107.458 99.6719 108.152 99.966 108.647 100.554C109.142 101.142 109.39 101.985 109.39 103.081V103.569H104.737C104.754 104.246 104.951 104.794 105.327 105.213C105.708 105.628 106.19 105.835 106.774 105.835C107.189 105.835 107.54 105.751 107.828 105.582C108.116 105.412 108.368 105.188 108.583 104.909L109.301 105.467C108.725 106.352 107.862 106.794 106.711 106.794ZM106.565 100.637C106.091 100.637 105.693 100.81 105.372 101.157C105.05 101.5 104.851 101.982 104.775 102.604H108.215V102.516C108.181 101.919 108.021 101.458 107.733 101.132C107.445 100.802 107.056 100.637 106.565 100.637ZM111.865 99.7988L111.903 100.662C112.428 100.002 113.114 99.6719 113.96 99.6719C115.411 99.6719 116.144 100.491 116.156 102.128V106.667H114.982V102.122C114.978 101.627 114.863 101.261 114.639 101.024C114.419 100.787 114.074 100.668 113.604 100.668C113.224 100.668 112.889 100.77 112.602 100.973C112.314 101.176 112.09 101.443 111.929 101.773V106.667H110.754V99.7988H111.865ZM121.926 104.845C121.926 104.528 121.806 104.282 121.564 104.109C121.327 103.931 120.911 103.779 120.314 103.652C119.722 103.525 119.25 103.373 118.898 103.195C118.551 103.017 118.293 102.806 118.124 102.56C117.959 102.315 117.876 102.023 117.876 101.684C117.876 101.121 118.113 100.645 118.587 100.256C119.066 99.8665 119.675 99.6719 120.416 99.6719C121.194 99.6719 121.825 99.8729 122.307 100.275C122.794 100.677 123.037 101.191 123.037 101.817H121.856C121.856 101.496 121.719 101.219 121.444 100.986C121.173 100.753 120.83 100.637 120.416 100.637C119.988 100.637 119.654 100.73 119.413 100.916C119.171 101.102 119.051 101.346 119.051 101.646C119.051 101.93 119.163 102.143 119.387 102.287C119.611 102.431 120.016 102.569 120.6 102.7C121.188 102.831 121.664 102.987 122.028 103.169C122.392 103.351 122.66 103.571 122.834 103.83C123.012 104.083 123.101 104.395 123.101 104.763C123.101 105.376 122.855 105.869 122.364 106.242C121.873 106.61 121.236 106.794 120.454 106.794C119.903 106.794 119.417 106.697 118.994 106.502C118.57 106.307 118.238 106.036 117.997 105.689C117.76 105.338 117.642 104.959 117.642 104.553H118.816C118.837 104.947 118.994 105.26 119.286 105.493C119.582 105.721 119.971 105.835 120.454 105.835C120.898 105.835 121.253 105.747 121.52 105.569C121.791 105.387 121.926 105.146 121.926 104.845ZM127.341 102.979C127.341 103.923 127.216 104.828 126.966 105.696C126.721 106.559 126.342 107.357 125.83 108.089C125.322 108.821 124.789 109.341 124.23 109.65L123.983 108.933C124.635 108.434 125.157 107.659 125.551 106.61C125.949 105.556 126.152 104.388 126.16 103.106V102.903C126.16 102.014 126.067 101.189 125.881 100.427C125.695 99.6613 125.434 98.9757 125.1 98.3706C124.77 97.7655 124.398 97.2936 123.983 96.9551L124.23 96.2378C124.789 96.5467 125.32 97.063 125.824 97.7866C126.332 98.5103 126.71 99.3079 126.96 100.18C127.214 101.051 127.341 101.985 127.341 102.979Z" fill="#181732"/>
<rect opacity="0.1" x="1" y="14.333" width="156.678" height="131.333" rx="5" stroke="#0F38E2" stroke-width="2"/>
<rect opacity="0.1" x="239.017" y="1" width="130.231" height="158" rx="5" stroke="#0F38E2" stroke-width="2"/>
<path d="M178.512 79C177.96 79 177.512 79.4477 177.512 80C177.512 80.5523 177.96 81 178.512 81V79ZM218.889 80.7071C219.279 80.3166 219.279 79.6834 218.889 79.2929L212.525 72.9289C212.134 72.5384 211.501 72.5384 211.111 72.9289C210.72 73.3195 210.72 73.9526 211.111 74.3431L216.767 80L211.111 85.6569C210.72 86.0474 210.72 86.6805 211.111 87.0711C211.501 87.4616 212.134 87.4616 212.525 87.0711L218.889 80.7071ZM178.512 81H218.182V79H178.512V81Z" fill="#0F38E2"/>
<path d="M390.083 79C389.53 79 389.083 79.4477 389.083 80C389.083 80.5523 389.53 81 390.083 81V79ZM430.459 80.7071C430.85 80.3166 430.85 79.6834 430.459 79.2929L424.095 72.9289C423.705 72.5384 423.071 72.5384 422.681 72.9289C422.29 73.3195 422.29 73.9526 422.681 74.3431L428.338 80L422.681 85.6569C422.29 86.0474 422.29 86.6805 422.681 87.0711C423.071 87.4616 423.705 87.4616 424.095 87.0711L430.459 80.7071ZM390.083 81H429.752V79H390.083V81Z" fill="#0F38E2"/>
<path d="M601.653 79C601.101 79 600.653 79.4477 600.653 80C600.653 80.5523 601.101 81 601.653 81V79ZM642.029 80.7071C642.42 80.3166 642.42 79.6834 642.029 79.2929L635.665 72.9289C635.275 72.5384 634.642 72.5384 634.251 72.9289C633.861 73.3195 633.861 73.9526 634.251 74.3431L639.908 80L634.251 85.6569C633.861 86.0474 633.861 86.6805 634.251 87.0711C634.642 87.4616 635.275 87.4616 635.665 87.0711L642.029 80.7071ZM601.653 81H641.322V79H601.653V81Z" fill="#0F38E2"/>
<path d="M580.818 79.9997C580.818 116.274 551.657 145.666 515.703 145.666C479.748 145.666 450.587 116.274 450.587 79.9997C450.587 43.7251 479.748 14.333 515.703 14.333C551.657 14.333 580.818 43.7251 580.818 79.9997Z" stroke="#0F38E2" stroke-width="2"/>
</svg>
